<svg xmlns="http://www.w3.org/2000/svg" width="65.623" height="80" viewBox="0 0 65.623 80">
  <g id="alcalde" transform="translate(-46.007 0)">
    <g id="Grupo_86366" data-name="Grupo 86366" transform="translate(47.568 1.582)">
      <path id="Trazado_151518" data-name="Trazado 151518" d="M235.995,180v6.25H270.37V180Z" transform="translate(-207.87 -153.457)" fill="#ffda73" fill-rule="evenodd"/>
      <path id="Trazado_151519" data-name="Trazado 151519" d="M280.682,220H250.995l2.887,37.813H277.8Zm-14.844,6.25a6.25,6.25,0,0,1,6.25,6.25c-.306,8.282-12.195,8.279-12.5,0A6.25,6.25,0,0,1,265.839,226.25Z" transform="translate(-220.526 -187.207)" fill="#e6a800" fill-rule="evenodd"/>
      <path id="Trazado_151520" data-name="Trazado 151520" d="M318.709,266.251a6.25,6.25,0,0,0-6.25-6.25c-8.282.306-8.279,12.195,0,12.5A6.25,6.25,0,0,0,318.709,266.251Z" transform="translate(-267.147 -220.958)" fill="#fb0" fill-rule="evenodd"/>
      <path id="Trazado_151521" data-name="Trazado 151521" d="M282.008,462h-26.02v6.25h28.125V462Z" transform="translate(-224.739 -391.397)" fill="#ffda73" fill-rule="evenodd"/>
      <path id="Trazado_151522" data-name="Trazado 151522" d="M309.914,26.95a6.7,6.7,0,0,0,6.682-6.682V16.927c-.349-8.848-13.015-8.848-13.363,0v3.341A6.7,6.7,0,0,0,309.914,26.95Z" transform="translate(-264.601 -10.265)" fill="#ffdcd5" fill-rule="evenodd"/>
      <path id="Trazado_151523" data-name="Trazado 151523" d="M66.754,90.974,64.506,52.838l-1.674-4.233a3.149,3.149,0,0,1-1.65.178l-5,30.849c-.368,2.27-.3,2.845,1.306,4.924L62.626,91.2A2.49,2.49,0,0,0,66.754,90.974Z" transform="translate(-55.995 -42.593)" fill="#7ae582" fill-rule="evenodd"/>
      <path id="Trazado_151524" data-name="Trazado 151524" d="M110.463,75.7l2.248,38.136,6.466-10.139c1.466-2.3,1.211-2.888.26-5.294Z" transform="translate(-101.952 -65.453)" fill="#29b39d" fill-rule="evenodd"/>
      <g id="Grupo_86365" data-name="Grupo 86365" transform="translate(2.563)">
        <path id="Trazado_151525" data-name="Trazado 151525" d="M75.523,16.357A3.125,3.125,0,1,0,72.4,13.232,3.129,3.129,0,0,0,75.523,16.357Z" transform="translate(-72.398 -10.127)" fill="#fb0" fill-rule="evenodd"/>
        <path id="Trazado_151526" data-name="Trazado 151526" d="M282.678,104.738a6.67,6.67,0,0,1-4.993-2.253l-1.044.6a12.029,12.029,0,0,0-5.656,11.509h23.386a12.03,12.03,0,0,0-5.656-11.509l-1.044-.6A6.67,6.67,0,0,1,282.678,104.738Z" transform="translate(-239.929 -88.054)" fill="#3ca8f4" fill-rule="evenodd"/>
      </g>
    </g>
    <g id="Grupo_86367" data-name="Grupo 86367" transform="translate(46.007 0)">
      <path id="Trazado_151527" data-name="Trazado 151527" d="M261.932,26.562H258a13.358,13.358,0,0,0-6.016-11.035,8.194,8.194,0,0,0,1.005-3.943V8.244a8.244,8.244,0,1,0-16.488,0v3.341a8.194,8.194,0,0,0,1.005,3.943,13.358,13.358,0,0,0-6.016,11.035h-3.932a1.562,1.562,0,0,0-1.562,1.562v6.25a1.562,1.562,0,0,0,1.562,1.562h.89l2.659,34.688h-.424a1.562,1.562,0,0,0-1.562,1.562v6.25A1.562,1.562,0,0,0,230.682,80h28.125a1.562,1.562,0,0,0,1.563-1.563v-6.25a1.562,1.562,0,0,0-1.562-1.562h-.424l2.659-34.688h.89a1.562,1.562,0,0,0,1.563-1.562v-6.25a1.562,1.562,0,0,0-1.562-1.562ZM239.626,8.244a5.119,5.119,0,0,1,10.238,0v3.341a5.119,5.119,0,0,1-10.238,0Zm-.11,9.709a8.29,8.29,0,0,0,10.459,0,10.214,10.214,0,0,1,4.9,8.609h-20.26A10.214,10.214,0,0,1,239.516,17.954Zm17.729,58.921h-25V73.75h25Zm-12.5-25.313a4.687,4.687,0,1,1,4.688-4.687A4.693,4.693,0,0,1,244.745,51.562Zm10.5,19.062h-2.691V60.2a1.563,1.563,0,0,0-3.125,0V70.625h-3.125V54.53c9.1-2.067,7.857-15.229-1.562-15.468-9.422.24-10.663,13.4-1.562,15.468V70.625h-3.125V60.2a1.562,1.562,0,1,0-3.125,0V70.625h-2.691l-2.659-34.688h6.131a1.562,1.562,0,0,0,0-3.125H229.12V29.687h31.25v3.125h-8.594a1.562,1.562,0,1,0,0,3.125h6.132Z" transform="translate(-197.872 0)"/>
      <path id="Trazado_151528" data-name="Trazado 151528" d="M56.333,8.221a4.687,4.687,0,1,0-5.327.578l-4.8,29.573c-.433,2.672-.289,3.672,1.612,6.13l3.871,5.006V76.875H47.983a1.562,1.562,0,1,0,0,3.125H58.529a1.562,1.562,0,1,0,0-3.125H54.818V52.517A4.12,4.12,0,0,0,59.644,50.8L66.11,40.664c1.81-2.838,1.46-4.016.422-6.643l-10.2-25.8Zm-3.077-5.1a1.563,1.563,0,1,1-1.563,1.562A1.564,1.564,0,0,1,53.256,3.125Zm2.937,46.5a.878.878,0,0,1-.757-.383L50.294,42.59c-1.325-1.713-1.3-1.865-1-3.718L53.89,10.541l.644,1.629,2.2,37.256A.979.979,0,0,1,56.193,49.622Zm7.283-10.638L59.6,45.057l-1.39-23.581,5.414,13.694C64.5,37.379,64.5,37.379,63.476,38.984Z" transform="translate(-46.007 0)"/>
      <path id="Trazado_151529" data-name="Trazado 151529" d="M337.555,210a1.563,1.563,0,1,0,1.563,1.562A1.562,1.562,0,0,0,337.555,210Z" transform="translate(-290.682 -177.188)"/>
    </g>
  </g>
</svg>
