<svg xmlns="http://www.w3.org/2000/svg" width="400" height="250.132" viewBox="0 0 400 250.132">
  <g id="Grupo_90178" data-name="Grupo 90178" transform="translate(-390 -4356)">
    <path id="Trazado_152266" data-name="Trazado 152266" d="M552.151,333.373c-6.181-2.682-13.253-2.527-20.005-3.33s-14.042-3.1-17.352-8.7c-3.037-5.138-1.764-11.739,1.445-16.783s8.076-8.919,12.649-12.924c10.39-9.1,19.829-19.571,25.014-32.006s5.647-27.1-1.28-38.762-22.092-19.216-35.8-15.78c-6.832,1.712-12.679,5.8-19.113,8.556s-14.442,4.034-20.258.249c-5.764-3.752-7.316-10.967-10.616-16.788-5.673-10.007-17.086-16.2-28.806-18.82a70.188,70.188,0,0,0-50.6,8.02c-14.819,8.883-33.645,16.616-33.645,16.616-15.86,5-26.3,12.9-40.194,4.125-18.433-11.641-39.94-19.9-62.134-19.812s-44.988,9.487-57.095,27-11.048,43.168,5,57.609c5.713,5.142,12.89,8.707,18.4,14.044s9.157,13.584,5.6,20.231c-4.965,9.288-18.816,8.782-29.459,11.555-15.439,4.023-27.076,18.471-27.027,33.555s11.779,29.465,27.244,33.4c5.572,1.417,11.561,1.626,16.708,4.085s9.188,8.408,6.649,13.289c-1.06,2.038-3.071,3.516-4.211,5.516-2.729,4.787.6,11.032,5.6,13.749s14.864,5.282,20.634,5.34c81.031.643,159.015-.812,240.426,0,12.079.121,24.494.187,35.776-3.879,15.135-5.454,26.3-17.632,35.753-30.029,7.036-9.229,13.671-19.271,15.164-30.545S563.109,338.128,552.151,333.373Z" transform="translate(223.123 4179.348)" fill="#a6daff"/>
    <g id="Grupo_89461" data-name="Grupo 89461" transform="translate(1440.032 4219.277)">
      <g id="Grupo_89431" data-name="Grupo 89431" transform="translate(-934.942 136.724)">
        <g id="Grupo_89429" data-name="Grupo 89429" transform="translate(0 9.836)">
          <g id="Grupo_89428" data-name="Grupo 89428">
            <path id="Trazado_152225" data-name="Trazado 152225" d="M-845.449,271.342l-34.5-1.277L-777.2,174.238a12.3,12.3,0,0,1,17.385.627l19.1,20.53,36.87-34.252,16.758,18.012-45.876,42.631a12.3,12.3,0,0,1-17.385-.627l-19.1-20.53Z" transform="translate(879.953 -161.143)" fill="#58a65e"/>
          </g>
        </g>
        <g id="Grupo_89430" data-name="Grupo 89430" transform="translate(164.429)">
          <path id="Trazado_152226" data-name="Trazado 152226" d="M-431.122,136.724l-4.911,20.01-4.911,20.01-15.4-16.553-15.4-16.553,20.312-3.457Z" transform="translate(471.746 -136.724)" fill="#58a65e"/>
        </g>
      </g>
      <path id="Trazado_152227" data-name="Trazado 152227" d="M-529.018,487.714h-10.349a3.774,3.774,0,0,0,3.774-3.773h0a3.774,3.774,0,0,0-3.774-3.774h-48.48a3.774,3.774,0,0,0-3.773,3.774h0a3.773,3.773,0,0,0,3.773,3.773h5.457a3.774,3.774,0,0,0-3.774,3.774,3.774,3.774,0,0,0,3.774,3.774H-600.26a3.774,3.774,0,0,0-3.774,3.773,3.774,3.774,0,0,0,3.774,3.774h18.327a3.771,3.771,0,0,0-3.558,3.763h0a3.774,3.774,0,0,0,3.774,3.774H-599.5a3.774,3.774,0,0,0-3.774,3.774,3.774,3.774,0,0,0,3.774,3.774h36.9a3.774,3.774,0,0,0,3.774-3.774,3.774,3.774,0,0,0-3.774-3.774h23.02a3.774,3.774,0,0,0,3.774-3.774h0a3.773,3.773,0,0,0-3.774-3.773h-12.451a3.771,3.771,0,0,1-3.557-3.763,3.773,3.773,0,0,1,3.773-3.773h22.795a3.774,3.774,0,0,0,3.774-3.774A3.774,3.774,0,0,0-529.018,487.714Z" transform="translate(-219.765 -205.102)" fill="#fff"/>
      <path id="Trazado_152228" data-name="Trazado 152228" d="M-782,265.5l-22.49,51.783h44.98Z" transform="translate(-100.057 -76.902)" fill="#1d8070"/>
      <path id="Trazado_152229" data-name="Trazado 152229" d="M-675.673,265.5l-22.49,51.783h44.98Z" transform="translate(-163.552 -76.902)" fill="#1d8070"/>
      <g id="Grupo_89455" data-name="Grupo 89455" transform="translate(-924.91 191.05)">
        <g id="Grupo_89433" data-name="Grupo 89433" transform="translate(0.02 49.328)">
          <path id="Trazado_152230" data-name="Trazado 152230" d="M-775.244,473.807a79.756,79.756,0,0,0,79.756-79.756H-855A79.756,79.756,0,0,0-775.244,473.807Z" transform="translate(855 -394.051)" fill="#7ae582"/>
          <path id="Trazado_152231" data-name="Trazado 152231" d="M-729.125,446.174A52.123,52.123,0,0,0-677,394.051H-781.248A52.123,52.123,0,0,0-729.125,446.174Z" transform="translate(810.956 -394.051)" fill="#d1e175"/>
          <path id="Trazado_152232" data-name="Trazado 152232" d="M-657,473.807a79.756,79.756,0,0,0,79.756-79.756H-657Z" transform="translate(736.756 -394.051)" fill="#29b39d"/>
          <path id="Trazado_152233" data-name="Trazado 152233" d="M-604.877,394.051H-657v52.123A52.123,52.123,0,0,0-604.877,394.051Z" transform="translate(736.756 -394.051)" fill="#a7d046"/>
          <g id="Grupo_89432" data-name="Grupo 89432">
            <path id="Trazado_152234" data-name="Trazado 152234" d="M-696.538,406.986a80.3,80.3,0,0,0,1.05-12.935H-855a80.293,80.293,0,0,0,1.05,12.935Z" transform="translate(855 -394.051)" fill="#1d8070"/>
            <path id="Trazado_152235" data-name="Trazado 152235" d="M-578.294,406.986q.127-.778.238-1.56l.01-.067q.311-2.191.5-4.418c.012-.139.025-.276.037-.415.028-.345.051-.691.075-1.037.019-.292.039-.583.055-.876s.031-.583.045-.875q.026-.567.043-1.138c.007-.228.016-.456.021-.685.015-.62.024-1.241.024-1.864H-657v12.935Z" transform="translate(736.756 -394.051)" fill="#1d8070"/>
            <path id="Trazado_152236" data-name="Trazado 152236" d="M-657,394.051v12.935h50.565a52.2,52.2,0,0,0,1.619-12.935Z" transform="translate(736.756 -394.051)" fill="#1d8070"/>
          </g>
          <path id="Trazado_152237" data-name="Trazado 152237" d="M-731.2,394.051h-50.048a52.221,52.221,0,0,0,1.619,12.935h48.43Z" transform="translate(810.956 -394.051)" fill="#a7d046"/>
        </g>
        <path id="Trazado_152238" data-name="Trazado 152238" d="M-657.549,374.051v8.056h11.077a5.841,5.841,0,0,1,5.841,5.841v42.7h38.065V383.215a9.164,9.164,0,0,0-9.164-9.164Z" transform="translate(737.104 -332.779)" fill="#3ca8f4"/>
        <path id="Trazado_152239" data-name="Trazado 152239" d="M-640.832,374.051h-16.717v8.056h11.077a5.841,5.841,0,0,1,5.841,5.841v42.7h8.963V383.215A9.164,9.164,0,0,0-640.832,374.051Z" transform="translate(737.104 -332.779)" fill="#a6daff"/>
        <path id="Trazado_152240" data-name="Trazado 152240" d="M-583.9,501.135a4.732,4.732,0,0,0-3.845,1.992,3.556,3.556,0,0,0-2.273-.827,3.548,3.548,0,0,0-2.321.864,4.72,4.72,0,0,0-3.873-2.028,4.731,4.731,0,0,0-3.844,1.992,3.556,3.556,0,0,0-2.273-.827,3.549,3.549,0,0,0-2.321.864,4.719,4.719,0,0,0-3.873-2.028,4.732,4.732,0,0,0-3.845,1.992,3.557,3.557,0,0,0-2.273-.827,3.548,3.548,0,0,0-2.321.864,4.72,4.72,0,0,0-3.874-2.028,4.721,4.721,0,0,0-4.716,4.716,4.721,4.721,0,0,0,4.716,4.716,4.72,4.72,0,0,0,3.874-2.028,3.547,3.547,0,0,0,2.321.864,3.554,3.554,0,0,0,2.273-.827,4.732,4.732,0,0,0,3.845,1.992,4.719,4.719,0,0,0,3.873-2.028,3.549,3.549,0,0,0,2.321.864,3.556,3.556,0,0,0,2.273-.827,4.732,4.732,0,0,0,3.844,1.992,4.72,4.72,0,0,0,3.873-2.028,3.548,3.548,0,0,0,2.321.864,3.556,3.556,0,0,0,2.273-.827,4.732,4.732,0,0,0,3.845,1.992,4.721,4.721,0,0,0,4.716-4.716A4.721,4.721,0,0,0-583.9,501.135Z" transform="translate(717.994 -408.673)" fill="#fff"/>
        <path id="Trazado_152241" data-name="Trazado 152241" d="M-833.625,271.591l-21.424,49.328H-812.2Z" transform="translate(855.049 -271.591)" fill="#1d8070"/>
        <path id="Trazado_152242" data-name="Trazado 152242" d="M-727.254,271.591l-21.424,49.328h42.847Z" transform="translate(791.525 -271.591)" fill="#29b39d"/>
        <path id="Trazado_152243" data-name="Trazado 152243" d="M-809.215,306.471l-.863-1.986-13.279,13.391V307.111l10.053-10.053-.862-1.986-9.191,9.191V293.5l5.931-5.931-.862-1.986-5.069,5.069V273.91l-1.007-2.319-1.007,2.319v16.739l-5.069-5.069-.862,1.986,5.931,5.931v10.766l-9.191-9.191-.862,1.986,10.053,10.053v10.765l-13.308-13.326-.862,1.985,14.17,14.188v.2h2.014v-.2Z" transform="translate(845.788 -271.591)" fill="#80ffeb"/>
        <path id="Trazado_152244" data-name="Trazado 152244" d="M-702.84,306.471l-.863-1.986-13.279,13.391V307.111l10.053-10.053-.862-1.986-9.191,9.191V293.5l5.931-5.931-.862-1.986-5.069,5.069V273.91l-1.007-2.319L-719,273.91v16.739l-5.069-5.069-.862,1.986L-719,293.5v10.766l-9.191-9.191-.862,1.986L-719,307.111v10.765L-732.3,304.55l-.862,1.985L-719,320.724v.2h2.014v-.2Z" transform="translate(782.261 -271.591)" fill="#80ffeb"/>
        <g id="Grupo_89434" data-name="Grupo 89434" transform="translate(131.924 53.053)">
          <path id="Trazado_152245" data-name="Trazado 152245" d="M-526.232,403.3h0a1.307,1.307,0,0,0-1.307,1.307v5.731a1.307,1.307,0,0,0,1.307,1.307h0a1.307,1.307,0,0,0,1.307-1.307v-5.731A1.307,1.307,0,0,0-526.232,403.3Z" transform="translate(527.539 -403.299)" fill="#8de1ff"/>
          <path id="Trazado_152246" data-name="Trazado 152246" d="M-524.975,427.67a1.282,1.282,0,0,0-1.282-1.282,1.282,1.282,0,0,0-1.282,1.282,1.282,1.282,0,0,0,1.282,1.282A1.282,1.282,0,0,0-524.975,427.67Z" transform="translate(527.539 -417.088)" fill="#8de1ff"/>
        </g>
        <g id="Grupo_89436" data-name="Grupo 89436" transform="translate(113.015 75.731)">
          <g id="Grupo_89435" data-name="Grupo 89435">
            <path id="Trazado_152247" data-name="Trazado 152247" d="M-573.175,459.6h0a1.307,1.307,0,0,0-1.307,1.307v5.731a1.307,1.307,0,0,0,1.307,1.307h0a1.307,1.307,0,0,0,1.307-1.307v-5.731A1.307,1.307,0,0,0-573.175,459.6Z" transform="translate(574.482 -459.598)" fill="#8de1ff"/>
            <path id="Trazado_152248" data-name="Trazado 152248" d="M-571.918,483.969a1.282,1.282,0,0,0-1.282-1.282,1.282,1.282,0,0,0-1.282,1.282,1.282,1.282,0,0,0,1.282,1.282A1.282,1.282,0,0,0-571.918,483.969Z" transform="translate(574.482 -473.387)" fill="#8de1ff"/>
          </g>
        </g>
        <g id="Grupo_89441" data-name="Grupo 89441" transform="translate(105.435 51.65)">
          <g id="Grupo_89438" data-name="Grupo 89438">
            <g id="Grupo_89437" data-name="Grupo 89437">
              <path id="Trazado_152249" data-name="Trazado 152249" d="M-591.992,399.817h0a1.307,1.307,0,0,0-1.307,1.307v7.139a1.307,1.307,0,0,0,1.307,1.307h0a1.307,1.307,0,0,0,1.307-1.307v-7.139A1.307,1.307,0,0,0-591.992,399.817Z" transform="translate(593.299 -399.817)" fill="#8de1ff"/>
            </g>
          </g>
          <g id="Grupo_89440" data-name="Grupo 89440" transform="translate(0 10.836)">
            <g id="Grupo_89439" data-name="Grupo 89439">
              <path id="Trazado_152250" data-name="Trazado 152250" d="M-591.992,426.719h0a1.307,1.307,0,0,0-1.307,1.307v2.211a1.307,1.307,0,0,0,1.307,1.307h0a1.307,1.307,0,0,0,1.307-1.307v-2.211A1.307,1.307,0,0,0-591.992,426.719Z" transform="translate(593.299 -426.719)" fill="#8de1ff"/>
            </g>
          </g>
        </g>
        <g id="Grupo_89447" data-name="Grupo 89447" transform="translate(99.804 69.809)">
          <g id="Grupo_89446" data-name="Grupo 89446">
            <g id="Grupo_89443" data-name="Grupo 89443">
              <g id="Grupo_89442" data-name="Grupo 89442">
                <path id="Trazado_152251" data-name="Trazado 152251" d="M-605.972,444.9h0a1.307,1.307,0,0,0-1.307,1.307v7.139a1.307,1.307,0,0,0,1.307,1.307h0a1.307,1.307,0,0,0,1.307-1.307V446.2A1.307,1.307,0,0,0-605.972,444.9Z" transform="translate(607.279 -444.897)" fill="#57c9fb"/>
              </g>
            </g>
            <g id="Grupo_89445" data-name="Grupo 89445" transform="translate(0 10.836)">
              <g id="Grupo_89444" data-name="Grupo 89444">
                <path id="Trazado_152252" data-name="Trazado 152252" d="M-605.972,471.8h0a1.307,1.307,0,0,0-1.307,1.307v2.211a1.307,1.307,0,0,0,1.307,1.307h0a1.307,1.307,0,0,0,1.307-1.307v-2.211A1.307,1.307,0,0,0-605.972,471.8Z" transform="translate(607.279 -471.799)" fill="#57c9fb"/>
              </g>
            </g>
          </g>
        </g>
        <g id="Grupo_89454" data-name="Grupo 89454" transform="translate(121.481 48.135)">
          <g id="Grupo_89449" data-name="Grupo 89449" transform="translate(0 21.357)">
            <g id="Grupo_89448" data-name="Grupo 89448">
              <path id="Trazado_152253" data-name="Trazado 152253" d="M-552.157,453.865h0a1.307,1.307,0,0,1-1.307-1.307v-7.139a1.307,1.307,0,0,1,1.307-1.307h0a1.307,1.307,0,0,1,1.307,1.307v7.139A1.307,1.307,0,0,1-552.157,453.865Z" transform="translate(553.464 -444.111)" fill="#8de1ff"/>
            </g>
          </g>
          <g id="Grupo_89451" data-name="Grupo 89451">
            <g id="Grupo_89450" data-name="Grupo 89450">
              <path id="Trazado_152254" data-name="Trazado 152254" d="M-552.157,400.845h0a1.307,1.307,0,0,1-1.307-1.307V392.4a1.307,1.307,0,0,1,1.307-1.307h0a1.307,1.307,0,0,1,1.307,1.307v7.139A1.307,1.307,0,0,1-552.157,400.845Z" transform="translate(553.464 -391.091)" fill="#8de1ff"/>
            </g>
          </g>
          <g id="Grupo_89453" data-name="Grupo 89453" transform="translate(0 15.449)">
            <g id="Grupo_89452" data-name="Grupo 89452">
              <path id="Trazado_152255" data-name="Trazado 152255" d="M-552.157,434.27h0a1.307,1.307,0,0,1-1.307-1.307v-2.211a1.307,1.307,0,0,1,1.307-1.307h0a1.307,1.307,0,0,1,1.307,1.307v2.211A1.307,1.307,0,0,1-552.157,434.27Z" transform="translate(553.464 -429.445)" fill="#8de1ff"/>
            </g>
          </g>
        </g>
      </g>
      <g id="Grupo_89456" data-name="Grupo 89456" transform="translate(-972.032 255.166)">
        <path id="Trazado_152256" data-name="Trazado 152256" d="M-904.282,453.594h-11.165a3.774,3.774,0,0,0,3.774-3.774,3.774,3.774,0,0,0-3.774-3.773H-934.8a3.774,3.774,0,0,1-3.773-3.774,3.771,3.771,0,0,1,3.557-3.763h7.623a3.774,3.774,0,0,0,3.774-3.774h0a3.774,3.774,0,0,0-3.774-3.774h-27.148a3.774,3.774,0,0,0-3.774,3.774h0a3.771,3.771,0,0,0,3.558,3.763h-13.5a3.774,3.774,0,0,0-3.774,3.774,3.774,3.774,0,0,0,3.774,3.774h7.582a3.773,3.773,0,0,0-3.773,3.773,3.774,3.774,0,0,0,3.773,3.774H-927.4a3.774,3.774,0,0,0-3.774,3.774h0a3.774,3.774,0,0,0,3.774,3.774h23.12a3.774,3.774,0,0,0,3.774-3.774h0A3.774,3.774,0,0,0-904.282,453.594Z" transform="translate(972.032 -430.883)" fill="#fff"/>
        <path id="Trazado_152257" data-name="Trazado 152257" d="M-836.6,438.472a3.853,3.853,0,0,0,3.852-3.853,3.853,3.853,0,0,0-3.852-3.853,3.853,3.853,0,0,0-3.853,3.853A3.853,3.853,0,0,0-836.6,438.472Z" transform="translate(893.453 -430.766)" fill="#fff"/>
      </g>
      <g id="Grupo_89457" data-name="Grupo 89457" transform="translate(-911.862 293.929)">
        <path id="Trazado_152258" data-name="Trazado 152258" d="M-710.689,537.343l-23.179,11.637H-770.7a3.947,3.947,0,0,1-4-3.723,3.841,3.841,0,0,1,3.839-3.958h14.1a14.3,14.3,0,0,0,14.3-14.3h-54.231a25.969,25.969,0,0,0-25.969,25.969v66.825h36.5V573.149a6.377,6.377,0,0,1,6.377-6.377h46.265v.124l44.294-23.147h0A15.842,15.842,0,0,0-710.689,537.343Z" transform="translate(822.656 -526.997)" fill="#f4c67d"/>
        <path id="Trazado_152259" data-name="Trazado 152259" d="M-727.8,570.184h11.358a3.947,3.947,0,0,1-4-3.723,3.84,3.84,0,0,1,3.839-3.958h-11.358a3.84,3.84,0,0,0-3.839,3.958A3.947,3.947,0,0,0-727.8,570.184Z" transform="translate(768.4 -548.201)" fill="#f0a96a"/>
        <path id="Trazado_152260" data-name="Trazado 152260" d="M-748.884,678.76V632.118a6.377,6.377,0,0,1,6.377-6.377h-11.358a6.377,6.377,0,0,0-6.377,6.377V678.76Z" transform="translate(785.383 -585.966)" fill="#f0a96a"/>
      </g>
      <g id="Grupo_89458" data-name="Grupo 89458" transform="translate(-745.948 230.03)">
        <path id="Trazado_152261" data-name="Trazado 152261" d="M-365.969,368.364h-30.67a3.774,3.774,0,0,0-3.774,3.774,3.774,3.774,0,0,0,3.774,3.773h-10.349a3.774,3.774,0,0,0-3.774,3.774h0a3.774,3.774,0,0,0,3.774,3.774h8.478a3.773,3.773,0,0,1,3.773,3.774A3.771,3.771,0,0,1-398.293,391h-3.6a3.774,3.774,0,0,0-3.774,3.773,3.774,3.774,0,0,0,3.774,3.774h11.038a3.774,3.774,0,0,0-3.774,3.774h0a3.774,3.774,0,0,0,3.774,3.774h19.092a3.774,3.774,0,0,0,3.774-3.774h0a3.774,3.774,0,0,0-3.774-3.774h-5.8a3.774,3.774,0,0,0,3.774-3.774,3.771,3.771,0,0,0-3.558-3.763h9.471a3.774,3.774,0,0,0,3.774-3.774,3.774,3.774,0,0,0-3.774-3.774h-3.554a3.774,3.774,0,0,0,3.774-3.774h0a3.774,3.774,0,0,0-3.774-3.774h5.457a3.773,3.773,0,0,0,3.774-3.773A3.773,3.773,0,0,0-365.969,368.364Z" transform="translate(410.762 -368.364)" fill="#fff"/>
        <path id="Trazado_152262" data-name="Trazado 152262" d="M-280.034,386.9a3.853,3.853,0,0,0-3.853,3.853,3.853,3.853,0,0,0,3.853,3.853,3.853,3.853,0,0,0,3.853-3.853A3.853,3.853,0,0,0-280.034,386.9Z" transform="translate(334.993 -379.437)" fill="#fff"/>
      </g>
      <g id="Grupo_89460" data-name="Grupo 89460" transform="translate(-951.768 174.224)">
        <g id="Grupo_89459" data-name="Grupo 89459">
          <path id="Trazado_152263" data-name="Trazado 152263" d="M-891.532,249.841l3.459-3.459-3.653-3.652,1.266-4.725-4.99-1.337-1.266-4.725-4.99,1.337-3.458-3.459-3.653,3.652-4.725-1.266-1.337,4.99-4.725,1.266,1.337,4.99-3.458,3.459,3.652,3.652-1.266,4.725,4.99,1.337,1.266,4.725,4.99-1.337,3.459,3.459,3.653-3.653,4.725,1.266,1.337-4.99,4.725-1.266Z" transform="translate(921.724 -229.821)" fill="#fb0"/>
          <path id="Trazado_152267" data-name="Trazado 152267" d="M9.916,0A9.916,9.916,0,1,1,0,9.916,9.916,9.916,0,0,1,9.916,0Z" transform="translate(4.878 24.022) rotate(-76.573)" fill="#ffda73"/>
        </g>
        <path id="Trazado_152264" data-name="Trazado 152264" d="M-866.78,243.121l1.266-4.725-4.99-1.337-1.266-4.725-4.99,1.337-3.194-3.194V263.6l.265.265,3.653-3.653,4.725,1.266,1.337-4.99,4.725-1.266-1.337-4.99,3.459-3.459Z" transform="translate(896.779 -230.213)" fill="#fb0"/>
        <path id="Trazado_152265" data-name="Trazado 152265" d="M-870.037,256.529a9.916,9.916,0,0,0-9.916-9.916v19.832A9.916,9.916,0,0,0-870.037,256.529Z" transform="translate(896.779 -239.849)" fill="#ffda73"/>
      </g>
      <circle id="Elipse_4635" data-name="Elipse 4635" cx="3.532" cy="3.532" r="3.532" transform="translate(-955.007 228.79)" fill="#fff"/>
      <circle id="Elipse_4636" data-name="Elipse 4636" cx="3.532" cy="3.532" r="3.532" transform="translate(-716.542 277)" fill="#fff"/>
    </g>
  </g>
</svg>
