<svg xmlns="http://www.w3.org/2000/svg" width="89.668" height="88.486" viewBox="0 0 89.668 88.486">
  <g id="ambiental" transform="translate(0 -0.313)">
    <path id="Trazado_151294" data-name="Trazado 151294" d="M292.845,386s-9.691,9.691-22.151,9.691a26.459,26.459,0,0,1-19.382-8.306l1.3-1.384,6.728-7.185h.014a26.642,26.642,0,0,1,11.338-2.506C283.154,376.313,292.845,386,292.845,386Zm0,0" transform="translate(-205.135 -308.28)" fill="#7ae582"/>
    <path id="Trazado_151295" data-name="Trazado 151295" d="M51.544,386l1.3,1.384a26.459,26.459,0,0,1-19.382,8.306C21,395.694,11.312,386,11.312,386s9.691-9.691,22.151-9.691A26.645,26.645,0,0,1,44.8,378.818h.014Zm0,0" transform="translate(-9.355 -308.28)" fill="#7ae582"/>
    <path id="Trazado_151296" data-name="Trazado 151296" d="M55.532,84.29l-1.343,1.434L52.845,84.29,45.9,76.85h-.014L17.4,46.372a22.366,22.366,0,0,1-4.516-7.153A22.621,22.621,0,0,1,33.851,8.312h.729a22.541,22.541,0,0,1,10.076,2.38l9.533,4.788,9.533-4.788A22.54,22.54,0,0,1,73.8,8.312h.729A22.579,22.579,0,0,1,97.065,30.919a22.625,22.625,0,0,1-6.089,15.453L62.493,76.85h-.015Zm0,0" transform="translate(-9.355 -6.616)" fill="#fb0"/>
    <g id="Grupo_89062" data-name="Grupo 89062" transform="translate(25.452 17.862)">
      <path id="Trazado_151297" data-name="Trazado 151297" d="M171.131,208.313,187.91,218a19.372,19.372,0,0,1-33.559,0Zm0,0" transform="translate(-151.749 -188.931)" fill="#3ca8f4"/>
      <path id="Trazado_151298" data-name="Trazado 151298" d="M270.694,115.694a19.185,19.185,0,0,1-2.6,9.691l-16.779-9.691V96.312A19.385,19.385,0,0,1,270.694,115.694Zm0,0" transform="translate(-231.931 -96.312)" fill="#3ca8f4"/>
      <path id="Trazado_151299" data-name="Trazado 151299" d="M158.694,96.312v19.382l-16.779,9.691a19.185,19.185,0,0,1-2.6-9.691A19.385,19.385,0,0,1,158.694,96.312Zm0,0" transform="translate(-139.312 -96.312)" fill="#3ca8f4"/>
    </g>
    <path id="Trazado_151300" data-name="Trazado 151300" d="M88.659,76.372c-.425-.425-10.56-10.408-23.844-10.408a29.147,29.147,0,0,0-6.715.782L82.606,40.606A23.929,23.929,0,0,0,65.149.312h-.732a24.045,24.045,0,0,0-10.7,2.526L44.834,7.28,35.951,2.839A24.048,24.048,0,0,0,25.25.312h-.732A23.929,23.929,0,0,0,7.062,40.606l24.506,26.14a29.076,29.076,0,0,0-6.715-.783c-13.284,0-23.419,9.983-23.844,10.408L0,77.381,1.009,78.39c.425.425,10.56,10.408,23.844,10.408a28.843,28.843,0,0,0,19.967-7.916l.013.013.013-.013A28.845,28.845,0,0,0,64.815,88.8c13.284,0,23.419-9.983,23.844-10.408l1.009-1.009ZM3.445,24.241A21.1,21.1,0,0,1,24.519,3.167h.732a21.187,21.187,0,0,1,9.425,2.225l10.158,5.08,10.159-5.08a21.176,21.176,0,0,1,9.425-2.225h.732A21.074,21.074,0,0,1,80.524,38.654L44.834,76.722,9.144,38.652A21,21,0,0,1,3.445,24.241Zm.7,53.139c2.876-2.462,10.987-8.562,20.708-8.562a26.007,26.007,0,0,1,10.869,2.359L40.2,75.954H33.847l-8.2-5.469L24.061,72.86,28.7,75.954H21.046l-5.326-4-1.713,2.284,2.284,1.713H10.581v2.854H22.835l-3.273,3.273L21.581,84.1l5.291-5.291H42.846a26.321,26.321,0,0,1-17.993,7.136C15.158,85.944,7.029,79.84,4.146,77.38Zm60.669,8.565a26.323,26.323,0,0,1-17.993-7.136H62.8L68.087,84.1l2.018-2.018-3.273-3.273H79.087V75.954h-5.71l2.284-1.713-1.712-2.284-5.328,4H60.964L65.6,72.86l-1.583-2.375-8.2,5.469H49.465l4.481-4.78a26.042,26.042,0,0,1,10.868-2.356c9.695,0,17.824,6.1,20.707,8.565C82.646,79.844,74.535,85.944,64.815,85.944Zm0,0" transform="translate(0 0)"/>
    <path id="Trazado_151301" data-name="Trazado 151301" d="M172.845,109.079a20.766,20.766,0,1,0-20.766,20.766A20.79,20.79,0,0,0,172.845,109.079Zm-2.769,0a17.877,17.877,0,0,1-1.785,7.762l-14.828-8.563V91.152A18.009,18.009,0,0,1,170.076,109.079ZM150.694,91.152V108.28l-14.828,8.561a17.938,17.938,0,0,1,14.828-25.689Zm-13.453,28.093,14.837-8.567,14.837,8.567a17.969,17.969,0,0,1-29.674,0Zm0,0" transform="translate(-107.245 -71.86)"/>
    <path id="Trazado_151302" data-name="Trazado 151302" d="M378.541,50.31h2.769a18.018,18.018,0,0,0-18-18v2.769A15.247,15.247,0,0,1,378.541,50.31Zm0,0" transform="translate(-297.753 -26.462)"/>
  </g>
</svg>
