<svg xmlns="http://www.w3.org/2000/svg" width="329" height="250" viewBox="0 0 329 250">
  <g id="Grupo_90180" data-name="Grupo 90180" transform="translate(-460.668 -1195)">
    <path id="Trazado_155628" data-name="Trazado 155628" d="M20,0H309a20,20,0,0,1,20,20V230a20,20,0,0,1-20,20H20A20,20,0,0,1,0,230V20A20,20,0,0,1,20,0Z" transform="translate(460.668 1195)" fill="#29b39d"/>
    <path id="Trazado_155630" data-name="Trazado 155630" d="M120.816,22.844a6.1,6.1,0,0,1-2.684,1.764,11.238,11.238,0,0,1-3.844.627,7.614,7.614,0,0,1-3.885-.967,6.448,6.448,0,0,1-2.578-2.807,9.878,9.878,0,0,1-.932-4.324v-1.16a10.491,10.491,0,0,1,.861-4.424,6.372,6.372,0,0,1,2.484-2.859,8.18,8.18,0,0,1,8.549.457,6.185,6.185,0,0,1,2.027,4.213h-3.422a3.4,3.4,0,0,0-1.037-2.145,3.312,3.312,0,0,0-2.209-.68,3.117,3.117,0,0,0-2.73,1.348,7.086,7.086,0,0,0-.949,4.008v1.09a6.746,6.746,0,0,0,1.02,4.055,3.491,3.491,0,0,0,2.988,1.371,3.9,3.9,0,0,0,2.824-.844V18.625h-3.2v-2.59h6.715Zm15.691-12.059h-5.227V25h-3.516V10.785h-5.156V7.938h13.9Zm15.4,8.531a6.038,6.038,0,0,1-2.033,4.336,7.141,7.141,0,0,1-4.834,1.582,6.421,6.421,0,0,1-5.162-2.209A9.058,9.058,0,0,1,138,16.961V15.918a10.228,10.228,0,0,1,.867-4.336,6.5,6.5,0,0,1,2.479-2.877,7.746,7.746,0,0,1,8.5.58,6.488,6.488,0,0,1,2.086,4.441h-3.516a3.563,3.563,0,0,0-.92-2.4,3.407,3.407,0,0,0-2.408-.744,2.987,2.987,0,0,0-2.631,1.26,7.06,7.06,0,0,0-.9,3.908v1.289a7.556,7.556,0,0,0,.838,4.043,2.932,2.932,0,0,0,2.643,1.277,3.471,3.471,0,0,0,2.432-.744,3.361,3.361,0,0,0,.92-2.3ZM167.75,18.18a4.276,4.276,0,0,1-3.094,1.3,4.574,4.574,0,0,1-3.621-1.553,6.136,6.136,0,0,1-1.359-4.189,6.536,6.536,0,0,1,.732-3.076,5.373,5.373,0,0,1,2.045-2.18,5.674,5.674,0,0,1,2.953-.779,5.426,5.426,0,0,1,3,.844,5.547,5.547,0,0,1,2.039,2.426,8.71,8.71,0,0,1,.738,3.621v1.254a9.869,9.869,0,0,1-2.121,6.7,8.019,8.019,0,0,1-6.012,2.6l-.832.012V22.34l.75-.012Q167.387,22.129,167.75,18.18Zm-2.262-1.289a2.369,2.369,0,0,0,1.412-.422,2.819,2.819,0,0,0,.9-1.02V14.055a4.657,4.657,0,0,0-.656-2.672,2.037,2.037,0,0,0-1.758-.949,1.977,1.977,0,0,0-1.676.932,3.961,3.961,0,0,0-.656,2.338,3.855,3.855,0,0,0,.639,2.291A2.08,2.08,0,0,0,165.488,16.891Zm11.555-1.922h1.8a2.543,2.543,0,0,0,1.91-.645,2.362,2.362,0,0,0,.621-1.711,2.088,2.088,0,0,0-.615-1.605,2.384,2.384,0,0,0-1.693-.574,2.5,2.5,0,0,0-1.629.533,1.7,1.7,0,0,0-.656,1.389H173.4a4.165,4.165,0,0,1,.721-2.4A4.8,4.8,0,0,1,176.135,8.3a6.727,6.727,0,0,1,2.854-.6A6.38,6.38,0,0,1,183.23,9a4.418,4.418,0,0,1,1.535,3.568,3.59,3.59,0,0,1-.715,2.156,4.644,4.644,0,0,1-1.875,1.512,4.239,4.239,0,0,1,2.15,1.547,4.2,4.2,0,0,1,.709,2.438,4.491,4.491,0,0,1-1.658,3.645,6.667,6.667,0,0,1-4.389,1.371,6.322,6.322,0,0,1-4.178-1.348,4.4,4.4,0,0,1-1.623-3.562h3.387a1.962,1.962,0,0,0,.721,1.57,3.006,3.006,0,0,0,3.668-.029,2.2,2.2,0,0,0,.686-1.693q0-2.555-2.812-2.555h-1.793Z" transform="translate(479.668 1378)" fill="#12263f"/>
    <path id="Trazado_155629" data-name="Trazado 155629" d="M60,0A60,60,0,1,1,0,60,60,60,0,0,1,60,0Z" transform="translate(565.668 1234)" fill="#fff"/>
    <g id="pantalla" transform="translate(584.503 1252.674)">
      <path id="Trazado_143818" data-name="Trazado 143818" d="M24.166,2.148h51.2V77.622h-51.2Zm0,0" transform="translate(-6.299 -0.56)" fill="#fb0" fill-rule="evenodd"/>
      <path id="Trazado_143819" data-name="Trazado 143819" d="M13.157,12.156H21.3V72.832h-8.14Zm0,0" transform="translate(-3.429 -3.168)" fill="#ffda73" fill-rule="evenodd"/>
      <path id="Trazado_143820" data-name="Trazado 143820" d="M2.148,22.965h8.139V67.657H2.148Zm0,0" transform="translate(-0.56 -5.986)" fill="#ffda73" fill-rule="evenodd"/>
      <path id="Trazado_143821" data-name="Trazado 143821" d="M65.357,61.734,88.539,84.916Zm-13.091-31.6A18.512,18.512,0,1,1,33.755,48.644,18.512,18.512,0,0,1,52.267,30.132Zm0,0" transform="translate(-8.798 -7.854)" fill="#29b39d" fill-rule="evenodd"/>
      <path id="Trazado_143822" data-name="Trazado 143822" d="M80.864,75.939l-10.2-10.2V1.588A1.588,1.588,0,0,0,69.071,0h-51.2a1.588,1.588,0,0,0-1.588,1.588V7.4H9.727A1.589,1.589,0,0,0,8.139,8.988v6.4H1.588A1.589,1.589,0,0,0,0,16.979V61.671A1.588,1.588,0,0,0,1.588,63.26H8.139v6.4a1.589,1.589,0,0,0,1.588,1.588h6.551v5.81a1.588,1.588,0,0,0,1.588,1.588h51.2a1.588,1.588,0,0,0,1.588-1.588V70.227l7.958,7.958a1.589,1.589,0,0,0,2.246-2.247ZM3.177,60.083V18.568H8.139V60.083Zm8.139,7.992v-57.5h4.963v57.5Zm56.166,7.4H19.456V3.177H67.482V62.558L58.755,53.83A20.1,20.1,0,0,0,34.9,22.606a1.589,1.589,0,0,0,1.357,2.873,16.772,16.772,0,0,1,7.216-1.612A16.924,16.924,0,1,1,26.545,40.791a16.768,16.768,0,0,1,1.612-7.216,1.588,1.588,0,0,0-2.872-1.357,19.917,19.917,0,0,0-1.917,8.573A20.091,20.091,0,0,0,56.509,56.076L67.483,67.05v8.424Zm0,0" fill-rule="evenodd"/>
      <path id="Trazado_143823" data-name="Trazado 143823" d="M70.705,61.495a1.588,1.588,0,0,0,1.588-1.588V51.024a1.588,1.588,0,1,0-3.177,0v8.882A1.589,1.589,0,0,0,70.705,61.495Zm0,0" transform="translate(-18.015 -12.885)" fill-rule="evenodd"/>
      <path id="Trazado_143824" data-name="Trazado 143824" d="M54.076,60.873a1.589,1.589,0,0,0,1.588-1.588V48.64a1.588,1.588,0,0,0-3.177,0V59.285A1.588,1.588,0,0,0,54.076,60.873Zm0,0" transform="translate(-13.68 -12.264)" fill-rule="evenodd"/>
      <path id="Trazado_143825" data-name="Trazado 143825" d="M45.761,62.546a1.589,1.589,0,0,0,1.588-1.588v-5.9a1.588,1.588,0,1,0-3.177,0v5.9A1.588,1.588,0,0,0,45.761,62.546Zm0,0" transform="translate(-11.513 -13.937)" fill-rule="evenodd"/>
      <path id="Trazado_143826" data-name="Trazado 143826" d="M62.391,59.2a1.589,1.589,0,0,0,1.588-1.588V42.221a1.588,1.588,0,0,0-3.177,0V57.612A1.588,1.588,0,0,0,62.391,59.2Zm0,0" transform="translate(-15.848 -10.59)" fill-rule="evenodd"/>
      <path id="Trazado_143827" data-name="Trazado 143827" d="M40.528,38.494a1.589,1.589,0,1,0-1.588-1.588A1.592,1.592,0,0,0,40.528,38.494Zm0,0" transform="translate(-10.149 -9.205)" fill-rule="evenodd"/>
    </g>
  </g>
</svg>
