<svg xmlns="http://www.w3.org/2000/svg" width="173.451" height="219.037" viewBox="0 0 173.451 219.037">
  <g id="Grupo_90181" data-name="Grupo 90181" transform="translate(-500.926 -752.388)">
    <path id="Trazado_148719" data-name="Trazado 148719" d="M6.529,0A6.529,6.529,0,1,1,0,6.529,6.529,6.529,0,0,1,6.529,0Z" transform="translate(580.756 958.367)" fill="#29b39d"/>
    <g id="Grupo_90179" data-name="Grupo 90179">
      <g id="Grupo_86288" data-name="Grupo 86288" transform="translate(500.926 752.388)">
        <path id="Trazado_148718" data-name="Trazado 148718" d="M61.324,0A61.324,61.324,0,1,1,0,61.324,61.324,61.324,0,0,1,61.324,0Z" transform="translate(0 86.725) rotate(-45)" fill="#29b39d"/>
        <g id="Grupo_86271" data-name="Grupo 86271" transform="translate(7.747 7.747)">
          <path id="Trazado_148703" data-name="Trazado 148703" d="M1003.664,831.9h0a1.187,1.187,0,0,1-1.028-.594l-12.1-20.953a78.991,78.991,0,0,1-65.852-77.888h2.374A76.215,76.215,0,0,0,991.473,808.1a1.188,1.188,0,0,1,.841.579l11.35,19.66,11.353-19.66a1.186,1.186,0,0,1,.841-.579,76.608,76.608,0,0,0-12.194-152.239v-2.374a78.983,78.983,0,0,1,13.128,156.866l-12.1,20.953A1.187,1.187,0,0,1,1003.664,831.9Z" transform="translate(-924.687 -653.484)" fill="#3ca8f4"/>
        </g>
        <g id="Grupo_86272" data-name="Grupo 86272" transform="translate(4.483 4.483)">
          <path id="Trazado_148704" data-name="Trazado 148704" d="M924.2,726.341h-8.9A82.243,82.243,0,0,1,997.544,644.1V653A73.422,73.422,0,0,0,924.2,726.341Z" transform="translate(-915.302 -644.099)" fill="#29b39d"/>
        </g>
      </g>
      <g id="reciclar" transform="translate(548 782.912)">
        <g id="Grupo_86298" data-name="Grupo 86298" transform="translate(1.562 18.549)">
          <path id="Trazado_148736" data-name="Trazado 148736" d="M222.317,49.714,238.184,55.3l3.095-16.535-3.16,1.824-5.974-10.347c-1.3-2.253-2.447-3.257-5.426-3.257h-13.31l6.655,11.526,5.413,9.376Z" transform="translate(-181.626 -26.987)" fill="#80ffeb" fill-rule="evenodd"/>
          <path id="Trazado_148737" data-name="Trazado 148737" d="M134.265,52.629l8.15-14.116L135.76,26.986c-2.979,0-4.125,1-5.426,3.257L121.624,45.33a1.83,1.83,0,0,0,.668,2.492l9.481,5.474A1.83,1.83,0,0,0,134.265,52.629Z" transform="translate(-103.977 -26.986)" fill="#1d8070" fill-rule="evenodd"/>
          <path id="Trazado_148738" data-name="Trazado 148738" d="M357.628,231.073a1.83,1.83,0,0,0-.668,2.492l8.15,14.116h13.31c1.49-2.58,1.193-4.075-.108-6.327L369.6,226.266a1.83,1.83,0,0,0-2.492-.668Z" transform="translate(-302.542 -194.36)" fill="#1d8070" fill-rule="evenodd"/>
          <path id="Trazado_148739" data-name="Trazado 148739" d="M283,348.534H272.174v-3.649L259.4,355.833l12.772,10.948v-3.649h11.947c2.6,0,4.044-.49,5.534-3.07l6.655-11.527Z" transform="translate(-220.433 -295.213)" fill="#80ffeb" fill-rule="evenodd"/>
          <path id="Trazado_148740" data-name="Trazado 148740" d="M83.757,381.013V370.066a1.83,1.83,0,0,0-1.825-1.825h-16.3l-6.655,11.527c1.49,2.58,2.932,3.07,5.534,3.07H81.933A1.83,1.83,0,0,0,83.757,381.013Z" transform="translate(-51.325 -314.92)" fill="#1d8070" fill-rule="evenodd"/>
          <path id="Trazado_148741" data-name="Trazado 148741" d="M24.307,238.175l5.413-9.376,3.16,1.825-3.095-16.535-15.867,5.587,3.16,1.825-5.974,10.347c-1.3,2.253-1.6,3.748-.108,6.327L17.652,249.7Z" transform="translate(-10 -184.854)" fill="#80ffeb" fill-rule="evenodd"/>
        </g>
        <g id="Grupo_86299" data-name="Grupo 86299" transform="translate(0 16.987)">
          <path id="Trazado_148742" data-name="Trazado 148742" d="M113.066,40.739l9.481,5.474a3.358,3.358,0,0,0,1.684.454,3.422,3.422,0,0,0,.885-.117,3.364,3.364,0,0,0,2.057-1.576l6.8-11.773,3.279,5.679-1.807,1.043a1.562,1.562,0,0,0,.262,2.827l15.867,5.587a1.562,1.562,0,0,0,2.055-1.186l3.095-16.535a1.563,1.563,0,0,0-2.317-1.641L152.6,30.019,147.4,21.025c-1.477-2.558-3.059-4.038-6.779-4.038h-13.31c-3.72,0-5.3,1.481-6.779,4.039l-.589,1.02a1.562,1.562,0,1,0,2.706,1.562l.589-1.02c.935-1.62,1.587-2.282,3.193-2.438l5.731,9.926-7.7,13.335a.268.268,0,0,1-.358.1l-9.481-5.474a.268.268,0,0,1-.1-.358l1.089-1.887a1.562,1.562,0,0,0-2.706-1.562l-1.089,1.887a3.392,3.392,0,0,0,1.24,4.626Zm27.559-20.628c2.279,0,2.983.588,4.073,2.476l5.974,10.347a1.563,1.563,0,0,0,2.134.572l.218-.126-2.134,11.4-10.943-3.854.218-.126a1.563,1.563,0,0,0,.572-2.134L130.022,20.112Z" transform="translate(-93.97 -16.987)"/>
          <path id="Trazado_148743" data-name="Trazado 148743" d="M32.17,228.174H18.576l3.279-5.679,1.807,1.043a1.563,1.563,0,0,0,2.317-1.641l-3.095-16.535a1.562,1.562,0,0,0-2.055-1.186L4.962,209.764a1.562,1.562,0,0,0-.262,2.827l1.807,1.043-5.192,8.994c-1.477,2.558-1.968,4.669-.108,7.89l6.655,11.527c1.86,3.221,3.934,3.852,6.887,3.852H32.17a3.391,3.391,0,0,0,3.387-3.387V231.561a3.391,3.391,0,0,0-3.387-3.387ZM4.021,224.19l5.973-10.347a1.562,1.562,0,0,0-.572-2.134l-.218-.126,10.944-3.854,2.134,11.4-.218-.126a1.562,1.562,0,0,0-2.134.572L9.215,238.138l-5.3-9.183c-1.139-1.973-.982-2.877.108-4.765Zm28.411,18.319a.269.269,0,0,1-.262.262H14.749c-1.871,0-2.77-.233-3.707-1.546l5.731-9.926h15.4a.269.269,0,0,1,.262.262Z" transform="translate(0 -174.853)"/>
          <path id="Trazado_148744" data-name="Trazado 148744" d="M289.116,232.132l-8.711-15.087a3.391,3.391,0,0,0-4.627-1.24l-9.481,5.474a3.391,3.391,0,0,0-1.24,4.627l6.8,11.773H265.3v-2.087a1.563,1.563,0,0,0-2.579-1.186l-12.772,10.947a1.563,1.563,0,0,0,0,2.373l12.772,10.948a1.563,1.563,0,0,0,2.579-1.186V255.4h10.385c2.953,0,5.027-.63,6.887-3.851l6.655-11.527h0C291.084,236.8,290.593,234.69,289.116,232.132Zm-21.352-7.789a.269.269,0,0,1,.1-.358l9.481-5.474a.269.269,0,0,1,.358.1l8.711,15.087c.935,1.62,1.181,2.516.513,3.984h-11.46Zm12.1,25.643c-1.139,1.973-2,2.289-4.181,2.289H263.735a1.563,1.563,0,0,0-1.562,1.562v.252l-8.809-7.551,8.809-7.55v.252a1.563,1.563,0,0,0,1.562,1.563h21.43Z" transform="translate(-210.431 -184.358)"/>
          <path id="Trazado_148745" data-name="Trazado 148745" d="M143.976,86.467a1.562,1.562,0,0,0,0-3.125h0a1.562,1.562,0,0,0,0,3.125Z" transform="translate(-120.161 -72.974)"/>
        </g>
      </g>
    </g>
  </g>
</svg>
