<svg id="estadisticas" xmlns="http://www.w3.org/2000/svg" width="90" height="84.398" viewBox="0 0 90 84.398">
  <path id="Trazado_151172" data-name="Trazado 151172" d="M150.559,12.332v58.9a4.714,4.714,0,0,1-4.715,4.715H79.813A4.714,4.714,0,0,1,75.1,71.228v-58.9a4.714,4.714,0,0,1,4.715-4.715h66.031A4.714,4.714,0,0,1,150.559,12.332Zm0,0" transform="translate(-61.897 -6.278)" fill="#f6f6f6"/>
  <path id="Trazado_151173" data-name="Trazado 151173" d="M150.559,12.332v5.633H75.1V12.332a4.714,4.714,0,0,1,4.715-4.715h66.031A4.714,4.714,0,0,1,150.559,12.332Zm0,0" transform="translate(-61.897 -6.278)" fill="#3ca8f4"/>
  <path id="Trazado_151174" data-name="Trazado 151174" d="M210.778,129.491a21.407,21.407,0,1,1-21.408-21.405v21.405l16.9-13.14A21.312,21.312,0,0,1,210.778,129.491Zm0,0" transform="translate(-138.44 -89.086)" fill="#3ca8f4"/>
  <path id="Trazado_151175" data-name="Trazado 151175" d="M311.152,168.246a21.379,21.379,0,0,1-8.866,17.349l-12.54-17.349,16.9-13.14A21.312,21.312,0,0,1,311.152,168.246Zm0,0" transform="translate(-238.814 -127.841)" fill="#7ae582"/>
  <path id="Trazado_151176" data-name="Trazado 151176" d="M333.606,60l-16.9,13.1V51.762A21.4,21.4,0,0,1,333.606,60Zm0,0" transform="translate(-261.036 -42.663)" fill="#fb0"/>
  <g id="Grupo_89004" data-name="Grupo 89004" transform="translate(1.338 33.983)">
    <path id="Trazado_151177" data-name="Trazado 151177" d="M7.609,245.082h6.168v39.979H7.609Zm0,0" transform="translate(-7.609 -235.985)" fill="#3ca8f4"/>
    <path id="Trazado_151178" data-name="Trazado 151178" d="M75.1,193.328h6.168V242.4H75.1Zm0,0" transform="translate(-63.234 -193.328)" fill="#1d8070"/>
    <path id="Trazado_151179" data-name="Trazado 151179" d="M145.121,340.984h6.169v23.121h-6.169Zm0,0" transform="translate(-120.949 -315.029)" fill="#7ae582"/>
    <path id="Trazado_151180" data-name="Trazado 151180" d="M214.633,280.094H220.8v33.825h-6.169Zm0,0" transform="translate(-178.242 -264.842)" fill="#fb0"/>
  </g>
  <path id="Trazado_151181" data-name="Trazado 151181" d="M105.592,32.374a1.337,1.337,0,1,0-.559,1.666A1.349,1.349,0,0,0,105.592,32.374Zm0,0" transform="translate(-84.913 -26.017)"/>
  <path id="Trazado_151182" data-name="Trazado 151182" d="M157.348,32.378a1.337,1.337,0,1,0-.55,1.661A1.349,1.349,0,0,0,157.348,32.378Zm0,0" transform="translate(-127.57 -26.021)"/>
  <path id="Trazado_151183" data-name="Trazado 151183" d="M131.464,32.294a1.337,1.337,0,1,0-.5,1.632A1.351,1.351,0,0,0,131.464,32.294Zm0,0" transform="translate(-106.236 -25.937)"/>
  <path id="Trazado_151184" data-name="Trazado 151184" d="M139.569,0H73.537a6.06,6.06,0,0,0-6.053,6.053v23.47a1.338,1.338,0,0,0,2.676,0v-16.5h39.8V30.431a1.338,1.338,0,0,0,2.157,1.057l16.9-13.1a1.338,1.338,0,0,0,.235-1.881,22.981,22.981,0,0,0-3.375-3.488h17.074V64.949a3.381,3.381,0,0,1-3.377,3.377H100.857v-5.9a22.763,22.763,0,0,0,28.036-26.316,1.338,1.338,0,1,0-2.628.5,20.247,20.247,0,0,1,.357,3.79,20.034,20.034,0,0,1-7.26,15.437L108.395,40.668l14.788-11.5a20,20,0,0,1,1.948,3.631,1.338,1.338,0,1,0,2.476-1.016,22.751,22.751,0,0,0-3.1-5.341,1.337,1.337,0,0,0-1.877-.234L107.891,37.67V19a1.338,1.338,0,0,0-1.338-1.338A22.745,22.745,0,0,0,92.013,57.9V68.326H88.639V59.939A1.338,1.338,0,0,0,87.3,58.6H81.132a1.338,1.338,0,0,0-1.338,1.338v8.387H76.329V33.983a1.338,1.338,0,0,0-1.338-1.338H68.823a1.338,1.338,0,0,0-1.338,1.338V83.06A1.337,1.337,0,0,0,68.823,84.4h6.169a1.337,1.337,0,0,0,1.338-1.338V71h3.465V83.06A1.338,1.338,0,0,0,81.132,84.4H87.3a1.338,1.338,0,0,0,1.338-1.338V71h3.374V83.06A1.338,1.338,0,0,0,93.351,84.4h6.168a1.338,1.338,0,0,0,1.338-1.338V71h38.712a6.06,6.06,0,0,0,6.053-6.053V6.053A6.06,6.06,0,0,0,139.569,0ZM70.161,81.722v-46.4h3.492v46.4Zm12.309,0V61.277h3.493V81.722ZM86.485,40.4a20.1,20.1,0,0,1,18.73-20.024V40.4a1.333,1.333,0,0,0,.257.782l0,0,11.725,16.223a20.067,20.067,0,0,1-16.337,2.239V49.236A1.338,1.338,0,0,0,99.519,47.9H93.351a1.338,1.338,0,0,0-1.338,1.338v5A19.938,19.938,0,0,1,86.485,40.4Zm8.2,41.317V50.573h3.493V81.722ZM112.631,27.7V10.48a19.946,19.946,0,0,1,13.645,6.647Zm9.244-17.354A22.744,22.744,0,0,0,111.293,7.76,1.338,1.338,0,0,0,109.955,9.1v1.248H70.16V6.053a3.381,3.381,0,0,1,3.377-3.377h66.032a3.381,3.381,0,0,1,3.377,3.377v4.294Zm0,0" transform="translate(-55.622)"/>
  <path id="Trazado_151185" data-name="Trazado 151185" d="M7.506,237.469H1.338A1.338,1.338,0,0,0,0,238.807v39.979a1.338,1.338,0,0,0,1.338,1.338H7.506a1.338,1.338,0,0,0,1.338-1.338V267.974a1.338,1.338,0,0,0-2.677,0v9.474H2.676v-37.3H6.168v23.369a1.338,1.338,0,1,0,2.677,0V238.807A1.339,1.339,0,0,0,7.506,237.469Zm0,0" transform="translate(0 -195.726)"/>
  <path id="Trazado_151186" data-name="Trazado 151186" d="M405.294,351.887H391.112a1.338,1.338,0,0,0,0,2.677h14.182a1.338,1.338,0,0,0,0-2.677Zm0,0" transform="translate(-321.259 -290.032)"/>
  <path id="Trazado_151187" data-name="Trazado 151187" d="M425.371,319.672h-9.9a1.338,1.338,0,0,0,0,2.676h9.9a1.338,1.338,0,0,0,0-2.676Zm0,0" transform="translate(-341.336 -263.479)"/>
</svg>
