<svg xmlns="http://www.w3.org/2000/svg" width="161.219" height="214.632" viewBox="0 0 161.219 214.632">
  <g id="Grupo_90180" data-name="Grupo 90180" transform="translate(-289.485 -756.793)">
    <path id="Trazado_148720" data-name="Trazado 148720" d="M6.529,0A6.529,6.529,0,1,1,0,6.529,6.529,6.529,0,0,1,6.529,0Z" transform="translate(365.307 958.367)" fill="#7ae582"/>
    <g id="Grupo_90178" data-name="Grupo 90178">
      <g id="Grupo_86256" data-name="Grupo 86256" transform="translate(285 752.793)">
        <circle id="Elipse_4551" data-name="Elipse 4551" cx="61.324" cy="61.324" r="61.324" transform="translate(25.402 24.917)" fill="#7ae582"/>
        <g id="Grupo_86246" data-name="Grupo 86246" transform="translate(4.485 4)">
          <path id="Trazado_148688" data-name="Trazado 148688" d="M303.394,726.118h-8.9a82.241,82.241,0,0,1,82.242-82.242v8.9A73.422,73.422,0,0,0,303.394,726.118Z" transform="translate(-294.491 -643.876)" fill="#7ae582"/>
        </g>
        <g id="Grupo_86247" data-name="Grupo 86247" transform="translate(7.749 7.264)">
          <path id="Trazado_148689" data-name="Trazado 148689" d="M382.853,831.752a1.187,1.187,0,0,1-1.028-.594l-12.147-21.037a78.994,78.994,0,0,1-65.8-77.882h2.374a76.226,76.226,0,0,0,64.363,75.629,1.185,1.185,0,0,1,.84.578l11.4,19.744,11.4-19.744a1.185,1.185,0,0,1,.84-.578,76.609,76.609,0,0,0-12.24-152.233v-2.374a78.984,78.984,0,0,1,13.175,156.859l-12.147,21.037A1.188,1.188,0,0,1,382.853,831.752Z" transform="translate(-303.876 -653.262)" fill="#3ca8f4"/>
        </g>
      </g>
      <g id="respetuoso-del-medio-ambiente" transform="translate(281.346 799.156)">
        <g id="Grupo_86296" data-name="Grupo 86296" transform="translate(61.372 1.081)">
          <path id="Trazado_148726" data-name="Trazado 148726" d="M122.976,41.586a6.323,6.323,0,0,0-8.6,2.463A27.482,27.482,0,0,0,112,49.743V20.019a5.54,5.54,0,1,0-11.08,0V13.044a5.541,5.541,0,1,0-11.081,0V32.355L78.762,32.9a5.541,5.541,0,0,0-11.081,0v26.46c0,11.916,7.644,25.763,21.172,25.763h16.5c18.332,0,18.454-25.383,18.454-25.383,0-.076,0-6.631,1.629-9.559a6.324,6.324,0,0,0-2.463-8.6Z" transform="translate(-67.681 -7.396)" fill="#f2d2a9"/>
          <g id="Grupo_86291" data-name="Grupo 86291" transform="translate(0 19.968)">
            <path id="Trazado_148727" data-name="Trazado 148727" d="M70.77,164.873v-26.46a5.542,5.542,0,0,1,4-5.32,5.54,5.54,0,0,0-7.085,5.32v26.46c0,11.916,7.644,25.763,21.172,25.763h3.089c-13.529,0-21.172-13.847-21.172-25.763Z" transform="translate(-67.681 -132.873)" fill="#e0be97"/>
          </g>
          <g id="Grupo_86292" data-name="Grupo 86292" transform="translate(33.244 6.975)">
            <path id="Trazado_148728" data-name="Trazado 148728" d="M279.075,82.856a1.544,1.544,0,0,0,1.545-1.544V56.4a5.542,5.542,0,0,1,4-5.32,5.536,5.536,0,0,0-1.653-.219,5.612,5.612,0,0,0-5.432,5.648V81.312A1.544,1.544,0,0,0,279.075,82.856Z" transform="translate(-277.531 -50.856)" fill="#e0be97"/>
          </g>
          <g id="Grupo_86293" data-name="Grupo 86293" transform="translate(22.162)">
            <path id="Trazado_148729" data-name="Trazado 148729" d="M209.125,38.826a1.544,1.544,0,0,0,1.544-1.544V12.366a5.542,5.542,0,0,1,4-5.32,5.537,5.537,0,0,0-1.653-.219,5.612,5.612,0,0,0-5.432,5.648V37.282a1.545,1.545,0,0,0,1.545,1.545Z" transform="translate(-207.58 -6.826)" fill="#e0be97"/>
          </g>
          <g id="Grupo_86294" data-name="Grupo 86294" transform="translate(28.758 33.395)">
            <path id="Trazado_148730" data-name="Trazado 148730" d="M252.281,247.6c.7-7.4,6.939-10.815,14.525-10.815-.057-4.68,1.1-11.693,3.435-15.9a6.3,6.3,0,0,1,3.99-3.066,6.324,6.324,0,0,0-7.079,3.066,27.12,27.12,0,0,0-3.435,13.52,14.594,14.594,0,0,0-14.493,12.881,1.536,1.536,0,1,0,3.056.31Z" transform="translate(-249.215 -217.632)" fill="#e0be97"/>
          </g>
          <g id="Grupo_86295" data-name="Grupo 86295" transform="translate(4.705 3.989)">
            <path id="Trazado_148731" data-name="Trazado 148731" d="M124.982,50.085s-6.551-13.658-14.8-18.075A27.98,27.98,0,0,0,97.632,59.239C99.48,73,106.8,72.016,112.271,84.9c13.3-6.3,18.686-18.844,17.2-29.933-.17-1.267-.688-4.469-1.017-5.668Z" transform="translate(-97.38 -32.01)" fill="#29b39d"/>
          </g>
        </g>
        <g id="Grupo_86297" data-name="Grupo 86297" transform="translate(60.184 0)">
          <path id="Trazado_148732" data-name="Trazado 148732" d="M204.372,5.331a1.188,1.188,0,0,0,1.593-.536,4.353,4.353,0,0,1,8.253,1.933V17.785a1.188,1.188,0,0,0,2.376,0V13.7a4.352,4.352,0,0,1,8.7,0v21.84a1.188,1.188,0,0,0,2.376,0V13.7a6.723,6.723,0,0,0-11.08-5.125V6.729a6.73,6.73,0,0,0-12.758-2.99,1.188,1.188,0,0,0,.536,1.593Z" transform="translate(-180.975 0)"/>
          <path id="Trazado_148733" data-name="Trazado 148733" d="M113.559,183.893a1.188,1.188,0,0,0-1.632.4c-3,4.95-7.336,7.46-12.879,7.46h-16.5c-7.385,0-12.07-4.309-14.7-7.924a28.859,28.859,0,0,1-5.285-16.65V140.717a4.324,4.324,0,0,1,1.275-3.078,1.188,1.188,0,0,0-1.68-1.68,6.685,6.685,0,0,0-1.971,4.758v26.461a31.285,31.285,0,0,0,5.74,18.048c4.176,5.741,10.079,8.9,16.621,8.9h16.5c6.431,0,11.448-2.895,14.911-8.6a1.188,1.188,0,0,0-.4-1.632Z" transform="translate(-60.184 -114.128)"/>
          <path id="Trazado_148734" data-name="Trazado 148734" d="M273.125,215.562a7.513,7.513,0,0,0-13.794-1.576,28.483,28.483,0,0,0-3.574,12.952,15.8,15.8,0,0,0-14.6,15.736,1.188,1.188,0,1,0,2.376,0,13.419,13.419,0,0,1,13.4-13.4,1.188,1.188,0,0,0,1.188-1.2,26.06,26.06,0,0,1,3.286-12.93,5.137,5.137,0,1,1,8.984,4.984c-1.762,3.177-1.778,9.852-1.778,10.128a40.594,40.594,0,0,1-2.7,13.369,1.188,1.188,0,1,0,2.2.9,42.431,42.431,0,0,0,2.877-14.267c0-1.755.265-6.79,1.479-8.98A7.462,7.462,0,0,0,273.125,215.562Z" transform="translate(-212.486 -176.828)"/>
          <path id="Trazado_148735" data-name="Trazado 148735" d="M91.546,59.091a1.188,1.188,0,0,0,2.237-.8,26.927,26.927,0,0,1,10.142-31.195c7.529,4.518,13.619,17.066,13.681,17.2a1.189,1.189,0,0,0,1.335.644l2.308-.526c.278,1.392.6,3.4.736,4.4a26.86,26.86,0,0,1-2.923,16.046,28.824,28.824,0,0,1-11.1,11.337l.207-.617c2.063-6.121,4.889-14.5.449-25.67a1.188,1.188,0,1,0-2.208.878c4.118,10.356,1.453,18.261-.493,24.033l-.172.513a38.874,38.874,0,0,0-6.469-8.821A34.82,34.82,0,0,1,95.7,62.149a1.188,1.188,0,1,0-1.987,1.3,36.63,36.63,0,0,0,3.809,4.662,34.764,34.764,0,0,1,7.35,10.937,1.188,1.188,0,0,0,1.6.61A31.73,31.73,0,0,0,121.16,65.973a29.256,29.256,0,0,0,3.18-17.478c-.15-1.118-.683-4.492-1.049-5.825a1.188,1.188,0,0,0-1.409-.844l-2.561.583a69.487,69.487,0,0,0-3.965-6.679c-3.651-5.427-7.325-9.154-10.92-11.078a1.188,1.188,0,0,0-1.206.05A29.6,29.6,0,0,0,91.546,59.091Z" transform="translate(-85.181 -20.629)"/>
        </g>
      </g>
    </g>
  </g>
</svg>
