<svg xmlns="http://www.w3.org/2000/svg" width="80" height="79.999" viewBox="0 0 80 79.999">
  <g id="Fill_Outline" data-name="Fill Outline" transform="translate(-2.146 -2.04)">
    <g id="Stroke_copy" data-name="Stroke copy" transform="translate(9.961 10.005)">
      <g id="Grupo_86355" data-name="Grupo 86355">
        <path id="Trazado_151508" data-name="Trazado 151508" d="M32.076,0A32.076,32.076,0,1,1,0,32.076,32.076,32.076,0,0,1,32.076,0Z" transform="translate(0.009)" fill="#7ae582"/>
        <g id="Grupo_86354" data-name="Grupo 86354" transform="translate(0.009 0.001)">
          <path id="Trazado_151495" data-name="Trazado 151495" d="M24.038,50.316l6.682-2.673V42.3H25.374V35.615l4.009-1.336,1.336-5.346L24.038,22.25l1.336-4.009-5.419-4.926a32.056,32.056,0,0,0-3.308,46.871L24.038,57Z" transform="translate(-8 -6.213)" fill="#29b39d"/>
          <path id="Trazado_151496" data-name="Trazado 151496" d="M40.038,48.682l-5.346-1.336V42H28.009L24,48.682l2.673,6.682-.821,4.1a32.1,32.1,0,0,0,8.84,1.243l5.346-6.682Z" transform="translate(-2.616 3.439)" fill="#c4f236"/>
          <path id="Trazado_151497" data-name="Trazado 151497" d="M26.917,20.028h4.009L29.59,25.374l5.346,5.346,6.682-6.682-2.673-4.009V13.346l3.677-4.41A32.076,32.076,0,0,0,23.274,10.2l.97,5.822Z" transform="translate(-2.86 -8.001)" fill="#29b39d"/>
          <path id="Trazado_151498" data-name="Trazado 151498" d="M53.374,50.567l4.009-4.009,3.7,2.082A32.013,32.013,0,0,0,49.471,12.568l-8.125,3.25L44.019,22.5,38.673,30.52,42.682,37.2l-5.346,2.673,1.336,8.019L36,51.9l10.692,2.673-4.009,6.682L45.2,67.125a32.2,32.2,0,0,0,9.23-7.083Z" transform="translate(1.422 -6.464)" fill="#29b39d"/>
        </g>
        <path id="Trazado_151500" data-name="Trazado 151500" d="M40.038,48.682v5.346l-5.346,6.682a32.052,32.052,0,0,1-8.828-1.241l.809-4.1L24,48.682,28.009,42h1.9a30.65,30.65,0,0,0,4.785,1.657v3.689Z" transform="translate(-2.607 3.441)" fill="#29b39d"/>
        <path id="Trazado_151501" data-name="Trazado 151501" d="M51.732,41.3l1.016,9.075a32.611,32.611,0,0,1-9.235,7.083L41,51.591l4.009-6.682-2.178-.548a30.4,30.4,0,0,0,8.9-3.061Z" transform="translate(3.113 3.205)" fill="#a1d51c"/>
        <path id="Trazado_151502" data-name="Trazado 151502" d="M56.434,36.3a32.007,32.007,0,0,1-1.109,4.357L53.12,39.414A30.533,30.533,0,0,0,56.434,36.3Z" transform="translate(7.192 1.523)" fill="#a1d51c"/>
      </g>
    </g>
    <g id="Stroke_Cut_copy_2" data-name="Stroke Cut copy 2" transform="translate(2.146 2.04)">
      <g id="Grupo_86356" data-name="Grupo 86356">
        <path id="Trazado_151503" data-name="Trazado 151503" d="M80.868,32.03a1.336,1.336,0,1,0-2.588.668A37.461,37.461,0,1,1,63.392,11.351a1.336,1.336,0,0,0,1.526-2.193A40,40,0,1,0,80.868,32.03Z" transform="translate(-2.146 -2.04)"/>
        <path id="Trazado_151504" data-name="Trazado 151504" d="M57.832,21.559a1.336,1.336,0,1,0,2.446-1.069q-.287-.654-.6-1.3a1.336,1.336,0,1,0-2.406,1.163q.289.591.556,1.2Z" transform="translate(16.355 3.467)"/>
        <path id="Trazado_151505" data-name="Trazado 151505" d="M55.515,17.219a1.336,1.336,0,1,0,2.216-1.493c-.267-.394-.535-.782-.814-1.167a1.337,1.337,0,1,0-2.166,1.566Q55.14,16.671,55.515,17.219Z" transform="translate(15.47 1.986)"/>
        <path id="Trazado_151506" data-name="Trazado 151506" d="M52.469,13.361A1.336,1.336,0,1,0,54.39,11.5Q53.9,10.99,53.383,10.5a1.336,1.336,0,1,0-1.858,1.922Q52,12.881,52.469,13.361Z" transform="translate(14.333 0.679)"/>
        <path id="Trazado_151507" data-name="Trazado 151507" d="M7,40.411A33.113,33.113,0,0,0,10.184,54.65,1.336,1.336,0,1,0,12.6,53.508a30.7,30.7,0,0,1,7.669-36.287l3.9,3.543-1.061,3.184a1.336,1.336,0,0,0,.323,1.367l6.148,6.148-.976,3.9-3.313,1.1a1.336,1.336,0,0,0-.914,1.271V44.42a1.336,1.336,0,0,0,1.336,1.336h5.346a1.336,1.336,0,1,0,0-2.673H27.047V38.7l3.1-1.032a1.337,1.337,0,0,0,.874-.944l1.336-5.346A1.336,1.336,0,0,0,32,30.111l-6.1-6.1,1.076-3.226a1.336,1.336,0,0,0-.369-1.411l-4.225-3.84a30.771,30.771,0,0,1,5.33-3.106l.691,4.143a1.325,1.325,0,0,0,.206.521L31.285,21.1a1.336,1.336,0,0,0,1.108.6h2.3l-.921,3.685a1.336,1.336,0,0,0,.351,1.27L39.467,32a1.336,1.336,0,0,0,1.89,0l6.682-6.682a1.336,1.336,0,0,0,.167-1.687l-2.448-3.669V13.681a1.336,1.336,0,1,0-2.673,0v6.682a1.345,1.345,0,0,0,.225.742l2.065,3.1-4.962,4.962L36.546,25.3,37.7,20.688a1.336,1.336,0,0,0-1.3-1.661H33.108l-2.117-3.176-.736-4.442a30.654,30.654,0,0,1,26.111,2.742l-5.747,2.3a1.336,1.336,0,0,0-.746,1.737l2.406,6.029-4.956,7.434a1.336,1.336,0,0,0-.033,1.43l3.266,5.444L46.5,40.545a1.336,1.336,0,0,0-.72,1.417l1.248,7.5-2.379,3.57a1.336,1.336,0,0,0,.789,2.038L54.376,57.3,51.3,62.436a1.336,1.336,0,0,0-.083,1.215l2,4.686a30.472,30.472,0,0,1-9.915,2.673l3.5-4.37a1.337,1.337,0,0,0,.289-.835V60.458a1.336,1.336,0,0,0-1.013-1.3l-4.333-1.084v-4.3a1.336,1.336,0,0,0-1.336-1.336H33.73a1.336,1.336,0,0,0-1.145.648l-4.01,6.683a1.336,1.336,0,0,0-.1,1.185L31,67.268l-.448,2.241A30.8,30.8,0,0,1,19.33,62.752L24.9,60.346a1.336,1.336,0,0,0,.807-1.224V53.344l5.843-2.336a1.337,1.337,0,1,0-.994-2.483L23.877,51.2a1.337,1.337,0,0,0-.839,1.242v5.8l-5.7,2.458a30.78,30.78,0,0,1-2.169-2.759,1.337,1.337,0,1,0-2.195,1.528,33.412,33.412,0,0,0,57.667-33.3,1.336,1.336,0,1,0-2.417,1.141,30.711,30.711,0,0,1,1.83,21.221L67.8,47.264a1.337,1.337,0,0,0-1.6.221l-4.009,4.009a1.336,1.336,0,0,0-.384,1.092l.985,8.868A30.89,30.89,0,0,1,55.6,67.118l-1.661-3.885,3.658-6.1a1.336,1.336,0,0,0-.822-1.985l-8.852-2.213,1.621-2.431a1.337,1.337,0,0,0,.206-.962L48.574,42.5l4.464-2.231a1.336,1.336,0,0,0,.548-1.884l-3.574-5.957,4.877-7.315a1.336,1.336,0,0,0,.134-1.239l-2.181-5.441,6.177-2.471a30.776,30.776,0,0,1,6.637,6.916,1.337,1.337,0,1,0,2.195-1.528A33.412,33.412,0,0,0,7,40.411ZM64.532,52.93l2.839-2.839,1.848,1.04a30.681,30.681,0,0,1-4.056,7.484Zm-30.9,13.714-2.427-6.066,3.278-5.465h4.59v4.009a1.336,1.336,0,0,0,1.012,1.3L44.422,61.5v3.833l-4.636,5.8a30.6,30.6,0,0,1-6.654-.862l.572-2.861a1.337,1.337,0,0,0-.068-.764Z" transform="translate(-0.512 -0.37)"/>
      </g>
    </g>
  </g>
</svg>
