<svg xmlns="http://www.w3.org/2000/svg" width="173.451" height="218.946" viewBox="0 0 173.451 218.946">
  <g id="Grupo_90188" data-name="Grupo 90188" transform="translate(-932.674 -752.479)">
    <g id="Grupo_90182" data-name="Grupo 90182">
      <g id="Grupo_86235" data-name="Grupo 86235" transform="translate(932.674 752.479)">
        <circle id="Elipse_4445" data-name="Elipse 4445" cx="61.324" cy="61.324" r="61.324" transform="translate(0 86.725) rotate(-45)" fill="#7ae582"/>
        <g id="Grupo_86228" data-name="Grupo 86228" transform="translate(7.748 7.749)">
          <path id="Trazado_148676" data-name="Trazado 148676" d="M2245,832.071a1.187,1.187,0,0,1-1.028-.594l-12.038-20.85a79,79,0,0,1-65.912-77.9h2.374a76.205,76.205,0,0,0,64.471,75.645,1.186,1.186,0,0,1,.841.579L2245,828.51l11.291-19.557a1.185,1.185,0,0,1,.842-.579A76.608,76.608,0,0,0,2245,656.126v-2.374a78.983,78.983,0,0,1,13.065,156.875l-12.038,20.85A1.187,1.187,0,0,1,2245,832.071Z" transform="translate(-2166.023 -653.752)" fill="#3ca8f4"/>
        </g>
        <g id="Grupo_86229" data-name="Grupo 86229" transform="translate(4.484 4.485)">
          <path id="Trazado_148677" data-name="Trazado 148677" d="M2165.54,726.608h-8.9a82.241,82.241,0,0,1,82.242-82.242v8.9A73.422,73.422,0,0,0,2165.54,726.608Z" transform="translate(-2156.637 -644.366)" fill="#7ae582"/>
        </g>
      </g>
      <path id="Trazado_148721" data-name="Trazado 148721" d="M6.529,0A6.529,6.529,0,1,1,0,6.529,6.529,6.529,0,0,1,6.529,0Z" transform="translate(1013.141 958.367)" fill="#7ae582"/>
    </g>
    <g id="gobierno" transform="translate(979.76 792.863)">
      <path id="Trazado_151354" data-name="Trazado 151354" d="M73.766,211.945h7.766V243.5H73.766Zm0,0" transform="translate(-62.24 -178.408)" fill="#fb0"/>
      <path id="Trazado_151356" data-name="Trazado 151356" d="M107.938,32.391,74.821,9.464a.937.937,0,0,0-1.067,0L40.637,32.391V34.98h67.3Zm0,0" transform="translate(-34.287 -7.423)" fill="#fb0"/>
      <path id="Trazado_151358" data-name="Trazado 151358" d="M244.611,93.421a2.589,2.589,0,1,1-2.589-2.589A2.588,2.588,0,0,1,244.611,93.421Zm0,0" transform="translate(-202.022 -76.218)" fill="#feda43"/>
      <path id="Trazado_151359" data-name="Trazado 151359" d="M69.2,186.308H58.137a.938.938,0,0,1-.937-.937v-5.925H70.142v5.925A.938.938,0,0,1,69.2,186.308Zm0,0" transform="translate(-48.262 -150.986)" fill="#29b39d"/>
      <path id="Trazado_151361" data-name="Trazado 151361" d="M69.2,402.5H58.137a.937.937,0,0,0-.937.938v5.925H70.142v-5.925A.937.937,0,0,0,69.2,402.5Zm0,0" transform="translate(-48.262 -339.185)" fill="#29b39d"/>
      <path id="Trazado_151363" data-name="Trazado 151363" d="M231.148,211.945h7.766V243.5h-7.766Zm0,0" transform="translate(-195.031 -178.408)" fill="#fb0"/>
      <path id="Trazado_151365" data-name="Trazado 151365" d="M226.591,186.308H215.523a.937.937,0,0,1-.937-.937v-5.925h12.943v5.925A.938.938,0,0,1,226.591,186.308Zm0,0" transform="translate(-181.057 -150.986)" fill="#29b39d"/>
      <path id="Trazado_151367" data-name="Trazado 151367" d="M226.591,402.5H215.523a.937.937,0,0,0-.937.938v5.925h12.943v-5.925A.937.937,0,0,0,226.591,402.5Zm0,0" transform="translate(-181.057 -339.185)" fill="#29b39d"/>
      <path id="Trazado_151369" data-name="Trazado 151369" d="M388.531,211.945H396.3V243.5h-7.766Zm0,0" transform="translate(-327.823 -178.408)" fill="#fb0"/>
      <path id="Trazado_151371" data-name="Trazado 151371" d="M383.97,186.308H372.9a.938.938,0,0,1-.937-.937v-5.925h12.943v5.925A.938.938,0,0,1,383.97,186.308Zm0,0" transform="translate(-313.845 -150.986)" fill="#29b39d"/>
      <path id="Trazado_151373" data-name="Trazado 151373" d="M383.97,402.5H372.9a.937.937,0,0,0-.937.938v5.925h12.943v-5.925A.937.937,0,0,0,383.97,402.5Zm0,0" transform="translate(-313.845 -339.185)" fill="#29b39d"/>
      <path id="Trazado_151375" data-name="Trazado 151375" d="M95.608,162.279H25a.938.938,0,0,1-.937-.937v-3.3A.937.937,0,0,1,25,157.1h70.6a.937.937,0,0,1,.938.938v3.3A.938.938,0,0,1,95.608,162.279Zm0,0" transform="translate(-20.306 -132.133)" fill="#29b39d"/>
      <path id="Trazado_151377" data-name="Trazado 151377" d="M96.546,443.394H24.066v-6.828a.938.938,0,0,1,.938-.937h70.6a.938.938,0,0,1,.938.938Zm0,0" transform="translate(-20.306 -367.141)" fill="#29b39d"/>
      <path id="Trazado_151379" data-name="Trazado 151379" d="M84.219,473.939H8.438A.938.938,0,0,1,7.5,473v-3.3a.938.938,0,0,1,.938-.938H84.219a.938.938,0,0,1,.938.938V473A.938.938,0,0,1,84.219,473.939Zm0,0" transform="translate(-6.328 -395.097)" fill="#fb0"/>
      <path id="Trazado_151381" data-name="Trazado 151381" d="M235.694,90.853a3.761,3.761,0,1,0-3.76-3.76A3.764,3.764,0,0,0,235.694,90.853Zm0-5.178a1.417,1.417,0,1,1-1.417,1.417A1.419,1.419,0,0,1,235.694,85.676Zm0,0" transform="translate(-195.694 -69.89)"/>
      <path id="Trazado_151382" data-name="Trazado 151382" d="M78.828,72.493H77.411V68.488a1.172,1.172,0,0,0-1.172-1.172H72.234V63.311a1.172,1.172,0,0,0-1.172-1.172H69.647V36.494h1.416a1.172,1.172,0,0,0,1.172-1.172V31.317H76.24a1.172,1.172,0,0,0,1.172-1.172V24.968A1.172,1.172,0,0,0,76.24,23.8H74.017L40.667.707a1.173,1.173,0,0,0-1.334,0L5.983,23.8H3.76a1.172,1.172,0,0,0-1.172,1.172v5.177A1.172,1.172,0,0,0,3.76,31.317H7.766v4.005a1.172,1.172,0,0,0,1.172,1.172h1.417V62.139H8.937a1.172,1.172,0,0,0-1.172,1.172v4.005H3.76a1.172,1.172,0,0,0-1.172,1.172v4.005H1.172A1.171,1.171,0,0,0,0,73.665v5.176a1.171,1.171,0,0,0,1.172,1.172H78.828A1.171,1.171,0,0,0,80,78.841V73.665A1.172,1.172,0,0,0,78.828,72.493Zm-8.937-5.177h-10.6V64.483h10.6ZM61.88,62.139V36.494H67.3V62.139ZM69.891,34.15h-10.6V31.317h10.6ZM58.12,36.494h1.416V62.139H58.12a1.171,1.171,0,0,0-1.172,1.172v4.005h-9.3V63.311a1.172,1.172,0,0,0-1.172-1.172H45.055V36.494h1.417a1.172,1.172,0,0,0,1.172-1.172V31.317h9.3v4.005A1.172,1.172,0,0,0,58.12,36.494ZM34.7,31.317H45.3V34.15H34.7Zm2.588,5.177h5.422V62.139H37.289ZM45.3,64.483v2.833H34.7V64.483ZM4.932,26.14h20.45a1.172,1.172,0,0,0,0-2.344H10.1L40,3.1,69.9,23.8H30.07a1.172,1.172,0,1,0,0,2.344h45v2.833H4.932Zm5.177,5.177h10.6V34.15h-10.6Zm8.011,5.177V62.139H12.7V36.494ZM10.109,64.483h10.6v2.833h-10.6ZM21.88,62.139H20.464V36.494H21.88a1.172,1.172,0,0,0,1.172-1.172V31.317h9.3v4.005a1.172,1.172,0,0,0,1.172,1.172h1.416V62.139H33.529a1.171,1.171,0,0,0-1.172,1.172v4.005h-9.3V63.311A1.172,1.172,0,0,0,21.88,62.139ZM4.932,69.66H75.068v2.833H4.932Zm72.724,8.01H2.344V74.837H77.656Zm0,0" transform="translate(0 0)"/>
    </g>
  </g>
</svg>
