<svg xmlns="http://www.w3.org/2000/svg" width="74.841" height="80" viewBox="0 0 74.841 80">
  <g id="cambio-climatico" transform="translate(-24 -8)">
    <g id="Grupo_86378" data-name="Grupo 86378" transform="translate(25.289 9.29)">
      <path id="Trazado_151613" data-name="Trazado 151613" d="M386.058,84.388a9.032,9.032,0,1,1-12.9-8.163V19.871a3.871,3.871,0,0,1,7.742,0V76.225a9.033,9.033,0,0,1,5.161,8.163Z" transform="translate(-313.797 -16)" fill="#ffda73"/>
      <path id="Trazado_151622" data-name="Trazado 151622" d="M3.871,0A3.871,3.871,0,1,1,0,3.871,3.871,3.871,0,0,1,3.871,0Z" transform="translate(59.357 64.517)" fill="#29b39d"/>
      <g id="Grupo_86377" data-name="Grupo 86377" transform="translate(0 11.613)">
        <path id="Trazado_151623" data-name="Trazado 151623" d="M27.1,0A27.1,27.1,0,1,1,0,27.1,27.1,27.1,0,0,1,27.1,0Z" transform="translate(0.001 0)" fill="#7ae582"/>
        <g id="Grupo_86376" data-name="Grupo 86376" transform="translate(0 0.761)">
          <path id="Trazado_151614" data-name="Trazado 151614" d="M54.574,146.743l-1.806,4.516-9.032,1.806-2.71-1.806-2.71,1.806-4.833,4.364a27.132,27.132,0,0,1,8.077-29.544l1.272,1.7,2.71,3.613,4.516.9,3.613,6.323Z" transform="translate(-31.992 -122.214)" fill="#29b39d"/>
          <path id="Trazado_151615" data-name="Trazado 151615" d="M227.1,119.054a27.2,27.2,0,0,1-.615,5.769l-5.707-.35-5.419-4.516-6.323-2.71,1.806-1.806-1.806-3.613-1.806.9L200,104.6V97.376l6.405-4.658A27.108,27.108,0,0,1,227.1,119.054Z" transform="translate(-172.902 -92.718)" fill="#29b39d"/>
          <path id="Trazado_151616" data-name="Trazado 151616" d="M202.71,296.1,200,299.716l.9,3.613,4.516,1.806,1.806,1.806,2.71-1.806,1.806-2.71-2.71-1.806V295.2Z" transform="translate(-172.902 -262.541)" fill="#29b39d"/>
          <path id="Trazado_151617" data-name="Trazado 151617" d="M91.926,339.819v3.613l-.541,4.949a27.056,27.056,0,0,1-14.858-8.251l6.367-5.73,3.613,1.806,1.806,2.71Z" transform="translate(-69.344 -295.418)" fill="#29b39d"/>
        </g>
      </g>
    </g>
    <g id="Grupo_86379" data-name="Grupo 86379" transform="translate(24 8)">
      <path id="Trazado_151618" data-name="Trazado 151618" d="M52.388,80a28.388,28.388,0,1,0,28.388,28.388A28.419,28.419,0,0,0,52.388,80ZM26.581,108.388a25.741,25.741,0,0,1,8.1-18.753l3.129,4.173a1.287,1.287,0,0,0,.779.49l3.94.789,3.2,5.6.819,5.737-1.419,3.548L37.3,111.534l-2.265-1.511a1.292,1.292,0,0,0-1.432,0L30.9,111.83a1.471,1.471,0,0,0-.148.116l-3.323,3a25.792,25.792,0,0,1-.845-6.558Zm20,21.607-.377,3.45a25.8,25.8,0,0,1-11.861-6.628l4.707-4.237,2.519,1.261,1.616,2.424a1.3,1.3,0,0,0,.761.535l2.636.66Zm5.807,4.2a25.807,25.807,0,0,1-3.64-.258l.406-3.731a1.363,1.363,0,0,0,.008-.14v-3.613a1.29,1.29,0,0,0-.977-1.252l-3.129-.782-1.529-2.3a1.315,1.315,0,0,0-.5-.439l-3.613-1.806a1.29,1.29,0,0,0-1.44.2l-5.387,4.848a25.853,25.853,0,0,1-4.294-7.284l4.113-3.713,1.915-1.277,1.994,1.331a1.294,1.294,0,0,0,.969.19l9.032-1.806a1.292,1.292,0,0,0,.945-.785l1.806-4.516a1.285,1.285,0,0,0,.079-.661l-.9-6.323a1.288,1.288,0,0,0-.156-.458L44.476,93.3a1.288,1.288,0,0,0-.868-.624l-4.032-.808-2.932-3.908A25.764,25.764,0,0,1,55.6,82.781l-3.969,2.886A1.29,1.29,0,0,0,51.1,86.71v7.226a1.288,1.288,0,0,0,.326.857l7.226,8.129a1.291,1.291,0,0,0,1.542.3l.652-.327.815,1.627-1.15,1.148a1.29,1.29,0,0,0,.4,2.1l6.15,2.636,5.274,4.4a1.285,1.285,0,0,0,.747.3l4.157.256a25.854,25.854,0,0,1-24.852,18.844Zm21.276-21.649-5.1-4.247a1.28,1.28,0,0,0-.318-.194l-4.571-1.96.46-.458a1.293,1.293,0,0,0,.242-1.49l-1.806-3.613a1.293,1.293,0,0,0-1.732-.577l-.921.461-6.244-7.023V87.366l5.377-3.91A25.813,25.813,0,0,1,77.815,112.8Z" transform="translate(-24 -68.387)"/>
      <path id="Trazado_151619" data-name="Trazado 151619" d="M205.748,294.643l-2.135-1.423v-4.729a1.29,1.29,0,0,0-1.473-1.277l-6.323.9a1.29,1.29,0,0,0-.85.5l-2.71,3.613a1.29,1.29,0,0,0-.22,1.087l.9,3.613a1.29,1.29,0,0,0,.773.885l4.27,1.708,1.619,1.619a1.29,1.29,0,0,0,1.628.161l2.71-1.806a1.291,1.291,0,0,0,.358-.358l1.806-2.71A1.29,1.29,0,0,0,205.748,294.643ZM202.3,297.5l-1.615,1.077-1.058-1.059a1.292,1.292,0,0,0-.433-.286l-3.9-1.561-.594-2.377,2.021-2.694,4.321-.618v3.932a1.29,1.29,0,0,0,.575,1.074l1.636,1.091Z" transform="translate(-164.903 -242.168)"/>
      <path id="Trazado_151620" data-name="Trazado 151620" d="M398.45,106.229V49.29a1.29,1.29,0,1,0-2.581,0v56.938a5.161,5.161,0,1,0,2.581,0Zm-1.29,7.579a2.581,2.581,0,1,1,2.581-2.581A2.581,2.581,0,0,1,397.159,113.807Z" transform="translate(-332.642 -41.548)"/>
      <path id="Trazado_151621" data-name="Trazado 151621" d="M375.479,68.738V13.161a5.161,5.161,0,1,0-10.323,0V68.738a10.323,10.323,0,1,0,10.323,0Zm-5.161,16.683A7.743,7.743,0,0,1,367,70.681a1.29,1.29,0,0,0,.736-1.166V13.161a2.581,2.581,0,0,1,5.161,0V69.515a1.29,1.29,0,0,0,.737,1.166,7.743,7.743,0,0,1-3.317,14.74Z" transform="translate(-305.801 -8)"/>
    </g>
  </g>
</svg>
