<svg xmlns="http://www.w3.org/2000/svg" width="80" height="63.048" viewBox="0 0 80 63.048">
  <g id="mapa" transform="translate(0 -54.246)">
    <path id="Trazado_151443" data-name="Trazado 151443" d="M80,82.919a11.349,11.349,0,0,1-1.24,5.153c-.017.032-1.915,3.217-1.915,3.217v21.873a4.138,4.138,0,0,1-4.134,4.132l-64.636-.035a4.135,4.135,0,0,1-4.129-4.131V75.262s-2.691-4.514-2.707-4.545A11.318,11.318,0,0,1,19.263,57.505a11.452,11.452,0,0,1,1.394,1.665l52.058.027a4.139,4.139,0,0,1,4.129,4.132V75.086A11.226,11.226,0,0,1,80,82.919Zm-4.181,3.59a7.989,7.989,0,0,0-7.251-11.577,8.028,8.028,0,0,0-7.874,7.939,7.9,7.9,0,0,0,.849,3.638l7.139,11.964,5.033-8.436s0,0,0,0Zm-2.3,26.653V96.87l-1.975,3.31a3.327,3.327,0,0,1-5.716,0S58.62,88.1,58.6,88.072A11.321,11.321,0,0,1,68.521,71.6a11.225,11.225,0,0,1,4.993,1.077V63.329a.8.8,0,0,0-.8-.8l-3.015,0-18.25,18.25,2.944,2.944a1.666,1.666,0,0,1-2.356,2.356l-2.944-2.944L43.412,88.81l4.777,4.778s0,0,0,0l6.655,6.655,3.491-3.491a1.5,1.5,0,0,1,2.118,2.12l-3.49,3.49,11.6,11.6,4.149,0A.8.8,0,0,0,73.515,113.162Zm-16.093-42.6,8.04-8.038-16.087-.008ZM48.9,113.951l15.421.008-9.477-9.477-7.707,7.707ZM41.293,86.692,55.3,72.682l-8.967-8.967L32.325,77.725l3.843,3.843h0v0Zm3.726,23.378,7.707-7.707-5.6-5.6-7.707,7.707ZM37.3,102.354l7.707-7.707-9.9-9.9L27.4,92.453Zm-9.942,11.585,17.3.01L31.4,100.689l-8.645,8.645Zm2.845-38.334L43.3,62.512,22.214,62.5a11.354,11.354,0,0,1-.819,8.215c-.017.032-7.221,12.108-7.221,12.108a3.327,3.327,0,0,1-5.716,0L7.276,80.843v21.641l12.96-12.96-3.313-3.312a1.5,1.5,0,1,1,2.12-2.12l6.242,6.242,7.707-7.707L23.4,73.036a1.5,1.5,0,0,1,2.12-2.12Zm-9.57,31.609,8.645-8.645-6.928-6.926-8.645,8.645Zm-12.56,6.715,15.045.008-11.53-11.53-4.316,4.314v6.407A.8.8,0,0,0,8.077,113.929ZM18.454,69.153a8.012,8.012,0,0,0-.148-7.461c-.018-.03-.035-.058-.05-.088a8.031,8.031,0,0,0-1.332-1.728,7.938,7.938,0,0,0-5.722-2.3A8.026,8.026,0,0,0,3.33,65.515a7.9,7.9,0,0,0,.849,3.638l7.139,11.964Z" transform="translate(0 0)"/>
    <path id="Trazado_151444" data-name="Trazado 151444" d="M404.421,194.624a7.9,7.9,0,0,1-.851,3.59l-2.1,3.523s0,0,0,.005l-5.033,8.436L389.3,198.214a7.9,7.9,0,0,1-.849-3.638,8.028,8.028,0,0,1,7.874-7.939,7.988,7.988,0,0,1,8.1,7.987Zm-3.36,0a4.629,4.629,0,1,0-4.629,4.629A4.634,4.634,0,0,0,401.061,194.624Z" transform="translate(-327.752 -111.705)" fill="#7ae582"/>
    <path id="Trazado_151445" data-name="Trazado 151445" d="M307.943,141.578V157.87a.8.8,0,0,1-.8.8l-4.149,0-11.6-11.6,3.49-3.49a1.5,1.5,0,0,0-2.118-2.12l-3.491,3.491-6.655-6.655s0,0,0,0l-4.777-4.778,5.679-5.679,2.944,2.944a1.666,1.666,0,0,0,2.356-2.356l-2.944-2.944,18.25-18.25,3.015,0a.8.8,0,0,1,.8.8v9.35a11.222,11.222,0,0,0-4.993-1.077,11.321,11.321,0,0,0-9.918,16.47c.017.032,7.221,12.108,7.221,12.108a3.327,3.327,0,0,0,5.716,0Z" transform="translate(-234.428 -44.708)" fill="#29b39d"/>
    <path id="Trazado_151446" data-name="Trazado 151446" d="M414.569,208.133a4.629,4.629,0,1,1-4.629,4.629A4.634,4.634,0,0,1,414.569,208.133Zm1.3,4.629a1.3,1.3,0,1,0-1.3,1.3A1.3,1.3,0,0,0,415.867,212.762Z" transform="translate(-345.887 -129.842)"/>
    <path id="Trazado_151447" data-name="Trazado 151447" d="M432.551,229.445a1.3,1.3,0,1,1-1.3,1.3A1.3,1.3,0,0,1,432.551,229.445Z" transform="translate(-363.869 -147.824)" fill="#fff"/>
    <g id="Grupo_86319" data-name="Grupo 86319" transform="translate(7.276 62.502)">
      <path id="Trazado_151448" data-name="Trazado 151448" d="M332.085,107.178l-8.04,8.038L316,107.17Z" transform="translate(-273.899 -107.157)" fill="#29b39d"/>
      <path id="Trazado_151449" data-name="Trazado 151449" d="M318.872,385.236l-15.421-.008-1.763-1.761,7.707-7.707Z" transform="translate(-261.825 -333.779)" fill="#29b39d"/>
      <path id="Trazado_151450" data-name="Trazado 151450" d="M229.86,123.809,215.85,137.819l-5.123-5.123v0h0l-3.843-3.843,14.011-14.011Z" transform="translate(-181.833 -113.629)" fill="#29b39d"/>
      <rect id="Rectángulo_34650" data-name="Rectángulo 34650" width="10.899" height="7.914" transform="translate(45.45 39.861) rotate(135)" fill="#29b39d"/>
      <path id="Trazado_151451" data-name="Trazado 151451" d="M192.992,259.356l-7.707,7.707-9.9-9.9,7.705-7.705Z" transform="translate(-155.257 -227.21)" fill="#29b39d"/>
      <path id="Trazado_151452" data-name="Trazado 151452" d="M167.549,364.745l-17.3-.01-4.605-4.605,8.644-8.645Z" transform="translate(-130.164 -313.297)" fill="#29b39d"/>
      <path id="Trazado_151453" data-name="Trazado 151453" d="M82.592,107.094,69.5,120.187,64.81,115.5a1.5,1.5,0,1,0-2.12,2.12l9.592,9.592-7.707,7.707-6.242-6.242a1.5,1.5,0,0,0-2.12,2.12l3.313,3.312-12.96,12.96V125.425l1.182,1.981a3.327,3.327,0,0,0,5.716,0s7.2-12.076,7.221-12.108a11.354,11.354,0,0,0,.819-8.215Z" transform="translate(-46.567 -107.084)" fill="#29b39d"/>
      <path id="Trazado_151454" data-name="Trazado 151454" d="M103.313,300.518l-8.644,8.645-6.928-6.926,8.645-8.645Z" transform="translate(-81.308 -264.45)" fill="#29b39d"/>
      <path id="Trazado_151455" data-name="Trazado 151455" d="M62.412,374.013,47.368,374a.8.8,0,0,1-.8-.8V366.8l4.316-4.314Z" transform="translate(-46.567 -322.577)" fill="#29b39d"/>
    </g>
    <path id="Trazado_151456" data-name="Trazado 151456" d="M37.286,83.548a7.917,7.917,0,0,1-.849,3.59L29.3,99.1,22.161,87.138a7.9,7.9,0,0,1-.849-3.638,8.026,8.026,0,0,1,7.872-7.939,7.937,7.937,0,0,1,5.722,2.3,8.027,8.027,0,0,1,1.332,1.728c.015.03.032.058.05.088A7.933,7.933,0,0,1,37.286,83.548Zm-3.358,0A4.629,4.629,0,1,0,29.3,88.177,4.634,4.634,0,0,0,33.927,83.548Z" transform="translate(-17.982 -17.985)" fill="#7ae582"/>
    <path id="Trazado_151457" data-name="Trazado 151457" d="M47.435,97.057a4.629,4.629,0,1,1-4.629,4.629A4.634,4.634,0,0,1,47.435,97.057Zm1.3,4.629a1.3,1.3,0,1,0-1.3,1.3A1.3,1.3,0,0,0,48.733,101.686Z" transform="translate(-36.118 -36.122)"/>
    <path id="Trazado_151458" data-name="Trazado 151458" d="M65.416,118.369a1.3,1.3,0,1,1-1.3,1.3A1.3,1.3,0,0,1,65.416,118.369Z" transform="translate(-54.099 -54.104)" fill="#fff"/>
  </g>
</svg>
