<svg xmlns="http://www.w3.org/2000/svg" width="61.967" height="90" viewBox="0 0 61.967 90">
  <g id="bombilla" transform="translate(-32.427)">
    <path id="Trazado_150742" data-name="Trazado 150742" d="M94.856,32.921A29.508,29.508,0,1,0,53.545,59.958v12.8H77.151v-12.8A29.5,29.5,0,0,0,94.856,32.921Z" transform="translate(-1.938 -1.938)" fill="#fb0"/>
    <path id="Trazado_150743" data-name="Trazado 150743" d="M75.214,72.3H51.607a1.475,1.475,0,0,1-1.475-1.475V58.968a30.984,30.984,0,1,1,26.557,0V70.82A1.475,1.475,0,0,1,75.214,72.3ZM53.082,69.345H73.738V58.019a1.475,1.475,0,0,1,.884-1.352,28.033,28.033,0,1,0-22.425,0,1.474,1.474,0,0,1,.884,1.352Z"/>
    <path id="Trazado_150744" data-name="Trazado 150744" d="M100.869,48.975c0-5.7-10.328-25.082-10.328-25.082S80.213,43.271,80.213,48.975a10.328,10.328,0,0,0,20.656,0Z" transform="translate(-27.131 -13.565)" fill="#7ae582"/>
    <path id="Trazado_150745" data-name="Trazado 150745" d="M88.6,58.921a11.817,11.817,0,0,1-11.8-11.8c0-5.9,9.426-23.759,10.5-25.776a1.538,1.538,0,0,1,2.6,0c1.075,2.017,10.5,19.873,10.5,25.776A11.817,11.817,0,0,1,88.6,58.921Zm0-33.694c-3.3,6.447-8.852,18.083-8.852,21.891a8.852,8.852,0,1,0,17.7,0C97.456,43.31,91.906,31.675,88.6,25.227Z" transform="translate(-25.193 -11.708)"/>
    <path id="Trazado_150746" data-name="Trazado 150746" d="M102.169,110.5a1.475,1.475,0,0,1-1.475-1.475V76.569a1.475,1.475,0,0,1,2.951,0v32.459A1.475,1.475,0,0,1,102.169,110.5Z" transform="translate(-38.759 -42.635)"/>
    <path id="Trazado_150747" data-name="Trazado 150747" d="M102.169,130.748a1.631,1.631,0,0,1-.165-.009,1.477,1.477,0,0,1-1.3-1.63c.585-5.256,2.346-9.03,5.235-11.214a9.485,9.485,0,0,1,6.8-1.882,1.476,1.476,0,0,1,1.213,1.7,1.461,1.461,0,0,1-1.687,1.214,6.5,6.5,0,0,0-4.594,1.359c-2.192,1.684-3.549,4.763-4.036,9.151A1.475,1.475,0,0,1,102.169,130.748Z" transform="translate(-38.757 -65.829)"/>
    <path id="Trazado_150748" data-name="Trazado 150748" d="M88.6,130.748a1.475,1.475,0,0,1-1.465-1.312c-.491-4.419-1.863-7.51-4.08-9.187a6.563,6.563,0,0,0-4.538-1.324,1.475,1.475,0,1,1-.484-2.911,9.472,9.472,0,0,1,6.8,1.882c2.889,2.184,4.65,5.958,5.235,11.214a1.477,1.477,0,0,1-1.3,1.63C88.712,130.745,88.655,130.748,88.6,130.748Z" transform="translate(-25.193 -65.829)"/>
    <path id="Trazado_150749" data-name="Trazado 150749" d="M96.068,169.741H69.511a2.951,2.951,0,0,1-2.951-2.951h0a2.951,2.951,0,0,1,2.951-2.951H96.068a2.951,2.951,0,0,1,2.951,2.951h0A2.951,2.951,0,0,1,96.068,169.741Z" transform="translate(-19.379 -93.02)" fill="#3ca8f4"/>
    <path id="Trazado_150750" data-name="Trazado 150750" d="M94.131,169.279H67.573a4.426,4.426,0,1,1,0-8.852H94.131a4.426,4.426,0,1,1,0,8.852Zm-26.557-5.9a1.475,1.475,0,1,0,0,2.951H94.131a1.475,1.475,0,0,0,0-2.951Z" transform="translate(-17.441 -91.082)"/>
    <path id="Trazado_150751" data-name="Trazado 150751" d="M96.068,183.395H69.511a2.951,2.951,0,0,1-2.951-2.951h0a2.951,2.951,0,0,1,2.951-2.951H96.068a2.951,2.951,0,0,1,2.951,2.951h0A2.952,2.952,0,0,1,96.068,183.395Z" transform="translate(-19.379 -100.772)" fill="#3ca8f4"/>
    <path id="Trazado_150752" data-name="Trazado 150752" d="M94.131,182.932H67.573a4.426,4.426,0,1,1,0-8.852H94.131a4.426,4.426,0,0,1,0,8.852Zm-26.557-5.9a1.475,1.475,0,0,0,0,2.951H94.131a1.475,1.475,0,0,0,0-2.951Z" transform="translate(-17.441 -98.834)"/>
    <path id="Trazado_150753" data-name="Trazado 150753" d="M96.068,197.048H69.511A2.951,2.951,0,0,1,66.56,194.1h0a2.951,2.951,0,0,1,2.951-2.951H96.068a2.951,2.951,0,0,1,2.951,2.951h0A2.951,2.951,0,0,1,96.068,197.048Z" transform="translate(-19.379 -108.523)" fill="#3ca8f4"/>
    <path id="Trazado_150754" data-name="Trazado 150754" d="M94.131,196.585H67.573a4.426,4.426,0,0,1,0-8.852H94.131a4.426,4.426,0,0,1,0,8.852Zm-26.557-5.9a1.475,1.475,0,1,0,0,2.951H94.131a1.475,1.475,0,0,0,0-2.951Z" transform="translate(-17.441 -106.585)"/>
  </g>
</svg>
