<svg xmlns="http://www.w3.org/2000/svg" width="80" height="77.193" viewBox="0 0 80 77.193">
  <g id="proteger" transform="translate(0 -8.983)">
    <g id="Grupo_89060" data-name="Grupo 89060" transform="translate(1.172 10.057)">
      <g id="Grupo_89059" data-name="Grupo 89059" transform="translate(0 0)">
        <g id="Grupo_89058" data-name="Grupo 89058">
          <g id="Grupo_89057" data-name="Grupo 89057">
            <g id="Grupo_89056" data-name="Grupo 89056">
              <g id="Grupo_89055" data-name="Grupo 89055">
                <g id="Grupo_89054" data-name="Grupo 89054">
                  <g id="Grupo_89053" data-name="Grupo 89053">
                    <circle id="Elipse_4578" data-name="Elipse 4578" cx="34.606" cy="34.606" r="34.606" fill="#7ae582"/>
                    <path id="Trazado_151271" data-name="Trazado 151271" d="M22.538,25.993a34.63,34.63,0,0,1,55.877,9.913l-14.255-1.35a1.952,1.952,0,0,0-1.787.828l-3.506,5.028a1.937,1.937,0,0,1-.816.672L49.129,45a1.956,1.956,0,0,1-1.66-.041l-4.362-2.18A1.95,1.95,0,0,1,42.031,41.1l-.073-2.18a1.954,1.954,0,0,1,1.17-1.854L45.5,36.029a1.952,1.952,0,0,0,.888-2.8l-2.095-3.456a1.952,1.952,0,0,0-2.746-.617l-7.528,4.979a1.948,1.948,0,0,0-.874,1.65l.094,8.536a1.953,1.953,0,0,1-1.755,1.965l-12.761,1.3a1.953,1.953,0,0,1-1.68-.673L13.31,42.564a34.465,34.465,0,0,1,9.228-16.571Z" transform="translate(-12.402 -15.857)" fill="#29b39d"/>
                  </g>
                </g>
              </g>
            </g>
          </g>
        </g>
        <path id="Trazado_151273" data-name="Trazado 151273" d="M107.184,306.947l2.869-1.263a1.755,1.755,0,0,1,1.794.228l2.185,1.723a1.755,1.755,0,0,0,1.087.377H121.6a1.755,1.755,0,0,1,1.652,1.162l.951,2.649a1.755,1.755,0,0,1-.048,1.306L121.41,319.3a1.755,1.755,0,0,1-2.148.956l-8.206-2.678a1.755,1.755,0,0,1-1.21-1.633l-.062-3.043a1.755,1.755,0,0,0-1.316-1.664l-.992-.256a1.755,1.755,0,0,1-1.316-1.645l-.023-.726A1.754,1.754,0,0,1,107.184,306.947Z" transform="translate(-90.724 -260.273)" fill="#29b39d"/>
      </g>
    </g>
    <path id="Trazado_151274" data-name="Trazado 151274" d="M289.151,210.244l-16.461,3.988a1.754,1.754,0,0,0-1.341,1.7v12.841c0,14.816,13.714,23.681,17.343,25.767a1.748,1.748,0,0,0,1.744,0c3.629-2.086,17.343-10.951,17.343-25.767V215.937a1.754,1.754,0,0,0-1.341-1.7l-16.461-3.988A1.753,1.753,0,0,0,289.151,210.244Z" transform="translate(-228.951 -169.772)" fill="#fb0"/>
    <path id="Trazado_151276" data-name="Trazado 151276" d="M317.981,277.862A36.838,36.838,0,0,1,311,271.886c-3.959-4.414-5.966-9.173-5.966-14.144v-8.7a1.754,1.754,0,0,1,1.341-1.7l11.611-2.813,11.611,2.813a1.754,1.754,0,0,1,1.341,1.7v8.7c0,4.971-2.007,9.729-5.966,14.144A36.835,36.835,0,0,1,317.981,277.862Z" transform="translate(-257.368 -198.737)" fill="#29b39d"/>
    <path id="Trazado_151278" data-name="Trazado 151278" d="M387.925,244.524l11.611,2.813a1.754,1.754,0,0,1,1.341,1.7v8.7c0,4.971-2.007,9.729-5.966,14.144a36.838,36.838,0,0,1-6.986,5.976Z" transform="translate(-327.312 -198.738)" fill="#faf7f7"/>
    <g id="Grupo_89061" data-name="Grupo 89061" transform="translate(0 8.983)">
      <path id="Trazado_151280" data-name="Trazado 151280" d="M118.022,302.444a2.934,2.934,0,0,0-2.755-1.938h-6.479a.585.585,0,0,1-.361-.125l-2.185-1.723a2.921,2.921,0,0,0-2.992-.38l-2.869,1.263a2.914,2.914,0,0,0-1.746,2.77l.023.726a2.942,2.942,0,0,0,2.194,2.743l.992.256a.585.585,0,0,1,.437.553l.062,3.043a2.93,2.93,0,0,0,2.018,2.723l8.206,2.678a2.92,2.92,0,0,0,3.583-1.594l2.741-6.168a2.914,2.914,0,0,0,.08-2.178Zm-1.271,3.874-2.741,6.168a.581.581,0,0,1-.714.317l-8.206-2.678a.584.584,0,0,1-.4-.543l-.062-3.043a2.936,2.936,0,0,0-2.195-2.774l-.992-.256a.586.586,0,0,1-.437-.547l-.023-.726a.581.581,0,0,1,.348-.552l2.869-1.263a.582.582,0,0,1,.6.076l2.185,1.723a2.938,2.938,0,0,0,1.812.629h6.479a.585.585,0,0,1,.549.386l.951,2.649A.582.582,0,0,1,116.751,306.319Z" transform="translate(-83.223 -252.866)"/>
      <path id="Trazado_151281" data-name="Trazado 151281" d="M298.014,94.35a1.172,1.172,0,0,0,1.657,0l.97-.97a1.172,1.172,0,0,0-1.657-1.657l-.141.141-.141-.141a1.172,1.172,0,0,0-1.657,1.657Z" transform="translate(-250.342 -78.505)"/>
      <path id="Trazado_151282" data-name="Trazado 151282" d="M182.525,236.7a1.172,1.172,0,0,0,1.657,0l.97-.97a1.172,1.172,0,0,0-1.657-1.657l-.141.141-.141-.141a1.172,1.172,0,0,0-1.657,1.657Z" transform="translate(-152.898 -198.616)"/>
      <path id="Trazado_151283" data-name="Trazado 151283" d="M169.328,342.646l-.141.141-.141-.141a1.172,1.172,0,1,0-1.657,1.657l.97.97a1.172,1.172,0,0,0,1.657,0l.97-.97a1.172,1.172,0,0,0-1.657-1.657Z" transform="translate(-140.944 -290.222)"/>
      <path id="Trazado_151284" data-name="Trazado 151284" d="M257.391,59.776a1.168,1.168,0,0,0,.829-.343l.97-.97a1.172,1.172,0,0,0-1.657-1.657l-.141.141-.141-.141a1.172,1.172,0,1,0-1.657,1.657l.97.97a1.169,1.169,0,0,0,.829.343Z" transform="translate(-215.367 -49.044)"/>
      <path id="Trazado_151285" data-name="Trazado 151285" d="M77.027,155.427l-.141.141-.141-.141a1.172,1.172,0,0,0-1.657,1.657l.97.97a1.172,1.172,0,0,0,1.657,0l.97-.97a1.172,1.172,0,0,0-1.657-1.657Z" transform="translate(-63.065 -132.256)"/>
      <path id="Trazado_151286" data-name="Trazado 151286" d="M77.763,43.321l-6.324-1.532A35.771,35.771,0,0,0,38.9,9.023a1.172,1.172,0,1,0-.2,2.335,33.434,33.434,0,0,1,26.478,17.38l-12.138-1.15a3.126,3.126,0,0,0-2.858,1.325l-3.509,5.031a.764.764,0,0,1-.323.266l-8.921,3.92a.78.78,0,0,1-.665-.017L32.4,35.934a.779.779,0,0,1-.43-.673L31.9,33.082a.779.779,0,0,1,.468-.743L34.733,31.3a3.124,3.124,0,0,0,1.421-4.483l-2.1-3.457a3.124,3.124,0,0,0-4.395-.987l-7.528,4.979a3.107,3.107,0,0,0-1.4,2.64l.094,8.536a.778.778,0,0,1-.7.786l-12.761,1.3a.785.785,0,0,1-.672-.269L3.377,36.477l0-.005a33.4,33.4,0,0,1,29.9-25.149A1.172,1.172,0,0,0,33.1,8.986,35.781,35.781,0,1,0,49.194,77.838a44.006,44.006,0,0,0,9.963,7.951,2.931,2.931,0,0,0,2.912,0A43.849,43.849,0,0,0,72.39,77.445C77.439,71.814,80,65.61,80,59.006V46.164a2.918,2.918,0,0,0-2.237-2.844Zm-.107,15.685c0,14.027-12.825,22.491-16.755,24.751a.58.58,0,0,1-.576,0C56.394,81.5,43.57,73.033,43.57,59.006V56.2a1.172,1.172,0,0,0-2.344,0v2.8a26.622,26.622,0,0,0,6.347,16.952A33.428,33.428,0,0,1,2.778,39.381l2.139,2.5A3.129,3.129,0,0,0,7.29,42.969a3.07,3.07,0,0,0,.316-.016l12.761-1.3a3.11,3.11,0,0,0,2.808-3.144l-.094-8.538a.773.773,0,0,1,.349-.658l7.529-4.98a.78.78,0,0,1,1.1.248l2.095,3.456a.78.78,0,0,1-.356,1.12l-2.369,1.037a3.112,3.112,0,0,0-1.87,2.967l.073,2.179a3.121,3.121,0,0,0,1.724,2.692l4.362,2.18a3.118,3.118,0,0,0,2.655.066l8.919-3.919A3.1,3.1,0,0,0,48.6,35.281L52.1,30.252a.781.781,0,0,1,.714-.33l13.567,1.285a33.378,33.378,0,0,1,2.647,10L61.3,39.332a2.939,2.939,0,0,0-1.378,0L43.463,43.32a2.918,2.918,0,0,0-2.237,2.844v4.425a1.172,1.172,0,0,0,2.344,0V46.164a.581.581,0,0,1,.445-.566L60.476,41.61a.585.585,0,0,1,.274,0L77.211,45.6a.581.581,0,0,1,.445.566Z" transform="translate(0 -8.983)"/>
      <path id="Trazado_151287" data-name="Trazado 151287" d="M323.54,239.87l-11.611-2.813a1.172,1.172,0,0,0-.552,0l-11.612,2.813a2.918,2.918,0,0,0-2.237,2.844v8.7c0,5.268,2.108,10.29,6.266,14.926a38.088,38.088,0,0,0,7.212,6.17,1.172,1.172,0,0,0,1.294,0,39.626,39.626,0,0,0,5.122-4.04,1.172,1.172,0,0,0-1.6-1.711,36.4,36.4,0,0,1-2.995,2.509V246.7l10.609,2.57v2.142a18.875,18.875,0,0,1-4,11.321,1.172,1.172,0,0,0,1.885,1.392,21.164,21.164,0,0,0,4.459-12.713v-8.7A2.919,2.919,0,0,0,323.54,239.87Zm-23.223,2.278,10.164-2.462v4.605l-10.609,2.57v-4.148A.581.581,0,0,1,300.318,242.148Zm5.222,22.628c-3.76-4.193-5.667-8.688-5.667-13.361v-2.142l10.609-2.57v22.569A34.58,34.58,0,0,1,305.539,264.777Zm7.286-20.485v-4.606l10.163,2.462a.581.581,0,0,1,.445.566v4.147Z" transform="translate(-251.04 -201.393)"/>
      <path id="Trazado_151288" data-name="Trazado 151288" d="M419.675,321.449a1.172,1.172,0,0,0-1.655-.09l-.907.813a1.172,1.172,0,1,0,1.565,1.745l.907-.813A1.172,1.172,0,0,0,419.675,321.449Z" transform="translate(-351.61 -272.297)"/>
      <path id="Trazado_151289" data-name="Trazado 151289" d="M412.887,349.753l-.907.813a1.172,1.172,0,1,0,1.565,1.745l.907-.813a1.172,1.172,0,1,0-1.565-1.745Z" transform="translate(-347.279 -296.255)"/>
      <path id="Trazado_151290" data-name="Trazado 151290" d="M407.755,378.147l-.907.813a1.172,1.172,0,1,0,1.565,1.745l.907-.813a1.172,1.172,0,1,0-1.565-1.745Z" transform="translate(-342.949 -320.212)"/>
      <path id="Trazado_151291" data-name="Trazado 151291" d="M339.576,324.216a1.172,1.172,0,0,0,.783-2.044l-.907-.813a1.172,1.172,0,1,0-1.565,1.745l.907.813a1.167,1.167,0,0,0,.782.3Z" transform="translate(-284.763 -272.297)"/>
      <path id="Trazado_151292" data-name="Trazado 151292" d="M344.709,352.61a1.172,1.172,0,0,0,.783-2.044l-.907-.813a1.172,1.172,0,1,0-1.565,1.745l.907.813A1.167,1.167,0,0,0,344.709,352.61Z" transform="translate(-289.094 -296.255)"/>
      <path id="Trazado_151293" data-name="Trazado 151293" d="M350.623,378.96l-.907-.813a1.172,1.172,0,1,0-1.565,1.745l.907.813a1.172,1.172,0,1,0,1.565-1.745Z" transform="translate(-293.424 -320.212)"/>
    </g>
  </g>
</svg>
