<svg xmlns="http://www.w3.org/2000/svg" width="80" height="65.915" viewBox="0 0 80 65.915">
  <g id="tucan" transform="translate(0 -45.072)">
    <path id="Trazado_151559" data-name="Trazado 151559" d="M76.547,339.053l-2.48,5.18a10.348,10.348,0,0,1-13.8,4.864h0a2.355,2.355,0,0,1-1.107-3.142l5.932-12.389a6.352,6.352,0,0,1,8.472-2.986h0A6.352,6.352,0,0,1,76.547,339.053Z" transform="translate(-49.719 -240.371)" fill="#3ca8f4"/>
    <g id="Grupo_86370" data-name="Grupo 86370" transform="translate(14.174 70.264)">
      <path id="Trazado_151561" data-name="Trazado 151561" d="M201.911,254.269h2.964a10.348,10.348,0,0,0,10.348-10.348h0a2.355,2.355,0,0,0-2.355-2.355H201.911a6.352,6.352,0,0,0-6.352,6.352h0A6.352,6.352,0,0,0,201.911,254.269Z" transform="translate(-179.177 -236.055)" fill="#3ca8f4"/>
      <path id="Trazado_151562" data-name="Trazado 151562" d="M115.368,220.826c0-8.024-2.466-14.529-12.327-14.529s-12.327,6.5-12.327,14.529,5.519,12.79,12.327,12.79S115.368,228.85,115.368,220.826Z" transform="translate(-90.714 -206.297)" fill="#3ca8f4"/>
    </g>
    <path id="Trazado_151563" data-name="Trazado 151563" d="M169.606,206.3v10.236a8.382,8.382,0,0,0,8.382,8.382h0a8.347,8.347,0,0,0,3.628-.824,17.056,17.056,0,0,0,.316-3.265C181.933,212.8,179.467,206.3,169.606,206.3Z" transform="translate(-143.105 -136.033)" fill="#a6ffac"/>
    <path id="Trazado_151565" data-name="Trazado 151565" d="M282.166,200.114h0a13.389,13.389,0,0,0-6.788-1.848H244.863v-8.018h35.093l5.408,3.822v4.215A2.122,2.122,0,0,1,282.166,200.114Z" transform="translate(-206.603 -122.492)" fill="#e6a800"/>
    <path id="Trazado_151567" data-name="Trazado 151567" d="M98.523,82.47H82.2A10.781,10.781,0,0,1,71.423,71.689h0A18.681,18.681,0,0,1,90.1,53.008h8.419V82.47Z" transform="translate(-60.263 -6.696)" fill="#3ca8f4"/>
    <path id="Trazado_151568" data-name="Trazado 151568" d="M284.141,81.358l-2.359-1.966A15.281,15.281,0,0,0,272,75.85H244.863V53.008h15.794a24.707,24.707,0,0,1,24.707,24.707v3.071A.745.745,0,0,1,284.141,81.358Z" transform="translate(-206.603 -6.696)" fill="#fb0"/>
    <path id="Trazado_151569" data-name="Trazado 151569" d="M120.1,121.4H132.25V99.152H123a11.6,11.6,0,0,0-11.6,11.6V112.7A8.7,8.7,0,0,0,120.1,121.4Z" transform="translate(-93.99 -45.63)" fill="#a6ffac"/>
    <path id="Trazado_151570" data-name="Trazado 151570" d="M91.517,256.5a24.324,24.324,0,0,0-.8,6.684,14.284,14.284,0,0,0,1.209,5.948,6.352,6.352,0,0,0,5.521-6.3h0A6.351,6.351,0,0,0,91.517,256.5Z" transform="translate(-76.541 -178.392)" opacity="0.15"/>
    <path id="Trazado_151571" data-name="Trazado 151571" d="M21.249,254.269H18.285A10.348,10.348,0,0,1,7.937,243.921h0a2.355,2.355,0,0,1,2.355-2.355H21.249a6.352,6.352,0,0,1,6.352,6.352h0A6.352,6.352,0,0,1,21.249,254.269Z" transform="translate(-6.697 -165.792)" fill="#3ca8f4"/>
    <g id="Grupo_86371" data-name="Grupo 86371" transform="translate(23.219 93.29)">
      <path id="Trazado_151572" data-name="Trazado 151572" d="M150.668,361.025a2.067,2.067,0,0,1-2.067-2.067v-3.227a2.067,2.067,0,0,1,4.133,0v3.227A2.066,2.066,0,0,1,150.668,361.025Z" transform="translate(-148.601 -353.664)" fill="#fb0"/>
      <path id="Trazado_151573" data-name="Trazado 151573" d="M201.458,361.025a2.067,2.067,0,0,1-2.067-2.067v-3.227a2.067,2.067,0,0,1,4.133,0v3.227A2.066,2.066,0,0,1,201.458,361.025Z" transform="translate(-191.455 -353.664)" fill="#fb0"/>
    </g>
    <path id="Trazado_151574" data-name="Trazado 151574" d="M24.745,64.256a1.24,1.24,0,0,0,1.24-1.24.847.847,0,1,1,1.694,0,1.24,1.24,0,0,0,2.48,0,3.327,3.327,0,1,0-6.653,0A1.24,1.24,0,0,0,24.745,64.256ZM54.054,45.072H29.841A19.943,19.943,0,0,0,9.92,64.993a12.007,12.007,0,0,0,4.723,9.543l-.091,0H3.6a3.6,3.6,0,0,0-3.6,3.6A11.6,11.6,0,0,0,11.588,89.717h2.08a13.778,13.778,0,0,0,.95,2.273,7.547,7.547,0,0,0-.365.67L8.321,105.049a3.6,3.6,0,0,0,1.69,4.8A11.588,11.588,0,0,0,25.467,104.4l1.391-2.905a3.308,3.308,0,0,0,1.73-2.815q.675-.093,1.327-.247v.154a3.307,3.307,0,1,0,6.613,0V95.356a3.311,3.311,0,0,0-.068-.668,12.939,12.939,0,0,0,2.878-4.971h.534A11.6,11.6,0,0,0,51.46,78.13a3.574,3.574,0,0,0-.178-1.115H68.775a12.158,12.158,0,0,1,6.159,1.677A3.362,3.362,0,0,0,80,75.793V71.019A25.975,25.975,0,0,0,54.054,45.072ZM12.4,64.993A17.461,17.461,0,0,1,29.841,47.552H37.02V74.534H21.941A9.552,9.552,0,0,1,12.4,64.993Zm2.153,22.245H11.588A9.118,9.118,0,0,1,2.48,78.129,1.117,1.117,0,0,1,3.6,77.014H14.552a5.112,5.112,0,1,1,0,10.223Zm8.678,16.089a9.108,9.108,0,0,1-12.148,4.281,1.115,1.115,0,0,1-.524-1.488L16.2,94.329a12.625,12.625,0,0,0,5.776,3.794v.461a3.31,3.31,0,0,0,2.057,3.059Zm2.882-4.742a.827.827,0,0,1-1.653,0V95.356a.827.827,0,0,1,1.653,0Zm7.936,0a.827.827,0,0,1-1.653,0V95.356a.827.827,0,0,1,1.653,0Zm.966-6a3.3,3.3,0,0,0-5.1,2.774v.513a11.657,11.657,0,0,1-1.323.3v-.812a3.307,3.307,0,0,0-6.613,0v.127a10.169,10.169,0,0,1-5.751-5.955A7.584,7.584,0,0,0,20.01,76.857a12.05,12.05,0,0,0,1.931.157H36.326a19.943,19.943,0,0,1,1.263,7.778A11.893,11.893,0,0,1,35.014,92.582ZM39.9,87.237a17.563,17.563,0,0,0,.169-2.445,24.018,24.018,0,0,0-1.089-7.778h8.886a1.117,1.117,0,0,1,1.115,1.115A9.118,9.118,0,0,1,39.9,87.237ZM77.076,76.559a.866.866,0,0,1-.885-.005,14.642,14.642,0,0,0-7.416-2.019H39.5v-4.14H65.4a14.067,14.067,0,0,1,8.989,3.254l2.359,1.966a2,2,0,0,0,.749.393A.881.881,0,0,1,77.076,76.559Zm.444-3.525-1.548-1.29A16.552,16.552,0,0,0,65.4,67.914H39.5V47.552H54.054A23.493,23.493,0,0,1,77.521,71.019v2.015Z"/>
  </g>
</svg>
