<svg id="la-contaminacion-del-agua" xmlns="http://www.w3.org/2000/svg" width="80" height="80" viewBox="0 0 80 80">
  <path id="Trazado_151427" data-name="Trazado 151427" d="M10,234.438a10.455,10.455,0,0,0,15.375,0,10.455,10.455,0,0,0,15.375,0,10.455,10.455,0,0,0,15.375,0,10.455,10.455,0,0,0,15.375,0,10.455,10.455,0,0,0,15.375,0v41.806H10Zm0,0" transform="translate(-8.438 -197.807)" fill="#a6ffac"/>
  <path id="Trazado_151428" data-name="Trazado 151428" d="M213.938,183.715l15.653,22.106a4.909,4.909,0,0,1-.535,6.307l-7.881,7.881a4.908,4.908,0,0,1-6.307.535l-22.106-15.653Zm0,0" transform="translate(-162.643 -155.01)" fill="#7ae582"/>
  <path id="Trazado_151429" data-name="Trazado 151429" d="M208.561,183.427l-16.794,16.794a3.125,3.125,0,0,1-4.42-4.42l16.794-16.794a3.125,3.125,0,0,1,4.42,4.42Zm0,0" transform="translate(-157.303 -150.266)" fill="#c9f3ff"/>
  <path id="Trazado_151430" data-name="Trazado 151430" d="M13.958,353.236l-3.145-3.145a2.777,2.777,0,0,1,0-3.926l6.68-6.68a2.777,2.777,0,0,1,3.926,0l3.145,3.145a2.777,2.777,0,0,1,0,3.926l-6.68,6.68A2.777,2.777,0,0,1,13.958,353.236Zm0,0" transform="translate(-8.438 -285.755)" fill="#80ffeb"/>
  <path id="Trazado_151431" data-name="Trazado 151431" d="M88.567,328.864l-1.624-1.624a1.076,1.076,0,0,0-1.521,0l-2.333,2.333,3.145,3.145,2.333-2.333A1.076,1.076,0,0,0,88.567,328.864Zm0,0" transform="translate(-70.107 -275.844)" fill="#fff"/>
  <path id="Trazado_151432" data-name="Trazado 151432" d="M187.775,415.006l-3.145,3.145a2.777,2.777,0,0,1-3.926,0l-6.68-6.68a2.777,2.777,0,0,1,0-3.926l3.145-3.145a2.778,2.778,0,0,1,3.927,0l6.68,6.68A2.776,2.776,0,0,1,187.775,415.006Zm0,0" transform="translate(-146.147 -340.526)" fill="#fb0"/>
  <path id="Trazado_151433" data-name="Trazado 151433" d="M163.407,392.156l-1.624,1.623a1.076,1.076,0,0,0,0,1.522l2.333,2.333,3.145-3.145-2.333-2.333A1.075,1.075,0,0,0,163.407,392.156Zm0,0" transform="translate(-136.239 -330.616)" fill="#fff"/>
  <path id="Trazado_151434" data-name="Trazado 151434" d="M302.29,303.817l-6.755-4.163a2.44,2.44,0,0,1-.8-3.358l1.583-2.569a2.439,2.439,0,0,1,3.357-.8l6.756,4.163a2.44,2.44,0,0,1,.8,3.358l-1.583,2.569A2.44,2.44,0,0,1,302.29,303.817Zm0,0" transform="translate(-248.378 -246.854)" fill="#29b39d"/>
  <path id="Trazado_151435" data-name="Trazado 151435" d="M77.29,59.437a8.893,8.893,0,0,1-13.079,0,1.562,1.562,0,0,0-2.3,0,8.98,8.98,0,0,1-2.5,1.9l-6.083-8.59L75.123,30.952a1.563,1.563,0,0,0-2.21-2.209L51.068,50.588a4.7,4.7,0,0,0-5.334.915l-9.809,9.809a9,9,0,0,1-2.464-1.875,1.562,1.562,0,0,0-2.3,0,8.893,8.893,0,0,1-13.079,0,1.563,1.563,0,0,0-2.3,0,8.893,8.893,0,0,1-13.079,0,1.562,1.562,0,1,0-2.3,2.12,12.016,12.016,0,0,0,16.523,1.089,12.012,12.012,0,0,0,15.375,0,12.31,12.31,0,0,0,1.323.955l-4.695,4.7a4.685,4.685,0,0,0,1.638,7.69L51.322,90.675a6.454,6.454,0,0,0,8.315-.7l7.881-7.881a6.455,6.455,0,0,0,.706-8.315L61.233,63.9a12.147,12.147,0,0,0,1.83-1.255,12.016,12.016,0,0,0,16.523-1.089,1.563,1.563,0,1,0-2.3-2.12ZM31.15,70.506,47.944,53.712a1.563,1.563,0,0,1,2.209,2.21L33.36,72.716a1.563,1.563,0,0,1-1.384.431l-.953-.675c-.037-.026-.076-.05-.114-.073A1.564,1.564,0,0,1,31.15,70.506Zm34.158,9.373L57.428,87.76a3.338,3.338,0,0,1-4.3.364L35.084,75.348a4.776,4.776,0,0,0,.486-.422L52.364,58.132a4.69,4.69,0,0,0,.518-.617L65.673,75.58A3.338,3.338,0,0,1,65.308,79.879Zm0,0" transform="translate(-0.001 -23.866)"/>
  <path id="Trazado_151436" data-name="Trazado 151436" d="M493.563,3.125a1.563,1.563,0,0,0,1.563-1.562,1.563,1.563,0,1,0-2.667,1.1A1.575,1.575,0,0,0,493.563,3.125Zm0,0" transform="translate(-415.125)"/>
  <path id="Trazado_151437" data-name="Trazado 151437" d="M70.785,465.957H68.594a1.563,1.563,0,0,0,0,3.125h2.191a1.563,1.563,0,0,0,0-3.125Zm0,0" transform="translate(-56.558 -393.152)"/>
  <path id="Trazado_151438" data-name="Trazado 151438" d="M460.468,426.773h-1.5a1.563,1.563,0,0,0,0,3.125h1.5a1.563,1.563,0,0,0,0-3.125Zm0,0" transform="translate(-385.937 -360.091)"/>
  <path id="Trazado_151439" data-name="Trazado 151439" d="M390.417,492h-1.5a1.563,1.563,0,0,0,0,3.125h1.5a1.563,1.563,0,0,0,0-3.125Zm0,0" transform="translate(-326.832 -415.125)"/>
  <path id="Trazado_151440" data-name="Trazado 151440" d="M19.565,319.329l-1.624-1.624a2.642,2.642,0,0,0-3.731,0l-1.434,1.435a4.347,4.347,0,0,0-4.825.9l-6.68,6.681a4.338,4.338,0,0,0,0,6.136L4.415,336a4.344,4.344,0,0,0,6.136,0l6.68-6.68a4.343,4.343,0,0,0,.9-4.826l1.434-1.433A2.641,2.641,0,0,0,19.565,319.329Zm-2.554,1.865-.884.884-.935-.935.884-.884Zm-1.989,5.915-6.68,6.68a1.216,1.216,0,0,1-1.717,0l-3.145-3.145a1.213,1.213,0,0,1,0-1.717l6.68-6.68a1.215,1.215,0,0,1,1.717,0l3.145,3.145a1.213,1.213,0,0,1,0,1.717Zm0,0" transform="translate(0 -267.414)"/>
  <path id="Trazado_151441" data-name="Trazado 151441" d="M163.86,384.953a4.346,4.346,0,0,0-4.825-.9L157.6,382.62a2.642,2.642,0,0,0-3.731,0l-1.624,1.624a2.641,2.641,0,0,0,0,3.731l1.433,1.433a4.344,4.344,0,0,0,.9,4.827l6.68,6.68a4.345,4.345,0,0,0,6.136,0l3.145-3.145a4.339,4.339,0,0,0,0-6.136Zm-8.125.222.884.884-.935.935-.884-.884Zm12.6,10.386-3.145,3.145a1.216,1.216,0,0,1-1.717,0l-6.68-6.68a1.214,1.214,0,0,1,0-1.717l3.145-3.145a1.216,1.216,0,0,1,1.716,0l6.68,6.68a1.215,1.215,0,0,1,0,1.717Zm0,0" transform="translate(-127.807 -322.185)"/>
  <path id="Trazado_151442" data-name="Trazado 151442" d="M292.054,283.156a4,4,0,0,0-5.507,1.308l-1.583,2.569a4,4,0,0,0,1.307,5.507l6.755,4.163a3.976,3.976,0,0,0,2.092.6,4.045,4.045,0,0,0,.932-.11,3.977,3.977,0,0,0,2.483-1.794l1.583-2.569a4.007,4.007,0,0,0-1.307-5.507Zm5.4,8.031-1.583,2.57a.878.878,0,0,1-1.207.286l-6.756-4.163a.879.879,0,0,1-.287-1.207l1.583-2.569a.877.877,0,0,1,1.207-.287l6.756,4.163A.879.879,0,0,1,297.457,291.187Zm0,0" transform="translate(-239.935 -238.41)"/>
</svg>
