<svg xmlns="http://www.w3.org/2000/svg" width="80" height="80" viewBox="0 0 80 80">
  <g id="subasta" transform="translate(-1 -1)">
    <g id="Grupo_86320" data-name="Grupo 86320" transform="translate(7.452 2.29)">
      <path id="Trazado_151459" data-name="Trazado 151459" d="M62.774,71.677H21.484v2.581a5.161,5.161,0,1,1-10.323,0V7.161A5.161,5.161,0,0,0,6,2H53.742a9.032,9.032,0,0,1,9.032,9.032Z" transform="translate(-6 -2)" fill="#ffda73"/>
    </g>
    <g id="Grupo_86321" data-name="Grupo 86321" transform="translate(7.452 2.29)">
      <path id="Trazado_151460" data-name="Trazado 151460" d="M11.161,7.161v52.8a28.573,28.573,0,0,0,18.064,6.55c17.1,0,30.968-15.6,30.968-34.839,0-12.548-5.9-23.544-14.747-29.677H6A5.161,5.161,0,0,1,11.161,7.161Z" transform="translate(-6 -2)" fill="#ffda73"/>
    </g>
    <g id="Grupo_86323" data-name="Grupo 86323" transform="translate(17.774 71.967)">
      <g id="Grupo_86322" data-name="Grupo 86322">
        <path id="Trazado_151461" data-name="Trazado 151461" d="M60.451,56H19.161v2.581A5.162,5.162,0,0,1,14,63.742H60.451a5.161,5.161,0,0,0,5.161-5.161V56Z" transform="translate(-14 -56)" fill="#fb0"/>
      </g>
    </g>
    <g id="Grupo_86324" data-name="Grupo 86324" transform="translate(2.29 2.29)">
      <path id="Trazado_151462" data-name="Trazado 151462" d="M12.323,17.484H2V7.161a5.161,5.161,0,1,1,10.323,0Z" transform="translate(-2 -2)" fill="#fb0"/>
    </g>
    <g id="Grupo_86325" data-name="Grupo 86325" transform="translate(17.774 46.161)">
      <circle id="Elipse_4605" data-name="Elipse 4605" cx="10.323" cy="10.323" r="10.323" fill="#7ae582"/>
    </g>
    <g id="Grupo_86326" data-name="Grupo 86326" transform="translate(22.935 51.322)">
      <circle id="Elipse_4606" data-name="Elipse 4606" cx="5.161" cy="5.161" r="5.161" fill="#a6ffac"/>
    </g>
    <g id="Grupo_86327" data-name="Grupo 86327" transform="translate(60.342 47.454)">
      <path id="Trazado_151463" data-name="Trazado 151463" d="M0,0H4.563V22.81H0Z" transform="translate(0 3.226) rotate(-45)" fill="#29b39d"/>
    </g>
    <g id="Grupo_86328" data-name="Grupo 86328" transform="translate(51.311 38.422)">
      <path id="Trazado_151464" data-name="Trazado 151464" d="M0,0H12.773V9.124H0Z" transform="translate(0 9.03) rotate(-45)" fill="#e6a800"/>
    </g>
    <g id="Grupo_86329" data-name="Grupo 86329" transform="translate(46.151 46.161)">
      <path id="Trazado_151465" data-name="Trazado 151465" d="M0,0H5.475V12.773H0Z" transform="translate(0 3.871) rotate(-45)" fill="#29b39d"/>
    </g>
    <g id="Grupo_86330" data-name="Grupo 86330" transform="translate(59.054 33.261)">
      <path id="Trazado_151466" data-name="Trazado 151466" d="M0,0H5.475V12.773H0Z" transform="translate(0 3.871) rotate(-45)" fill="#29b39d"/>
    </g>
    <g id="Grupo_86331" data-name="Grupo 86331" transform="translate(1 1)">
      <path id="Trazado_151467" data-name="Trazado 151467" d="M64.226,81H17.774a6.459,6.459,0,0,1-6.452-6.452V19.064H2.29A1.29,1.29,0,0,1,1,17.774V7.452a6.452,6.452,0,0,1,12.9,0v67.1a3.871,3.871,0,1,0,7.742,0V71.967a1.29,1.29,0,0,1,1.29-1.29H69.387a1.29,1.29,0,0,1,1.29,1.29v2.581A6.459,6.459,0,0,1,64.226,81ZM22.933,78.419H64.226A3.876,3.876,0,0,0,68.1,74.548v-1.29H24.226v1.29a6.417,6.417,0,0,1-1.293,3.871ZM3.581,16.484h7.742V7.452a3.871,3.871,0,0,0-7.742,0Z" transform="translate(-1 -1)"/>
    </g>
    <g id="Grupo_86332" data-name="Grupo 86332" transform="translate(62.935 54.548)">
      <path id="Trazado_151468" data-name="Trazado 151468" d="M49,42.5h2.581V59.919H49Z" transform="translate(-49 -42.5)"/>
    </g>
    <g id="Grupo_86333" data-name="Grupo 86333" transform="translate(7.452 1)">
      <path id="Trazado_151469" data-name="Trazado 151469" d="M64.064,34.548H61.484V10.032a6.459,6.459,0,0,0-6.452-6.452H6V1H55.032a9.043,9.043,0,0,1,9.032,9.032Z" transform="translate(-6 -1)"/>
    </g>
    <g id="Grupo_86334" data-name="Grupo 86334" transform="translate(44.87 44.87)">
      <path id="Trazado_151470" data-name="Trazado 151470" d="M45.323,50.484a1.287,1.287,0,0,1-.912-.378l-9.032-9.032a1.289,1.289,0,0,1,0-1.825l3.871-3.871a1.289,1.289,0,0,1,1.825,0l9.032,9.032a1.289,1.289,0,0,1,0,1.825l-3.871,3.871A1.287,1.287,0,0,1,45.323,50.484ZM38.115,40.161l7.208,7.208,2.046-2.046-7.208-7.208Z" transform="translate(-35 -35)"/>
    </g>
    <g id="Grupo_86335" data-name="Grupo 86335" transform="translate(57.774 31.967)">
      <path id="Trazado_151471" data-name="Trazado 151471" d="M55.323,40.484a1.287,1.287,0,0,1-.912-.378l-9.032-9.032a1.289,1.289,0,0,1,0-1.825l3.871-3.871a1.289,1.289,0,0,1,1.825,0l9.032,9.032a1.289,1.289,0,0,1,0,1.825l-3.871,3.871A1.287,1.287,0,0,1,55.323,40.484ZM48.115,30.161l7.208,7.208,2.046-2.046-7.208-7.208Z" transform="translate(-45 -25)"/>
    </g>
    <g id="Grupo_86336" data-name="Grupo 86336" transform="translate(50.4 37.51)">
      <path id="Trazado_151472" data-name="Trazado 151472" d="M0,0H12.773V2.581H0Z" transform="translate(0 9.03) rotate(-45)"/>
    </g>
    <g id="Grupo_86337" data-name="Grupo 86337" transform="translate(56.851 43.961)">
      <path id="Trazado_151473" data-name="Trazado 151473" d="M0,0H12.773V2.581H0Z" transform="translate(0 9.03) rotate(-45)"/>
    </g>
    <g id="Grupo_86338" data-name="Grupo 86338" transform="translate(59.442 46.539)">
      <path id="Trazado_151474" data-name="Trazado 151474" d="M63.334,57.85a1.287,1.287,0,0,1-.912-.378L46.293,41.343l1.825-1.825L63.334,54.736l1.4-1.4L49.519,38.118l1.825-1.825L67.472,52.422a1.289,1.289,0,0,1,0,1.825l-3.226,3.226A1.287,1.287,0,0,1,63.334,57.85Z" transform="translate(-46.293 -36.293)"/>
    </g>
    <g id="Grupo_86339" data-name="Grupo 86339" transform="translate(17.774 24.226)">
      <path id="Trazado_151475" data-name="Trazado 151475" d="M14,19H56.58v2.581H14Z" transform="translate(-14 -19)"/>
    </g>
    <g id="Grupo_86340" data-name="Grupo 86340" transform="translate(17.774 34.548)">
      <path id="Trazado_151476" data-name="Trazado 151476" d="M14,27H51.419v2.581H14Z" transform="translate(-14 -27)"/>
    </g>
    <g id="Grupo_86341" data-name="Grupo 86341" transform="translate(17.774 29.387)">
      <path id="Trazado_151477" data-name="Trazado 151477" d="M14,23H56.58v2.581H14Z" transform="translate(-14 -23)"/>
    </g>
    <g id="Grupo_86342" data-name="Grupo 86342" transform="translate(17.774 13.903)">
      <path id="Trazado_151478" data-name="Trazado 151478" d="M14,11H56.58v2.581H14Z" transform="translate(-14 -11)"/>
    </g>
    <g id="Grupo_86343" data-name="Grupo 86343" transform="translate(17.774 8.742)">
      <path id="Trazado_151479" data-name="Trazado 151479" d="M14,7H56.58V9.581H14Z" transform="translate(-14 -7)"/>
    </g>
    <g id="Grupo_86344" data-name="Grupo 86344" transform="translate(17.774 19.064)">
      <path id="Trazado_151480" data-name="Trazado 151480" d="M14,15H56.58v2.581H14Z" transform="translate(-14 -15)"/>
    </g>
    <g id="Grupo_86345" data-name="Grupo 86345" transform="translate(17.774 39.71)">
      <path id="Trazado_151481" data-name="Trazado 151481" d="M14,31H48.839v2.581H14Z" transform="translate(-14 -31)"/>
    </g>
    <g id="Grupo_86346" data-name="Grupo 86346" transform="translate(16.484 44.871)">
      <path id="Trazado_151482" data-name="Trazado 151482" d="M24.613,58.226A11.613,11.613,0,1,1,36.226,46.613,11.626,11.626,0,0,1,24.613,58.226Zm0-20.645a9.032,9.032,0,1,0,9.032,9.032A9.043,9.043,0,0,0,24.613,37.581Z" transform="translate(-13 -35)"/>
    </g>
    <g id="Grupo_86347" data-name="Grupo 86347" transform="translate(21.645 50.032)">
      <path id="Trazado_151483" data-name="Trazado 151483" d="M23.452,51.9A6.452,6.452,0,1,1,29.9,45.452,6.459,6.459,0,0,1,23.452,51.9Zm0-10.323a3.871,3.871,0,1,0,3.871,3.871A3.876,3.876,0,0,0,23.452,41.581Z" transform="translate(-17 -39)"/>
    </g>
    <g id="Grupo_86348" data-name="Grupo 86348" transform="translate(42.29 61.644)">
      <path id="Trazado_151484" data-name="Trazado 151484" d="M48.484,54.452H43.323a5.163,5.163,0,0,1-4.372-2.419A8.509,8.509,0,0,1,33,54.452V51.871a5.932,5.932,0,0,0,4.944-2.646l.434-.65a1.29,1.29,0,0,1,2.364.716,2.583,2.583,0,0,0,2.581,2.581h5.161Z" transform="translate(-33 -47.999)"/>
    </g>
  </g>
</svg>
