<svg xmlns="http://www.w3.org/2000/svg" width="328" height="250" viewBox="0 0 328 250">
  <g id="Grupo_90178" data-name="Grupo 90178" transform="translate(-635.668 -924)">
    <path id="Trazado_155620" data-name="Trazado 155620" d="M20,0H308a20,20,0,0,1,20,20V230a20,20,0,0,1-20,20H20A20,20,0,0,1,0,230V20A20,20,0,0,1,20,0Z" transform="translate(635.668 924)" fill="#29b39d"/>
    <path id="Trazado_155621" data-name="Trazado 155621" d="M120.816,22.844a6.1,6.1,0,0,1-2.684,1.764,11.238,11.238,0,0,1-3.844.627,7.614,7.614,0,0,1-3.885-.967,6.448,6.448,0,0,1-2.578-2.807,9.878,9.878,0,0,1-.932-4.324v-1.16a10.491,10.491,0,0,1,.861-4.424,6.372,6.372,0,0,1,2.484-2.859,8.18,8.18,0,0,1,8.549.457,6.185,6.185,0,0,1,2.027,4.213h-3.422a3.4,3.4,0,0,0-1.037-2.145,3.312,3.312,0,0,0-2.209-.68,3.117,3.117,0,0,0-2.73,1.348,7.086,7.086,0,0,0-.949,4.008v1.09a6.746,6.746,0,0,0,1.02,4.055,3.491,3.491,0,0,0,2.988,1.371,3.9,3.9,0,0,0,2.824-.844V18.625h-3.2v-2.59h6.715Zm15.691-12.059h-5.227V25h-3.516V10.785h-5.156V7.938h13.9Zm15.4,8.531a6.038,6.038,0,0,1-2.033,4.336,7.141,7.141,0,0,1-4.834,1.582,6.421,6.421,0,0,1-5.162-2.209A9.058,9.058,0,0,1,138,16.961V15.918a10.228,10.228,0,0,1,.867-4.336,6.5,6.5,0,0,1,2.479-2.877,7.746,7.746,0,0,1,8.5.58,6.488,6.488,0,0,1,2.086,4.441h-3.516a3.563,3.563,0,0,0-.92-2.4,3.407,3.407,0,0,0-2.408-.744,2.987,2.987,0,0,0-2.631,1.26,7.06,7.06,0,0,0-.9,3.908v1.289a7.556,7.556,0,0,0,.838,4.043,2.932,2.932,0,0,0,2.643,1.277,3.471,3.471,0,0,0,2.432-.744,3.361,3.361,0,0,0,.92-2.3ZM171.523,25h-11.7V22.68l5.52-5.883a13.617,13.617,0,0,0,1.682-2.168,3.483,3.483,0,0,0,.545-1.758A2.606,2.606,0,0,0,167,11.084a2.073,2.073,0,0,0-1.641-.65,2.236,2.236,0,0,0-1.811.791,3.133,3.133,0,0,0-.662,2.08h-3.4a5.594,5.594,0,0,1,.744-2.848,5.245,5.245,0,0,1,2.1-2.021,6.394,6.394,0,0,1,3.082-.732,6.054,6.054,0,0,1,4.1,1.266,4.478,4.478,0,0,1,1.459,3.574,5.737,5.737,0,0,1-.656,2.578,14.327,14.327,0,0,1-2.25,3.059l-3.879,4.09h7.336Zm12.094-6.422h1.934v2.73h-1.934V25H180.23V21.309h-7l-.152-2.133L180.2,7.938h3.422Zm-7.16,0h3.773V12.555l-.223.387Z" transform="translate(653.668 1102)" fill="#12263f"/>
    <path id="Trazado_155622" data-name="Trazado 155622" d="M60,0A60,60,0,1,1,0,60,60,60,0,0,1,60,0Z" transform="translate(739.668 958)" fill="#fff"/>
    <g id="Fill_out_line" data-name="Fill out line" transform="translate(743.668 956.041)">
      <path id="Trazado_152568" data-name="Trazado 152568" d="M216,372.027h17.333v10H216Z" transform="translate(-166.667 -294.73)" fill="#1a1e38"/>
      <path id="Trazado_152569" data-name="Trazado 152569" d="M58.559,279.528a11.758,11.758,0,0,1-8.132,3.138H41.7a12,12,0,0,1-8.485-20.485L39.4,256H52.731l1.508,1.508,4.673,4.673A12,12,0,0,1,58.559,279.528Z" transform="translate(-11.398 -198.041)" fill="#7ae582"/>
      <rect id="Rectángulo_35219" data-name="Rectángulo 35219" width="18.667" height="4" rx="2" transform="translate(25.333 53.959)" fill="#ae7d4d"/>
      <path id="Trazado_152570" data-name="Trazado 152570" d="M80,181.333v-2.667a2.667,2.667,0,0,1,5.333,0,2.667,2.667,0,1,0,5.333,0,2.667,2.667,0,0,1,5.333,0v2.667a4,4,0,0,1-4,4H84A4,4,0,0,1,80,181.333Z" transform="translate(-53.334 -131.374)" fill="#7ae582"/>
      <path id="Trazado_152571" data-name="Trazado 152571" d="M194.427,258.667H185.7a12,12,0,0,1-8.485-20.485L183.4,232h13.333l2.29,2.29,3.892,3.892A12,12,0,0,1,194.427,258.667Z" transform="translate(-131.398 -178.041)" fill="#7ae582"/>
      <rect id="Rectángulo_35220" data-name="Rectángulo 35220" width="18.667" height="4" rx="2" transform="translate(49.333 49.959)" fill="#ae7d4d"/>
      <path id="Trazado_152572" data-name="Trazado 152572" d="M224,157.333v-2.667a2.667,2.667,0,0,1,5.333,0,2.667,2.667,0,0,0,5.333,0,2.667,2.667,0,0,1,5.333,0v2.667a4,4,0,0,1-4,4h-8A4,4,0,0,1,224,157.333Z" transform="translate(-173.334 -111.374)" fill="#7ae582"/>
      <path id="Trazado_152573" data-name="Trazado 152573" d="M314.914,334.181,308.732,328H295.4l-6.181,6.181a12,12,0,0,0,8.485,20.485h8.726A12,12,0,0,0,314.914,334.181Z" transform="translate(-224.733 -258.041)" fill="#7ae582"/>
      <rect id="Rectángulo_35221" data-name="Rectángulo 35221" width="18.667" height="4" rx="2" transform="translate(68 65.959)" fill="#ae7d4d"/>
      <path id="Trazado_152574" data-name="Trazado 152574" d="M336,253.333v-2.667a2.667,2.667,0,1,1,5.333,0,2.667,2.667,0,0,0,5.333,0,2.667,2.667,0,1,1,5.333,0v2.667a4,4,0,0,1-4,4h-8A4,4,0,0,1,336,253.333Z" transform="translate(-266.667 -191.374)" fill="#7ae582"/>
      <path id="Trazado_152575" data-name="Trazado 152575" d="M81.333,362.665A5.334,5.334,0,0,1,76,368H29.333a5.333,5.333,0,0,1,0-10.667c.057,0,.113,0,.17.005a5.332,5.332,0,0,1,6.578-6.48A8,8,0,0,1,52,352h2.667v6.667H64a5.333,5.333,0,0,1,10.545-1.132,5.335,5.335,0,0,1,6.788,5.132Z" transform="translate(-6.667 -271.373)" fill="#e6a800"/>
      <path id="Trazado_152576" data-name="Trazado 152576" d="M205.333,368v10.667c0,2.208-2.985,4-6.667,4s-6.667-1.792-6.667-4V368Z" transform="translate(-146.667 -291.374)" fill="#fb0"/>
      <ellipse id="Elipse_4668" data-name="Elipse 4668" cx="4" cy="6" rx="4" ry="6" transform="translate(41.333 63.292)" fill="#efdd9b"/>
      <ellipse id="Elipse_4669" data-name="Elipse 4669" cx="6.667" cy="4" rx="6.667" ry="4" transform="translate(45.333 72.626)" fill="#ffda73"/>
      <path id="Trazado_152577" data-name="Trazado 152577" d="M89.762,200a13.355,13.355,0,0,0,4.252-5.564,13.127,13.127,0,0,0-2.89-14.531L86.6,175.379a3.326,3.326,0,0,0-.777-5.835,5.3,5.3,0,0,0,.846-2.877V164a4,4,0,1,0-8,0A1.333,1.333,0,0,1,76,164a4,4,0,0,0-6.537-3.09l-1.532-1.532a3.326,3.326,0,0,0-.777-5.835A5.3,5.3,0,0,0,68,150.667V148a4,4,0,1,0-8,0,1.333,1.333,0,0,1-2.667,0,4,4,0,1,0-8,0v2.667a5.3,5.3,0,0,0,.846,2.877,3.326,3.326,0,0,0-.777,5.835l-4.527,4.527c-.07.07-.136.143-.2.214l-.741-.741a3.326,3.326,0,0,0-.777-5.835A5.3,5.3,0,0,0,44,154.667V152a4,4,0,0,0-8,0,1.333,1.333,0,1,1-2.667,0,4,4,0,0,0-8,0v2.667a5.3,5.3,0,0,0,.846,2.877,3.326,3.326,0,0,0-.777,5.835l-4.527,4.527a13.06,13.06,0,0,0-3.893,10.328,13.731,13.731,0,0,0,4.617,9.238,6.644,6.644,0,0,0-.267,1.862c0,.045,0,.089,0,.133a6.663,6.663,0,0,0-4,10.533H16v2.667H96V200ZM70,173.333A.667.667,0,0,1,70,172H84.666a.667.667,0,1,1,0,1.333Zm-2,14.209v.466a6.711,6.711,0,0,0-4.961-2.664,10.722,10.722,0,0,1,2.389-3.554L71.219,176h.55A19.4,19.4,0,0,0,68,187.542Zm-16-8.876c3.052,0,5.333,1.408,5.333,2.667S55.052,184,52,184s-5.333-1.408-5.333-2.667S48.947,178.667,52,178.667Zm-4.64-1.7a6.822,6.822,0,0,0-2.3,1.678c-1.425-.262-2.4-2.563-2.4-4.641,0-2.75,1.405-4.667,2.667-4.667C46.9,169.333,48,171.793,48,174a6.8,6.8,0,0,1-.64,2.963Zm-.694,8.375a11.374,11.374,0,0,0,10.667,0V192c0,1.259-2.281,2.667-5.333,2.667s-5.333-1.408-5.333-2.667Zm24-21.339a1.333,1.333,0,0,1,2.667,0,4,4,0,0,0,8,0A1.333,1.333,0,0,1,84,164v2.667a2.67,2.67,0,0,1-2.667,2.667h-8a2.67,2.67,0,0,1-2.667-2.667Zm-19.333-6.667a.667.667,0,1,1,0-1.333H66a.667.667,0,1,1,0,1.333ZM52,148a1.333,1.333,0,1,1,2.667,0,4,4,0,0,0,8,0,1.333,1.333,0,1,1,2.667,0v2.667a2.67,2.67,0,0,1-2.667,2.667h-8A2.67,2.67,0,0,1,52,150.667Zm.552,12h.557a19.581,19.581,0,0,0-3.063,6.31l2.569.714A16.913,16.913,0,0,1,56.564,160h2.869a16.816,16.816,0,0,1,4.244,8.259l2.616-.519a19.475,19.475,0,0,0-3.4-7.741h1.887l3.284,3.284A4,4,0,0,0,68,164v2.667a5.3,5.3,0,0,0,.846,2.877,3.326,3.326,0,0,0-.777,5.835l-4.527,4.527a13.344,13.344,0,0,0-3.483,5.962l-.059.025v-4.559c0-2.991-3.514-5.333-8-5.333a12.4,12.4,0,0,0-1.555.1,10.106,10.106,0,0,0,.222-2.1c0-3.832-2.034-6.888-4.731-7.288a11.512,11.512,0,0,1,.826-.921Zm-25.219,1.333a.667.667,0,1,1,0-1.333H42a.667.667,0,1,1,0,1.333ZM28,152a1.333,1.333,0,0,1,2.667,0,4,4,0,1,0,8,0,1.333,1.333,0,0,1,2.667,0v2.667a2.67,2.67,0,0,1-2.667,2.667h-8A2.67,2.67,0,0,1,28,154.667Zm-8.357,26.036a10.432,10.432,0,0,1,3.119-8.245L28.552,164h.55a19.4,19.4,0,0,0-3.769,11.542V180H28v-4.458A16.756,16.756,0,0,1,32.565,164H35.43a16.806,16.806,0,0,1,3.053,4.552l2.427-1.1A19.5,19.5,0,0,0,38.889,164h1.892l2.224,2.224a13.039,13.039,0,0,0-1.094,2.109A8.6,8.6,0,0,0,40,174a10.1,10.1,0,0,0,.3,2.488A9.29,9.29,0,0,0,37.333,176a9.385,9.385,0,0,0-8.948,6.68c-.128-.007-.256-.013-.385-.013a6.654,6.654,0,0,0-5.1,2.376,11.043,11.043,0,0,1-3.26-7.007ZM22.666,200a4,4,0,1,1,2.646-7l1.764-2A6.655,6.655,0,0,0,24,189.47c0-.046,0-.091,0-.137a4,4,0,0,1,7.466-2L33.774,186a6.682,6.682,0,0,0-2.81-2.633A6.667,6.667,0,0,1,44,185.333V192c0,2.991,3.514,5.333,8,5.333s8-2.343,8-5.333v-2.98a4,4,0,0,1,6.2,1.1,6.675,6.675,0,0,0-2.638,2.541L65.867,194a4,4,0,1,1,3.466,6Zm52,0a6.663,6.663,0,0,0-4-10.533v-1.925A16.756,16.756,0,0,1,75.232,176H78.1a16.756,16.756,0,0,1,4.566,11.542V192h2.667v-4.458A19.4,19.4,0,0,0,81.564,176h1.883l5.791,5.791A10.667,10.667,0,0,1,81.7,200Z" transform="translate(0 -104.708)"/>
      <path id="Trazado_152578" data-name="Trazado 152578" d="M88.123,50.343a7,7,0,0,0,0,9.886l1.333,1.333,1.886-1.886-1.333-1.333a4.329,4.329,0,0,1,0-6.114,7,7,0,0,0,0-9.886l-1.886,1.886A4.329,4.329,0,0,1,88.123,50.343Z" transform="translate(-58.399 -19.994)"/>
      <path id="Trazado_152579" data-name="Trazado 152579" d="M0,0H2.667V3.771H0Z" transform="translate(25.722 20.236) rotate(-45)"/>
      <path id="Trazado_152580" data-name="Trazado 152580" d="M158,100h2V97.333h-2a3.333,3.333,0,0,1,0-6.667h7.333V88H158a6,6,0,1,0,0,12Z" transform="translate(-113.334 -58.041)"/>
      <path id="Trazado_152581" data-name="Trazado 152581" d="M248,88h2.667v2.667H248Z" transform="translate(-193.334 -58.041)"/>
      <path id="Trazado_152582" data-name="Trazado 152582" d="M332.343,46.229a3.385,3.385,0,0,1,0,4.781,6.054,6.054,0,0,0,0,8.552l2,2,1.886-1.886-2-2a3.385,3.385,0,0,1,0-4.781,6.054,6.054,0,0,0,0-8.552l-2-2-1.886,1.886Z" transform="translate(-261.953 -19.994)"/>
      <path id="Trazado_152583" data-name="Trazado 152583" d="M0,0H2.667V3.771H0Z" transform="translate(64.384 20.24) rotate(-45)"/>
      <path id="Trazado_152584" data-name="Trazado 152584" d="M446.182,98.343a7,7,0,0,0,0,9.886,4.329,4.329,0,0,1,0,6.114l-1.333,1.333,1.886,1.886,1.333-1.333a7,7,0,0,0,0-9.886,4.329,4.329,0,0,1,0-6.114,7,7,0,0,0,0-9.886l-1.886,1.886a4.329,4.329,0,0,1,0,6.114Z" transform="translate(-356.782 -59.994)"/>
      <path id="Trazado_152585" data-name="Trazado 152585" d="M0,0H2.667V3.771H0Z" transform="translate(85.391 28.242) rotate(-45)"/>
    </g>
  </g>
</svg>
