<svg xmlns="http://www.w3.org/2000/svg" width="173.451" height="218.96" viewBox="0 0 173.451 218.96">
  <g id="Grupo_90185" data-name="Grupo 90185" transform="translate(-1149.098 -752.465)">
    <path id="Trazado_148722" data-name="Trazado 148722" d="M6.529,0A6.529,6.529,0,1,1,0,6.529,6.529,6.529,0,0,1,6.529,0Z" transform="translate(1228.887 958.367)" fill="#29b39d"/>
    <g id="Grupo_90184" data-name="Grupo 90184">
      <g id="Grupo_86244" data-name="Grupo 86244" transform="translate(1149.098 752.465)">
        <path id="Trazado_148723" data-name="Trazado 148723" d="M61.324,0A61.324,61.324,0,1,1,0,61.324,61.324,61.324,0,0,1,61.324,0Z" transform="translate(0 86.725) rotate(-45)" fill="#29b39d"/>
        <g id="Grupo_86237" data-name="Grupo 86237" transform="translate(7.748 7.747)">
          <path id="Trazado_148682" data-name="Trazado 148682" d="M2867.241,832.042a1.187,1.187,0,0,1-1.028-.594l-12.047-20.866a78.994,78.994,0,0,1-65.9-77.9h2.375a76.209,76.209,0,0,0,64.461,75.645,1.187,1.187,0,0,1,.842.579l11.3,19.573,11.3-19.573a1.186,1.186,0,0,1,.841-.579,76.609,76.609,0,0,0-12.142-152.248v-2.374a78.983,78.983,0,0,1,13.075,156.875l-12.047,20.866A1.186,1.186,0,0,1,2867.241,832.042Z" transform="translate(-2788.264 -653.707)" fill="#3ca8f4"/>
        </g>
        <g id="Grupo_86238" data-name="Grupo 86238" transform="translate(4.483 4.483)">
          <path id="Trazado_148683" data-name="Trazado 148683" d="M2787.781,726.564h-8.9a82.243,82.243,0,0,1,82.242-82.242v8.9A73.422,73.422,0,0,0,2787.781,726.564Z" transform="translate(-2778.878 -644.322)" fill="#29b39d"/>
        </g>
      </g>
      <g id="mineria" transform="translate(1196.664 798.898)">
        <path id="Trazado_151383" data-name="Trazado 151383" d="M274.842,368.524v-3.871l-5.161-5.161V354.33l-5.161-5.161h-3.871l-5.161-5.161h-3.871l-2.581,2.581h-3.871L240,351.75v16.774" transform="translate(-201.291 -288.523)" fill="#f8cf6a"/>
        <path id="Trazado_151384" data-name="Trazado 151384" d="M274.842,368.524v-3.871l-5.161-5.161V354.33l-5.161-5.161h-3.871l-5.161-5.161h-3.871l-2.581,2.581h-3.871L240,351.75v16.774" transform="translate(-201.291 -288.523)" fill="#3ca8f4"/>
        <path id="Trazado_151386" data-name="Trazado 151386" d="M51.874,368.524v-3.871l-2.581-2.581v-6.452l-3.871-3.871H42.842l-3.871-3.871H35.1l-3.871-3.871H26.068l-5.161,5.161v5.161l-2.581,2.581H14.455L8,363.362v5.161" transform="translate(-6.71 -288.523)" fill="#3ca8f4"/>
        <g id="Grupo_86311" data-name="Grupo 86311" transform="translate(1.294 1.292)">
          <path id="Trazado_151388" data-name="Trazado 151388" d="M178.585,295.75,176,291.879l3.871-3.871,2.581,2.581-1.29,5.161Zm0,0" transform="translate(-148.908 -242.847)" fill="#3ca8f4"/>
          <path id="Trazado_151389" data-name="Trazado 151389" d="M226.585,240.008h3.871l2.581,3.871-2.581,3.871h-2.581L224,242.588Zm0,0" transform="translate(-189.166 -202.589)" fill="#3ca8f4"/>
          <path id="Trazado_151390" data-name="Trazado 151390" d="M14.455,323.879l-2.581-3.871H9.294L8,322.588v3.871l5.161,1.29Zm0,0" transform="translate(-8.004 -269.686)" fill="#3ca8f4"/>
          <path id="Trazado_151391" data-name="Trazado 151391" d="M418.326,13.169a5.161,5.161,0,0,1-5.161-5.161A5.161,5.161,0,0,1,408,13.169a5.161,5.161,0,0,1,5.161,5.161A5.161,5.161,0,0,1,418.326,13.169Zm0,0" transform="translate(-343.489 -8.008)" fill="#fb0"/>
          <path id="Trazado_151392" data-name="Trazado 151392" d="M354.326,61.169a5.161,5.161,0,0,1-5.161-5.161A5.161,5.161,0,0,1,344,61.169a5.161,5.161,0,0,1,5.161,5.161A5.161,5.161,0,0,1,354.326,61.169Zm0,0" transform="translate(-289.811 -48.266)" fill="#fb0"/>
        </g>
        <path id="Trazado_151393" data-name="Trazado 151393" d="M15.746,160.008H11.875a3.871,3.871,0,0,0,0,7.742h3.871" transform="translate(-6.71 -134.2)" fill="#e6a800"/>
        <path id="Trazado_151395" data-name="Trazado 151395" d="M79.746,224.008v21.935l-.183-.183A25.806,25.806,0,0,1,72,227.512v-3.5" transform="translate(-60.387 -187.878)" fill="#58a65e"/>
        <path id="Trazado_151397" data-name="Trazado 151397" d="M79.746,29.943V8.008l-.183.183A25.805,25.805,0,0,0,72,26.439v3.5" transform="translate(-60.387 -6.716)" fill="#58a65e"/>
        <path id="Trazado_151399" data-name="Trazado 151399" d="M56,144.008h12.9v12.9H56Zm0,0" transform="translate(-46.968 -120.781)" fill="#58a65e"/>
        <path id="Trazado_151401" data-name="Trazado 151401" d="M426.585,156.911h5.161a2.58,2.58,0,0,0,2.581-2.581v-7.742a2.58,2.58,0,0,0-2.581-2.581h-5.161A2.58,2.58,0,0,0,424,146.588v7.742A2.58,2.58,0,0,0,426.585,156.911Zm0,0" transform="translate(-355.614 -120.781)" fill="#58a65e"/>
        <path id="Trazado_151403" data-name="Trazado 151403" d="M182.455,160.008H136v7.742h46.451" transform="translate(-114.065 -134.2)" fill="#e6a800"/>
        <path id="Trazado_151405" data-name="Trazado 151405" d="M46.455,361.814H43.874v-3.337l-2.2-2.2a1.287,1.287,0,0,1-.378-.912v-5.917l-3.115-3.115H36.132a1.285,1.285,0,0,1-.912-.378l-3.493-3.493H28.391a1.285,1.285,0,0,1-.912-.378l-3.493-3.493H19.893l-4.405,4.405v4.627a1.287,1.287,0,0,1-.378.912l-2.581,2.581a1.285,1.285,0,0,1-.912.378H8.28l-5.7,5.7v4.627H0v-5.161a1.287,1.287,0,0,1,.378-.912l6.452-6.452a1.285,1.285,0,0,1,.912-.378h3.337l1.825-1.825v-4.627a1.287,1.287,0,0,1,.378-.912l5.161-5.161a1.285,1.285,0,0,1,.912-.378H24.52a1.285,1.285,0,0,1,.912.378l3.493,3.493h3.337a1.285,1.285,0,0,1,.912.378l3.493,3.493h2.046a1.285,1.285,0,0,1,.912.378L43.5,348a1.287,1.287,0,0,1,.378.912v5.917l2.2,2.2a1.287,1.287,0,0,1,.378.912Zm0,0" transform="translate(0 -281.814)"/>
        <path id="Trazado_151406" data-name="Trazado 151406" d="M271.388,361.814h-2.581v-3.337l-4.783-4.783a1.287,1.287,0,0,1-.378-.912v-4.627l-4.405-4.405H255.9a1.285,1.285,0,0,1-.912-.378l-4.783-4.783h-2.8l-2.2,2.2a1.285,1.285,0,0,1-.912.378h-3.337l-4.783,4.783-1.825-1.825,5.161-5.161a1.284,1.284,0,0,1,.912-.378h3.337l2.2-2.2a1.285,1.285,0,0,1,.912-.378h3.871a1.285,1.285,0,0,1,.912.378l4.783,4.783h3.337a1.285,1.285,0,0,1,.912.378l5.161,5.161a1.287,1.287,0,0,1,.378.912v4.627l4.783,4.783a1.287,1.287,0,0,1,.378.912Zm0,0" transform="translate(-196.547 -281.814)"/>
        <path id="Trazado_151407" data-name="Trazado 151407" d="M150.575,404.533l-2.2-2.2h-2.046a1.285,1.285,0,0,1-.912-.378l-2.581-2.581a1.287,1.287,0,0,1-.378-.912v-2.046l-1.825-1.825H136v-2.581h5.161a1.285,1.285,0,0,1,.912.378l2.581,2.581a1.287,1.287,0,0,1,.378.912v2.046l1.825,1.825h2.046a1.284,1.284,0,0,1,.912.378l2.581,2.581Zm0,0" transform="translate(-114.065 -328.781)"/>
        <path id="Trazado_151408" data-name="Trazado 151408" d="M326.575,420.533l-2.2-2.2h-2.046a1.285,1.285,0,0,1-.912-.378l-2.581-2.581a1.287,1.287,0,0,1-.378-.912v-2.046l-1.825-1.825H312v-2.581h5.161a1.285,1.285,0,0,1,.912.378l2.581,2.581a1.287,1.287,0,0,1,.378.912v2.046l1.825,1.825h2.046a1.285,1.285,0,0,1,.912.378l2.581,2.581Zm0,0" transform="translate(-261.678 -342.201)"/>
        <path id="Trazado_151409" data-name="Trazado 151409" d="M68.172,447.372l-1.825-1.825,2.581-2.581a1.285,1.285,0,0,1,.912-.378h2.046l2.2-2.2a1.284,1.284,0,0,1,.912-.378h2.581v2.581H75.536l-2.2,2.2a1.285,1.285,0,0,1-.912.378H70.375Zm0,0" transform="translate(-55.643 -369.04)"/>
        <path id="Trazado_151410" data-name="Trazado 151410" d="M175.745,162.33H129.294a1.29,1.29,0,0,1-1.29-1.29V153.3a1.29,1.29,0,0,1,1.29-1.29h46.451v2.581H130.585v5.161h45.161Zm0,0" transform="translate(-107.355 -127.491)"/>
        <path id="Trazado_151411" data-name="Trazado 151411" d="M425.036,151.491h-5.161A3.876,3.876,0,0,1,416,147.621v-7.742a3.876,3.876,0,0,1,3.871-3.871h5.161a3.876,3.876,0,0,1,3.871,3.871v7.742A3.876,3.876,0,0,1,425.036,151.491Zm-5.161-12.9a1.291,1.291,0,0,0-1.29,1.29v7.742a1.292,1.292,0,0,0,1.29,1.29h5.161a1.292,1.292,0,0,0,1.29-1.29v-7.742a1.292,1.292,0,0,0-1.29-1.29Zm0,0" transform="translate(-348.904 -114.071)"/>
        <path id="Trazado_151412" data-name="Trazado 151412" d="M9.036,162.33H5.165a5.161,5.161,0,1,1,0-10.322H9.036v2.581H5.165a2.581,2.581,0,1,0,0,5.161H9.036Zm0,0" transform="translate(0 -127.491)"/>
        <path id="Trazado_151413" data-name="Trazado 151413" d="M62.2,151.491h-12.9A1.29,1.29,0,0,1,48,150.2V137.3a1.29,1.29,0,0,1,1.29-1.29H62.2a1.29,1.29,0,0,1,1.29,1.29v12.9A1.29,1.29,0,0,1,62.2,151.491Zm-11.613-2.581H60.907V138.588H50.585Zm0,0" transform="translate(-40.258 -114.071)"/>
        <path id="Trazado_151414" data-name="Trazado 151414" d="M74.326,23.227H71.746V4.669a24.327,24.327,0,0,0-5.161,15.054v3.5H64v-3.5A26.929,26.929,0,0,1,71.939.563l.186-.186a1.291,1.291,0,0,1,2.2.915Zm0,0" transform="translate(-53.678 0)"/>
        <path id="Trazado_151415" data-name="Trazado 151415" d="M73.036,247.233a1.286,1.286,0,0,1-.911-.377l-.185-.183A26.931,26.931,0,0,1,64,227.512v-3.5h2.581v3.5a24.332,24.332,0,0,0,5.161,15.054V224.008h2.581v21.935a1.292,1.292,0,0,1-1.29,1.29Zm0,0" transform="translate(-53.678 -187.878)"/>
        <path id="Trazado_151416" data-name="Trazado 151416" d="M174.454,290.328h-2.581a1.292,1.292,0,0,1-1.074-.574l-2.581-3.871a1.29,1.29,0,0,1,.161-1.629l3.871-3.871a1.289,1.289,0,0,1,1.825,0l2.581,2.581a1.291,1.291,0,0,1,.34,1.226l-1.29,5.161A1.291,1.291,0,0,1,174.454,290.328Zm-1.89-2.581h.882l.87-3.475-1.152-1.152-2.21,2.21Zm0,0" transform="translate(-140.902 -234.843)"/>
        <path id="Trazado_151417" data-name="Trazado 151417" d="M223.744,242.33h-2.581a1.291,1.291,0,0,1-1.032-.516l-3.871-5.161a1.289,1.289,0,0,1,.12-1.687l2.581-2.581a1.285,1.285,0,0,1,.912-.378h3.871a1.292,1.292,0,0,1,1.074.574l2.581,3.871a1.288,1.288,0,0,1,0,1.431l-2.581,3.871A1.29,1.29,0,0,1,223.744,242.33Zm-1.935-2.581h1.245l1.72-2.581-1.72-2.581h-2.646L219,236Zm0,0" transform="translate(-181.16 -194.588)"/>
        <path id="Trazado_151418" data-name="Trazado 151418" d="M6.457,322.33a1.305,1.305,0,0,1-.314-.039L.982,321A1.289,1.289,0,0,1,0,319.75v-3.871a1.3,1.3,0,0,1,.135-.577l1.29-2.581a1.292,1.292,0,0,1,1.155-.713H5.165a1.292,1.292,0,0,1,1.074.574l2.581,3.871a1.289,1.289,0,0,1,.149,1.124l-1.29,3.871A1.288,1.288,0,0,1,6.457,322.33Zm-3.872-3.589,3.024.757.714-2.138-1.848-2.772H3.382l-.8,1.595Zm0,0" transform="translate(0 -261.685)"/>
        <path id="Trazado_151419" data-name="Trazado 151419" d="M406.455,12.911a1.29,1.29,0,0,1-1.29-1.29,3.876,3.876,0,0,0-3.871-3.871,1.29,1.29,0,1,1,0-2.581A3.876,3.876,0,0,0,405.165,1.3a1.29,1.29,0,1,1,2.581,0,3.876,3.876,0,0,0,3.871,3.871,1.29,1.29,0,0,1,0,2.581,3.876,3.876,0,0,0-3.871,3.871A1.29,1.29,0,0,1,406.455,12.911Zm-1.294-6.452a6.525,6.525,0,0,1,1.294,1.294,6.525,6.525,0,0,1,1.294-1.294,6.525,6.525,0,0,1-1.294-1.294A6.525,6.525,0,0,1,405.161,6.459Zm0,0" transform="translate(-335.485 -0.006)"/>
        <path id="Trazado_151420" data-name="Trazado 151420" d="M342.455,60.911a1.29,1.29,0,0,1-1.29-1.29,3.876,3.876,0,0,0-3.871-3.871,1.29,1.29,0,0,1,0-2.581,3.876,3.876,0,0,0,3.871-3.871,1.29,1.29,0,0,1,2.581,0,3.876,3.876,0,0,0,3.871,3.871,1.29,1.29,0,0,1,0,2.581,3.876,3.876,0,0,0-3.871,3.871A1.29,1.29,0,0,1,342.455,60.911Zm-1.294-6.452a6.525,6.525,0,0,1,1.294,1.294,6.525,6.525,0,0,1,1.294-1.294,6.525,6.525,0,0,1-1.294-1.294A6.525,6.525,0,0,1,341.161,54.459Zm0,0" transform="translate(-281.807 -40.264)"/>
      </g>
    </g>
  </g>
</svg>
