<svg xmlns="http://www.w3.org/2000/svg" width="80" height="77.081" viewBox="0 0 80 77.081">
  <g id="Grupo_90177" data-name="Grupo 90177" transform="translate(-1159.002 -1329.827)">
    <g id="jabon" transform="translate(1159.002 1320.486)">
      <rect id="Rectángulo_34706" data-name="Rectángulo 34706" width="4.779" height="7.28" transform="translate(17.175 16.98)" fill="#29b39d"/>
      <path id="Trazado_151589" data-name="Trazado 151589" d="M81.593,113.07H95.015c.042,0,.083,0,.124,0v-7.467a.784.784,0,0,0-.781-.781H82.25a.784.784,0,0,0-.781.781v7.467C81.51,113.072,81.552,113.07,81.593,113.07Z" transform="translate(-68.739 -80.565)" fill="#29b39d"/>
      <path id="Trazado_151591" data-name="Trazado 151591" d="M42.088,460.347l-1.863-5.568H7.5v5.528a.784.784,0,0,0,.781.781H43.117A1.162,1.162,0,0,1,42.088,460.347Z" transform="translate(-6.328 -375.838)" fill="#7ae582"/>
      <path id="Trazado_151592" data-name="Trazado 151592" d="M32.6,157.592H19.182A11.773,11.773,0,0,0,7.5,169.453H44.285A11.773,11.773,0,0,0,32.6,157.592Z" transform="translate(-6.328 -125.087)" fill="#7ae582"/>
      <path id="Trazado_151594" data-name="Trazado 151594" d="M37.655,268.041a.784.784,0,0,1-.781-.781v-3.485a.784.784,0,0,1,.781-.781h5.814a8.233,8.233,0,0,1-2.911-6.358,6.527,6.527,0,0,1,3.727-6.218V233.5H7.5v34.575Z" transform="translate(-6.328 -189.136)" fill="#fff"/>
      <path id="Trazado_151595" data-name="Trazado 151595" d="M221.981,350.869H252.4a8.232,8.232,0,0,0,2.911-6.358c0-4.618-3.561-7.4-8.011-6.773a81.808,81.808,0,0,1-20.217,0c-4.45-.626-8.006,2.154-8.011,6.773A8.234,8.234,0,0,0,221.981,350.869Z" transform="translate(-184.84 -277.012)" fill="#7ae582"/>
      <path id="Trazado_151596" data-name="Trazado 151596" d="M239.1,426.512a.784.784,0,0,1-.781.781H196.271a.784.784,0,0,1-.781-.781v-3.485a.784.784,0,0,1,.781-.781h42.045a.784.784,0,0,1,.781.781v3.485Z" transform="translate(-164.945 -348.389)" fill="#3eaf91"/>
      <path id="Trazado_151597" data-name="Trazado 151597" d="M216.864,454.549l1.875,5.6a1.162,1.162,0,0,0,1.029.741h31.12a1.162,1.162,0,0,0,1.029-.741l1.875-5.6Z" transform="translate(-182.979 -375.644)" fill="#fb0"/>
      <ellipse id="Elipse_4612" data-name="Elipse 4612" cx="8.45" cy="8.581" rx="8.45" ry="8.581" transform="translate(11.114 50.927)" fill="#29b39d"/>
      <path id="Trazado_151600" data-name="Trazado 151600" d="M95.139,22.528a.784.784,0,0,1-.781.781H82.25a.784.784,0,0,1-.781-.781v-4.9a.784.784,0,0,1,.781-.781H94.358a.784.784,0,0,1,.781.781v4.9Z" transform="translate(-68.739 -6.329)" fill="#29b39d"/>
      <path id="Trazado_151602" data-name="Trazado 151602" d="M397.021,137.56a9.953,9.953,0,1,1-9.952-10.105A10.029,10.029,0,0,1,397.021,137.56Z" transform="translate(-318.193 -99.659)" fill="#fff"/>
      <path id="Trazado_151612" data-name="Trazado 151612" d="M4.284,0A4.318,4.318,0,0,1,8.569,4.35,4.318,4.318,0,0,1,4.284,8.7,4.318,4.318,0,0,1,0,4.35,4.318,4.318,0,0,1,4.284,0Z" transform="translate(46.745 45.594)" fill="#fff"/>
      <path id="Trazado_151604" data-name="Trazado 151604" d="M239.1,426.512a.784.784,0,0,1-.781.781H196.271a.784.784,0,0,1-.781-.781v-3.485a.784.784,0,0,1,.781-.781h42.045a.784.784,0,0,1,.781.781v3.485Z" transform="translate(-164.945 -348.389)" fill="#e6a800"/>
      <path id="Trazado_151608" data-name="Trazado 151608" d="M82.873,277.75a9.623,9.623,0,1,0-9.622,9.753A9.7,9.7,0,0,0,82.873,277.75Zm-16.9,0a7.28,7.28,0,1,1,7.279,7.409A7.353,7.353,0,0,1,65.972,277.75Z" transform="translate(-53.686 -218.242)"/>
      <path id="Trazado_151609" data-name="Trazado 151609" d="M380.741,119.955a11.278,11.278,0,1,0,11.124,11.277A11.214,11.214,0,0,0,380.741,119.955Zm0,20.21a8.934,8.934,0,1,1,8.78-8.932A8.867,8.867,0,0,1,380.741,140.165Z" transform="translate(-311.865 -93.331)"/>
      <path id="Trazado_151610" data-name="Trazado 151610" d="M297.128,244.907a5.523,5.523,0,1,0-5.456-5.522A5.5,5.5,0,0,0,297.128,244.907Zm0-8.7a3.179,3.179,0,1,1-3.113,3.178A3.15,3.15,0,0,1,297.128,236.207Z" transform="translate(-246.098 -189.44)"/>
      <path id="Trazado_151611" data-name="Trazado 151611" d="M73.372,72.686H70.135A9.5,9.5,0,0,0,71.64,67.5a7.692,7.692,0,0,0-7.955-8.031,10.028,10.028,0,0,0-1.381.1,80.966,80.966,0,0,1-9.955.617,80.969,80.969,0,0,1-9.955-.617,10.026,10.026,0,0,0-1.381-.1,8.891,8.891,0,0,0-1.884.2v-15.3a13.146,13.146,0,0,0-1.872-6.776A1.172,1.172,0,1,0,35.248,38.8a10.766,10.766,0,0,1,1.473,4.4H2.408a10.591,10.591,0,0,1,10.446-9.517H26.275a10.381,10.381,0,0,1,5.03,1.3,1.172,1.172,0,0,0,1.138-2.049A12.723,12.723,0,0,0,27.571,31.4V25.041a1.955,1.955,0,0,0-1.953-1.953H23.126V18.152h2.493A1.955,1.955,0,0,0,27.571,16.2V13.992h6.977v3.875a1.172,1.172,0,0,0,2.344,0V13.6a1.955,1.955,0,0,0-1.953-1.953H27.571v-.354a1.955,1.955,0,0,0-1.953-1.953H13.511a1.955,1.955,0,0,0-1.953,1.953v4.9a1.955,1.955,0,0,0,1.953,1.953H16v4.937H13.511a1.955,1.955,0,0,0-1.953,1.953V31.4A12.985,12.985,0,0,0,0,44.366v40.1a1.955,1.955,0,0,0,1.953,1.953H67.91a2.344,2.344,0,0,0,2.14-1.541l1.607-4.8h1.715a1.955,1.955,0,0,0,1.953-1.953V74.639A1.955,1.955,0,0,0,73.372,72.686Zm-59.47-61H25.228v4.123H13.9Zm4.446,6.467h2.435v4.937H18.347S18.347,18.152,18.347,18.152Zm6.881,7.28v5.9H13.9v-5.9ZM2.344,80.113H9.375a1.172,1.172,0,0,0,0-2.344H2.344V45.538H36.785V60.573a7.315,7.315,0,0,0-1.43,1.091,7.968,7.968,0,0,0-2.3,5.834,9.492,9.492,0,0,0,1.506,5.187H31.327a1.955,1.955,0,0,0-1.953,1.953v3.13H15.938a1.172,1.172,0,0,0,0,2.344H33.054l1.327,3.965H2.344Zm65.5,3.965h-31l-1.339-4H69.186Zm5.134-6.345H31.717v-2.7h23.6a1.172,1.172,0,0,0,0-2.344H37.588c-.046-.044-.093-.087-.138-.132A7.073,7.073,0,0,1,35.4,67.5a5.354,5.354,0,0,1,5.611-5.689,7.694,7.694,0,0,1,1.064.076l.018,0a83.317,83.317,0,0,0,10.254.636A83.314,83.314,0,0,0,62.6,61.89l.018,0a7.7,7.7,0,0,1,1.064-.076A5.354,5.354,0,0,1,69.3,67.5a7.074,7.074,0,0,1-2.048,5.054c-.045.045-.091.088-.137.131h-5.08a1.172,1.172,0,0,0,0,2.344h10.95v2.7Z"/>
    </g>
  </g>
</svg>
