<svg xmlns="http://www.w3.org/2000/svg" width="329" height="250" viewBox="0 0 329 250">
  <g id="Grupo_90177" data-name="Grupo 90177" transform="translate(-284.668 -924)">
    <path id="Trazado_155617" data-name="Trazado 155617" d="M20,0H309a20,20,0,0,1,20,20V230a20,20,0,0,1-20,20H20A20,20,0,0,1,0,230V20A20,20,0,0,1,20,0Z" transform="translate(284.668 924)" fill="#29b39d"/>
    <path id="Trazado_155618" data-name="Trazado 155618" d="M113.932,22.844a6.1,6.1,0,0,1-2.684,1.764,11.238,11.238,0,0,1-3.844.627,7.614,7.614,0,0,1-3.885-.967,6.448,6.448,0,0,1-2.578-2.807,9.878,9.878,0,0,1-.932-4.324v-1.16a10.491,10.491,0,0,1,.861-4.424,6.372,6.372,0,0,1,2.484-2.859,8.18,8.18,0,0,1,8.549.457,6.185,6.185,0,0,1,2.027,4.213H110.51a3.4,3.4,0,0,0-1.037-2.145,3.312,3.312,0,0,0-2.209-.68,3.117,3.117,0,0,0-2.73,1.348,7.086,7.086,0,0,0-.949,4.008v1.09a6.746,6.746,0,0,0,1.02,4.055,3.491,3.491,0,0,0,2.988,1.371,3.9,3.9,0,0,0,2.824-.844V18.625h-3.2v-2.59h6.715Zm15.691-12.059H124.4V25h-3.516V10.785h-5.156V7.938h13.9Zm15.4,8.531a6.038,6.038,0,0,1-2.033,4.336,7.141,7.141,0,0,1-4.834,1.582,6.421,6.421,0,0,1-5.162-2.209,9.058,9.058,0,0,1-1.881-6.064V15.918a10.228,10.228,0,0,1,.867-4.336,6.5,6.5,0,0,1,2.479-2.877,7.746,7.746,0,0,1,8.5.58,6.488,6.488,0,0,1,2.086,4.441h-3.516a3.563,3.563,0,0,0-.92-2.4,3.407,3.407,0,0,0-2.408-.744,2.987,2.987,0,0,0-2.631,1.26,7.06,7.06,0,0,0-.9,3.908v1.289a7.556,7.556,0,0,0,.838,4.043,2.932,2.932,0,0,0,2.643,1.277,3.471,3.471,0,0,0,2.432-.744,3.361,3.361,0,0,0,.92-2.3ZM161.17,25h-3.387V11.945L153.74,13.2V10.445l7.066-2.531h.363ZM178.2,17.945a8.644,8.644,0,0,1-1.465,5.414,5.854,5.854,0,0,1-8.555.035,8.391,8.391,0,0,1-1.512-5.273V14.98a8.53,8.53,0,0,1,1.482-5.426,5.865,5.865,0,0,1,8.537-.018A8.365,8.365,0,0,1,178.2,14.8ZM174.811,14.5a6.237,6.237,0,0,0-.58-3.088,1.961,1.961,0,0,0-1.811-.967,1.926,1.926,0,0,0-1.764.92,5.837,5.837,0,0,0-.6,2.877v4.148a6.547,6.547,0,0,0,.568,3.1,1.935,1.935,0,0,0,1.822,1.014,1.9,1.9,0,0,0,1.793-.973,6.39,6.39,0,0,0,.574-2.977ZM190.5,18.578h1.934v2.73H190.5V25h-3.387V21.309h-7l-.152-2.133L187.08,7.938H190.5Zm-7.16,0h3.773V12.555l-.223.387Z" transform="translate(303.668 1102)" fill="#12263f"/>
    <path id="Trazado_155619" data-name="Trazado 155619" d="M60,0A60,60,0,1,1,0,60,60,60,0,0,1,60,0Z" transform="translate(389.668 958)" fill="#fff"/>
    <g id="Page-1" transform="translate(409.126 971.803)">
      <g id="_012---Toxic-Gasses" data-name="012---Toxic-Gasses" transform="translate(0.042 0.03)">
        <g id="Color" transform="translate(1.074 1.494)">
          <path id="Shape" d="M68.947,58.794a36.953,36.953,0,0,1-54.413,6.159h7.483a4.619,4.619,0,0,0,4.619-4.619,4.619,4.619,0,0,1,4.619-4.619h3.079a4.619,4.619,0,0,0,4.4-3.249,4.481,4.481,0,0,0,.216-1.37,4.619,4.619,0,0,0-4.619-4.619H3.54a1.386,1.386,0,0,0-.354,0A36.445,36.445,0,0,1,2,38.778H12.778A4.619,4.619,0,0,0,17.4,34.159a4.619,4.619,0,0,1,1.355-3.264,4.511,4.511,0,0,1,1.894-1.139A7.7,7.7,0,0,0,33.672,28a6.159,6.159,0,0,0,10.562,0,7.7,7.7,0,0,0,5.327,4.388,4.619,4.619,0,0,0,3.249,7.93H57.43a4.619,4.619,0,0,1,0,9.238H51.271a4.619,4.619,0,0,0-4.4,3.249,4.481,4.481,0,0,0-.216,1.37,4.619,4.619,0,0,0,4.619,4.619Z" transform="translate(-0.059 15.112)" fill="#7ae582"/>
          <path id="Shape-2" data-name="Shape" d="M60.255,36.159A36.661,36.661,0,0,1,53.3,57.715H35.619A4.619,4.619,0,0,1,31,53.1a4.48,4.48,0,0,1,.216-1.37,4.619,4.619,0,0,1,4.4-3.249h6.159a4.619,4.619,0,1,0,0-9.238H37.159a4.619,4.619,0,0,1-3.249-7.9,7.021,7.021,0,0,0,1.709.2A7.606,7.606,0,0,0,40.238,30H59.731A35.414,35.414,0,0,1,60.255,36.159Z" transform="translate(15.592 16.191)" fill="#29b39d"/>
          <path id="Shape-3" data-name="Shape" d="M56.493,34.091H37a7.7,7.7,0,0,0,3.079-6.159,9.084,9.084,0,0,0-.092-.908,6,6,0,0,0,3.172.908,6.159,6.159,0,0,0,6.159-5.512,6.066,6.066,0,0,0,3.079.893,2.648,2.648,0,0,0,.493,0A36.953,36.953,0,0,1,56.493,34.091Z" transform="translate(18.831 12.1)" fill="#7ae582"/>
          <path id="Shape-4" data-name="Shape" d="M20.646,32.767a4.511,4.511,0,0,0-1.894,1.139A4.619,4.619,0,0,0,17.4,37.17a4.619,4.619,0,0,1-4.619,4.619H2c0-.508,0-1.016,0-1.54A36.784,36.784,0,0,1,6.126,23.313a2.648,2.648,0,0,0,.493,0A6.066,6.066,0,0,0,9.7,22.42a6.159,6.159,0,0,0,6.159,5.512,6,6,0,0,0,3.172-.908,9.084,9.084,0,0,0-.092.908,7.7,7.7,0,0,0,1.709,4.835Z" transform="translate(-0.059 12.1)" fill="#29b39d"/>
          <path id="Shape-5" data-name="Shape" d="M78.126,29.245A6.159,6.159,0,0,1,72.46,35.4a2.648,2.648,0,0,1-.493,0,6.066,6.066,0,0,1-3.079-.893,6.159,6.159,0,0,1-6.159,5.512,6,6,0,0,1-3.172-.908,9.084,9.084,0,0,1,.092.908,7.7,7.7,0,0,1-3.079,6.159,7.606,7.606,0,0,1-4.619,1.54,7.021,7.021,0,0,1-1.709-.2A7.7,7.7,0,0,1,44.915,43.1a6.159,6.159,0,0,1-10.562,0,7.7,7.7,0,0,1-14.735-3.079,9.084,9.084,0,0,1,.092-.908,6,6,0,0,1-3.172.908,6.159,6.159,0,0,1-6.159-5.512A6.066,6.066,0,0,1,7.3,35.4a2.648,2.648,0,0,1-.493,0,6.16,6.16,0,1,1,.185-12.318,4.619,4.619,0,0,1,3.387-7.7A7.7,7.7,0,1,1,22.7,6.149a7.591,7.591,0,0,1,10.116-2,7.7,7.7,0,0,1,13.642,0,7.591,7.591,0,0,1,10.116,2,7.7,7.7,0,1,1,12.318,9.238,4.619,4.619,0,0,1,3.387,7.7,6.159,6.159,0,0,1,5.851,6.159Z" transform="translate(-0.74 0.01)" fill="#afafaf"/>
          <path id="Shape-6" data-name="Shape" d="M38.538,44.623a4.481,4.481,0,0,1-.216,1.37,4.619,4.619,0,0,1-4.4,3.249H30.839a4.619,4.619,0,0,0-4.619,4.619A4.619,4.619,0,0,1,21.6,58.481H14.118A36.722,36.722,0,0,1,2.77,40a1.386,1.386,0,0,1,.354,0H33.918A4.619,4.619,0,0,1,38.538,44.623Z" transform="translate(0.356 21.585)" fill="#29b39d"/>
          <path id="Shape-7" data-name="Shape" d="M42.636,18.323A12.318,12.318,0,1,0,24.159,28.977V30.64a3.079,3.079,0,0,0,3.079,3.079H33.4a3.079,3.079,0,0,0,3.079-3.079V28.977a12.318,12.318,0,0,0,6.159-10.655Z" transform="translate(8.576 3.233)" fill="#f5f5f5"/>
        </g>
        <g id="Outline">
          <path id="Shape-8" data-name="Shape" d="M80.042,30.778A7.7,7.7,0,0,0,75.069,23.6a6.159,6.159,0,0,0-3.449-7.7,8.931,8.931,0,0,0,.724-3.6,9.238,9.238,0,0,0-9.238-9.238,9.115,9.115,0,0,0-6.159,2.371A9.238,9.238,0,0,0,47.4,3.725a9.238,9.238,0,0,0-14.781,0,9.238,9.238,0,0,0-9.546,1.709,9.115,9.115,0,0,0-6.159-2.371A9.238,9.238,0,0,0,7.676,12.3,8.93,8.93,0,0,0,8.4,15.843a6.159,6.159,0,0,0-3.449,7.7,7.7,7.7,0,0,0,0,14.35A38.816,38.816,0,0,0,1.517,53.874v1.54a37.554,37.554,0,0,0,1.2,8.053,38.488,38.488,0,1,0,72.32-25.5A7.7,7.7,0,0,0,80.042,30.778Zm-71.889,7.7a9.392,9.392,0,0,0,1.54-.262A7.7,7.7,0,0,0,16.914,43.1a7.267,7.267,0,0,0,1.632-.185A9.238,9.238,0,0,0,19.5,45.79a7.96,7.96,0,0,0-.785.647,6.159,6.159,0,0,0-1.8,4.357,3.079,3.079,0,0,1-3.079,3.079H4.6A35.413,35.413,0,0,1,8.153,38.477ZM6.29,64.652h29.1a3.079,3.079,0,1,1,0,6.159H32.311a6.159,6.159,0,0,0-6.159,6.159,3.079,3.079,0,0,1-3.079,3.079H16.206a34.952,34.952,0,0,1-9.916-15.4ZM40.01,89.287a35.413,35.413,0,0,1-19.878-6.159h2.941a6.159,6.159,0,0,0,6.159-6.159,3.079,3.079,0,0,1,3.079-3.079h3.079a6.159,6.159,0,1,0,0-12.318H5.459a36.445,36.445,0,0,1-.724-4.619h9.1a6.159,6.159,0,0,0,6.159-6.159,3.079,3.079,0,0,1,.908-2.171,2.556,2.556,0,0,1,.462-.37A9.238,9.238,0,0,0,34.913,47.3a7.622,7.622,0,0,0,10.193,0,9.423,9.423,0,0,0,3.079,2.541,6.313,6.313,0,0,0-.477,2.494,6.159,6.159,0,0,0,6.159,6.159h4.619a3.079,3.079,0,0,1,0,6.159H52.327a6.159,6.159,0,1,0,0,12.318H66.816A35.413,35.413,0,0,1,40.01,89.287Zm29.255-15.4H52.327a3.079,3.079,0,1,1,0-6.159h6.159a6.159,6.159,0,1,0,0-12.318H53.867a3.079,3.079,0,0,1-2.618-4.619,8.268,8.268,0,0,0,1.078,0,9.13,9.13,0,0,0,5.05-1.54H75.084a34.674,34.674,0,0,1,.339,4.619A35.075,35.075,0,0,1,69.264,73.89Zm2.664-35.413a35.121,35.121,0,0,1,2.694,7.7H60.3a9.1,9.1,0,0,0,1.17-3.264,7.268,7.268,0,0,0,1.632.185,7.7,7.7,0,0,0,7.16-4.912,9.239,9.239,0,0,0,1.586.293Zm.416-3.079a4.527,4.527,0,0,1-2.356-.677A1.632,1.632,0,0,0,67.6,35.936a4.619,4.619,0,0,1-6.929,3.449,1.529,1.529,0,0,0-2.325,1.54v.724a6.159,6.159,0,0,1-11.779,2.494,1.54,1.54,0,0,0-1.324-.924h-.092a1.54,1.54,0,0,0-1.324.754,4.619,4.619,0,0,1-7.914,0,1.542,1.542,0,0,0-2.741.169,6.159,6.159,0,0,1-11.64-2.587v-.724a1.529,1.529,0,0,0-2.325-1.54,4.619,4.619,0,0,1-6.913-3.4,1.632,1.632,0,0,0-2.387-1.216,4.527,4.527,0,0,1-2.233.724,4.621,4.621,0,1,1-.231-9.238,1.54,1.54,0,0,0,1.047-2.587,3.079,3.079,0,0,1,2.263-5.112,1.5,1.5,0,0,0,1.386-2.387A6.066,6.066,0,0,1,10.755,12.3,6.136,6.136,0,0,1,21.841,8.652a1.54,1.54,0,0,0,2.464,0,6.159,6.159,0,0,1,8.083-1.54A1.54,1.54,0,0,0,34.559,6.5a6.159,6.159,0,0,1,10.9,0,1.54,1.54,0,0,0,2.171.616,6.159,6.159,0,0,1,8.083,1.54,1.54,1.54,0,0,0,2.464,0A6.136,6.136,0,0,1,69.264,12.3,6.067,6.067,0,0,1,68,16a1.559,1.559,0,0,0,1.263,2.464,3.079,3.079,0,0,1,2.2,5.143,1.54,1.54,0,0,0,1.109,2.556,4.621,4.621,0,1,1-.231,9.238Z" transform="translate(-0.042 -0.03)"/>
          <path id="Shape-9" data-name="Shape" d="M30.855,6a13.857,13.857,0,0,0-7.7,25.374v.8a4.619,4.619,0,0,0,4.619,4.619h6.159a4.619,4.619,0,0,0,4.619-4.619v-.8A13.857,13.857,0,0,0,30.855,6Zm5.389,23.188a1.54,1.54,0,0,0-.77,1.324v1.663a1.54,1.54,0,0,1-1.54,1.54h-1.54v-1.54a1.54,1.54,0,1,0-3.079,0v1.54h-1.54a1.54,1.54,0,0,1-1.54-1.54V30.512a1.54,1.54,0,0,0-.77-1.324,10.778,10.778,0,1,1,10.778,0Z" transform="translate(9.112 3.192)"/>
          <path id="Shape-10" data-name="Shape" d="M23.892,13.812A1.54,1.54,0,0,0,21.152,15.2l1.54,3.079a1.54,1.54,0,0,0,1.37.847,1.432,1.432,0,0,0,.693-.169,1.54,1.54,0,0,0,.677-2.063Z" transform="translate(11.287 7.005)"/>
          <path id="Shape-11" data-name="Shape" d="M31.77,13.168a1.54,1.54,0,0,0-2.063.677l-1.54,3.079a1.54,1.54,0,0,0,.677,2.063,1.432,1.432,0,0,0,.693.169,1.54,1.54,0,0,0,1.37-.847l1.54-3.079a1.54,1.54,0,0,0-.677-2.063Z" transform="translate(15.049 6.972)"/>
          <path id="Shape-12" data-name="Shape" d="M28.175,17.45a1.54,1.54,0,0,0-2.186,0l-1.54,1.54a1.546,1.546,0,1,0,2.186,2.186l.447-.462.447.462a1.546,1.546,0,1,0,2.186-2.186Z" transform="translate(12.886 9.126)"/>
        </g>
      </g>
    </g>
  </g>
</svg>
