<svg xmlns="http://www.w3.org/2000/svg" xmlns:xlink="http://www.w3.org/1999/xlink" width="400" height="250" viewBox="0 0 400 250">
  <defs>
    <clipPath id="clip-path">
      <path id="Trazado_152141" data-name="Trazado 152141" d="M552.151,330.628c-6.181-2.635-13.253-2.482-20.005-3.271s-14.042-3.042-17.352-8.543c-3.037-5.048-1.764-11.533,1.446-16.489s8.076-8.763,12.649-12.7c10.39-8.938,19.829-19.228,25.014-31.446s5.647-26.628-1.28-38.083-22.092-18.88-35.8-15.5c-6.832,1.682-12.679,5.7-19.113,8.406s-14.442,3.964-20.258.245c-5.764-3.686-7.316-10.775-10.616-16.494-5.673-9.832-17.086-15.913-28.806-18.491a71.266,71.266,0,0,0-50.6,7.88c-14.819,8.728-33.645,16.325-33.645,16.325-15.86,4.915-26.3,12.672-40.194,4.053-18.433-11.437-39.94-19.547-62.134-19.465s-44.988,9.32-57.095,26.53-11.048,42.412,5,56.6c5.713,5.052,12.89,8.555,18.4,13.8s9.157,13.346,5.6,19.877c-4.965,9.126-18.816,8.628-29.459,11.353-15.439,3.953-27.076,18.147-27.027,32.968s11.779,28.949,27.244,32.815c5.572,1.393,11.561,1.6,16.708,4.014s9.188,8.261,6.649,13.056c-1.06,2-3.071,3.455-4.211,5.42-2.729,4.7.6,10.838,5.6,13.509s11.058,2.8,16.827,2.853l244.233,2.393c12.079.118,24.494.184,35.776-3.811,15.135-5.359,26.3-17.323,35.753-29.5,7.036-9.068,13.671-18.934,15.164-30.01S563.109,335.3,552.151,330.628Z" transform="translate(-166.877 -176.652)" fill="#a6ffac"/>
    </clipPath>
  </defs>
  <g id="Grupo_89395" data-name="Grupo 89395" transform="translate(-374.367 -3073)">
    <path id="Trazado_152140" data-name="Trazado 152140" d="M552.151,330.628c-6.181-2.635-13.253-2.482-20.005-3.271s-14.042-3.042-17.352-8.543c-3.037-5.048-1.764-11.533,1.446-16.489s8.076-8.763,12.649-12.7c10.39-8.938,19.829-19.228,25.014-31.446s5.647-26.628-1.28-38.083-22.092-18.88-35.8-15.5c-6.832,1.682-12.679,5.7-19.113,8.406s-14.442,3.964-20.258.245c-5.764-3.686-7.316-10.775-10.616-16.494-5.673-9.832-17.086-15.913-28.806-18.491a71.266,71.266,0,0,0-50.6,7.88c-14.819,8.728-33.645,16.325-33.645,16.325-15.86,4.915-26.3,12.672-40.194,4.053-18.433-11.437-39.94-19.547-62.134-19.465s-44.988,9.32-57.095,26.53-11.048,42.412,5,56.6c5.713,5.052,12.89,8.555,18.4,13.8s9.157,13.346,5.6,19.877c-4.965,9.126-18.816,8.628-29.459,11.353-15.439,3.953-27.076,18.147-27.027,32.968s11.779,28.949,27.244,32.815c5.572,1.393,11.561,1.6,16.708,4.014s9.188,8.261,6.649,13.056c-1.06,2-3.071,3.455-4.211,5.42-2.729,4.7.6,10.838,5.6,13.509s11.058,2.8,16.827,2.853l244.233,2.393c12.079.118,24.494.184,35.776-3.811,15.135-5.359,26.3-17.323,35.753-29.5,7.036-9.068,13.671-18.934,15.164-30.01S563.109,335.3,552.151,330.628Z" transform="translate(207.49 2900.727)" fill="#a6daff"/>
    <path id="Trazado_155606" data-name="Trazado 155606" d="M65.194,0A65.194,65.194,0,1,1,0,65.194,65.194,65.194,0,0,1,65.194,0Z" transform="translate(529.14 3082)" fill="#ffda73"/>
    <path id="Trazado_151668" data-name="Trazado 151668" d="M18.766,273.65c1.635-10.369,10.993-18.3,21.349-18.691,4.042-12.223,15.685-22.186,28.951-21.922,12.39.251,23.673,9.944,25.533,22.083.457.721.875,1.467,1.268,2.221a13.724,13.724,0,0,1,13.761,8.5c1.03,2.639.92,3.907,4.19,4.428a17.979,17.979,0,0,1,4.686,1.229,15.173,15.173,0,0,1,3.591,2.233H18.753C18.759,273.7,18.759,273.676,18.766,273.65Z" transform="translate(387.943 2882.488)" fill="#fff"/>
    <path id="Trazado_151669" data-name="Trazado 151669" d="M363.47,186.856c3.3-9.149,11.8-16.834,21.925-16.658,9.3.162,18,7.86,18.684,17.1,3.329-.4,6.8,1.587,9.075,4.112a23.087,23.087,0,0,1,5.058,9.514h-73.79A15.933,15.933,0,0,1,363.47,186.856Z" transform="translate(339.761 3072.785)" fill="#fff"/>
    <g id="Enmascarar_grupo_52" data-name="Enmascarar grupo 52" transform="translate(374.367 3077.378)" clip-path="url(#clip-path)">
      <g id="Grupo_89080" data-name="Grupo 89080" transform="translate(15.037 24.229)">
        <g id="Grupo_89074" data-name="Grupo 89074" transform="translate(138.965 0)">
          <g id="Grupo_89070" data-name="Grupo 89070" transform="translate(0 116.859)">
            <path id="Trazado_151635" data-name="Trazado 151635" d="M153.525,334.016a16.894,16.894,0,0,1,.734-2.88c.053-.164.113-.327.167-.491a49.8,49.8,0,0,1,5.481-10.972,22.849,22.849,0,0,1,2.4-3.118,10.57,10.57,0,0,1,3.845-2.77c2.684-1.058,6.235-.307,7.53,2.32-.527-3.9,3.658-7.622,7.37-6.537-.774-.525-.073-1.849.834-2.074s1.869.1,2.764-.123c1.462-.375,2.2-1.972,3.084-3.214,3.351-4.66,11.4-4.36,14.406.539a12.023,12.023,0,0,1,9.239-1.658c4.212.785,3.431,1.447,6.188-.232.28-.171.6-.368.968-.594.521-.321,1.028-.635,1.535-.942,4.98-3.03,9.366-5.37,15.708-4.333a20.55,20.55,0,0,1,12.777,7.861c1.235,1.6,1.949,4.428,3.385,5.725,1.689,1.528,4.152.71,5.561,3.016a3.885,3.885,0,0,0,1.075,1.433,4.316,4.316,0,0,0,1.629.328c1.956.307,3.258,2.19,4.212,3.958a2.889,2.889,0,0,0,1.175,1.392,3.055,3.055,0,0,0,2.13-.177,14.215,14.215,0,0,1,11.6,2.2,7.2,7.2,0,0,1,3,4.954,7.382,7.382,0,0,1-.441,3.262v.007c-1.329,3.746-5.053,7.4-7.123,9.867a62.266,62.266,0,0,1-34.166,20.866q-2.353.542-4.713.908c-18.578,2.9-37.584-1.9-54.713-9.239a140.863,140.863,0,0,1-17.43-8.345q-.541-.317-1.061-.655c-.307-.184-.614-.382-.921-.58-1.389-.908-2.737-1.876-4.039-2.92C154.439,338.178,153.124,336.909,153.525,334.016Z" transform="translate(-153.455 -296.688)" fill="#45331f"/>
            <path id="Trazado_151636" data-name="Trazado 151636" d="M190.391,326.2c1.438-2.135,3.962-1.314,5.334.456a17.372,17.372,0,0,0,1.028,1.687c.725.714,1.951.41,2.828.734a4.056,4.056,0,0,1,2.387,2.771.3.3,0,0,1-.5.3c-1.057-1.189-2.242-1.337-3.709-1.44a2.889,2.889,0,0,1-1.648-.373c-1.35-.974-2.374-5.867-4.865-3.459C190.815,327.291,190.026,326.741,190.391,326.2Z" transform="translate(-97.679 -305.658)" fill="#5e452a"/>
            <path id="Trazado_151637" data-name="Trazado 151637" d="M283.92,324.793a3.8,3.8,0,0,1,4.487-3.371c.474-2.929,3.314-5.482,6.3-4.385a.435.435,0,0,1-.112.847c-2.592.072-4.915,1.992-4.561,4.8.085.672-.765,1.03-1.26.739a1.962,1.962,0,0,0-2.9,1.369C285.728,326.062,283.755,326.057,283.92,324.793Z" transform="translate(-253.188 -303.07)" fill="#5e452a"/>
            <path id="Trazado_151638" data-name="Trazado 151638" d="M323.218,337.555a4.867,4.867,0,0,1,2.378-3.266c1.271-.618,2.318.036,2.948,1.274a.481.481,0,0,1-.825.493c-.328-.532-1.421-.211-1.83-.038-1.019.429-1.276,1.578-1.574,2.6a.677.677,0,0,1-.987.411c-1.5-.778-2.422.358-3.36,1.307-.349.353-1.127.123-1.061-.45C319.151,337.74,321.411,337.1,323.218,337.555Z" transform="translate(-310.152 -308.558)" fill="#5e452a"/>
            <path id="Trazado_151639" data-name="Trazado 151639" d="M231.216,309.491a4.4,4.4,0,0,1,4.778.064c.354.241.14.92-.308.747a4.107,4.107,0,0,0-3.739.466,3.991,3.991,0,0,0-1.338,1.371c-.3.537-.336,1.157-.642,1.689a.6.6,0,0,1-1.1-.146C228.273,312.1,229.984,310.212,231.216,309.491Z" transform="translate(-157.534 -300.541)" fill="#5e452a"/>
            <path id="Trazado_151640" data-name="Trazado 151640" d="M264.815,343.1c.966-2.273,3.429-2.644,5.521-1.977a6.525,6.525,0,0,1,8.463-3.793.556.556,0,0,1-.289,1.073,5.855,5.855,0,0,0-6.874,4.056.846.846,0,0,1-1.232.512c-1.8-.882-3.4-.138-5.011.72C264.994,343.907,264.651,343.49,264.815,343.1Z" transform="translate(-224.589 -309.446)" fill="#5e452a"/>
          </g>
          <path id="Trazado_151641" data-name="Trazado 151641" d="M245.423,240.324c.12-7.872.165-15.76.554-23.624.77-15.562,1.408-31.1,2.027-46.672a.266.266,0,0,1,.533,0c.122,15.567.262,31.107.536,46.672.134,7.679-.063,15.37-.191,23.048-.131,7.823-.1,15.853-1.014,23.624a1.089,1.089,0,0,1-2.177,0C245.038,255.772,245.307,247.95,245.423,240.324Z" transform="translate(-177.51 -139.51)" fill="#bc874d"/>
          <g id="Grupo_89071" data-name="Grupo 89071" transform="translate(24.415 46.216)">
            <path id="Trazado_151642" data-name="Trazado 151642" d="M250.147,215.252c5.147,3.357,9.833,6.448,15.908,7.813,5.648,1.262,11.622.6,17.156,2.484,3.892,1.331,7.891,5.582,9.593,9.907a12.209,12.209,0,0,1,.748,2.688,22.487,22.487,0,0,1-.427,6.748c-.093.607-.174,1.208-.227,1.815-.013.13-.027.266-.033.4-.027.314-.04.635-.047.948a11.726,11.726,0,0,0,.073,1.528,1.925,1.925,0,0,0-.374-.969c-2.063-2.7-11.656,1.249-13.565,1.071-5.02-.484-9.339-3.207-13.211-6.346a46.739,46.739,0,0,1-9.88-11.245,35.672,35.672,0,0,1-4.112-8,17.78,17.78,0,0,1-2.817-8.12A.813.813,0,0,1,250.147,215.252Z" transform="translate(-248.93 -215.14)" fill="#7ae582"/>
            <path id="Trazado_151643" data-name="Trazado 151643" d="M280.493,238.953c-7.527-3.354-15.685-4.7-23.005-8.8-4.757-2.665-9.03-7.492-8.63-13.021a39.941,39.941,0,0,0,22.628,13.365,57.843,57.843,0,0,1,8.1,1.691c8.162,2.858,8.678,10.508,11.539,17.367a19.625,19.625,0,0,0-8.683-9.644C281.82,239.571,281.168,239.254,280.493,238.953Z" transform="translate(-246.312 -215.772)" fill="#1d8070" opacity="0.4" style="mix-blend-mode: multiply;isolation: isolate"/>
            <path id="Trazado_151644" data-name="Trazado 151644" d="M248.69,223.674c7.82,5.21,16.559,7.695,25.013,11.515,6.572,2.97,17.119,9.406,16.224,18.162a.3.3,0,0,1-.589.081c-.752-2.741-1.417-5.185-3.114-7.525a24.667,24.667,0,0,0-5.276-5.226,49.619,49.619,0,0,0-11.548-6.006c-7.21-2.851-15.3-5.007-21.2-10.359C247.868,224.01,248.309,223.421,248.69,223.674Z" transform="translate(-244.668 -217.832)" fill="#80ffeb"/>
          </g>
          <g id="Grupo_89072" data-name="Grupo 89072" transform="translate(69.364 25.147)">
            <path id="Trazado_151645" data-name="Trazado 151645" d="M193.648,211.2c-.067.334-.14.675-.214,1.01A8.754,8.754,0,0,1,193.648,211.2Zm13.618-27.055c6.208-2.129,18.358.546,20.728-7.895a1.077,1.077,0,0,1,2.11.293c1.088,10-2.837,20.375-11.9,25.144-5.828,3.064-8.9,1.365-15.214,1.692a9.665,9.665,0,0,0-4.68,1.535,10.741,10.741,0,0,0-1.776,1.406,9.51,9.51,0,0,0-1.068,1.2c-.067.082-.133.171-.194.259a.621.621,0,0,0-.073.109,10.149,10.149,0,0,0-1.535,3.255c.641-3.118,1.1-6.414,1.722-9.614C196.866,193.93,199.276,186.888,207.267,184.145Z" transform="translate(-193.435 -175.469)" fill="#7ae582"/>
            <path id="Trazado_151646" data-name="Trazado 151646" d="M201.642,204.95a43.606,43.606,0,0,1,6.782-8.559,12.435,12.435,0,0,1,4.161-2.975,23.222,23.222,0,0,1,5.42-.9A21.208,21.208,0,0,0,230.99,185.6c-1.274,3.423-2.723,7.075-5.73,9.068-2.138,1.418-4.758,1.779-7.217,2.462a27.291,27.291,0,0,0-10.04,5.29c-2.182,1.8-5.628,8.189-7.8,8.631C199.7,209.33,200.415,207.144,201.642,204.95Z" transform="translate(-198.553 -178.688)" fill="#1d8070" opacity="0.4" style="mix-blend-mode: multiply;isolation: isolate"/>
            <path id="Trazado_151647" data-name="Trazado 151647" d="M205.744,214.134a21.763,21.763,0,0,1,8.461-13.226c5.393-3.983,12.3-4.9,18.176-7.929.242-.126.548.213.309.409-4.5,3.7-10.373,4.331-15.372,7.074A24.374,24.374,0,0,0,206.3,214.291.289.289,0,0,1,205.744,214.134Z" transform="translate(-204.143 -181.023)" fill="#80ffeb"/>
          </g>
          <g id="Grupo_89073" data-name="Grupo 89073" transform="translate(46.106)">
            <path id="Trazado_151648" data-name="Trazado 151648" d="M241.216,126.086a.646.646,0,0,1,1.2-.334c2.069,3.732,6.916,6.489,10.688,8.072s7.79,2.879,11,5.581c7.657,6.428,5.808,17.761,2.083,25.854-.027.061-.06.13-.087.191a5.878,5.878,0,0,0-.748-3.869,8.153,8.153,0,0,0-1.816-2.224c-2.477-2.143-5.394-2.115-8.024-3.6-3.118-1.74-5.821-5.056-7.71-8.058-3.451-5.486-4.619-11.647-5.848-17.857a13.074,13.074,0,0,1-.761-3.76Z" transform="translate(-241.196 -125.424)" fill="#7ae582"/>
            <path id="Trazado_151649" data-name="Trazado 151649" d="M250.249,144.563c-4.1-3.466-3.517-6.634-4.754-11.454,1.053,4.1,4.59,7.006,8.157,9.175s7.47,3.994,10.192,7.2,3.842,8.374,1.172,11.62C264.761,151.688,256.182,149.573,250.249,144.563Z" transform="translate(-241.19 -127.866)" fill="#1d8070" opacity="0.4" style="mix-blend-mode: multiply;isolation: isolate"/>
            <path id="Trazado_151650" data-name="Trazado 151650" d="M246.25,143.038c4.68,5.44,18.938,10.255,15.742,19.924-.09.272-.561.25-.523-.072,1.2-10.311-10.72-12.665-15.428-19.687C245.955,143.076,246.15,142.921,246.25,143.038Z" transform="translate(-237.454 -131.006)" fill="#80ffeb"/>
          </g>
          <path id="Trazado_151651" data-name="Trazado 151651" d="M244.071,314.289a5.149,5.149,0,0,1,4.812-3.049c1.157-2.873,2.933-5.933,6.419-5.239.509.1.386.922-.121.914-3.009-.046-4.226,2.819-5.086,5.272a.764.764,0,0,1-.712.555c-1.881-.049-3.079.839-4.4,2.089C244.621,315.17,243.846,314.838,244.071,314.289Z" transform="translate(-187.193 -182.756)" fill="#5e452a"/>
        </g>
        <g id="Grupo_89079" data-name="Grupo 89079" transform="translate(0 130.211)">
          <g id="Grupo_89075" data-name="Grupo 89075" transform="translate(158.677 7.894)">
            <path id="Trazado_151652" data-name="Trazado 151652" d="M101.973,397.9c-1.208-2.975.34-6.9,2.877-8.761a16.006,16.006,0,0,1,7.637-2.525c2.79-.368,5.594-.655,8.385-1.078a161.836,161.836,0,0,0,33.278-8.85q5.127-1.965,10.114-4.265a165.054,165.054,0,0,0,20.808-11.484,162.138,162.138,0,0,0,14.159-10.317c3.825-3.118,7.417-6.489,11.035-9.839v-.007c.674-.621,1.348-1.249,2.029-1.87,4.513-4.142,9.459-8.161,15.334-9.989.2-.068.407-.13.614-.184,5.561-1.583,11.869-1.262,16.642,2.327a1.087,1.087,0,0,1,.207,1.658c-.047.055-.093.1-.14.15q-4.836,5.117-9.76,10.153-1.642,1.679-3.291,3.343c-11.616,11.763-23.565,23.186-35.728,34.328-2.016,1.835-4.032,3.685-6.061,5.5a17.1,17.1,0,0,1-6.2,3.841c-2.624.839-5.367,1.337-8.044,1.965q-4.256,1.013-8.511,2.013c-11.335,2.682-22.677,5.39-34.046,7.97-7.637,1.74-17.256,4.258-24.893,1.3a16,16,0,0,1-6.616-4.742A.4.4,0,0,1,101.973,397.9Z" transform="translate(-101.554 -327.826)" fill="#cea78a"/>
            <path id="Trazado_151653" data-name="Trazado 151653" d="M102.42,348.678q6.6-6.677,13.053-13.5c-.035-.005-.069-.014-.107-.019-4.916-.843-10.728,7.431-12.683,11.148a3.539,3.539,0,0,0-.466,1.286A2.03,2.03,0,0,0,102.42,348.678Z" transform="translate(27.923 -330.135)" fill="#e5cfc1"/>
          </g>
          <g id="Grupo_89076" data-name="Grupo 89076" transform="translate(0 7.096)">
            <path id="Trazado_151654" data-name="Trazado 151654" d="M136.511,345.665c10.007-6.585,20.768-11.729,31.936-14.295a66.085,66.085,0,0,1,24.526-1.119c11.555,1.706,22.37,6.68,33.612,9.914.968.28,1.943.546,2.917.8,7.19,1.842,14.566,2.443,21.789,4.115.134.034.274.061.407.089.848.184,1.676.368,2.517.553h.007c.167.034.334.068.494.109.874.191,1.736.382,2.61.58h.007c.167.034.34.075.507.109.714.164,1.422.321,2.129.484h.007l.374.082q9.072,2.057,18.091,4.21c.607.137,1.208.28,1.809.43,1.215.287,2.43.573,3.652.873q8.582,2.067,17.123,4.265h.007c.955.239,1.909.484,2.864.744.174.034.354.089.527.136.093.021.18.048.274.068h.007c.521.136,1.048.266,1.569.409,2.383.621,4.753,1.242,7.123,1.89a14.1,14.1,0,0,0,3.184.7,4.6,4.6,0,0,0,2.891-1.228c3.885-2.886,7.717-5.848,11.576-8.768,3.745-2.838,7.6-5.581,11.215-8.6,3.251-2.709,5.654-6.046,8.451-9.2.247-.28.5-.56.761-.826a16.252,16.252,0,0,1,18.418-4.34,13.208,13.208,0,0,1,1.509.7,16.291,16.291,0,0,1,2.757,1.8,1.008,1.008,0,0,1,.154,1.221c-.04.061-.08.13-.12.191a213.568,213.568,0,0,1-12.717,17.324A250.448,250.448,0,0,1,340.7,371.566a110.307,110.307,0,0,1-11.749,10.365c-.073.055-.154.109-.227.164a38.713,38.713,0,0,1-5.02,3.057c-.12.068-.234.123-.347.177a29.9,29.9,0,0,1-3.144,1.337,114.049,114.049,0,0,1-13,3.446q-7.069,1.668-14.139,3.337-13.9,3.285-27.791,6.557-3.595.85-7.2,1.7a42.8,42.8,0,0,1-5.908,1.208c-.154.02-.314.034-.467.041-4.232.246-8.051-2.832-11.555-4.851Q227.6,390.835,215,383.623c-4.092-2.354-8.124-4.879-12.316-7.035a21.142,21.142,0,0,0-6.235-2.224,19.817,19.817,0,0,0-7.17.355c-25.287,5.124-44.937,14.86-63.736,32.512H86.668l-.019-35.206C90.908,368.476,131.891,348.708,136.511,345.665Z" transform="translate(-86.648 -326.657)" fill="#e5c4a8"/>
            <path id="Trazado_151655" data-name="Trazado 151655" d="M124.359,349.936a3.18,3.18,0,0,0,1.335,1.348,212.244,212.244,0,0,0,12.718-17.322c-1.833-1.185-5.666.527-8.4,3.923a70.8,70.8,0,0,0-4.349,6.012C124.492,345.7,123.377,348.013,124.359,349.936Z" transform="translate(149.127 -328.858)" fill="#e5cfc1"/>
          </g>
          <g id="Grupo_89078" data-name="Grupo 89078" transform="translate(60.276)">
            <path id="Trazado_151656" data-name="Trazado 151656" d="M250.141,328.066c2.583-1.276,5.187-2.5,7.85-3.623a136.593,136.593,0,0,1,16.309-5.65c5.661-1.576,11.529-2.845,17.43-2.47,5.875.382,11.529,2.2,17.1,4.005q3.675,1.2,7.33,2.443,4.937,1.678,9.86,3.453c7.69,2.763,15.334,5.67,22.944,8.652,1.035.4,2.063.805,3.091,1.208,2.644,1.037,5.274,2.088,7.911,3.139,5.461,2.177,10.968,4.258,16.369,6.591a18.793,18.793,0,0,1,7.537,5.24c.06.082.12.157.174.232a10.02,10.02,0,0,1,1.549,3.016c.08.252.154.519.22.785a8.235,8.235,0,0,1,.22,1.911V357a7.2,7.2,0,0,1-.16,1.61.01.01,0,0,1,0,.014,7.581,7.581,0,0,1-5.354,5.779c-3.238.983-6.716.484-10.06-.2-.02-.007-.047-.007-.067-.014-1.128-.232-2.243-.491-3.324-.71q-4.506-.931-8.992-1.958c-.073-.014-.14-.034-.214-.048q-13.148-2.978-26.108-6.755c-1.182-.341-2.37-.7-3.571-1.051-.033-.014-.073-.02-.107-.034-3.792-1.14-7.65-2.293-11.549-3.132a48.758,48.758,0,0,0-12.543-1.255c-.314.007-.634.027-.955.055a.624.624,0,0,1-.053.143v.007a.866.866,0,0,1-.681.553,47.551,47.551,0,0,0-11.709,3.937c-.007.007-.02.007-.027.014-2.15.976-4.279,2.006-6.435,2.961a146.428,146.428,0,0,1-17.256,6.291c-12,3.623-24.279,6.23-36.2,10.119-.681.218-1.369.45-2.043.675V338.4C236.042,335.51,243.005,331.607,250.141,328.066Z" transform="translate(-228.619 -316.257)" fill="#e5c4a8"/>
            <path id="Trazado_151657" data-name="Trazado 151657" d="M233.211,362.094a5.679,5.679,0,0,1,5.4-2.791,15.156,15.156,0,0,1,4.786.955,31.269,31.269,0,0,1,7.75,4.162h.007c.2.15.407.307.607.464s.381.307.567.471a.052.052,0,0,0,.027.027c.187.177.38.355.561.539.093.089.18.184.267.28s.174.191.254.287a8.059,8.059,0,0,1,.507.676c.013.02.033.048.047.068.093.15.187.307.274.464.073.136.147.273.207.416a1.673,1.673,0,0,1,.067.164,4.458,4.458,0,0,1,.16.416,4.979,4.979,0,0,1,.154.539,4.622,4.622,0,0,1-1.415,4.654c-1.8,1.522-4.406,1.747-6.936,1.494a31.5,31.5,0,0,1-4.7-.894q-1.142-.287-2.263-.675c-.748-.259-1.482-.546-2.2-.867h-.007c-.714-.314-1.415-.662-2.089-1.037a8.677,8.677,0,0,1-2.6-1.781,3.862,3.862,0,0,1-.561-2.531A10.8,10.8,0,0,1,233.211,362.094Z" transform="translate(-99.886 -329.931)" fill="#f4e2d7"/>
            <path id="Trazado_151658" data-name="Trazado 151658" d="M232.751,370.869a10.333,10.333,0,0,0,1.351,2.518,28.2,28.2,0,0,0,4.469,1.547c3.413.87,8.632,1.936,11.635-.6a4.63,4.63,0,0,0,1.413-4.658,8.638,8.638,0,0,0-3.7-4.812,31.339,31.339,0,0,0-7.754-4.16C234.653,361.26,230.371,364.351,232.751,370.869Z" transform="translate(-96.655 -330.376)" fill="#efd9ce"/>
            <path id="Trazado_151659" data-name="Trazado 151659" d="M227.946,369.789c6.722-1.159,12.87-4.615,19.624-5.539a29.571,29.571,0,0,1,10.312.847c3.744.813,7.476,1.689,11.2,2.58q11.5,2.747,22.9,5.884c7.461,2.054,15.035,4.892,22.819,5.212,3.824.157,8.4-.233,11.435-2.9,2.684-2.357,3.5-7.377.04-9.476-.132-.08-.013-.29.121-.211a5.61,5.61,0,0,1,2.391,5.859,8.164,8.164,0,0,1-5,5.852c-6.84,3.149-15.114,1.109-21.985-.791-8.072-2.231-16.132-4.49-24.254-6.528q-6.372-1.6-12.77-3.077a99.308,99.308,0,0,0-12.365-2.515c-4.352-.433-8.451.531-12.554,1.917-3.9,1.318-7.748,2.871-11.9,3.033C227.884,369.939,227.864,369.8,227.946,369.789Z" transform="translate(-170.986 -331.448)" fill="#cfa789"/>
            <g id="Grupo_89077" data-name="Grupo 89077" transform="translate(104.3 20.205)">
              <path id="Trazado_151660" data-name="Trazado 151660" d="M294.251,359.467a16.9,16.9,0,0,0,1.893-9.475c-.021-.184.258-.181.28,0a14.173,14.173,0,0,1-1.985,9.587A.11.11,0,0,1,294.251,359.467Z" transform="translate(-287.245 -347.135)" fill="#cfa789"/>
              <path id="Trazado_151661" data-name="Trazado 151661" d="M298.026,359.64a19.18,19.18,0,0,0,2.292-10.309c-.022-.267.38-.262.405,0a15.828,15.828,0,0,1-2.419,10.475A.162.162,0,0,1,298.026,359.64Z" transform="translate(-294.017 -346.905)" fill="#cfa789"/>
              <path id="Trazado_151662" data-name="Trazado 151662" d="M303.054,345.986c.079-.207.409-.12.33.094a46.267,46.267,0,0,0-1.836,6.4c-.458,2.18-.558,4.4-.953,6.586-.02.112-.176.076-.184-.025C300.092,354.723,301.527,349.952,303.054,345.986Z" transform="translate(-298.181 -345.868)" fill="#cfa789"/>
              <path id="Trazado_151663" data-name="Trazado 151663" d="M307.049,348.015a.157.157,0,0,1,.269.16,9.959,9.959,0,0,0-.964,7.221.11.11,0,0,1-.211.059A8.656,8.656,0,0,1,307.049,348.015Z" transform="translate(-305.658 -346.526)" fill="#cfa789"/>
            </g>
          </g>
          <path id="Trazado_151664" data-name="Trazado 151664" d="M191.818,394.248a19.268,19.268,0,0,1,5.611,9.385.13.13,0,0,1-.25.071,23.187,23.187,0,0,0-5.515-9.3A.11.11,0,0,1,191.818,394.248Z" transform="translate(44.945 -341.023)" fill="#cfa789"/>
          <path id="Trazado_151665" data-name="Trazado 151665" d="M193.714,397.174a20.832,20.832,0,0,1,5.5,7.807c.054.132-.172.23-.228.1a22.815,22.815,0,0,0-5.473-7.7C193.381,397.251,193.578,397.054,193.714,397.174Z" transform="translate(41.926 -341.949)" fill="#cfa789"/>
          <path id="Trazado_151666" data-name="Trazado 151666" d="M196.825,404.815c.873,1.132,1.7,2.3,2.532,3.463.075.105-.1.205-.17.1-.831-1.154-1.676-2.3-2.468-3.481C196.676,404.835,196.777,404.753,196.825,404.815Z" transform="translate(39.614 -344.382)" fill="#cfa789"/>
          <path id="Trazado_151667" data-name="Trazado 151667" d="M199.93,400.353a39.435,39.435,0,0,0,6.8,8.049c.208.175-.087.466-.294.3a22.931,22.931,0,0,1-6.815-8.168A.178.178,0,0,1,199.93,400.353Z" transform="translate(30.25 -342.944)" fill="#cfa789"/>
        </g>
      </g>
    </g>
    <circle id="Elipse_4614" data-name="Elipse 4614" cx="13" cy="13" r="13" transform="translate(581.125 3073)" fill="#a6ffac"/>
    <circle id="Elipse_4615" data-name="Elipse 4615" cx="13" cy="13" r="13" transform="translate(611.748 3080)" fill="#a6ffac"/>
    <circle id="Elipse_4625" data-name="Elipse 4625" cx="13" cy="13" r="13" transform="translate(548.526 3082)" fill="#a6ffac"/>
    <circle id="Elipse_4616" data-name="Elipse 4616" cx="13" cy="13" r="13" transform="translate(632.493 3101)" fill="#a6ffac"/>
    <path id="Trazado_151885" data-name="Trazado 151885" d="M13,0A13,13,0,1,1,0,13,13,13,0,0,1,13,0Z" transform="translate(526.793 3102)" fill="#a6ffac"/>
    <circle id="Elipse_4617" data-name="Elipse 4617" cx="13" cy="13" r="13" transform="translate(640.396 3132.681)" fill="#a6ffac"/>
    <circle id="Elipse_4623" data-name="Elipse 4623" cx="13" cy="13" r="13" transform="translate(518.89 3133.692)" fill="#a6ffac"/>
    <circle id="Elipse_4618" data-name="Elipse 4618" cx="13" cy="13" r="13" transform="translate(630.517 3166.061)" fill="#a6ffac"/>
    <circle id="Elipse_4622" data-name="Elipse 4622" cx="13" cy="13" r="13" transform="translate(526.793 3163.027)" fill="#a6ffac"/>
    <circle id="Elipse_4619" data-name="Elipse 4619" cx="13" cy="13" r="13" transform="translate(608.785 3186.292)" fill="#a6ffac"/>
    <circle id="Elipse_4621" data-name="Elipse 4621" cx="13" cy="13" r="13" transform="translate(548.526 3186.292)" fill="#a6ffac"/>
    <circle id="Elipse_4620" data-name="Elipse 4620" cx="13" cy="13" r="13" transform="translate(580.137 3195.396)" fill="#a6ffac"/>
    <g id="Grupo_89109" data-name="Grupo 89109" transform="translate(525.592 3076.519)">
      <g id="Grupo_89082" data-name="Grupo 89082" transform="translate(25.847 8.429)">
        <path id="Trazado_151670" data-name="Trazado 151670" d="M213.368,89.921c-2.218,1.387-2.593,2.686-1.333,4.921-2.568,0-3.5.93-3.5,3.5-2.235-1.261-3.534-.886-4.921,1.333-1.387-2.218-2.686-2.593-4.921-1.333,0-2.568-.929-3.5-3.5-3.5,1.261-2.235.886-3.534-1.332-4.921,2.218-1.387,2.593-2.686,1.332-4.921,2.568,0,3.5-.93,3.5-3.5,2.235,1.261,3.534.886,4.921-1.332,1.386,2.218,2.686,2.593,4.921,1.332,0,2.568.93,3.5,3.5,3.5C210.774,87.235,211.15,88.534,213.368,89.921Z" transform="translate(-193.866 -80.17)" fill="#1f7223"/>
        <path id="Trazado_151671" data-name="Trazado 151671" d="M222.3,101.988a6.612,6.612,0,1,1-6.611-6.612A6.612,6.612,0,0,1,222.3,101.988Z" transform="translate(-205.933 -92.237)" fill="#7ab547"/>
      </g>
      <g id="Grupo_89083" data-name="Grupo 89083" transform="translate(27.426 111.241)">
        <path id="Trazado_151672" data-name="Trazado 151672" d="M217.619,624.489H202.992l-1.478-13.082h17.651Z" transform="translate(-201.515 -604.551)" fill="#1f7223"/>
        <path id="Trazado_151673" data-name="Trazado 151673" d="M228.5,580.135a5.3,5.3,0,0,0-4.108-1.937h0a5.294,5.294,0,0,0-5.289,4.995v2.826h1.4v-2.826h0a3.906,3.906,0,0,1,7.787,0h0v2.826h1.4v-2.826h0A5.274,5.274,0,0,0,228.5,580.135Z" transform="translate(-215.472 -578.198)" fill="#1f7223"/>
        <path id="Trazado_151674" data-name="Trazado 151674" d="M224.475,627.783a1.581,1.581,0,0,1-.79-.187.812.812,0,0,1-.419-.417,1.167,1.167,0,0,1-.062-.207,1.467,1.467,0,0,1,.033-.629,1.5,1.5,0,0,1,.264-.5.512.512,0,0,1,.082-.083l-.618-.367,2.018-.063.934,1.759-.583-.332-.082.084c-.037.038-.08.084-.129.14s-.1.111-.141.166a.769.769,0,0,0-.094.136.386.386,0,0,0-.059.191.247.247,0,0,0,.1.212.852.852,0,0,0,.161.1Zm5.823.261a1.342,1.342,0,0,0,.54-.131,1.818,1.818,0,0,0,.418-.272,2.092,2.092,0,0,0,.257-.262c.057-.072.1-.126.12-.161a2.3,2.3,0,0,1-.144.348q-.085.166-.221.4l-.119.218c-.045.1-.094.2-.144.305q-.186.4-.306.637a4.4,4.4,0,0,1-.264.454,1.683,1.683,0,0,1-.3.35.5.5,0,0,1-.319.133l-1.031.01.006.711-1.073-1.708,1.058-1.694,0,.676Zm-3.936-5.9q.294-.008,1.126-.015a11.41,11.41,0,0,1,1.235.036.629.629,0,0,1,.5.225c.012.023.042.079.093.169s.109.188.176.3.122.2.163.267.07.12.088.155l.612-.361-.84,1.888-2.089-.171.577-.343-.739-1.249a1.738,1.738,0,0,0-.386-.477,1.512,1.512,0,0,0-.431-.265,1.774,1.774,0,0,0-.356-.1,1.612,1.612,0,0,0-.212-.02A4.1,4.1,0,0,1,226.362,622.145Zm-2.711,5.634a.874.874,0,0,1-.446-.374l.11.193q.075.134.2.357l.268.473q.141.249.2.369c.023.046.038.078.044.1q.106.224.2.4c.062.118.132.24.212.366a1.575,1.575,0,0,0,.245.31.359.359,0,0,0,.239.119l2.261-.021-.02-2.169-2.755.026A1.807,1.807,0,0,1,223.652,627.78Zm6.422-.075q-.154-.242-.659-1.02t-.593-.917l1.775-1.074c.018.029.059.1.123.224s.144.267.238.44l.432.806c.094.175.162.3.2.366a.409.409,0,0,1,.045.2,1.073,1.073,0,0,1-.074.373,1.109,1.109,0,0,1-.116.166,2.383,2.383,0,0,1-.257.266,1.784,1.784,0,0,1-.417.277,1.316,1.316,0,0,1-.536.135A2.305,2.305,0,0,1,230.074,627.705Zm-4.158-2.357-1.759-.974.239-.393.217-.359.311-.511q.137-.222.222-.371c.057-.1.1-.166.12-.2a.377.377,0,0,1,.176-.158,1.614,1.614,0,0,1,.341-.1,1.65,1.65,0,0,1,.234.019,1.739,1.739,0,0,1,.36.1,1.522,1.522,0,0,1,.427.257,1.585,1.585,0,0,1,.372.462l.026.043c.029.046.056.089.079.129Z" transform="translate(-218.534 -613.06)" fill="#7ab547" fill-rule="evenodd"/>
      </g>
      <g id="Grupo_89086" data-name="Grupo 89086" transform="translate(0 58.45)">
        <path id="Trazado_151675" data-name="Trazado 151675" d="M79.383,339.536a1.349,1.349,0,0,1-.815,1.726l-8.1,2.9a1.349,1.349,0,0,1-1.726-.815h0a1.349,1.349,0,0,1,.815-1.726l8.1-2.9a1.349,1.349,0,0,1,1.725.816Z" transform="translate(-68.662 -335.303)" fill="#7ab547"/>
        <path id="Trazado_151676" data-name="Trazado 151676" d="M79.383,357.059a1.349,1.349,0,0,1-.815,1.726l-8.1,2.9a1.349,1.349,0,0,1-1.725-.815h0a1.35,1.35,0,0,1,.815-1.726l8.1-2.9a1.35,1.35,0,0,1,1.725.815Z" transform="translate(-68.662 -349.209)" fill="#7ab547"/>
        <path id="Trazado_151677" data-name="Trazado 151677" d="M84.233,323.359a1.337,1.337,0,0,1-.808,1.709l-4.719,1.69A1.336,1.336,0,0,1,77,325.951h0a1.336,1.336,0,0,1,.807-1.709l4.719-1.69a1.337,1.337,0,0,1,1.71.807Z" transform="translate(-75.214 -322.473)" fill="#7ab547"/>
        <g id="Grupo_89084" data-name="Grupo 89084" transform="translate(1.584 12.497)">
          <path id="Trazado_151678" data-name="Trazado 151678" d="M79.065,386.64a.847.847,0,0,1-.845-.806,1.429,1.429,0,0,0-.341-1,.771.771,0,0,0-.549-.125.855.855,0,0,1-.981-.677.839.839,0,0,1,.651-.984,2.466,2.466,0,0,1,1.908.44,2.878,2.878,0,0,1,1,2.26.847.847,0,0,1-.8.887Z" transform="translate(-76.334 -383.012)" fill="#1f7223"/>
        </g>
        <g id="Grupo_89085" data-name="Grupo 89085" transform="translate(6.365 10.422)">
          <path id="Trazado_151679" data-name="Trazado 151679" d="M100.34,378.383a.847.847,0,0,1-.847-.847c0-4.526,3.209-4.579,3.242-4.579a.847.847,0,0,1,.015,1.694c-.172.009-1.563.163-1.563,2.885a.847.847,0,0,1-.847.847Z" transform="translate(-99.493 -372.958)" fill="#1f7223"/>
        </g>
        <path id="Trazado_151680" data-name="Trazado 151680" d="M83.874,396.123H76.787a.719.719,0,0,0-.719.719v1.139a.794.794,0,0,0,.011.125,3.175,3.175,0,0,0,2.095,2.492v1.145a.921.921,0,0,0,.921.922h2.3a.922.922,0,0,0,.922-.922v-1.083a3.263,3.263,0,0,0,2.26-2.548.719.719,0,0,0,.013-.131v-1.139A.719.719,0,0,0,83.874,396.123Z" transform="translate(-74.539 -380.919)" fill="#1f7223"/>
      </g>
      <g id="Grupo_89087" data-name="Grupo 89087" transform="translate(58.542)">
        <path id="Trazado_151681" data-name="Trazado 151681" d="M358.418,60.617c0,.007,0,.014,0,.021l1.536,13.354a.958.958,0,0,0,1.056.813h11.013a.958.958,0,0,0,1.056-.813l1.536-13.354c0-.007,0-.014,0-.021Z" transform="translate(-357.142 -56.224)" fill="#1f7223"/>
        <path id="Trazado_151682" data-name="Trazado 151682" d="M370.987,50.044a.665.665,0,0,1-.665.665H352.909a.665.665,0,0,1-.666-.665v-.666a.665.665,0,0,1,.666-.666h17.414a.665.665,0,0,1,.665.666Z" transform="translate(-352.243 -46.777)" fill="#1f7223"/>
        <path id="Trazado_151683" data-name="Trazado 151683" d="M386.347,39.337c-1.624,0-2.94.658-2.94,1.47h5.878C389.286,39.995,387.97,39.337,386.347,39.337Z" transform="translate(-376.974 -39.337)" fill="#1f7223"/>
        <path id="Trazado_151684" data-name="Trazado 151684" d="M374.406,79.2a1.849,1.849,0,0,1-.924-.219.95.95,0,0,1-.491-.487,1.417,1.417,0,0,1-.073-.243,1.75,1.75,0,0,1,.039-.735,1.756,1.756,0,0,1,.153-.361,1.654,1.654,0,0,1,.156-.229.665.665,0,0,1,.095-.1l-.723-.429,2.36-.073,1.094,2.057L375.408,78l-.1.1c-.044.044-.094.1-.152.164s-.111.129-.164.194a.857.857,0,0,0-.11.158.444.444,0,0,0-.069.223.291.291,0,0,0,.118.248.976.976,0,0,0,.189.115Zm6.812.306a1.571,1.571,0,0,0,.632-.153,2.152,2.152,0,0,0,.489-.319,2.488,2.488,0,0,0,.3-.307c.067-.085.114-.147.141-.188a2.833,2.833,0,0,1-.169.407c-.066.129-.153.285-.26.469l-.138.255c-.053.116-.11.235-.169.357q-.218.47-.357.745a5.145,5.145,0,0,1-.31.531,1.958,1.958,0,0,1-.351.41.581.581,0,0,1-.374.156l-1.205.011.007.831-1.254-2,1.238-1.981,0,.791Zm-4.6-6.9q.345-.008,1.317-.018a13.487,13.487,0,0,1,1.444.042c.308.035.5.122.586.263.014.027.049.093.109.2s.127.22.2.347.143.232.191.312.083.141.1.181l.715-.422-.982,2.208-2.444-.2.675-.4-.865-1.461a2.047,2.047,0,0,0-.451-.559,1.757,1.757,0,0,0-.506-.309,2.091,2.091,0,0,0-.415-.117,1.939,1.939,0,0,0-.248-.023A4.894,4.894,0,0,1,376.614,72.607Zm-3.171,6.59a1.016,1.016,0,0,1-.52-.437c.027.047.07.122.128.226l.238.418c.1.174.2.359.315.553s.188.338.237.432a1.007,1.007,0,0,1,.051.111c.083.174.16.331.232.469s.155.281.248.428a1.873,1.873,0,0,0,.287.362.421.421,0,0,0,.28.14l2.644-.025-.024-2.537-3.221.03A2.1,2.1,0,0,1,373.443,79.2Zm7.513-.087q-.18-.282-.771-1.194t-.694-1.072l2.076-1.256q.03.051.144.262t.279.515l.5.943c.11.2.19.348.238.428a.476.476,0,0,1,.052.233,1.251,1.251,0,0,1-.087.436,1.3,1.3,0,0,1-.135.194,2.655,2.655,0,0,1-.3.311,2.066,2.066,0,0,1-.488.324,1.539,1.539,0,0,1-.627.158A2.87,2.87,0,0,1,380.956,79.11Zm-4.864-2.757-2.058-1.14.28-.46.254-.419q.2-.338.365-.6t.26-.434c.066-.116.112-.194.139-.235a.449.449,0,0,1,.207-.185,1.9,1.9,0,0,1,.4-.115,1.982,1.982,0,0,1,.275.023,2.069,2.069,0,0,1,.422.118,1.78,1.78,0,0,1,.5.3,1.849,1.849,0,0,1,.436.54l.031.05c.035.054.065.1.092.151Z" transform="translate(-368.427 -65.724)" fill="#7ab547" fill-rule="evenodd"/>
      </g>
      <g id="Grupo_89088" data-name="Grupo 89088" transform="translate(4.788 30.963)">
        <path id="Trazado_151685" data-name="Trazado 151685" d="M102.032,217.113A5.973,5.973,0,0,1,96.122,212H97.1l-2.622-4.542L91.854,212h1.02a7.129,7.129,0,0,0,12.217,4.267A5.948,5.948,0,0,1,102.032,217.113Z" transform="translate(-91.854 -203.717)" fill="#7ab547"/>
        <path id="Trazado_151686" data-name="Trazado 151686" d="M126.2,195.76a7.13,7.13,0,0,0-12.218-4.267,5.972,5.972,0,0,1,8.969,4.267h-.977L124.6,200.3l2.622-4.542Z" transform="translate(-109.417 -189.323)" fill="#1f7223"/>
      </g>
      <g id="Grupo_89089" data-name="Grupo 89089" transform="translate(112.206 91.566)">
        <path id="Trazado_151687" data-name="Trazado 151687" d="M622.311,484.2a6.507,6.507,0,0,0-8.551.631c-2.443,2.679-1.773,6.817.315,9.338a4.448,4.448,0,0,1,1.182,3.625h6.265a4.828,4.828,0,0,1,.158-1.891c.433-1.222,1.024-1.537,2.167-3.665S624.832,486.09,622.311,484.2Zm.925,7.827c-1.015,1.891-1.541,2.171-1.926,3.256a4.3,4.3,0,0,0-.14,1.681h-2.348a24.631,24.631,0,0,1-.057-3.071c.068-.894.164-1.871.217-2.4a1.787,1.787,0,0,0,1.825-.949c.534-1.188.815-1.651,1.181-1.685,0,0-3.308-.652-3.183,2.6a10.321,10.321,0,0,0-.315,1.682c-.066-.478-.149-.941-.223-1.319.557-4.829-4.464-4.256-4.464-4.256.544.095.909.824,1.567,2.672a2.708,2.708,0,0,0,2.657,1.647c.045.465.092,1.124.11,1.985a28.2,28.2,0,0,1-.1,3.09H615.6a3.951,3.951,0,0,0-1.05-3.221c-1.855-2.241-2.45-5.917-.28-8.3a5.782,5.782,0,0,1,7.6-.56C624.111,486.564,624.252,490.135,623.236,492.026Z" transform="translate(-612.199 -482.893)" fill="#1f7223"/>
        <path id="Trazado_151688" data-name="Trazado 151688" d="M632.562,556.429h-5.137a.462.462,0,1,0,0,.9h5.137a.462.462,0,1,0,0-.9Z" transform="translate(-623.829 -541.249)" fill="#7ab547"/>
        <path id="Trazado_151689" data-name="Trazado 151689" d="M632.562,562.1h-5.137a.462.462,0,1,0,0,.9h5.137a.462.462,0,1,0,0-.9Z" transform="translate(-623.829 -545.746)" fill="#7ab547"/>
        <path id="Trazado_151690" data-name="Trazado 151690" d="M632.98,567.765h-4.912a.457.457,0,1,0,0,.9h4.912a.457.457,0,1,0,0-.9Z" transform="translate(-624.36 -550.244)" fill="#7ab547"/>
        <path id="Trazado_151691" data-name="Trazado 151691" d="M633.78,573.433H629.3a.451.451,0,1,0,0,.9h4.477a.451.451,0,1,0,0-.9Z" transform="translate(-625.377 -554.742)" fill="#7ab547"/>
      </g>
      <g id="Grupo_89098" data-name="Grupo 89098" transform="translate(119.517 58.632)">
        <g id="Grupo_89097" data-name="Grupo 89097">
          <g id="Grupo_89090" data-name="Grupo 89090" transform="translate(3.236 2.295)">
            <path id="Trazado_151692" data-name="Trazado 151692" d="M674.536,334.475c-4.652,1.355-6.414,7.86-6.414,7.86-1.13-5.782-4.834-4.924-4.834-4.924,6.37.5,3.478,16.15,3.478,16.15h3.93C668.257,339.58,674.536,334.475,674.536,334.475Z" transform="translate(-663.288 -334.475)" fill="#1f7223"/>
          </g>
          <g id="Grupo_89091" data-name="Grupo 89091" transform="translate(0.835 8.394)">
            <path id="Trazado_151693" data-name="Trazado 151693" d="M658.034,369.275s-.216-6.592-6.375-5.014c0,0,.476-.216.886,1.794A4.435,4.435,0,0,0,658.034,369.275Z" transform="translate(-651.658 -364.017)" fill="#7ab547"/>
          </g>
          <g id="Grupo_89092" data-name="Grupo 89092" transform="translate(10.334 8.726)">
            <path id="Trazado_151694" data-name="Trazado 151694" d="M697.671,370.159s.573-5.984,6.086-4.2c0,0-.42-.224-.909,1.581A4.042,4.042,0,0,1,697.671,370.159Z" transform="translate(-697.671 -365.628)" fill="#7ab547"/>
          </g>
          <g id="Grupo_89093" data-name="Grupo 89093" transform="translate(13.234)">
            <path id="Trazado_151695" data-name="Trazado 151695" d="M711.719,326.23s.329-3.769,3.808-2.673c0,0-.265-.139-.563,1A2.544,2.544,0,0,1,711.719,326.23Z" transform="translate(-711.719 -323.357)" fill="#7ab547"/>
          </g>
          <g id="Grupo_89094" data-name="Grupo 89094" transform="translate(12.103 4.037)">
            <path id="Trazado_151696" data-name="Trazado 151696" d="M706.243,345.3s1.772-4.08,5.243-1.561c0,0-.245-.254-1,.905A2.991,2.991,0,0,1,706.243,345.3Z" transform="translate(-706.243 -342.915)" fill="#7ab547"/>
          </g>
          <g id="Grupo_89095" data-name="Grupo 89095" transform="translate(0 2.65)">
            <path id="Trazado_151697" data-name="Trazado 151697" d="M652.522,339.2s-.976-4.394-4.908-2.559c0,0,.292-.2.82,1.091A3.027,3.027,0,0,0,652.522,339.2Z" transform="translate(-647.614 -336.194)" fill="#7ab547"/>
          </g>
          <g id="Grupo_89096" data-name="Grupo 89096" transform="translate(7.551 1.018)">
            <path id="Trazado_151698" data-name="Trazado 151698" d="M686.189,333.6s2.487-3.752-1.562-5.31c0,0,.35.068-.217,1.348A3.027,3.027,0,0,0,686.189,333.6Z" transform="translate(-684.19 -328.289)" fill="#7ab547"/>
          </g>
        </g>
      </g>
      <g id="Grupo_89102" data-name="Grupo 89102" transform="translate(60.021 119.371)">
        <g id="Grupo_89101" data-name="Grupo 89101" transform="translate(0)">
          <g id="Grupo_89100" data-name="Grupo 89100" transform="translate(0 9.794)">
            <rect id="Rect치ngulo_34736" data-name="Rect치ngulo 34736" width="1.484" height="12.182" transform="translate(7.151)" fill="#1f7223"/>
            <g id="Grupo_89099" data-name="Grupo 89099" transform="translate(0 0.613)">
              <path id="Trazado_151699" data-name="Trazado 151699" d="M359.427,668s-.654,9.151,6.548,8.582l-4.787-6.349,5.058,6.135C368.478,669.5,359.427,668,359.427,668Z" transform="translate(-359.411 -668.001)" fill="#1f7223"/>
              <path id="Trazado_151700" data-name="Trazado 151700" d="M408.232,668s.654,9.151-6.548,8.582l4.787-6.349-5.057,6.135C399.182,669.5,408.232,668,408.232,668Z" transform="translate(-392.462 -668.001)" fill="#1f7223"/>
            </g>
          </g>
          <path id="Trazado_151701" data-name="Trazado 151701" d="M379.848,624.9l-1.308-.755,1.308-.755a1.849,1.849,0,1,0-1.849-3.2l-1.308.756v-1.511a1.849,1.849,0,1,0-3.7,0v1.511l-1.309-.756a1.849,1.849,0,1,0-1.849,3.2l1.308.755-1.308.755a1.849,1.849,0,1,0,1.849,3.2l1.309-.755v1.51a1.849,1.849,0,1,0,3.7,0v-1.51l1.308.755a1.849,1.849,0,1,0,1.849-3.2Zm-5.007,1.3a2.06,2.06,0,1,1,2.06-2.06A2.06,2.06,0,0,1,374.841,626.207Z" transform="translate(-366.949 -617.584)" fill="#7ab547"/>
        </g>
      </g>
      <g id="Grupo_89105" data-name="Grupo 89105" transform="translate(89.697 111.682)">
        <g id="Grupo_89104" data-name="Grupo 89104">
          <rect id="Rect치ngulo_34737" data-name="Rect치ngulo 34737" width="2.156" height="5.287" transform="translate(5.496 15.339)" fill="#7ab547"/>
          <g id="Grupo_89103" data-name="Grupo 89103" transform="translate(2.713)">
            <path id="Trazado_151702" data-name="Trazado 151702" d="M517.7,588.754a.7.7,0,0,1-.7.7h0a.7.7,0,0,1-.7-.7v-7.722a.7.7,0,0,1,.7-.7h0a.7.7,0,0,1,.7.7Z" transform="translate(-516.306 -580.337)" fill="#1f7223"/>
            <path id="Trazado_151703" data-name="Trazado 151703" d="M548.362,588.754a.7.7,0,0,1-.7.7h0a.7.7,0,0,1-.7-.7v-7.722a.7.7,0,0,1,.7-.7h0a.7.7,0,0,1,.7.7Z" transform="translate(-540.641 -580.337)" fill="#1f7223"/>
          </g>
          <path id="Trazado_151704" data-name="Trazado 151704" d="M511.421,618.586v3.757a4.869,4.869,0,1,0,9.739,0v-3.757Z" transform="translate(-509.716 -610.69)" fill="#1f7223"/>
          <path id="Trazado_151705" data-name="Trazado 151705" d="M516.311,615.114a1.079,1.079,0,0,1-1.078,1.078H504.241a1.078,1.078,0,0,1-1.078-1.078h0a1.078,1.078,0,0,1,1.078-1.078h10.991a1.079,1.079,0,0,1,1.078,1.078Z" transform="translate(-503.163 -607.079)" fill="#7ab547"/>
        </g>
      </g>
      <g id="Grupo_89107" data-name="Grupo 89107" transform="translate(111.236 26.907)">
        <g id="Grupo_89106" data-name="Grupo 89106" transform="translate(7.52)">
          <path id="Trazado_151706" data-name="Trazado 151706" d="M670,190.832a3.051,3.051,0,0,0-.317-.329,3.57,3.57,0,0,0-.545-.423,4.385,4.385,0,0,0-1.684-.6,5.2,5.2,0,0,0-1.023-.051,5.869,5.869,0,0,0-1.046.154,6.975,6.975,0,0,0-1,.351,6.332,6.332,0,0,0-.9.518,5.2,5.2,0,0,0-.771.649,5.5,5.5,0,0,0-1.061,1.512,5.751,5.751,0,0,0-.285.747,5.09,5.09,0,0,0-.145.647,1.878,1.878,0,0,0-.034.247c.082-.069.171-.141.268-.219a16.026,16.026,0,0,1,1.864-1.282,11.685,11.685,0,0,1,1.076-.548l.518-.2.474-.148.41-.089a2.185,2.185,0,0,1,.32-.044l.278-.029-.275.05a2.4,2.4,0,0,0-.312.069l-.4.119-.454.182-.49.239a11.085,11.085,0,0,0-1.009.62,15.494,15.494,0,0,0-1.718,1.393c-.124.116-.232.221-.326.314.1.017.225.043.367.055.179.018.4.054.633.064s.484.023.744.019.527-.022.8-.046a8.019,8.019,0,0,0,.811-.124,7.515,7.515,0,0,0,.787-.21,7.328,7.328,0,0,0,.747-.292,6.86,6.86,0,0,0,1.332-.785,7.4,7.4,0,0,0,.584-.479c.186-.157.367-.343.541-.51s.339-.332.495-.5l.426-.442c.126-.118.233-.252.307-.326l.117-.132A1.467,1.467,0,0,0,670,190.832Z" transform="translate(-657.627 -185.346)" fill="#7ab547"/>
          <path id="Trazado_151707" data-name="Trazado 151707" d="M647.255,176.464a11.49,11.49,0,0,1-.548-1.076c-.071-.178-.138-.353-.2-.517s-.1-.328-.148-.474-.062-.288-.089-.41a2.2,2.2,0,0,1-.044-.319c-.019-.177-.029-.278-.029-.278l.051.275a2.2,2.2,0,0,0,.069.312l.119.4.182.454c.075.156.155.32.238.49a11.221,11.221,0,0,0,.619,1.009c.1.138.2.268.3.4a8.684,8.684,0,0,1,1.344-1.854,6.329,6.329,0,0,0-.176-.643,7.2,7.2,0,0,0-.292-.747,6.909,6.909,0,0,0-.785-1.332,7.266,7.266,0,0,0-.479-.585c-.157-.186-.342-.368-.509-.54s-.332-.339-.5-.495l-.441-.427c-.118-.126-.253-.233-.326-.307l-.132-.117a1.692,1.692,0,0,0-.133.1,3.175,3.175,0,0,0-.329.318,3.532,3.532,0,0,0-.422.545,4.386,4.386,0,0,0-.6,1.684,5.24,5.24,0,0,0-.052,1.024,5.931,5.931,0,0,0,.155,1.045,6.943,6.943,0,0,0,.351,1,6.322,6.322,0,0,0,.519.9,5.154,5.154,0,0,0,.649.771,5.484,5.484,0,0,0,1.511,1.061c.022.01.041.017.063.025a7.132,7.132,0,0,1,.436-1.127C647.493,176.847,647.37,176.662,647.255,176.464Z" transform="translate(-643.929 -169.679)" fill="#1f7223"/>
        </g>
        <path id="Trazado_151708" data-name="Trazado 151708" d="M617.772,218.709a.324.324,0,0,0,.327.348l3.93,0,.007-3.221s-.056-.531.46-.531h1.631a.505.505,0,0,1,.571.531l-.007,3.211h3.847a.4.4,0,0,0,.412-.434v-5.938l-5.422-4.824-5.757,4.824Z" transform="translate(-615.651 -199.968)" fill="#7ab547"/>
        <path id="Trazado_151709" data-name="Trazado 151709" d="M607.5,202.206s.489.9,1.555,0l6.37-5.389,5.972,5.356c1.234.89,1.7,0,1.7,0l-7.669-6.947Z" transform="translate(-607.501 -189.952)" fill="#1f7223"/>
      </g>
      <path id="Trazado_151710" data-name="Trazado 151710" d="M523.929,68.86s-6.871,9.5-6.871,13.29a6.871,6.871,0,0,0,13.742,0C530.8,78.355,523.929,68.86,523.929,68.86ZM521.11,79.216a4.268,4.268,0,0,1,5.532-.427c.327-.323.8-.784.8-.784a.305.305,0,0,1,.55.215v2.756a.193.193,0,0,1-.192.193h-2.779c-.171.005-.508-.2-.208-.562,0,0,.429-.43.8-.8a2.839,2.839,0,0,0-4.319,2.609h-1.426A4.248,4.248,0,0,1,521.11,79.216Zm5.933,5.924a4.268,4.268,0,0,1-5.533.426c-.327.323-.8.784-.8.784a.305.305,0,0,1-.551-.215V83.38a.193.193,0,0,1,.193-.193h2.779c.171-.005.508.2.208.562,0,0-.429.43-.8.8a2.838,2.838,0,0,0,4.319-2.608h1.427A4.255,4.255,0,0,1,527.043,85.14Z" transform="translate(-424.492 -62.765)" fill="#1f7223"/>
      <g id="Grupo_89108" data-name="Grupo 89108" transform="translate(2.561 94.379)">
        <path id="Trazado_151711" data-name="Trazado 151711" d="M141.549,498.057a5.487,5.487,0,0,0-.746-.292,6.336,6.336,0,0,0-1.176-.274,7.668,7.668,0,0,0-3.121.272,9.069,9.069,0,0,0-1.665.667,10.294,10.294,0,0,0-1.551,1.009,12.2,12.2,0,0,0-1.335,1.29,11.1,11.1,0,0,0-1.058,1.485,9.083,9.083,0,0,0-.752,1.6,9.631,9.631,0,0,0-.582,3.181,9.967,9.967,0,0,0,.093,1.4,9.053,9.053,0,0,0,.243,1.134,3.355,3.355,0,0,0,.126.418c.081-.17.169-.351.267-.546a28,28,0,0,1,2.028-3.4,20.373,20.373,0,0,1,1.31-1.659l.676-.7.645-.583.588-.442a3.862,3.862,0,0,1,.476-.3l.421-.249-.4.282a4.2,4.2,0,0,0-.446.338l-.544.479-.59.622-.6.738a19.172,19.172,0,0,0-1.152,1.724,27.086,27.086,0,0,0-1.715,3.473c-.113.275-.208.521-.289.738.172-.046.389-.1.624-.182.3-.1.683-.21,1.055-.361s.788-.317,1.2-.514.823-.421,1.239-.659a14.09,14.09,0,0,0,1.2-.79,13.267,13.267,0,0,0,1.1-.911,12.732,12.732,0,0,0,.975-1.01,11.973,11.973,0,0,0,1.545-2.224,12.75,12.75,0,0,0,.58-1.189c.181-.385.334-.814.488-1.207s.3-.777.422-1.157.257-.733.355-1.014c.114-.279.186-.571.25-.743.06-.195.09-.3.09-.3A2.594,2.594,0,0,0,141.549,498.057Z" transform="translate(-119.553 -497.254)" fill="#1f7223"/>
        <path id="Trazado_151712" data-name="Trazado 151712" d="M89.614,506.01a20.041,20.041,0,0,1-1.659-1.31c-.243-.233-.478-.46-.7-.674-.207-.229-.4-.447-.583-.646-.162-.215-.309-.413-.441-.587a4,4,0,0,1-.3-.475c-.159-.268-.25-.422-.25-.422l.283.4a3.843,3.843,0,0,0,.338.446l.479.545.622.589c.234.193.482.4.738.605a19.467,19.467,0,0,0,1.724,1.152c.252.151.507.283.762.418a15.191,15.191,0,0,1,.782-3.932,11.184,11.184,0,0,0-.75-.894,12.7,12.7,0,0,0-1.011-.975,12.1,12.1,0,0,0-2.223-1.546,12.961,12.961,0,0,0-1.189-.58c-.385-.181-.813-.335-1.206-.487s-.776-.3-1.157-.421l-1.014-.357c-.279-.113-.572-.186-.743-.25l-.3-.09a2.833,2.833,0,0,0-.136.263,5.56,5.56,0,0,0-.291.746,6.175,6.175,0,0,0-.273,1.176,7.689,7.689,0,0,0,.27,3.122,9.235,9.235,0,0,0,.667,1.666,10.413,10.413,0,0,0,1.011,1.551,12.148,12.148,0,0,0,1.29,1.334,11.01,11.01,0,0,0,1.486,1.058,9.018,9.018,0,0,0,1.6.752,9.616,9.616,0,0,0,3.181.583c.042,0,.078,0,.119-.006a12.473,12.473,0,0,1-.131-2.112C90.273,506.445,89.943,506.242,89.614,506.01Z" transform="translate(-81.068 -496.519)" fill="#7ab547"/>
      </g>
    </g>
  </g>
</svg>
