<svg xmlns="http://www.w3.org/2000/svg" width="61.353" height="80" viewBox="0 0 61.353 80">
  <g id="libro-guia" transform="translate(-59.672)">
    <g id="Grupo_86357" data-name="Grupo 86357" transform="translate(61.234 1.562)">
      <path id="Trazado_151509" data-name="Trazado 151509" d="M127.9,14.18A4.18,4.18,0,0,0,123.72,10H73.682a4.01,4.01,0,0,0-4.01,4.01V82.865a4.01,4.01,0,0,0,4.01,4.01H123.72a4.18,4.18,0,0,0,4.18-4.18Z" transform="translate(-69.672 -10)" fill="#ffda73"/>
    </g>
    <g id="Grupo_86358" data-name="Grupo 86358" transform="translate(61.234 1.562)">
      <path id="Trazado_151510" data-name="Trazado 151510" d="M69.672,14.01V82.865a4.01,4.01,0,0,0,4.01,4.01h4.534V10H73.682A4.01,4.01,0,0,0,69.672,14.01Z" transform="translate(-69.672 -10)" fill="#fb0"/>
    </g>
    <g id="Grupo_86359" data-name="Grupo 86359" transform="translate(78.174 35.153)">
      <circle id="Elipse_4608" data-name="Elipse 4608" cx="16.316" cy="16.316" r="16.316" fill="#3ca8f4"/>
    </g>
    <g id="Grupo_86360" data-name="Grupo 86360" transform="translate(94.49 35.153)">
      <path id="Trazado_151511" data-name="Trazado 151511" d="M297.78,235.539l-6.878,6.878a2.488,2.488,0,0,1-1.755.727h-1.2a2.481,2.481,0,0,1-2.481-2.481v-5.123a2.481,2.481,0,0,0-.727-1.755l-1.5-1.5a2.488,2.488,0,0,1-.727-1.755V224.98A16.323,16.323,0,0,1,297.78,235.539Z" transform="translate(-282.508 -224.98)" fill="#7ae582"/>
    </g>
    <g id="Grupo_86361" data-name="Grupo 86361" transform="translate(78.174 46.364)">
      <path id="Trazado_151512" data-name="Trazado 151512" d="M191.524,313.9l-2.988,3.167A16.335,16.335,0,0,1,178.9,296.73h7.022a2.782,2.782,0,0,1,2.783,2.783v6.6a2.784,2.784,0,0,0,.816,1.969l1.942,1.942A2.782,2.782,0,0,1,191.524,313.9Z" transform="translate(-178.088 -296.73)" fill="#7ae582"/>
    </g>
    <g id="Grupo_86362" data-name="Grupo 86362" transform="translate(59.672 0)">
      <path id="Trazado_151513" data-name="Trazado 151513" d="M119.462,45.164a1.563,1.563,0,0,0-1.562,1.563V74.258a2.62,2.62,0,0,1-2.617,2.617H71.341V3.125h43.941A2.62,2.62,0,0,1,117.9,5.742V32.983a1.563,1.563,0,0,0,3.125,0V5.742A5.748,5.748,0,0,0,115.282,0H65.244a5.579,5.579,0,0,0-5.573,5.573V74.427A5.579,5.579,0,0,0,65.244,80h50.038a5.748,5.748,0,0,0,5.742-5.742V46.727A1.562,1.562,0,0,0,119.462,45.164ZM65.244,76.875A2.45,2.45,0,0,1,62.8,74.427V5.572a2.45,2.45,0,0,1,2.448-2.448h2.972v73.75Z" transform="translate(-59.672 0)"/>
      <path id="Trazado_151514" data-name="Trazado 151514" d="M215.6,93.411a1.563,1.563,0,0,0-1.562-1.562H186.755a1.563,1.563,0,0,0,0,3.125h27.287A1.563,1.563,0,0,0,215.6,93.411Z" transform="translate(-165.579 -77.498)"/>
      <path id="Trazado_151515" data-name="Trazado 151515" d="M222.2,145.818a1.563,1.563,0,0,0,0,3.125h16.21a1.563,1.563,0,0,0,0-3.125Z" transform="translate(-195.487 -123.034)"/>
      <path id="Trazado_151516" data-name="Trazado 151516" d="M169,227.259a17.832,17.832,0,0,0-.834,4.13A17.879,17.879,0,1,0,191.5,215.843a17.357,17.357,0,0,0-5.525-.868A18.069,18.069,0,0,0,169,227.259ZM180,240.2l1.942,1.943a1.213,1.213,0,0,1,.027,1.7h0l-2.237,2.372a14.907,14.907,0,0,1-8.069-16.9H177.5a1.222,1.222,0,0,1,1.22,1.22v6.6A4.317,4.317,0,0,0,180,240.2Zm9.317-15.964-1.5-1.5a.93.93,0,0,1-.271-.652v-3.9a14.937,14.937,0,0,1,11.862,8.551l-6.133,6.133a.93.93,0,0,1-.652.271h-1.2a.92.92,0,0,1-.919-.919V227.1A4.017,4.017,0,0,0,189.316,224.237Zm-4.9-6.054v3.9a4.079,4.079,0,0,0,1.184,2.86l1.5,1.5a.913.913,0,0,1,.269.65v5.123a4.048,4.048,0,0,0,4.044,4.044h1.2a4.08,4.08,0,0,0,2.86-1.184l4.994-4.994A14.76,14.76,0,0,1,183,247.3l1.242-1.317a4.322,4.322,0,0,0-.09-6.053l-1.942-1.942a1.213,1.213,0,0,1-.358-.864v-6.6a4.35,4.35,0,0,0-4.345-4.345h-4.68a14.786,14.786,0,0,1,11.6-8Z" transform="translate(-151.165 -181.384)"/>
      <path id="Trazado_151517" data-name="Trazado 151517" d="M435.336,244.6a1.561,1.561,0,1,0-.639,1.938A1.573,1.573,0,0,0,435.336,244.6Z" transform="translate(-374.104 -205.591)"/>
    </g>
  </g>
</svg>
