<svg xmlns="http://www.w3.org/2000/svg" xmlns:xlink="http://www.w3.org/1999/xlink" width="138" height="138" viewBox="0 0 138 138">
  <defs>
    <filter id="Elipse_4659" x="0" y="0" width="138" height="138" filterUnits="userSpaceOnUse">
      <feOffset dy="3" input="SourceAlpha"/>
      <feGaussianBlur stdDeviation="3" result="blur"/>
      <feFlood flood-opacity="0.161"/>
      <feComposite operator="in" in2="blur"/>
      <feComposite in="SourceGraphic"/>
    </filter>
  </defs>
  <g id="Grupo_90182" data-name="Grupo 90182" transform="translate(-899.668 -588.914)">
    <g transform="matrix(1, 0, 0, 1, 899.67, 588.91)" filter="url(#Elipse_4659)">
      <g id="Elipse_4659-2" data-name="Elipse 4659" transform="translate(9 6)" fill="#fff" stroke="#29b39d" stroke-width="4">
        <circle cx="60" cy="60" r="60" stroke="none"/>
        <circle cx="60" cy="60" r="58" fill="none"/>
      </g>
    </g>
    <g id="lapiz" transform="translate(910.294 614.471)">
      <g id="Grupo_89691" data-name="Grupo 89691" transform="translate(17.654 1.097)">
        <path id="Trazado_152511" data-name="Trazado 152511" d="M106.907,104.334v53.683a4.846,4.846,0,0,0,4.846,4.846h46.039a4.846,4.846,0,0,0,4.846-4.846V104.334Z" transform="translate(-94.788 -90.171)" fill="#ffda73"/>
        <g id="Grupo_89689" data-name="Grupo 89689" transform="translate(0 33.919)">
          <path id="Trazado_152513" data-name="Trazado 152513" d="M75.014,283.521,56.1,264.609l-6.854,6.854,18.912,18.912a1.17,1.17,0,0,0,.827.343h1.044l5.324-5.324v-1.045A1.17,1.17,0,0,0,75.014,283.521Z" transform="translate(-45.563 -260.923)" fill="#fb0"/>
          <path id="Trazado_152514" data-name="Trazado 152514" d="M105.221,283.521,86.309,264.609l-1.679,1.679L104.2,285.858a1.169,1.169,0,0,1,.316.581l1.047-1.047v-1.045A1.17,1.17,0,0,0,105.221,283.521Z" transform="translate(-75.769 -260.923)" fill="#fb0"/>
          <path id="Trazado_152515" data-name="Trazado 152515" d="M188.187,402.377v-5.2a1.168,1.168,0,0,0-.075-.409l-6.7,6.7a1.169,1.169,0,0,0,.409.075h5.2A1.17,1.17,0,0,0,188.187,402.377Z" transform="translate(-158.393 -373.753)" fill="#f9eae0"/>
          <path id="Trazado_152516" data-name="Trazado 152516" d="M28.184,240.118l-3.427,3.427a2.423,2.423,0,0,0,0,3.427l3.427,3.427,6.854-6.854-3.427-3.427A2.423,2.423,0,0,0,28.184,240.118Z" transform="translate(-24.047 -239.408)" fill="#7ae582"/>
          <path id="Trazado_152517" data-name="Trazado 152517" d="M52.567,240.091c.011.011.024.02.035.031l5.105,5.105,1.679-1.679-3.427-3.427A2.422,2.422,0,0,0,52.567,240.091Z" transform="translate(-48.396 -239.413)" fill="#7ae582"/>
        </g>
        <path id="Trazado_152518" data-name="Trazado 152518" d="M157.791,40.634H111.752a4.846,4.846,0,0,0-4.846,4.846v7.269h55.731V45.48A4.846,4.846,0,0,0,157.791,40.634Z" transform="translate(-94.787 -35.788)" fill="#7ae582"/>
        <path id="Trazado_152519" data-name="Trazado 152519" d="M435.172,40.634h-3.364a4.846,4.846,0,0,1,4.846,4.846v7.269h3.364V45.48A4.846,4.846,0,0,0,435.172,40.634Z" transform="translate(-372.168 -35.788)" fill="#7ae582"/>
        <g id="Grupo_89690" data-name="Grupo 89690" transform="translate(19.388)">
          <path id="Trazado_152520" data-name="Trazado 152520" d="M156.607,14.769a2.423,2.423,0,1,0,4.846,0V9.923a2.423,2.423,0,1,0-4.846,0Z" transform="translate(-156.607 -7.5)" fill="#bdd3dd"/>
          <path id="Trazado_152521" data-name="Trazado 152521" d="M405.107,14.769a2.423,2.423,0,1,0,4.846,0V9.923a2.423,2.423,0,1,0-4.846,0Z" transform="translate(-368.761 -7.5)" fill="#bdd3dd"/>
          <path id="Trazado_152522" data-name="Trazado 152522" d="M239.44,14.769a2.423,2.423,0,0,0,4.846,0V9.923a2.423,2.423,0,0,0-4.846,0Z" transform="translate(-227.325 -7.5)" fill="#bdd3dd"/>
          <path id="Trazado_152523" data-name="Trazado 152523" d="M322.274,14.769a2.423,2.423,0,0,0,4.846,0V9.923a2.423,2.423,0,0,0-4.846,0Z" transform="translate(-298.043 -7.5)" fill="#bdd3dd"/>
        </g>
        <path id="Trazado_152524" data-name="Trazado 152524" d="M411.856,7.5a2.414,2.414,0,0,0-1.682.681,2.414,2.414,0,0,1,.741,1.742v4.846a2.415,2.415,0,0,1-.741,1.742,2.421,2.421,0,0,0,4.105-1.742V9.923A2.423,2.423,0,0,0,411.856,7.5Z" transform="translate(-353.698 -7.5)" fill="#abc4d6"/>
        <path id="Trazado_152525" data-name="Trazado 152525" d="M329.023,7.5a2.413,2.413,0,0,0-1.682.681,2.414,2.414,0,0,1,.741,1.742v4.846a2.415,2.415,0,0,1-.741,1.742,2.421,2.421,0,0,0,4.105-1.742V9.923A2.423,2.423,0,0,0,329.023,7.5Z" transform="translate(-282.981 -7.5)" fill="#abc4d6"/>
        <path id="Trazado_152526" data-name="Trazado 152526" d="M246.19,7.5a2.414,2.414,0,0,0-1.682.681,2.414,2.414,0,0,1,.741,1.742v4.846a2.414,2.414,0,0,1-.741,1.742,2.421,2.421,0,0,0,4.105-1.742V9.923A2.423,2.423,0,0,0,246.19,7.5Z" transform="translate(-212.263 -7.5)" fill="#abc4d6"/>
        <path id="Trazado_152527" data-name="Trazado 152527" d="M163.356,7.5a2.413,2.413,0,0,0-1.682.681,2.414,2.414,0,0,1,.741,1.742v4.846a2.414,2.414,0,0,1-.741,1.742,2.421,2.421,0,0,0,4.105-1.742V9.923A2.423,2.423,0,0,0,163.356,7.5Z" transform="translate(-141.544 -7.5)" fill="#abc4d6"/>
      </g>
      <g id="Grupo_89692" data-name="Grupo 89692" transform="translate(16.559 0)">
        <path id="Trazado_152528" data-name="Trazado 152528" d="M80.658,4.846H79.332V3.52a3.52,3.52,0,1,0-7.04,0V4.846H67.217V3.52a3.52,3.52,0,1,0-7.04,0V4.846H55.1V3.52a3.52,3.52,0,1,0-7.04,0V4.846H42.986V3.52a3.52,3.52,0,1,0-7.04,0V4.846H34.619a5.95,5.95,0,0,0-5.943,5.943V37.634L25.993,34.95a3.524,3.524,0,0,0-4.978,0l-3.427,3.427a3.524,3.524,0,0,0,0,4.978L28.677,54.443v14.5a5.95,5.95,0,0,0,5.943,5.943H71.936a1.1,1.1,0,1,0,0-2.194H34.619a3.753,3.753,0,0,1-3.749-3.749V56.637l8.949,8.949a1.073,1.073,0,0,0,.081.074c.019.016.039.03.059.044l.028.02c.025.017.051.032.077.046l.015.009c.028.015.056.028.084.04l.013.006c.028.011.056.021.084.03l.017.006c.027.008.054.014.08.02l.024.006c.026.005.053.008.079.012l.027,0c.036,0,.071.005.107.005h6.4L48.386,67.3a1.1,1.1,0,1,0,1.551-1.551l-1.392-1.392v-6.4q0-.054-.005-.108c0-.008,0-.016,0-.023,0-.028-.007-.055-.012-.083,0-.007,0-.014-.005-.021-.006-.028-.013-.056-.021-.083l-.005-.015c-.009-.029-.019-.058-.031-.087l0-.009c-.013-.03-.026-.059-.041-.088l-.006-.011c-.015-.027-.031-.055-.048-.081l-.018-.024c-.015-.021-.03-.042-.046-.063s-.048-.055-.074-.081l-8.949-8.949H77.023a1.1,1.1,0,0,0,0-2.194H38.254a1.093,1.093,0,0,0-.812.361L30.87,39.827V19.155H84.407v7.481a1.1,1.1,0,0,0,2.194,0V10.789A5.949,5.949,0,0,0,80.658,4.846ZM46.352,63.713H43.243l3.108-3.108ZM23.342,46.006l1.875-1.875L42.47,61.384,40.6,63.259Zm20.68,13.826L26.769,42.579,28.644,40.7,45.9,57.957ZM19.14,39.928,22.566,36.5a1.328,1.328,0,0,1,1.875,0l2.651,2.651L24.442,41.8h0l-2.651,2.651L19.14,41.8A1.327,1.327,0,0,1,19.14,39.928ZM75.812,2.194A1.328,1.328,0,0,1,77.138,3.52V8.366a1.326,1.326,0,0,1-2.652,0V5.945h0V3.52a1.328,1.328,0,0,1,1.326-1.326Zm-12.115,0A1.328,1.328,0,0,1,65.023,3.52V8.366a1.326,1.326,0,1,1-2.652,0V5.945h0V3.52A1.328,1.328,0,0,1,63.7,2.194ZM50.255,3.52a1.326,1.326,0,1,1,2.652,0V5.942h0V8.366a1.326,1.326,0,1,1-2.652,0ZM39.466,2.194A1.328,1.328,0,0,1,40.792,3.52V5.942h0V8.366a1.326,1.326,0,1,1-2.652,0V5.945h0V3.52A1.328,1.328,0,0,1,39.466,2.194Zm-8.6,14.768V10.789A3.753,3.753,0,0,1,34.619,7.04h1.326V8.366a3.52,3.52,0,1,0,7.04,0V7.04h5.075V8.366a3.52,3.52,0,1,0,7.04,0V7.04h5.075V8.366a3.52,3.52,0,1,0,7.04,0V7.04h5.075V8.366a3.52,3.52,0,1,0,7.04,0V7.04h1.326a3.753,3.753,0,0,1,3.749,3.749v6.172Z" transform="translate(-16.559 0)"/>
        <path id="Trazado_152529" data-name="Trazado 152529" d="M427.951,204.619a1.1,1.1,0,0,0-1.1,1.1v37.918a3.753,3.753,0,0,1-3.749,3.749h-4.334a1.1,1.1,0,0,0,0,2.194h4.334a5.95,5.95,0,0,0,5.943-5.943V205.716a1.1,1.1,0,0,0-1.1-1.1Z" transform="translate(-359.006 -174.691)"/>
        <path id="Trazado_152530" data-name="Trazado 152530" d="M158.487,167.861h38.769a1.1,1.1,0,0,0,0-2.194H158.487a1.1,1.1,0,0,0,0,2.194Z" transform="translate(-136.792 -141.436)"/>
        <path id="Trazado_152531" data-name="Trazado 152531" d="M158.487,217.561h38.769a1.1,1.1,0,1,0,0-2.194H158.487a1.1,1.1,0,0,0,0,2.194Z" transform="translate(-136.792 -183.867)"/>
        <path id="Trazado_152532" data-name="Trazado 152532" d="M158.487,267.261h38.769a1.1,1.1,0,1,0,0-2.194H158.487a1.1,1.1,0,0,0,0,2.194Z" transform="translate(-136.792 -226.298)"/>
        <path id="Trazado_152533" data-name="Trazado 152533" d="M276.144,365.564a1.1,1.1,0,0,0-1.1-1.1H249.6a1.1,1.1,0,0,0,0,2.194h25.442A1.1,1.1,0,0,0,276.144,365.564Z" transform="translate(-214.583 -311.159)"/>
      </g>
    </g>
  </g>
</svg>
