<svg id="pantalla" xmlns="http://www.w3.org/2000/svg" width="80" height="77.366" viewBox="0 0 80 77.366">
  <path id="Trazado_143818" data-name="Trazado 143818" d="M24.166,2.148H74.533v74.24H24.166Zm0,0" transform="translate(-6.591 -0.586)" fill="#fb0" fill-rule="evenodd"/>
  <path id="Trazado_143819" data-name="Trazado 143819" d="M13.157,12.156h8.007V71.84H13.157Zm0,0" transform="translate(-3.588 -3.315)" fill="#ffda73" fill-rule="evenodd"/>
  <path id="Trazado_143820" data-name="Trazado 143820" d="M2.148,22.965h8.006V66.927H2.148Zm0,0" transform="translate(-0.586 -6.263)" fill="#ffda73" fill-rule="evenodd"/>
  <path id="Trazado_143821" data-name="Trazado 143821" d="M64.841,61.218l22.8,22.8ZM51.964,30.132a18.21,18.21,0,1,1-18.209,18.21A18.21,18.21,0,0,1,51.964,30.132Zm0,0" transform="translate(-9.206 -8.218)" fill="#29b39d" fill-rule="evenodd"/>
  <path id="Trazado_143822" data-name="Trazado 143822" d="M79.542,74.7,69.5,64.66V1.563A1.562,1.562,0,0,0,67.942,0H17.575a1.562,1.562,0,0,0-1.562,1.563V7.278H9.568A1.563,1.563,0,0,0,8.006,8.841v6.3H1.563A1.563,1.563,0,0,0,0,16.7V60.663a1.562,1.562,0,0,0,1.563,1.563H8.006v6.3a1.563,1.563,0,0,0,1.563,1.563h6.444V75.8a1.562,1.562,0,0,0,1.563,1.563H67.942A1.562,1.562,0,0,0,69.5,75.8V69.08l7.828,7.828a1.563,1.563,0,0,0,2.209-2.21ZM3.125,59.1V18.264H8.006V59.1Zm8.006,7.861V10.4h4.882V66.962ZM66.379,74.24H19.138V3.125H66.379v58.41L57.795,52.95A19.771,19.771,0,0,0,34.326,22.236a1.563,1.563,0,0,0,1.335,2.826,16.5,16.5,0,0,1,7.1-1.586A16.647,16.647,0,1,1,26.111,40.124a16.494,16.494,0,0,1,1.586-7.1,1.562,1.562,0,0,0-2.825-1.335,19.592,19.592,0,0,0-1.885,8.433,19.763,19.763,0,0,0,32.6,15.035L66.38,65.954V74.24Zm0,0" fill-rule="evenodd"/>
  <path id="Trazado_143823" data-name="Trazado 143823" d="M70.679,61.3a1.562,1.562,0,0,0,1.563-1.562V51a1.563,1.563,0,1,0-3.125,0v8.737A1.563,1.563,0,0,0,70.679,61.3Zm0,0" transform="translate(-18.85 -13.483)" fill-rule="evenodd"/>
  <path id="Trazado_143824" data-name="Trazado 143824" d="M54.05,60.647a1.563,1.563,0,0,0,1.563-1.562V48.614a1.562,1.562,0,0,0-3.125,0V59.085A1.562,1.562,0,0,0,54.05,60.647Zm0,0" transform="translate(-14.315 -12.832)" fill-rule="evenodd"/>
  <path id="Trazado_143825" data-name="Trazado 143825" d="M45.735,62.4A1.563,1.563,0,0,0,47.3,60.835v-5.8a1.563,1.563,0,0,0-3.125,0v5.8A1.562,1.562,0,0,0,45.735,62.4Zm0,0" transform="translate(-12.047 -14.583)" fill-rule="evenodd"/>
  <path id="Trazado_143826" data-name="Trazado 143826" d="M62.365,58.9a1.563,1.563,0,0,0,1.563-1.562V42.195a1.563,1.563,0,0,0-3.125,0V57.334A1.562,1.562,0,0,0,62.365,58.9Zm0,0" transform="translate(-16.582 -11.082)" fill-rule="evenodd"/>
  <path id="Trazado_143827" data-name="Trazado 143827" d="M40.5,38.442A1.563,1.563,0,1,0,38.94,36.88,1.566,1.566,0,0,0,40.5,38.442Zm0,0" transform="translate(-10.62 -9.632)" fill-rule="evenodd"/>
</svg>
