<svg xmlns="http://www.w3.org/2000/svg" width="328" height="250" viewBox="0 0 328 250">
  <g id="Grupo_90181" data-name="Grupo 90181" transform="translate(-811.668 -1195)">
    <path id="Trazado_155631" data-name="Trazado 155631" d="M20,0H308a20,20,0,0,1,20,20V230a20,20,0,0,1-20,20H20A20,20,0,0,1,0,230V20A20,20,0,0,1,20,0Z" transform="translate(811.668 1195)" fill="#29b39d"/>
    <path id="Trazado_155632" data-name="Trazado 155632" d="M120.816,22.844a6.1,6.1,0,0,1-2.684,1.764,11.238,11.238,0,0,1-3.844.627,7.614,7.614,0,0,1-3.885-.967,6.448,6.448,0,0,1-2.578-2.807,9.878,9.878,0,0,1-.932-4.324v-1.16a10.491,10.491,0,0,1,.861-4.424,6.372,6.372,0,0,1,2.484-2.859,8.18,8.18,0,0,1,8.549.457,6.185,6.185,0,0,1,2.027,4.213h-3.422a3.4,3.4,0,0,0-1.037-2.145,3.312,3.312,0,0,0-2.209-.68,3.117,3.117,0,0,0-2.73,1.348,7.086,7.086,0,0,0-.949,4.008v1.09a6.746,6.746,0,0,0,1.02,4.055,3.491,3.491,0,0,0,2.988,1.371,3.9,3.9,0,0,0,2.824-.844V18.625h-3.2v-2.59h6.715Zm15.691-12.059h-5.227V25h-3.516V10.785h-5.156V7.938h13.9Zm15.4,8.531a6.038,6.038,0,0,1-2.033,4.336,7.141,7.141,0,0,1-4.834,1.582,6.421,6.421,0,0,1-5.162-2.209A9.058,9.058,0,0,1,138,16.961V15.918a10.228,10.228,0,0,1,.867-4.336,6.5,6.5,0,0,1,2.479-2.877,7.746,7.746,0,0,1,8.5.58,6.488,6.488,0,0,1,2.086,4.441h-3.516a3.563,3.563,0,0,0-.92-2.4,3.407,3.407,0,0,0-2.408-.744,2.987,2.987,0,0,0-2.631,1.26,7.06,7.06,0,0,0-.9,3.908v1.289a7.556,7.556,0,0,0,.838,4.043,2.932,2.932,0,0,0,2.643,1.277,3.471,3.471,0,0,0,2.432-.744,3.361,3.361,0,0,0,.92-2.3Zm17.941-.738h1.934v2.73h-1.934V25h-3.387V21.309h-7l-.152-2.133,7.113-11.238h3.422Zm-7.16,0h3.773V12.555l-.223.387ZM174.1,16.609l.984-8.672h9.563v2.824h-6.785l-.422,3.668a5.369,5.369,0,0,1,2.566-.645,4.918,4.918,0,0,1,3.82,1.512,6.038,6.038,0,0,1,1.383,4.23,6.186,6.186,0,0,1-.7,2.959,4.921,4.921,0,0,1-2,2.027,6.237,6.237,0,0,1-3.07.721,6.624,6.624,0,0,1-2.871-.627,5.093,5.093,0,0,1-2.092-1.764,4.807,4.807,0,0,1-.814-2.59h3.352a2.5,2.5,0,0,0,.744,1.658,2.359,2.359,0,0,0,1.67.592,2.082,2.082,0,0,0,1.77-.826,3.827,3.827,0,0,0,.621-2.338,3.165,3.165,0,0,0-.715-2.227,2.623,2.623,0,0,0-2.027-.773,2.932,2.932,0,0,0-1.957.633l-.328.3Z" transform="translate(832.668 1378)" fill="#12263f"/>
    <path id="Trazado_155633" data-name="Trazado 155633" d="M60,0A60,60,0,1,1,0,60,60,60,0,0,1,60,0Z" transform="translate(918.668 1234)" fill="#fff"/>
    <g id="precaucion" transform="translate(945.513 1243.018)">
      <g id="Grupo_89705" data-name="Grupo 89705" transform="translate(0 17.577)">
        <g id="Grupo_89704" data-name="Grupo 89704" transform="translate(0 0)">
          <g id="Grupo_89702" data-name="Grupo 89702" transform="translate(1.374 1.372)">
            <path id="Trazado_152592" data-name="Trazado 152592" d="M33.565,27.578,7.807,72.192a6.022,6.022,0,0,0,5.215,9.034H64.538a6.022,6.022,0,0,0,5.215-9.034L43.994,27.578a6.021,6.021,0,0,0-10.429,0Z" transform="translate(-6.998 -24.566)" fill="#fb0"/>
            <g id="Grupo_89701" data-name="Grupo 89701" transform="translate(28.378 16.726)">
              <path id="Trazado_152593" data-name="Trazado 152593" d="M154.9,109.732h0a3.4,3.4,0,0,1,3.4,3.4V127.08a3.4,3.4,0,0,1-3.4,3.4h0a3.4,3.4,0,0,1-3.4-3.4V113.136A3.4,3.4,0,0,1,154.9,109.732Z" transform="translate(-151.494 -109.732)" fill="#fcf7ed"/>
              <circle id="Elipse_4674" data-name="Elipse 4674" cx="3.404" cy="3.404" r="3.404" transform="translate(0 25.549)" fill="#fcf7ed"/>
            </g>
          </g>
          <g id="Grupo_89703" data-name="Grupo 89703">
            <path id="Trazado_152594" data-name="Trazado 152594" d="M254.3,148.83a1.375,1.375,0,0,0,2.381-1.375l-.8-1.386a1.375,1.375,0,0,0-2.39,1.359l.009.016Z" transform="translate(-203.567 -120.276)" fill="#2c292a"/>
            <path id="Trazado_152595" data-name="Trazado 152595" d="M65.32,65.889,56.342,50.335a1.375,1.375,0,1,0-2.382,1.375l8.979,15.554a4.647,4.647,0,0,1-4.024,6.97H7.4a4.647,4.647,0,0,1-4.024-6.97L29.131,22.649a4.647,4.647,0,0,1,8.049,0L46.7,39.14a1.375,1.375,0,0,0,2.381-1.375L39.561,21.277a7.4,7.4,0,0,0-12.811,0L.992,65.889A7.4,7.4,0,0,0,7.4,76.983H58.914A7.4,7.4,0,0,0,65.32,65.889Z" transform="translate(0 -17.577)" fill="#2c292a"/>
            <path id="Trazado_152596" data-name="Trazado 152596" d="M154.051,107.516a4.779,4.779,0,0,0-9.557,0v13.944a4.779,4.779,0,0,0,9.557,0ZM151.3,121.461a2.029,2.029,0,1,1-4.058,0V107.516a2.029,2.029,0,1,1,4.058,0Z" transform="translate(-116.117 -86.013)" fill="#2c292a"/>
            <path id="Trazado_152597" data-name="Trazado 152597" d="M149.266,232.816a4.779,4.779,0,1,0,4.779,4.78v0A4.784,4.784,0,0,0,149.266,232.816Zm0,6.808a2.03,2.03,0,1,1,2.029-2.031h0a2.032,2.032,0,0,1-2.029,2.031Z" transform="translate(-116.11 -190.545)" fill="#2c292a"/>
          </g>
        </g>
      </g>
    </g>
  </g>
</svg>
