<svg xmlns="http://www.w3.org/2000/svg" width="89.999" height="89.999" viewBox="0 0 89.999 89.999">
  <g id="investigacion" transform="translate(0 -0.001)">
    <path id="Trazado_143937" data-name="Trazado 143937" d="M401.612,274.143a2.638,2.638,0,0,1-3.729,0l-17.277-17.277,3.729-3.729,17.277,17.277A2.638,2.638,0,0,1,401.612,274.143Zm0,0" transform="translate(-313.703 -208.64)" fill="#3ca8f4"/>
    <path id="Trazado_143938" data-name="Trazado 143938" d="M7.5,62.5H62.871v77.695H7.5Zm0,0" transform="translate(-6.182 -51.513)" fill="#f6f6f6"/>
    <path id="Trazado_143939" data-name="Trazado 143939" d="M40,307.727H50.547V336.2H40Zm0,0" transform="translate(-32.969 -253.634)" fill="#fb0"/>
    <path id="Trazado_143940" data-name="Trazado 143940" d="M134,247.727h10.547V286.75H134Zm0,0" transform="translate(-110.446 -204.18)" fill="#1d8070"/>
    <path id="Trazado_143941" data-name="Trazado 143941" d="M230,269.727h10.547v35.156H230Zm0,0" transform="translate(-189.571 -222.313)" fill="#7ae582"/>
    <path id="Trazado_143945" data-name="Trazado 143945" d="M184.624,15.69a27.949,27.949,0,1,0,0,39.525A27.949,27.949,0,0,0,184.624,15.69Zm0,0" transform="translate(-112.847 -6.184)" fill="#fb0"/>
    <path id="Trazado_143946" data-name="Trazado 143946" d="M205.672,76.26a22.676,22.676,0,1,1,0-32.068A22.7,22.7,0,0,1,205.672,76.26Zm0,0" transform="translate(-137.622 -30.958)" fill="#3ca8f4"/>
    <path id="Trazado_143948" data-name="Trazado 143948" d="M88.844,60.5,75.318,46.968A29.277,29.277,0,0,0,76.491,13.2a1.318,1.318,0,1,0-2.2,1.449,26.655,26.655,0,1,1-3.444-4.223l.072.073a1.318,1.318,0,0,0,1.871-1.858l-.076-.076a29.3,29.3,0,0,0-41.391,0q-.538.538-1.041,1.1H1.318A1.319,1.319,0,0,0,0,10.975v5.831a1.318,1.318,0,1,0,2.637,0V12.294H28.165a29.041,29.041,0,0,0-2.6,4.436H9.141a1.318,1.318,0,1,0,0,2.637H24.475a29.207,29.207,0,0,0-.946,3.223H9.141a1.318,1.318,0,0,0,0,2.637h13.9a29.46,29.46,0,0,0-.266,3.222H9.141a1.319,1.319,0,0,0,0,2.637H22.821a29.3,29.3,0,0,0,2.951,11.135H23.555a1.318,1.318,0,0,0-1.318,1.319V82.568a1.318,1.318,0,0,0,1.318,1.319H34.1a1.318,1.318,0,0,0,1.318-1.319v-29.2a29.048,29.048,0,0,0,3.691,2.162V82.568a1.319,1.319,0,0,0,1.318,1.319H50.977A1.318,1.318,0,0,0,52.3,82.568V58.514a29.746,29.746,0,0,0,3.077-.19V78.69a1.318,1.318,0,1,0,2.637,0V57.9a29.069,29.069,0,0,0,11.717-5.336L83.248,66.089a3.956,3.956,0,0,0,5.6-5.593ZM32.784,81.25h-7.91V44.858h2.375a29.286,29.286,0,0,0,4.072,5.1q.713.713,1.463,1.364Zm8.965,0V56.668a29.347,29.347,0,0,0,7.91,1.753V81.25Zm45.23-17.026a1.319,1.319,0,0,1-1.866,0L71.758,50.868c.323-.3.642-.6.954-.91s.615-.63.911-.954L86.978,62.36A1.32,1.32,0,0,1,86.979,64.224Zm0,0"/>
    <path id="Trazado_143949" data-name="Trazado 143949" d="M56.69,182.464a1.318,1.318,0,0,0-1.318,1.318v2.989H2.637V121.928a1.318,1.318,0,1,0-2.637,0V188.09a1.318,1.318,0,0,0,1.318,1.318H56.69a1.318,1.318,0,0,0,1.318-1.318v-4.307A1.318,1.318,0,0,0,56.69,182.464Zm0,0" transform="translate(0 -99.408)"/>
    <path id="Trazado_143950" data-name="Trazado 143950" d="M32.5,301.514v28.481a1.319,1.319,0,0,0,1.318,1.318H44.366a1.319,1.319,0,0,0,1.318-1.318V301.514a1.319,1.319,0,0,0-1.318-1.318H33.818A1.319,1.319,0,0,0,32.5,301.514Zm2.637,1.319h7.911v25.843H35.137Zm0,0" transform="translate(-26.787 -247.426)"/>
    <path id="Trazado_143951" data-name="Trazado 143951" d="M55.676,197.817a1.319,1.319,0,0,0,0-2.637H45.818a1.319,1.319,0,0,0,0,2.637Zm0,0" transform="translate(-36.678 -160.87)"/>
    <path id="Trazado_143952" data-name="Trazado 143952" d="M183.461,29.988a23.959,23.959,0,1,0,16.967,7.018A23.831,23.831,0,0,0,183.461,29.988Zm15.1,39.091a21.389,21.389,0,1,1,6.245-15.1A21.21,21.21,0,0,1,198.563,69.079Zm0,0" transform="translate(-131.444 -24.716)"/>
  </g>
</svg>
