<svg xmlns="http://www.w3.org/2000/svg" width="77.419" height="80" viewBox="0 0 77.419 80">
  <g id="investigar" transform="translate(-3.548 -1.774)">
    <path id="Trazado_143787" data-name="Trazado 143787" d="M5.323,80.968H62.1v-67.1L51.773,3.548H5.323Z" transform="translate(-0.484 -0.484)" fill="#ffda73"/>
    <path id="Trazado_143789" data-name="Trazado 143789" d="M39.032,95.161V74.516h7.742V95.161" transform="translate(-9.677 -19.839)" fill="#7ae582"/>
    <path id="Trazado_143791" data-name="Trazado 143791" d="M19.516,97.1V81.613h7.742V97.1" transform="translate(-4.355 -21.774)" fill="#29b39d"/>
    <path id="Trazado_143793" data-name="Trazado 143793" d="M58.548,97.1V81.613H66.29V97.1" transform="translate(-15 -21.774)" fill="#29b39d"/>
    <path id="Trazado_143795" data-name="Trazado 143795" d="M0,0H7.3V7.347H0Z" transform="translate(56.405 59.805) rotate(-45)" fill="#5a5b5d"/>
    <path id="Trazado_143796" data-name="Trazado 143796" d="M10.645,101.129H59.677v2.581H10.645Z" transform="translate(-1.935 -27.097)" fill="#5a5b5d"/>
    <path id="Trazado_143797" data-name="Trazado 143797" d="M60.806,27.1a12.9,12.9,0,0,0-12.9-12.9V27.1Z" transform="translate(-12.097 -3.387)" fill="#7ae582"/>
    <path id="Trazado_143798" data-name="Trazado 143798" d="M48.863,34.643q.008-.225.008-.449h-12.9V21.29a12.9,12.9,0,0,0,0,25.806c.151,0,.3,0,.45-.008" transform="translate(-5.323 -5.323)" fill="#6db569"/>
    <path id="Trazado_143799" data-name="Trazado 143799" d="M36.452,21.29A12.838,12.838,0,0,0,28,24.455a12.89,12.89,0,0,0,9.738,21.351c.151,0,.3,0,.45-.008L49.347,34.643q.008-.225.008-.449h-12.9Z" transform="translate(-5.806 -5.323)" fill="#29b39d"/>
    <circle id="Elipse_4273" data-name="Elipse 4273" cx="16.774" cy="16.774" r="16.774" transform="translate(30.645 28.871)" fill="#3ca8f4"/>
    <circle id="Elipse_4274" data-name="Elipse 4274" cx="11.613" cy="11.613" r="11.613" transform="translate(35.806 34.032)" fill="#ddd"/>
    <path id="Trazado_143801" data-name="Trazado 143801" d="M69.192,3.548V13.871H79.516" transform="translate(-17.903 -0.484)" fill="#fb0"/>
    <path id="Trazado_143802" data-name="Trazado 143802" d="M58.226,47.9A11.555,11.555,0,0,0,50.69,50.69,11.6,11.6,0,0,0,67.052,67.052,11.6,11.6,0,0,0,58.226,47.9Z" transform="translate(-12.097 -12.581)" fill="#fff"/>
    <path id="Trazado_143803" data-name="Trazado 143803" d="M87.079,80.144l-3.917-3.917A16.836,16.836,0,0,1,78,81.388l3.917,3.917Z" transform="translate(-20.305 -20.305)" fill="#3ca8f4"/>
    <path id="Trazado_143804" data-name="Trazado 143804" d="M81.613,87.581l7.742-7.742L99.364,89.848a5.474,5.474,0,1,1-7.742,7.742Z" transform="translate(-21.29 -21.29)" fill="#7ae582"/>
    <path id="Trazado_143806" data-name="Trazado 143806" d="M62.525,12.475,52.2,2.152a1.285,1.285,0,0,0-.912-.378H4.839a1.29,1.29,0,0,0-1.29,1.29V80.484a1.29,1.29,0,0,0,1.29,1.29H61.613a1.29,1.29,0,0,0,1.29-1.29V70.7l6.516,6.516a6.765,6.765,0,0,0,9.568-9.566L68.977,57.636a1.289,1.289,0,0,0-1.825,0l-.378.378L63.19,54.43A17.928,17.928,0,0,0,62.9,36.388v-23A1.287,1.287,0,0,0,62.525,12.475ZM58.5,12.1H52.581V6.179Zm1.825,67.1H6.129V4.355H50v9.032a1.291,1.291,0,0,0,1.29,1.29h9.032v18.35a17.82,17.82,0,0,0-16-5.161,1.261,1.261,0,0,0-.774-.285H31.935V15.968a1.29,1.29,0,0,0-1.29-1.29A14.187,14.187,0,0,0,29.569,43.01a17.437,17.437,0,0,0,1.554,10.377H29.355a1.29,1.29,0,0,0-1.29,1.29V74.032H24.194V59.839a1.29,1.29,0,0,0-1.29-1.29H15.161a1.29,1.29,0,0,0-1.29,1.29V74.032H8.71v2.581H57.742V74.032H52.581V62.948a18.036,18.036,0,0,0,3.625-1.533L59.788,65l-.378.378a1.29,1.29,0,0,0,0,1.825l.912.912Zm-12.9-18.065A15.484,15.484,0,1,1,62.9,45.645,15.5,15.5,0,0,1,47.419,61.129Zm-2.581,12.9V63.5a18.1,18.1,0,0,0,2.581.206A17.915,17.915,0,0,0,50,63.5V74.032ZM30.645,30.161h7.517a18.129,18.129,0,0,0-8.04,10.294,11.6,11.6,0,0,1-.768-23.126V28.871A1.29,1.29,0,0,0,30.645,30.161Zm5.161,29.3v14.57H30.645V55.968h1.97A18.207,18.207,0,0,0,35.806,59.462Zm2.581,1.8a17.95,17.95,0,0,0,3.871,1.684V74.032H38.387ZM21.613,74.032H16.452v-12.9h5.161ZM77.161,69.47a4.184,4.184,0,1,1-5.916,5.917l-9.1-9.1,5.917-5.917ZM64.95,59.839l-3.337,3.337L58.4,59.959a18.236,18.236,0,0,0,3.337-3.337Z" transform="translate(0)"/>
    <path id="Trazado_143807" data-name="Trazado 143807" d="M47.419,27.9h12.9a1.29,1.29,0,0,0,1.29-1.29A14.21,14.21,0,0,0,47.419,12.419a1.29,1.29,0,0,0-1.29,1.29v12.9A1.29,1.29,0,0,0,47.419,27.9Zm1.29-12.832A11.634,11.634,0,0,1,58.96,25.323H48.71Z" transform="translate(-11.613 -2.903)"/>
    <path id="Trazado_143808" data-name="Trazado 143808" d="M59.032,44.355a12.9,12.9,0,1,0,12.9,12.9A12.918,12.918,0,0,0,59.032,44.355Zm0,23.226A10.323,10.323,0,1,1,69.355,57.258,10.335,10.335,0,0,1,59.032,67.581Z" transform="translate(-11.613 -11.613)"/>
  </g>
</svg>
