<svg xmlns="http://www.w3.org/2000/svg" width="400" height="250.132" viewBox="0 0 400 250.132">
  <g id="Grupo_90179" data-name="Grupo 90179" transform="translate(-810 -4679.869)">
    <path id="Trazado_152268" data-name="Trazado 152268" d="M552.151,333.373c-6.181-2.682-13.253-2.527-20.005-3.33s-14.042-3.1-17.352-8.7c-3.037-5.138-1.764-11.739,1.445-16.783s8.076-8.919,12.649-12.924c10.39-9.1,19.829-19.571,25.014-32.006s5.647-27.1-1.28-38.762-22.092-19.216-35.8-15.78c-6.832,1.712-12.679,5.8-19.113,8.556s-14.442,4.034-20.258.249c-5.764-3.752-7.316-10.967-10.616-16.788-5.673-10.007-17.086-16.2-28.806-18.82a70.188,70.188,0,0,0-50.6,8.02c-14.819,8.883-33.645,16.616-33.645,16.616-15.86,5-26.3,12.9-40.194,4.125-18.433-11.641-39.94-19.9-62.134-19.812s-44.988,9.487-57.095,27-11.048,43.168,5,57.609c5.713,5.142,12.89,8.707,18.4,14.044s9.157,13.584,5.6,20.231c-4.965,9.288-18.816,8.782-29.459,11.555-15.439,4.023-27.076,18.471-27.027,33.555s11.779,29.465,27.244,33.4c5.572,1.417,11.561,1.626,16.708,4.085s9.188,8.408,6.649,13.289c-1.06,2.038-3.071,3.516-4.211,5.516-2.729,4.787.6,11.032,5.6,13.749s14.864,5.282,20.634,5.34c81.031.643,159.015-.812,240.426,0,12.079.121,24.494.187,35.776-3.879,15.135-5.454,26.3-17.632,35.753-30.029,7.036-9.229,13.671-19.271,15.164-30.545S563.109,338.128,552.151,333.373Z" transform="translate(643.123 4503.217)" fill="#a6daff"/>
    <g id="Grupo_89618" data-name="Grupo 89618" transform="translate(1833.533 3674.756)">
      <g id="Grupo_89503" data-name="Grupo 89503" transform="translate(-975.425 1057.552)">
        <g id="Grupo_89465" data-name="Grupo 89465" transform="translate(0 0.043)">
          <path id="Trazado_152269" data-name="Trazado 152269" d="M-921.131,1287.363c-.313-4.011-3.069-7.194-5.188-10.5-3.451-5.388-5.963-12.3-3.835-18.435a15.776,15.776,0,0,1,8.375-8.842,17.232,17.232,0,0,1,17.027,1.18,16.966,16.966,0,0,1,6.739,16.557c-1.436,7.445-8.1,12.366-7.821,19.967-5.07.978-10.348,1.619-15.3.075" transform="translate(930.938 -1247.887)" fill="#fb0"/>
        </g>
        <g id="Grupo_89467" data-name="Grupo 89467" transform="translate(5.591 2.188)">
          <g id="Grupo_89466" data-name="Grupo 89466">
            <path id="Trazado_152270" data-name="Trazado 152270" d="M-916.982,1252.547c-3.165,6-2.241,13.171-.073,19.356.925,2.641,2.186,5.13,3.335,7.672a36.91,36.91,0,0,1,3.178,11.018c.027.231.384.234.357,0-1.481-12.642-13.363-24.834-6.489-37.862.109-.207-.2-.392-.308-.184Z" transform="translate(919.031 -1252.455)" fill="#e0091d"/>
          </g>
        </g>
        <g id="Grupo_89469" data-name="Grupo 89469" transform="translate(20.239 0.626)">
          <g id="Grupo_89468" data-name="Grupo 89468">
            <path id="Trazado_152271" data-name="Trazado 152271" d="M-887.476,1288.752c-.009-3.5.988-6.657,1.981-9.955a51.674,51.674,0,0,0,2.031-10.531,46.363,46.363,0,0,0-.3-10.637c-.44-3-1.032-6.162-3.118-8.444-.157-.172-.409.087-.252.258,2.5,2.735,2.99,7.113,3.31,10.691a47.433,47.433,0,0,1-.268,10.572c-.826,6.1-3.756,11.856-3.74,18.047a.179.179,0,0,0,.357,0Z" transform="translate(887.833 -1249.128)" fill="#e0091d"/>
          </g>
        </g>
        <g id="Grupo_89471" data-name="Grupo 89471" transform="translate(14.467 0)">
          <g id="Grupo_89470" data-name="Grupo 89470">
            <path id="Trazado_152272" data-name="Trazado 152272" d="M-899.476,1247.928c-1.993,13.416,1.152,26.759,2.089,40.117.016.233.373.236.357,0-.934-13.319-4.089-26.644-2.1-40.02.034-.23-.309-.33-.344-.1Z" transform="translate(900.125 -1247.795)" fill="#e0091d"/>
          </g>
        </g>
        <g id="Grupo_89472" data-name="Grupo 89472" transform="translate(11.188 50.727)">
          <path id="Trazado_152273" data-name="Trazado 152273" d="M-907.111,1355.916q.664,5.7,1.328,11.4c3.257.786,10.375.183,10.5,0,.1-.147,1.016-7.887,1.17-11.485a28.866,28.866,0,0,1-13,.082" transform="translate(907.111 -1355.834)" fill="#c08251"/>
        </g>
        <g id="Grupo_89474" data-name="Grupo 89474" transform="translate(13.283 51.31)">
          <g id="Grupo_89473" data-name="Grupo 89473">
            <path id="Trazado_152274" data-name="Trazado 152274" d="M-902.648,1357.251a93.252,93.252,0,0,0,1.379,10.961c.043.231.387.133.344-.1a92.487,92.487,0,0,1-1.366-10.864c-.016-.234-.373-.235-.357,0Z" transform="translate(902.648 -1357.075)" fill="#885324"/>
          </g>
        </g>
        <g id="Grupo_89476" data-name="Grupo 89476" transform="translate(15.797 51.355)">
          <g id="Grupo_89475" data-name="Grupo 89475">
            <path id="Trazado_152275" data-name="Trazado 152275" d="M-897.293,1357.348c.09,3.748.508,7.47.89,11.195.023.232.381.234.357,0-.382-3.725-.8-7.447-.89-11.195a.178.178,0,0,0-.357,0Z" transform="translate(897.293 -1357.171)" fill="#885324"/>
          </g>
        </g>
        <g id="Grupo_89478" data-name="Grupo 89478" transform="translate(21.029 51.161)">
          <g id="Grupo_89477" data-name="Grupo 89477">
            <path id="Trazado_152276" data-name="Trazado 152276" d="M-885.111,1356.935a94.966,94.966,0,0,1-1.037,11.218c-.042.23.3.328.344.1a95.735,95.735,0,0,0,1.05-11.315c.014-.235-.343-.235-.357,0Z" transform="translate(886.151 -1356.759)" fill="#885324"/>
          </g>
        </g>
        <g id="Grupo_89480" data-name="Grupo 89480" transform="translate(19.109 51.197)">
          <g id="Grupo_89479" data-name="Grupo 89479">
            <path id="Trazado_152277" data-name="Trazado 152277" d="M-889.912,1357.011c0,3.733-.067,7.506-.327,11.23-.017.235.34.234.357,0,.26-3.724.329-7.5.327-11.23a.178.178,0,0,0-.357,0Z" transform="translate(890.239 -1356.834)" fill="#885324"/>
          </g>
        </g>
        <g id="Grupo_89482" data-name="Grupo 89482" transform="translate(11.203 53.395)">
          <g id="Grupo_89481" data-name="Grupo 89481">
            <path id="Trazado_152278" data-name="Trazado 152278" d="M-906.949,1362.212c4.263.751,8.58,1.131,12.741-.333.216-.075.123-.429-.095-.353-4.1,1.444-8.35,1.073-12.551.333-.225-.04-.321.313-.1.352Z" transform="translate(907.077 -1361.516)" fill="#885324"/>
          </g>
        </g>
        <g id="Grupo_89484" data-name="Grupo 89484" transform="translate(11.423 56.289)">
          <g id="Grupo_89483" data-name="Grupo 89483">
            <path id="Trazado_152279" data-name="Trazado 152279" d="M-906.521,1368.018c3.425,1.884,8.546,1.117,12.135.159a.183.183,0,0,0-.095-.353c-3.416.911-8.58,1.682-11.859-.122-.2-.111-.383.2-.181.316Z" transform="translate(906.609 -1367.679)" fill="#885324"/>
          </g>
        </g>
        <g id="Grupo_89486" data-name="Grupo 89486" transform="translate(11.915 59.399)">
          <g id="Grupo_89485" data-name="Grupo 89485">
            <path id="Trazado_152280" data-name="Trazado 152280" d="M-905.436,1374.752a18.741,18.741,0,0,0,11.38-.087c.218-.07.125-.423-.095-.353a18.348,18.348,0,0,1-11.19.086c-.22-.067-.315.286-.095.354Z" transform="translate(905.562 -1374.303)" fill="#885324"/>
          </g>
        </g>
        <g id="Grupo_89488" data-name="Grupo 89488" transform="translate(10.05 39.402)">
          <g id="Grupo_89487" data-name="Grupo 89487">
            <path id="Trazado_152281" data-name="Trazado 152281" d="M-909.527,1331.942a56.285,56.285,0,0,1,1.639,11.329c.01.234.367.236.357,0a56.812,56.812,0,0,0-1.652-11.426.179.179,0,0,0-.344.1Z" transform="translate(909.534 -1331.715)" fill="#ffc000"/>
          </g>
        </g>
        <g id="Grupo_89490" data-name="Grupo 89490" transform="translate(23.382 39.18)">
          <g id="Grupo_89489" data-name="Grupo 89489">
            <path id="Trazado_152282" data-name="Trazado 152282" d="M-880.012,1331.372a56.75,56.75,0,0,0-1.128,11.419.178.178,0,0,0,.357,0,56.239,56.239,0,0,1,1.115-11.322c.046-.229-.3-.327-.344-.1Z" transform="translate(881.14 -1331.241)" fill="#ffc000"/>
          </g>
        </g>
        <g id="Grupo_89492" data-name="Grupo 89492" transform="translate(9.207 48.813)">
          <g id="Grupo_89491" data-name="Grupo 89491">
            <path id="Trazado_152283" data-name="Trazado 152283" d="M-908.639,1353.8c-.36,0-.719-.016-1.078-.042-.161-.012-1.3-.1-1.115-.347.279-.373,1.416.808,1.653,1.052a.181.181,0,0,0,.28-.222,3.992,3.992,0,0,1-.377-.991c-.035-.156-.226-.933-.089-1.066s.391.88.4.964a2.808,2.808,0,0,1-.117,1.089.179.179,0,0,0,.344.1,3.086,3.086,0,0,0,.033-1.719c-.085-.3-.295-.923-.712-.852-.4.068-.321.65-.3.939a4.341,4.341,0,0,0,.51,1.724l.28-.222a4.735,4.735,0,0,0-1.365-1.092c-.274-.125-.848-.352-1.007.061-.153.4.287.723.6.823a7.271,7.271,0,0,0,2.061.17.183.183,0,0,0,0-.366Z" transform="translate(911.33 -1351.758)" fill="#ffc000"/>
          </g>
        </g>
        <g id="Grupo_89494" data-name="Grupo 89494" transform="translate(10.462 51.312)">
          <g id="Grupo_89493" data-name="Grupo 89493">
            <path id="Trazado_152284" data-name="Trazado 152284" d="M-907.933,1357.207a4.992,4.992,0,0,1-.692,1.455c-.133.193.177.376.308.185a5.332,5.332,0,0,0,.728-1.543.179.179,0,0,0-.344-.1Z" transform="translate(908.657 -1357.079)" fill="#ffc000"/>
          </g>
        </g>
        <g id="Grupo_89496" data-name="Grupo 89496" transform="translate(11.428 51.314)">
          <g id="Grupo_89495" data-name="Grupo 89495">
            <path id="Trazado_152285" data-name="Trazado 152285" d="M-906.588,1357.305a3.674,3.674,0,0,1,.217,1.226.178.178,0,0,0,.357,0,3.969,3.969,0,0,0-.23-1.324c-.078-.219-.423-.125-.344.1Z" transform="translate(906.6 -1357.083)" fill="#ffc000"/>
          </g>
        </g>
        <g id="Grupo_89498" data-name="Grupo 89498" transform="translate(21.753 48.632)">
          <g id="Grupo_89497" data-name="Grupo 89497">
            <path id="Trazado_152286" data-name="Trazado 152286" d="M-882.7,1353.232c-.2-.1-.408-.2-.609-.31-.294-.155-.559-.2-.617-.537-.085-.485.277.059.39.183a8.118,8.118,0,0,1,.534.658.18.18,0,0,0,.326-.044,4.907,4.907,0,0,1,.362-.835,2.634,2.634,0,0,1,.251-.385q.572.082.354.34a2,2,0,0,1-1.2,1.085.183.183,0,0,0,.095.353,2.191,2.191,0,0,0,1.154-.891c.231-.306.606-.769.354-1.17-.671-1.069-1.567.965-1.719,1.406l.326-.043c-.286-.389-1.17-1.777-1.767-1.119-.673.741,1.214,1.443,1.581,1.626.206.1.387-.213.18-.316Z" transform="translate(884.608 -1351.372)" fill="#ffc000"/>
          </g>
        </g>
        <g id="Grupo_89500" data-name="Grupo 89500" transform="translate(23.241 50.482)">
          <g id="Grupo_89499" data-name="Grupo 89499">
            <path id="Trazado_152287" data-name="Trazado 152287" d="M-881.439,1355.486a3.6,3.6,0,0,0,1.595,2.692c.194.127.374-.189.18-.316a3.2,3.2,0,0,1-1.418-2.376c-.025-.231-.382-.234-.357,0Z" transform="translate(881.441 -1355.312)" fill="#ffc000"/>
          </g>
        </g>
        <g id="Grupo_89502" data-name="Grupo 89502" transform="translate(23.572 50.949)">
          <g id="Grupo_89501" data-name="Grupo 89501">
            <path id="Trazado_152288" data-name="Trazado 152288" d="M-880.7,1356.568a5.872,5.872,0,0,0,1.74,1.564.182.182,0,0,0,.18-.316,5.432,5.432,0,0,1-1.612-1.433c-.138-.183-.448,0-.308.185Z" transform="translate(880.734 -1356.306)" fill="#ffc000"/>
          </g>
        </g>
      </g>
      <g id="Grupo_89515" data-name="Grupo 89515" transform="translate(-915.582 1061.729)">
        <g id="Grupo_89507" data-name="Grupo 89507" transform="translate(0.159 33.627)">
          <g id="Grupo_89504" data-name="Grupo 89504" transform="translate(39.36 1.296)">
            <path id="Trazado_152289" data-name="Trazado 152289" d="M-711.786,1310.9a5.561,5.561,0,0,0,5.033.023,16.756,16.756,0,0,0,4.23-3.088l2.584-2.337a22.555,22.555,0,0,0,3.3-3.439.882.882,0,0,0,.22-.842c-.149-.312-.574-.334-.909-.272-2.437.449-4.025,2.757-5.745,4.574a18.582,18.582,0,0,1-9.19,5.3" transform="translate(712.264 -1300.913)" fill="#d79463"/>
          </g>
          <g id="Grupo_89505" data-name="Grupo 89505" transform="translate(37.872 0.98)">
            <path id="Trazado_152290" data-name="Trazado 152290" d="M-714.068,1310.246c6.188-.633,11.269-5.079,15.842-9.376a2.156,2.156,0,0,1,1.237-.72,1.451,1.451,0,0,1,1.359,1.4,3.531,3.531,0,0,1-.636,2.045,20.268,20.268,0,0,1-6.259,6.077,13.437,13.437,0,0,1-5.264,2.441c-2.8.451-5.612-.692-8.083-2.111" transform="translate(715.873 -1300.147)" fill="#d79463"/>
          </g>
          <g id="Grupo_89506" data-name="Grupo 89506">
            <path id="Trazado_152291" data-name="Trazado 152291" d="M-805.811,1304.953c1.609-.5,13.009,1.35,14.67-1.242a12.641,12.641,0,0,1,7.049-5.547c2.994-.817,6.155-.179,9.229.225a90.658,90.658,0,0,0,11.779.644,2.921,2.921,0,0,1-.672,3.529,6.451,6.451,0,0,1-3.5,1.439,20.027,20.027,0,0,1-7.092-.152c.5,1.9,2.6,2.777,4.442,3.38a20.88,20.88,0,0,0,6.4,1.373c5.084,0,9.405-3.625,13.076-7.213.765-.747,1.714-1.563,2.749-1.335,1.154.255,1.675,1.764,1.322,2.914a6.179,6.179,0,0,1-2.215,2.752c-3.281,2.7-6.795,5.094-10.3,7.482a14.842,14.842,0,0,1-4.86,2.494,14.621,14.621,0,0,1-4.017.165c-4.155-.212-16.979-.874-22.886-.044-4.875.685-13.746,1.845-15.171,1.468,0,0-1.435-1.281-1.869-5.119a11.947,11.947,0,0,1,1.869-7.213" transform="translate(807.735 -1297.769)" fill="#d79463"/>
          </g>
        </g>
        <g id="Grupo_89512" data-name="Grupo 89512" transform="translate(17.266 0)">
          <g id="Grupo_89508" data-name="Grupo 89508">
            <path id="Trazado_152292" data-name="Trazado 152292" d="M-719.157,1240.133a23.738,23.738,0,0,1-23.542,23.928,23.737,23.737,0,0,1-23.542-23.928A23.737,23.737,0,0,1-742.7,1216.2,23.738,23.738,0,0,1-719.157,1240.133Z" transform="translate(766.241 -1216.205)" fill="#3ca8f4"/>
          </g>
          <g id="Grupo_89509" data-name="Grupo 89509" transform="translate(18.369 0.324)">
            <path id="Trazado_152293" data-name="Trazado 152293" d="M-719.349,1216.992c-.527,1.6,2.1.382,2.629.534.751.23.9,1.146,1.654,1.3,1.052.229,1.052-.612,1.729.459a12.172,12.172,0,0,1,.751,1.985c.3,1.07.224.916-.826,1.376-.527.228-1.579.3-2.106.764-.451.382-.224,1.68-1.351.839-.828.841-.527,3.514-2.106,2.063a13.449,13.449,0,0,1-1.2-1.909c-.376-1.069.377-1.069.451-1.986,0-.305-.376-.535-.451-.839,0-.076.151-1.223.225-1.07-.3-.687-1.577-.611-1.728-1.222a5.9,5.9,0,0,1,.753-1.911,2.1,2.1,0,0,1,1.5-.152" transform="translate(721.686 -1216.992)" fill="#58a65e"/>
          </g>
          <g id="Grupo_89510" data-name="Grupo 89510" transform="translate(0.212 1.52)">
            <path id="Trazado_152294" data-name="Trazado 152294" d="M-765.292,1237.225a14.617,14.617,0,0,0-.311,3.166c-.074,1.222-.406,3.15.452,3.285.9.152.6-.764.752-1.223.827.459.3.917.451,1.528a2.949,2.949,0,0,0,.9,1.452c.976,1.145,1.653.992,3.005,1.375,1.2.3,1.427,1.3,2.481,1.833,1.352.611,1.8.535,1.578,2.138a4.941,4.941,0,0,0,1.5,4.736c.752.688,1.653.382,2.255.84.825.535.525,1.3.75,2.14.526,1.6,1.8,3.131,2.555,4.583a5.662,5.662,0,0,0,3.833,2.979h0a7.272,7.272,0,0,1-1.653-1.757,1.762,1.762,0,0,1-.15-2.215c.376-.306,1.052-.153,1.353-.535.225-.306,0-.764.15-1.146.376-.993.978-1.222,1.654-1.757,1.052-.763.677-.763.828-1.91.3-1.833,3.006-2.444.6-4.048a9.124,9.124,0,0,0-4.66-1.3c-.151-2.368-2.328-1.91-4.058-2.6-.827-.382-1.653-.688-2.48-1.069-1.2-.458-1.8-1.069-2.33.458-.675-.229-1.578.535-2.028-.305-.376-.611.525-1.375,0-1.986-.677-.764-1.053.306-1.429-.916-.226-.612.451-1.833-.676-1.758-.149,2.6-2.029.382-2.1-.993-.074-1.222.677-.993,1.427-1.3.377-.152,1.2-.917,1.579-.764.151.076,1.578,4.431,1.654,1.451,0-.687-.753-1.527-.376-2.215s1.2-.305,1.653-.686c.6-.536.827-1.606,1.428-2.14a16.871,16.871,0,0,1,2.255-1.833c.677-.535,1.578-.23,2.255-.687.9-.689.3-1.376,1.579-1.376.9.078,1.277.841,1.351-.61a3.242,3.242,0,0,0-.6-1.682c-.6-.686-1.128-1.374-1.653-2.062-.827-.994-1.053-.077-1.654-.611-.226-.154-1.2-1.91-.374-1.833.449.075.525.916.975.916.377,0,.377-.535.526-.611.377-.152,1.43-.611,1.578-.992.226-.841-.9-1.071-1.2-1.529-.377-.457-.226-.457-.377-.917-.149-.306.075-.458-.149-.763s-1.127.229-1.053-.382c.075-.306.828-.306.976-.383,2.18-1.069-.6-1.833-1.127-.916C-751.4,1220.3-761.767,1223.318-765.292,1237.225Z" transform="translate(765.728 -1219.892)" fill="#58a65e"/>
          </g>
          <g id="Grupo_89511" data-name="Grupo 89511" transform="translate(31.595 5.088)">
            <path id="Trazado_152295" data-name="Trazado 152295" d="M-682.133,1229.8c0-1.529-5.436-2.123-3.783.933.6.992.6.534.451,1.45-.074.383-.6.077-.451.688,0,.306.676.765.9.841,1.278.688,1.878.077,2.706,1.6h0l.074-.076v.076c-1.278.153-2.481.688-2.78,2.062-1.278.23-.752-1.069-1.053-1.756-.375-.994-1.653-1.452-2.255-.382-.977,1.986,2.93,2.9,2.48,4.353-.977-.305-1.653-.151-1.653.917a4.794,4.794,0,0,1,.525.916c.077.459-.3.764-.149,1.3,1.052,2.749,2.855-1.681,3.607-2.063,1.354-.687,4.511,1.68,2.255,2.292-.977.229-1.2-.764-2.105-.764-1.05,0-.9,1.3-1.652,1.757-.827.46-1.428-.075-2.1.917-.451.688-.526,1.529-1.052,2.216-.526.763-1.354,1.3-1.429,2.291-.075.917.527,1.528.677,2.368.151.993-.376,1.3.452,2.139a3.787,3.787,0,0,0,2.178.993c.752-.076,1.352-.611,2.18-.611.526,0,1.955-.458,2.18-.306.751.306.45,1.069.3,1.6a11.937,11.937,0,0,0-.525,2.367c-.151,1.147.441,1.572-1.053,4.2-.4.713-3.232,3.132-2.329,4.125.75.841,3.7-1.362,4.3-1.9a23.786,23.786,0,0,0,3.884-4.857,22.018,22.018,0,0,0,2.092-4.981c.677-2.9,1.5-6.214.955-9.717a24.507,24.507,0,0,0-2.741-8.644,22.1,22.1,0,0,0-2.628-3.9c-.942-1.07-1.18-2-2.456-2.461" transform="translate(689.605 -1228.546)" fill="#58a65e"/>
          </g>
        </g>
        <g id="Grupo_89514" data-name="Grupo 89514" transform="translate(0 37.056)">
          <g id="Grupo_89513" data-name="Grupo 89513">
            <path id="Trazado_152296" data-name="Trazado 152296" d="M-806.038,1313.731c1.609-.5,12.138.889,13.8-1.7a12.639,12.639,0,0,1,7.049-5.547c2.994-.817,6.155-.179,9.23.225a90.473,90.473,0,0,0,11.779.644,2.923,2.923,0,0,1-.672,3.53,6.449,6.449,0,0,1-3.5,1.439,20.012,20.012,0,0,1-7.092-.152c.5,1.9,2.6,2.777,4.442,3.379a20.873,20.873,0,0,0,6.4,1.374c5.085,0,9.405-3.625,13.076-7.213.765-.747,1.714-1.563,2.749-1.335,1.155.253,1.675,1.764,1.322,2.913a6.181,6.181,0,0,1-2.215,2.751c-3.281,2.7-6.795,5.094-10.3,7.482a14.838,14.838,0,0,1-4.861,2.494,14.648,14.648,0,0,1-4.017.165c-4.155-.212-16.979-.874-22.886-.044-4.875.685-12.874,2.62-14.3,2.243,0,0-2.052-1.782-2.083-6.759s2.083-5.887,2.083-5.887" transform="translate(808.121 -1306.087)" fill="#febf85"/>
          </g>
        </g>
      </g>
      <path id="Trazado_152297" data-name="Trazado 152297" d="M-882.5,1465.672c-3.447-1.792-5.58-5.61-6.78-9.488a14.567,14.567,0,0,1-.589-7.827c1.242-4.842,6-7.639,8.358-11.989,2.839,3.621,5.65,7.427,7.008,11.917s.993,9.854-2,13.333a19.18,19.18,0,0,1-6.007,4.173" transform="translate(-41.837 -300.232)" fill="#29b39d"/>
      <path id="Trazado_152298" data-name="Trazado 152298" d="M-928.012,1634.079a19.979,19.979,0,0,1-10.4-.03,13.328,13.328,0,0,1-8.108-6.63c-2.463-4.964-1.335-11.267-3.736-16.265,3.957,2.578,11.267.572,16.863,6.851,3.666,4.113,6.591,9.79,5.418,15.319-.058.274-.228.616-.485.549" transform="translate(0 -421.951)" fill="#29b39d"/>
      <path id="Trazado_152299" data-name="Trazado 152299" d="M-851.635,1632.382c-.393-5.422,3.587-11.871,8.112-14.4,5.208-2.909,12.026-2.022,16.561-6.008-.957.551-.508,12.618-7.716,20.284a17.066,17.066,0,0,1-5.5,4.152,8.5,8.5,0,0,1-6.622.233,8.6,8.6,0,0,1-4.836-4.263c-.071-.167-.109-.445.029-.554" transform="translate(-68.633 -422.523)" fill="#29b39d"/>
      <path id="Trazado_152300" data-name="Trazado 152300" d="M-852.922,1543.991c-1.625-5.156.756-12.444,4.564-16.07,4.383-4.174,11.891,2.171,15.375-2.873-.8.783,1.708,5.113-3.524,14.419a17.846,17.846,0,0,1-4.38,5.456,8.623,8.623,0,0,1-6.368,1.947,8.263,8.263,0,0,1-5.667-2.878c-.107-.143-.208-.4-.1-.545" transform="translate(-67.421 -361.988)" fill="#29b39d"/>
      <path id="Trazado_152301" data-name="Trazado 152301" d="M-869.455,1547.776l1.125-85.132,2.711,85.132Z" transform="translate(-56.269 -318.53)" fill="#5a9527"/>
      <path id="Trazado_152302" data-name="Trazado 152302" d="M-911.958,1756.458l4.714,21.585h21.656l4.294-22.073Z" transform="translate(-26.669 -522.8)" fill="#e6a800"/>
      <path id="Trazado_152303" data-name="Trazado 152303" d="M-883.649,1747.258h-34.2l.275-7.029h33.17Z" transform="translate(-22.567 -511.838)" fill="#fb0"/>
      <path id="Trazado_152304" data-name="Trazado 152304" d="M-901.562,1661.615A90.522,90.522,0,0,1-917.85,1646.5s13.926,10.6,16.618,10.647S-901.562,1661.615-901.562,1661.615Z" transform="translate(-22.567 -446.564)" fill="#5a9527"/>
      <path id="Trazado_152305" data-name="Trazado 152305" d="M-861.073,1651.144c2.207-1.172,16.7-11.614,21.667-15.042l-.234.1-20.882,18.275Z" transform="translate(-62.106 -439.325)" fill="#5a9527"/>
      <path id="Trazado_152306" data-name="Trazado 152306" d="M-864.767,1564.672c2.207-1.171,11.125-7.7,16.1-11.128-.117.049-3.862,4.234-3.862,4.234L-864.216,1568Z" transform="translate(-59.533 -381.832)" fill="#5a9527"/>
      <path id="Trazado_152307" data-name="Trazado 152307" d="M-919.478,1546.229c.329-4.535-3-9.928-6.784-12.042-4.356-2.433-10.058-1.691-13.851-5.024.8.46.425,10.552,6.454,16.964a14.268,14.268,0,0,0,4.6,3.473,7.112,7.112,0,0,0,5.539.2,7.194,7.194,0,0,0,4.044-3.565c.059-.139.091-.372-.024-.463" transform="translate(-7.063 -364.853)" fill="#29b39d"/>
      <path id="Trazado_152308" data-name="Trazado 152308" d="M-905.695,1561.92c-1.846-.98-13.964-9.713-18.121-12.58l.2.082,17.465,15.284Z" transform="translate(-18.412 -378.904)" fill="#5a9527"/>
      <g id="Grupo_89537" data-name="Grupo 89537" transform="translate(-888.909 1060.363)">
        <path id="Trazado_152309" data-name="Trazado 152309" d="M-547.808,1259.312a9.693,9.693,0,0,0-5.1,3.739,14.126,14.126,0,0,0-2.292,5.814,19.8,19.8,0,0,0,3.944,15.446,9.455,9.455,0,0,0,1.642,1.7,10.334,10.334,0,0,0,4.3,1.721,19.42,19.42,0,0,0,9.231-.205,12.455,12.455,0,0,0,7.238-5.284c2.126-3.545,1.826-7.932,1.106-11.958-.638-3.568-1.676-7.3-4.408-9.807a12.111,12.111,0,0,0-8.188-2.961,17.184,17.184,0,0,0-8.484,2.46" transform="translate(610.922 -1247.807)" fill="#052728"/>
        <path id="Trazado_152310" data-name="Trazado 152310" d="M-534.647,1264.181c-2.974-.839-6.2,1.019-7.8,3.556s-1.944,5.593-2.235,8.54a26.448,26.448,0,0,0-.026,7.36,9.48,9.48,0,0,0,3.748,6.243c2.709,1.832,6.382,1.736,9.594.931a6.7,6.7,0,0,0,2.919-1.334,6.1,6.1,0,0,0,1.351-2.024,30.391,30.391,0,0,0,2.386-11.382,14.891,14.891,0,0,0-.806-6.632,9.534,9.534,0,0,0-10.109-5.275" transform="translate(604.516 -1251.741)" fill="#e44a36"/>
        <path id="Trazado_152311" data-name="Trazado 152311" d="M-548.451,1305.469a3.316,3.316,0,0,0-4.166,1.078,2.994,2.994,0,0,0,.977,4.012,3.328,3.328,0,0,0,4.237-.786" transform="translate(609.426 -1276.8)" fill="#e44a36"/>
        <path id="Trazado_152312" data-name="Trazado 152312" d="M-499.277,1307.459a2.644,2.644,0,0,1,3.944.544,2.892,2.892,0,0,1-1.247,3.825,4.075,4.075,0,0,1-4.341-.492" transform="translate(577.703 -1277.817)" fill="#e44a36"/>
        <path id="Trazado_152313" data-name="Trazado 152313" d="M-551.524,1327.394a66.051,66.051,0,0,1-.034,10.273s-7.917,1.623-11.6,5.207c5.419,3.988,10.448,34.128,15.494,33.753,6.907-.514,13.659-32.58,19.784-32.439a58.176,58.176,0,0,0-14.5-6.316c.048-3.571.338-7.448.292-11.018" transform="translate(615.595 -1290.026)" fill="#e44a36"/>
        <g id="Grupo_89516" data-name="Grupo 89516" transform="translate(68.32 27.438)">
          <path id="Trazado_152314" data-name="Trazado 152314" d="M-522.553,1303.109q.013,2.407.027,4.814a.279.279,0,0,0,.2.264,2.082,2.082,0,0,0,.636.088c.353.011.353-.537,0-.548l-.49-.069.2.265q-.013-2.407-.026-4.814a.274.274,0,0,0-.548,0Z" transform="translate(522.553 -1302.844)" fill="#052728"/>
        </g>
        <g id="Grupo_89517" data-name="Grupo 89517" transform="translate(57.953 30.763)">
          <path id="Trazado_152315" data-name="Trazado 152315" d="M-547.553,1311.723a.892.892,0,0,0-1.462.008c-.193.3.282.572.474.277a.342.342,0,0,1,.515-.008c.2.291.672.017.473-.277Z" transform="translate(549.061 -1311.346)" fill="#052728"/>
        </g>
        <g id="Grupo_89518" data-name="Grupo 89518" transform="translate(58.404 31.166)">
          <path id="Trazado_152316" data-name="Trazado 152316" d="M-547.18,1312.378a.762.762,0,0,0-.712.907c.067.346.6.2.529-.146a.207.207,0,0,1,.184-.214c.349-.028.352-.577,0-.548Z" transform="translate(547.907 -1312.377)" fill="#052728"/>
        </g>
        <g id="Grupo_89519" data-name="Grupo 89519" transform="translate(79.091 30.884)">
          <path id="Trazado_152317" data-name="Trazado 152317" d="M-494.5,1312.465a.592.592,0,0,1,.716-.217c.332.12.476-.409.146-.529a1.141,1.141,0,0,0-1.335.469c-.187.3.287.576.474.277Z" transform="translate(495.015 -1311.655)" fill="#052728"/>
        </g>
        <g id="Grupo_89520" data-name="Grupo 89520" transform="translate(79.239 31.466)">
          <path id="Trazado_152318" data-name="Trazado 152318" d="M-494.374,1313.7a1.666,1.666,0,0,1,.943.179c.312.164.589-.309.276-.474a2.187,2.187,0,0,0-1.219-.253c-.349.031-.352.58,0,.548Z" transform="translate(494.637 -1313.142)" fill="#052728"/>
        </g>
        <g id="Grupo_89522" data-name="Grupo 89522" transform="translate(43.393 46.968)">
          <path id="Trazado_152319" data-name="Trazado 152319" d="M-567.455,1354.277a8.113,8.113,0,0,0,7.157,3.774c2.833-.285,5.179-1.656,6.183-4.2,2.029,1.183,14.042,5.62,15.966,6.7-3.309,14.577-15.827,24.653-22.444,38.165-8.073-12.243-21.712-24.6-24.622-38.8a183.038,183.038,0,0,0,17.76-5.635" transform="translate(585.634 -1353.431)" fill="#fff"/>
          <g id="Grupo_89521" data-name="Grupo 89521">
            <path id="Trazado_152320" data-name="Trazado 152320" d="M-568.474,1353.838c1.789,2.5,4.6,4.315,7.77,3.954a7.52,7.52,0,0,0,6.3-4.38l-.58.152a61.089,61.089,0,0,0,7.361,3.127c1.6.637,3.2,1.268,4.791,1.914.644.26,1.288.523,1.928.793.316.134,1.343.394,1.559.694.2.281-.372,1.655-.574,2.307-.366,1.176-.8,2.33-1.274,3.465a50.37,50.37,0,0,1-3.422,6.577c-2.453,4.024-5.312,7.778-8.109,11.564a93.8,93.8,0,0,0-8.891,13.839h.732c-8.321-12.521-21.312-23.451-24.58-38.7l-.3.522a115,115,0,0,0,17.76-5.635c.5-.206.28-1.026-.225-.818a115.032,115.032,0,0,1-17.761,5.635.432.432,0,0,0-.3.522c3.284,15.329,16.306,26.325,24.665,38.9a.429.429,0,0,0,.732,0c6.591-13.277,19-23.456,22.486-38.266a.434.434,0,0,0-.2-.479c-5.068-2.739-10.94-3.873-15.965-6.7a.427.427,0,0,0-.581.152,6.634,6.634,0,0,1-5.384,3.925,7.648,7.648,0,0,1-7.223-3.5c-.315-.44-1.051-.017-.732.428Z" transform="translate(586.288 -1352.778)" fill="#272726"/>
          </g>
        </g>
        <g id="Grupo_89523" data-name="Grupo 89523" transform="translate(62.127 25.83)">
          <path id="Trazado_152321" data-name="Trazado 152321" d="M-537.89,1300.637c.251-.566.665-1.352,1.386-1.355.7,0,1.143.753,1.447,1.282a.274.274,0,0,0,.473-.277c-.412-.718-1-1.556-1.92-1.554s-1.52.861-1.859,1.626c-.142.32.33.6.473.277Z" transform="translate(538.389 -1298.734)" fill="#052728"/>
        </g>
        <g id="Grupo_89524" data-name="Grupo 89524" transform="translate(72.327 25.906)">
          <path id="Trazado_152322" data-name="Trazado 152322" d="M-511.758,1300.791a1.215,1.215,0,1,1,2.429-.085.274.274,0,0,0,.548,0,1.809,1.809,0,0,0-1.811-1.779,1.8,1.8,0,0,0-1.714,1.864c.019.351.567.353.548,0Z" transform="translate(512.308 -1298.926)" fill="#052728"/>
        </g>
        <g id="Grupo_89525" data-name="Grupo 89525" transform="translate(60.11 23.398)">
          <path id="Trazado_152323" data-name="Trazado 152323" d="M-537.041,1293.636c-1.1-1.5-4-1.389-5.347-.292a3.643,3.643,0,0,0,.072,5.395c1.486,1.144,3.963,1.285,5.269-.208a3.821,3.821,0,0,0-.424-5.319c-.279-.215-.552.261-.277.473a3.247,3.247,0,0,1-.219,4.933,3.61,3.61,0,0,1-3.7-.1,3.1,3.1,0,0,1-.9-4.153c.818-1.414,3.994-1.893,5.055-.454.207.281.683.008.474-.277Z" transform="translate(543.546 -1292.516)" fill="#052728"/>
        </g>
        <g id="Grupo_89526" data-name="Grupo 89526" transform="translate(70.399 23.398)">
          <path id="Trazado_152324" data-name="Trazado 152324" d="M-510.732,1293.636c-1.1-1.5-4-1.389-5.347-.292a3.643,3.643,0,0,0,.072,5.395c1.486,1.144,3.963,1.285,5.269-.208a3.821,3.821,0,0,0-.424-5.319c-.28-.215-.553.261-.277.473a3.246,3.246,0,0,1-.22,4.933,3.61,3.61,0,0,1-3.7-.1,3.1,3.1,0,0,1-.9-4.153c.818-1.414,3.994-1.893,5.055-.454.207.281.683.008.474-.277Z" transform="translate(517.238 -1292.516)" fill="#052728"/>
        </g>
        <g id="Grupo_89527" data-name="Grupo 89527" transform="translate(67.065 26.108)">
          <path id="Trazado_152325" data-name="Trazado 152325" d="M-525.285,1300.508a2.266,2.266,0,0,1,2.735-.114c.293.2.568-.276.277-.473a2.821,2.821,0,0,0-3.4.2c-.27.228.12.614.388.387Z" transform="translate(525.764 -1299.445)" fill="#052728"/>
        </g>
        <g id="Grupo_89528" data-name="Grupo 89528" transform="translate(77.423 25.997)">
          <path id="Trazado_152326" data-name="Trazado 152326" d="M-498.867,1300.576a6.834,6.834,0,0,1,1.58-.62,6.191,6.191,0,0,1,.871-.156l.274-.022q.522-.129.67.507c-.325-.137-.466.393-.146.529.869.366,1.308-.793.635-1.323-1.044-.821-3.169.083-4.16.611-.311.166-.035.639.277.474Z" transform="translate(499.28 -1299.161)" fill="#052728"/>
        </g>
        <g id="Grupo_89529" data-name="Grupo 89529" transform="translate(56.305 24.897)">
          <path id="Trazado_152327" data-name="Trazado 152327" d="M-549.039,1297.9c-.823-.654-2.78-2.113-3.87-1.333-.893.638.024,1.8.929,1.3.309-.17.033-.644-.276-.474q.153-.567.51-.384c.122.037.242.08.36.128a7,7,0,0,1,.708.328,7.93,7.93,0,0,1,1.252.821c.273.217.664-.168.388-.388Z" transform="translate(553.274 -1296.347)" fill="#052728"/>
        </g>
        <g id="Grupo_89530" data-name="Grupo 89530" transform="translate(67.024 34.645)">
          <path id="Trazado_152328" data-name="Trazado 152328" d="M-525.733,1322.327a3.831,3.831,0,0,0,4.508-.592l-.458-.12a1.494,1.494,0,0,1-1.066,1.724c-.334.109-.191.639.146.529a2.052,2.052,0,0,0,1.448-2.4.277.277,0,0,0-.458-.121,3.266,3.266,0,0,1-3.844.506c-.31-.169-.587.3-.277.474Z" transform="translate(525.869 -1321.272)" fill="#052728"/>
        </g>
        <path id="Trazado_152329" data-name="Trazado 152329" d="M-540.611,1245.256a6.238,6.238,0,0,1-1.764-6.812,8.76,8.76,0,0,1,5.38-5.055,14.049,14.049,0,0,1,7.684-.313,11.084,11.084,0,0,1,3.671,1.419,7.558,7.558,0,0,1,3.426,5.86,7.836,7.836,0,0,1-2.715,6.215,48.434,48.434,0,0,0-15.682-1.314" transform="translate(603.161 -1232.691)" fill="#052728"/>
        <path id="Trazado_152330" data-name="Trazado 152330" d="M-526.3,1266.747a3.416,3.416,0,0,1-1.665,2.2,23.012,23.012,0,0,1-9.449,3.716,46.079,46.079,0,0,1-10.277.418c.528-2.839.318-4.839,1.857-7.319a11.122,11.122,0,0,1,3.453-3.625c.741-.761,3.73-.7,4.8-.914,5.36-1.061,8.395,1.087,11.285,5.524" transform="translate(606.179 -1249.901)" fill="#052728"/>
        <path id="Trazado_152331" data-name="Trazado 152331" d="M-623.222,1366.266c6.5,5.605,23.131,19.972,23.588,19.982.516.01,17.876-19.679,18.916-19.783.889-.089,38.123,5.383,36.884,58.978-.364,15.762-2.111,61.368-2.908,69.181-15.212,21.258-102.709,16.694-101.692-.023-3.267-11.893-4.614-79.3-2.765-88.328,2.837-13.853,8.243-37.122,27.977-40.006" transform="translate(669.714 -1314.023)" fill="#fb0"/>
        <g id="Grupo_89531" data-name="Grupo 89531" transform="translate(46.073 51.849)">
          <path id="Trazado_152332" data-name="Trazado 152332" d="M-579.334,1366c3.162,3.94,7.538,7.067,11.367,10.331,3.94,3.359,7.943,6.641,12.162,9.646a.432.432,0,0,0,.514-.067,109.705,109.705,0,0,0,10.129-10.177c2.885-3.11,5.724-6.263,8.554-9.423.363-.405-.235-1.007-.6-.6-4.956,5.532-9.9,11.095-15.172,16.334-.647.643-2.7,3.128-3.439,2.964-.416-.093-1.349-1.056-1.733-1.342q-1.3-.969-2.578-1.971-1.978-1.55-3.909-3.16c-2.548-2.114-5.053-4.279-7.563-6.436a53.241,53.241,0,0,1-7.133-6.7c-.342-.426-.939.177-.6.6Z" transform="translate(579.434 -1365.259)" fill="#272726"/>
        </g>
        <g id="Grupo_89532" data-name="Grupo 89532" transform="translate(43.61 52.468)">
          <path id="Trazado_152333" data-name="Trazado 152333" d="M-585.623,1367.6a96.074,96.074,0,0,0,12.742,11.8c2.342,1.872,4.714,3.709,7.076,5.555l3.552,2.777c.833.651,2.045,2.029,3.07,2.377,1.5.509,2.793-1.617,3.669-2.547,2.215-2.354,4.391-4.748,6.585-7.122,3.772-4.083,8.121-8.046,10.825-12.961.263-.478-.469-.907-.733-.429-2.557,4.65-6.643,8.407-10.215,12.273l-5.724,6.2c-.874.946-1.74,1.9-2.656,2.808-.752.745-.841,1.162-2.035.514a13.866,13.866,0,0,1-1.64-1.281c-8.251-6.45-17.008-12.617-23.917-20.562-.359-.412-.957.19-.6.6Z" transform="translate(585.733 -1366.84)" fill="#272726"/>
        </g>
        <g id="Grupo_89533" data-name="Grupo 89533" transform="translate(27.132 79.114)">
          <path id="Trazado_152334" data-name="Trazado 152334" d="M-548.238,1474.714a39.781,39.781,0,0,1-39.813,39.745,39.779,39.779,0,0,1-39.813-39.745,39.778,39.778,0,0,1,39.813-39.744A39.78,39.78,0,0,1-548.238,1474.714Z" transform="translate(627.864 -1434.97)" fill="#7ae582"/>
          <path id="Trazado_152335" data-name="Trazado 152335" d="M-544.486,1436.348c-.891,2.665,3.557.634,4.447.887,1.269.382,1.526,1.9,2.8,2.157,1.779.381,1.779-1.016,2.923.762a20,20,0,0,1,1.269,3.3c.51,1.777.38,1.523-1.4,2.286-.892.379-2.671.507-3.562,1.269-.762.634-.378,2.791-2.284,1.395-1.4,1.4-.891,5.836-3.562,3.426a22.265,22.265,0,0,1-2.032-3.171c-.636-1.776.637-1.776.762-3.3,0-.506-.637-.889-.762-1.4,0-.127.255-2.031.38-1.776-.507-1.142-2.668-1.016-2.923-2.03a9.724,9.724,0,0,1,1.273-3.173,3.613,3.613,0,0,1,2.539-.253" transform="translate(579.503 -1435.809)" fill="#29b39d"/>
          <path id="Trazado_152336" data-name="Trazado 152336" d="M-626.211,1470.214a23.9,23.9,0,0,0-.525,5.258c-.125,2.03-.688,5.234.764,5.457,1.524.253,1.019-1.27,1.271-2.031,1.4.762.508,1.523.763,2.538a4.884,4.884,0,0,0,1.526,2.411c1.651,1.9,2.795,1.648,5.083,2.284,2.032.508,2.414,2.155,4.2,3.046,2.286,1.013,3.049.888,2.668,3.551a8.116,8.116,0,0,0,2.543,7.867c1.272,1.142,2.8.634,3.814,1.4,1.395.888.887,2.158,1.27,3.554.888,2.664,3.051,5.2,4.319,7.612a9.548,9.548,0,0,0,6.483,4.949h0a12.149,12.149,0,0,1-2.8-2.919c-.762-1.142-1.271-2.537-.255-3.679.635-.508,1.779-.255,2.288-.889.38-.508,0-1.269.253-1.9.636-1.651,1.653-2.031,2.8-2.92,1.779-1.267,1.145-1.267,1.4-3.172.507-3.045,5.083-4.059,1.016-6.725a15.65,15.65,0,0,0-7.881-2.155c-.255-3.934-3.938-3.173-6.863-4.315-1.4-.634-2.8-1.143-4.194-1.776-2.034-.76-3.051-1.776-3.94.76-1.142-.379-2.668.89-3.43-.507-.637-1.014.888-2.284,0-3.3-1.144-1.269-1.781.509-2.417-1.521-.383-1.017.762-3.045-1.143-2.92-.252,4.313-3.432.635-3.559-1.65-.127-2.029,1.143-1.649,2.413-2.156.637-.254,2.035-1.524,2.67-1.269.255.126,2.669,7.359,2.8,2.41,0-1.141-1.273-2.537-.637-3.679s2.032-.507,2.8-1.14c1.017-.889,1.4-2.667,2.416-3.554a28.416,28.416,0,0,1,3.814-3.045c1.144-.888,2.668-.381,3.813-1.142,1.526-1.143.507-2.284,2.671-2.284,1.524.13,2.159,1.4,2.286-1.012a5.324,5.324,0,0,0-1.017-2.794c-1.019-1.139-1.908-2.282-2.8-3.425-1.4-1.65-1.781-.127-2.8-1.016-.382-.255-2.034-3.171-.633-3.044.76.126.888,1.522,1.649,1.522.637,0,.637-.888.89-1.015.637-.252,2.418-1.015,2.668-1.648.382-1.4-1.524-1.778-2.031-2.539-.637-.76-.383-.76-.637-1.524-.253-.507.128-.761-.253-1.267s-1.906.381-1.781-.635c.127-.508,1.4-.508,1.651-.635,3.687-1.776-1.015-3.044-1.906-1.521C-602.715,1442.1-620.25,1447.114-626.211,1470.214Z" transform="translate(627.307 -1438.9)" fill="#29b39d"/>
          <path id="Trazado_152337" data-name="Trazado 152337" d="M-478.613,1458.661c0-2.539-9.193-3.526-6.4,1.55,1.019,1.649,1.019.888.762,2.409-.125.636-1.017.127-.762,1.142,0,.509,1.144,1.271,1.526,1.4,2.161,1.142,3.176.127,4.576,2.663h0l.125-.127v.127c-2.16.254-4.194,1.143-4.7,3.426-2.162.382-1.272-1.776-1.781-2.917-.634-1.65-2.8-2.411-3.812-.635-1.652,3.3,4.956,4.822,4.194,7.232-1.651-.507-2.8-.252-2.8,1.524a7.912,7.912,0,0,1,.888,1.522c.129.762-.506,1.268-.253,2.157,1.778,4.567,4.829-2.792,6.1-3.426,2.29-1.142,7.629,2.79,3.813,3.807-1.653.381-2.035-1.27-3.561-1.27-1.776,0-1.524,2.157-2.793,2.918-1.4.762-2.415-.125-3.559,1.523-.762,1.142-.89,2.538-1.779,3.681-.889,1.267-2.289,2.156-2.416,3.8-.127,1.522.892,2.537,1.145,3.933.254,1.649-.635,2.158.764,3.552.889.761,2.668,1.777,3.684,1.651,1.273-.127,2.287-1.014,3.686-1.014.889,0,3.307-.762,3.687-.509,1.271.509.762,1.776.507,2.665a19.466,19.466,0,0,0-.888,3.931c-.254,1.9.745,2.611-1.78,6.979-.684,1.184-5.466,5.2-3.939,6.851,1.269,1.4,6.259-2.263,7.272-3.151,2.037-2.156,4.922-4.947,6.569-8.067a36.2,36.2,0,0,0,3.538-8.274c1.144-4.821,2.536-10.32,1.615-16.139-.734-4.651-2.09-10.3-4.635-14.358a36.755,36.755,0,0,0-4.445-6.471c-1.593-1.776-1.995-3.325-4.154-4.086" transform="translate(544.681 -1448.126)" fill="#29b39d"/>
        </g>
        <path id="Trazado_152338" data-name="Trazado 152338" d="M-655.762,1374.452c-46.969,19.246-37.088,75.664-34.972,80.173,2.908,6.193,7.481,13.675,18.345,15.029,7.05.879,14.109-1.575,20.637-4.263,13.449-5.536,25.579-13.557,38.167-20.7a72.2,72.2,0,0,1,13.112-6.2,62.3,62.3,0,0,1-5.576-9.806c-6.82,3.719-14.472,5.775-22.048,7.754q-12.661,3.309-25.35,6.517c-4.686,1.195-9.6,2.4-14.327,1.341s-3.362-7.573-2.729-12.163" transform="translate(694.684 -1319.007)" fill="#d33c2e"/>
        <path id="Trazado_152339" data-name="Trazado 152339" d="M-536,1386.456c15.464,4.684,29.522,18.763,35.388,33.2s12.879,37.878,2.3,51.363c-9.314,11.875-29.518,17.07-47.383,8.45a144.469,144.469,0,0,1-18.582-11.815c-8.431-7.029-16.737-14.608-21.682-24.194a59.064,59.064,0,0,1,9.589-5.4c9.274,11.809,24.414,19.221,39.873,19.52,4.624.09,11.828.474,15.7-1.944s4.114-8.016,2.9-12.274" transform="translate(629.477 -1326.316)" fill="#e44a36"/>
        <path id="Trazado_152340" data-name="Trazado 152340" d="M-653.423,1369.349c-15.736,2-28.173,15.884-35.155,27.708a62.274,62.274,0,0,0-8.178,39.27l25.005-.244c1.508-17.543,10.424-30.841,14.632-47.977,1.193-4.858,2.5-13.9,3.7-18.757" transform="translate(697.235 -1315.9)" fill="#fb0"/>
        <path id="Trazado_152341" data-name="Trazado 152341" d="M-464.889,1367.922c15.736,2,28.178,14.3,35.159,26.124s13.01,26.551,11.3,40.025c-8.335-.081-19.789-.917-28.125-1-1.509-17.543-10.424-30.84-14.633-47.978-1.193-4.857-2.507-9.761-3.7-14.619" transform="translate(555.763 -1315.031)" fill="#fb0"/>
        <g id="Grupo_89534" data-name="Grupo 89534" transform="translate(0.197 106.443)">
          <path id="Trazado_152342" data-name="Trazado 152342" d="M-696.324,1519.368a227.336,227.336,0,0,1,25.855.2.43.43,0,0,0,.409-.537,26.966,26.966,0,0,1,1.288-13.67c.186-.514-.634-.736-.818-.226a27.829,27.829,0,0,0-1.288,14.121l.409-.537a227.393,227.393,0,0,0-25.855-.2c-.543.027-.546.875,0,.848Z" transform="translate(696.733 -1504.845)" fill="#272726"/>
        </g>
        <g id="Grupo_89535" data-name="Grupo 89535" transform="translate(105.676 106.865)">
          <path id="Trazado_152343" data-name="Trazado 152343" d="M-427.021,1506.445a50.319,50.319,0,0,1,2.119,10.337.44.44,0,0,0,.424.424,207.068,207.068,0,0,0,29.661,1.01c.544-.019.547-.867,0-.848a207.086,207.086,0,0,1-29.661-1.01l.424.424a51.427,51.427,0,0,0-2.148-10.563c-.164-.519-.983-.3-.818.226Z" transform="translate(427.043 -1505.924)" fill="#272726"/>
        </g>
        <g id="Grupo_89536" data-name="Grupo 89536" transform="translate(107.759 113.141)">
          <path id="Trazado_152344" data-name="Trazado 152344" d="M-421.312,1522.823a153.823,153.823,0,0,0,16.355.9c2.708.039,5.416.064,8.123.142q1.865.053,3.728.145c.644.032,1.189.2,1.692-.209a.429.429,0,0,0,0-.6l-.11-.113a.433.433,0,0,0-.6,0l-.086.075c-.412.359.19.957.6.6l.086-.076h-.6l.109.113v-.6c-.379.313-2.6-.109-3.127-.128q-1.862-.07-3.725-.105c-2.482-.051-4.964-.071-7.446-.112a144.145,144.145,0,0,1-15-.876c-.541-.065-.536.783,0,.849Z" transform="translate(421.716 -1521.971)" fill="#272726"/>
        </g>
        <path id="Trazado_152345" data-name="Trazado 152345" d="M-504.149,1513.74c1.995-2.727,5.418-6.065,7.413-8.792.554-.757,1.275-1.6,2.242-1.563.553.039.1,1.646-.269,2.4a8.4,8.4,0,0,0-.978,2.294.638.638,0,0,0,.191.659.584.584,0,0,0,.3.075,3.9,3.9,0,0,0,1.888-.477,94.937,94.937,0,0,1,9.127-4.245,7.1,7.1,0,0,1,1.164-.345.681.681,0,0,1,.713.136.586.586,0,0,1,.109.556,1.589,1.589,0,0,1-.8.81c-1.371.845-5.778,3.683-5.573,3.923.139.164,5.783-3.458,8.105-3.806a.587.587,0,0,1,.618.3c.113.235-.034.417-.179.572-1.386,1.476-6.954,5.226-6.6,5.21,2.158-.1,4.926-3.273,7.3-3.378a.824.824,0,0,1,.824.3c.663,1.123-7.231,5.462-6.954,5.585.48.214,4.865-1.591,6.127-1.673a.7.7,0,0,1,.668.345c.15.28-.014.519-.208.706a5.011,5.011,0,0,1-.733.578,47.081,47.081,0,0,1-15.193,7.208s-8.057-6.255-9.31-7.375" transform="translate(579.667 -1397.512)" fill="#d33c2e"/>
        <path id="Trazado_152346" data-name="Trazado 152346" d="M-592.248,1493.433c-.438-3.248-1.833-7.676-2.271-10.924a2.834,2.834,0,0,0-1.213-2.366c-.5-.221-.875,1.363-.915,2.174a7.926,7.926,0,0,1-.244,2.411c-.083.221-.235.459-.484.476a.588.588,0,0,1-.3-.076,3.814,3.814,0,0,1-1.425-1.275,91.274,91.274,0,0,0-5.953-7.824,6.861,6.861,0,0,0-.853-.83.687.687,0,0,0-.689-.211.579.579,0,0,0-.363.425,1.5,1.5,0,0,0,.309,1.058c.794,1.353,3.291,5.8,3,5.916-.2.076-3.4-5.615-5.269-6.979a.6.6,0,0,0-.684-.03c-.211.149-.17.373-.117.571.5,1.9,3.58,7.664,3.28,7.489-1.843-1.074-2.743-5.062-4.769-6.243a.838.838,0,0,0-.864-.124c-1.119.656,3.708,7.993,3.407,7.972-.523-.038-3.495-3.6-4.56-4.247a.718.718,0,0,0-.75-.012c-.266.171-.237.451-.157.7a4.826,4.826,0,0,0,.364.831c3.063,5.646,4.977,10.479,9.7,15.007.121.116,2.388,2.1,2.554,2.142.131.03,2.405.558,2.535.53,2.016-.436,2.219-1.6,4.222-2.086,1.5-.362.877-4.094,2.511-4.476" transform="translate(646.673 -1380.203)" fill="#e44a36"/>
      </g>
      <g id="Grupo_89562" data-name="Grupo 89562" transform="translate(-929.803 1005.244)">
        <g id="Grupo_89539" data-name="Grupo 89539" transform="translate(0 18.133)">
          <g id="Grupo_89538" data-name="Grupo 89538">
            <path id="Trazado_152347" data-name="Trazado 152347" d="M-861,1069.2c.009-.348-.018.135-.032.169a1.815,1.815,0,0,0-.009-1.071c-.022-.06-.423-.845-.143-.277-.066-.135-.128-.275-.191-.41a4.328,4.328,0,0,0-2.023-1.769,6.436,6.436,0,0,0-4.37-.752,6.841,6.841,0,0,0-3.226,1.743c-.762.786-1.384,1.574-2.06,2.414a6.008,6.008,0,0,0-1.43,2.5,5.168,5.168,0,0,0,.271,2.861c.778,1.983,2.464,3.3,4.092,4.726a8.713,8.713,0,0,1,1.786,2.346,7.169,7.169,0,0,1,.911,2.409c-.013-.075-.055-.373-.009.008a6.515,6.515,0,0,0,.127.709c.02.085.06.4.009-.008.011.089.022.178.031.267a6.228,6.228,0,0,1,.03.657c0,.122-.121.66-.05.734-.018-.018.082-.41.016-.171-.028.1-.043.213-.064.319-.038.187-.078.373-.13.557-.06.21-.14.412-.213.618s.032.2.039-.078c0,.107-.145.268-.2.358-.1.164-.211.319-.321.477-.261.375.031-.073.066-.062-.006,0-.2.209-.231.239s-.515.435-.513.438c-.01-.017.4-.239.135-.094-.144.079-.281.168-.427.244-.231.122-.465.246-.7.358-.119.056-.243.1-.362.158.033-.015.361-.113.1-.038-.554.16-1.093.342-1.662.461-.23.048-.461.089-.694.124-.13.02-.259.038-.39.054-.329.04.271-.02-.069,0-.53.037-1.075.089-1.608.085a9.918,9.918,0,0,1-2.828-.539,8.769,8.769,0,0,1-2.9-1.552c-.666-.552-1.58-1.486-.812-2.281a.794.794,0,0,1,1.022-.1c.517.349-.029.926-.276,1.276a25.651,25.651,0,0,1-2.436,2.851c-.467.487.262,1.161.8.728a13.769,13.769,0,0,0,2.441-2.572c.569-.766,1.373-1.76.768-2.715a2.33,2.33,0,0,0-2.367-.912,2.346,2.346,0,0,0-1.752,1.941c-.384,2.187,1.772,3.973,3.623,5.069a17.947,17.947,0,0,0,7.054,2.3c2.767.314,5.638-.266,7.485-2.214a7.613,7.613,0,0,0,2.014-6.724,9.852,9.852,0,0,0-3.905-5.715c-1.781-1.367-3.912-2.637-5.1-4.507a2.789,2.789,0,0,1-.345-2.983,3.008,3.008,0,0,1,1.115-1.035,13.563,13.563,0,0,1,1.611-.789c-.171.065.189-.065.222-.076.15-.049.3-.093.452-.142.313-.1.607-.176.928-.251-.427.1-.2.005-.048.012a3.5,3.5,0,0,1,.392.009l-.292-.04a4.95,4.95,0,0,0,.948.172c.13.026.91.137.946.255.006.019-.584-.282-.079-.018.176.092.354.184.531.275a3.193,3.193,0,0,0,.79.343c.23.068,1.156.358.7.13l-.147-.02a2.4,2.4,0,0,0,.771.134,2.629,2.629,0,0,0,1.182-.289l-1.03.238c.1-.008.2-.015.294-.02A1.664,1.664,0,0,0-861,1069.2Z" transform="translate(882.892 -1064.97)" fill="#091946"/>
          </g>
        </g>
        <g id="Grupo_89541" data-name="Grupo 89541" transform="translate(21.523 25.824)">
          <g id="Grupo_89540" data-name="Grupo 89540">
            <path id="Trazado_152348" data-name="Trazado 152348" d="M-798.159,1094.586c.024-2.456-2.682-4.094-5.22-3.876a8.983,8.983,0,0,0-6.532,4.3,11.065,11.065,0,0,0-1.5,3.393,11.442,11.442,0,0,0-.57,3.629,3.883,3.883,0,0,0,2.17,3.317,5.54,5.54,0,0,0,4.349-.084,7.505,7.505,0,0,0,3.417-3.159c.85-1.441,1.669-2.9,2.524-4.337l-1.935-.254c.6,1.8,0,3.693.346,5.522a4.642,4.642,0,0,0,4.413,3.4,6.656,6.656,0,0,0,5.251-2.327,14.029,14.029,0,0,0,2.746-4.719,11.583,11.583,0,0,0,.365-5.937l-2.651.974a2.8,2.8,0,0,1,.484,1.3c.109.545-.015-.167.026.148.018.138.038.277.045.415a7.243,7.243,0,0,0,.159,1.183c.025.115.045.231.068.347.108.552-.011-.232.015.105.02.266.061.532.082.8.044.572.061,1.145.064,1.717.017,2.4-.075,5.1,1.049,7.346,1.2,2.4,4.809,3.816,7.011,1.676a5.645,5.645,0,0,0,1.459-3.064,20.475,20.475,0,0,0,.394-4.122c-.013-1.307-.224-2.592-.154-3.9a4.968,4.968,0,0,1,.235-1.444,1.047,1.047,0,0,1,.217-.471c-.011.016.283-.351.143-.2s.44-.307.107-.1l-2.185-.283a23.83,23.83,0,0,0,2.812,1.9,14.871,14.871,0,0,0,3.151,1.134,15.571,15.571,0,0,0,6.154.379,11.766,11.766,0,0,0,5.021-1.742c1.45-1,2.715-2.535,2.644-4.272a3.3,3.3,0,0,0-3.737-2.976,7.051,7.051,0,0,0-4.558,2.438,13.747,13.747,0,0,0-3.193,4.755,6.681,6.681,0,0,0,.352,4.875,5.552,5.552,0,0,0,5.215,3.266,8.509,8.509,0,0,0,3.488-.973,12.176,12.176,0,0,0,2.693-2.174c.581-.552-.158-1.363-.895-1.047a17.566,17.566,0,0,1-2.274.79,11.553,11.553,0,0,1-2.16.529,3.619,3.619,0,0,1-1.78-.3,4.031,4.031,0,0,1-.4-.222c.234.141.031.028-.019-.016-.111-.1-.217-.2-.325-.294q-.189-.2-.02-.012-.09-.114-.171-.232c-.083-.12-.151-.245-.226-.368-.226-.374.067.252-.073-.159-.1-.28-.177-.557-.255-.84-.013-.046-.057-.3-.015-.033-.023-.147-.036-.3-.047-.444a9.287,9.287,0,0,1,.011-1.041c0-.049.009-.1.015-.147q-.058.36.039-.293c.011-.144.006-.288.021-.433-.033.321.047-.269.046-.267.023-.12.049-.24.077-.359a8.34,8.34,0,0,1,.789-2.113,5.574,5.574,0,0,1,2.957-2.7c.767-.268,2.026-.385,2.191.615.187,1.137-.886,2.217-1.813,2.828a7.337,7.337,0,0,1-3.751,1.209,10.954,10.954,0,0,1-4.766-1.118c-.829-.39-1.594-.871-2.4-1.295-.875-.459-1.776-.862-2.628-1.362a1.954,1.954,0,0,0-2.181.225,4.617,4.617,0,0,0-1.329,3.011,10.822,10.822,0,0,0,.364,2.933,10.584,10.584,0,0,1-.052,3.453,14.069,14.069,0,0,1-.783,3.318,2.92,2.92,0,0,1-.522.918c.123-.145-.053.039-.066.054-.26.312.087-.034-.1.095-.03.021-.318.16-.159.089s-.258.085-.021.012l-.178,0q.2.036.016,0c-.038-.009-.369-.13-.215-.061s-.165-.1-.193-.12c-.24-.153.132.13-.071-.063-.049-.046-.282-.322-.127-.119a2.744,2.744,0,0,1-.2-.3c.032.056.092.268-.047-.1-.065-.176-.109-.356-.162-.535-.01-.034-.07-.342-.028-.083-.02-.121-.029-.248-.039-.37-.021-.247-.029-.5-.032-.743-.008-.542.007-1.083.031-1.624a31.028,31.028,0,0,0-.015-3.2,16.672,16.672,0,0,0-.559-3.784c-.375-1.251-1.438-2.174-2.214-3.216a1.576,1.576,0,0,0-1.82-.56,1.279,1.279,0,0,0-.83,1.534,9.051,9.051,0,0,1-.627,4.943,7.518,7.518,0,0,1-3.044,3.482c-.214.124-.425.251-.649.359-.051.025-.519.209-.246.116a3.917,3.917,0,0,1-.7.169c.333-.047-.322-.011-.407-.021.318.037-.154-.055-.224-.078.273.091-.266-.149-.334-.2.272.191-.2-.215-.249-.265.3.329-.5-.569-.305-.375a3.224,3.224,0,0,1-.69-.8,2.989,2.989,0,0,1-.435-.98c-.22-1.043-.211-2.132-.332-3.182-.083-.724-1.178-1.4-1.811-.7-.8.879-1.608,1.746-2.413,2.617-.718.777-1.479,1.637-2.147,2.332a5.048,5.048,0,0,1-.98.823c-.1.059-.21.11-.318.165-.038.019-.291.1-.062.03a3.512,3.512,0,0,1-.663.149c.272-.032-.012-.007-.059-.01-.113,0-.225,0-.338-.01.272.021.017,0-.044-.013-.1-.028-.215-.069-.316-.09-.04-.008-.3-.085-.065,0a1.57,1.57,0,0,1-.285-.148c.1.065.064.1-.079-.082.052.065-.137-.187-.149-.208a4.5,4.5,0,0,1-.358-2.489,6.685,6.685,0,0,1,.886-2.585,9.016,9.016,0,0,1,4.131-3.987,3.85,3.85,0,0,1,2.886-.195,2.624,2.624,0,0,1,1.835,1.862c.157.825,1.567.618,1.574-.171Z" transform="translate(812.002 -1090.3)" fill="#091946"/>
          </g>
        </g>
        <g id="Grupo_89543" data-name="Grupo 89543" transform="translate(133.35 14.96)">
          <g id="Grupo_89542" data-name="Grupo 89542">
            <path id="Trazado_152349" data-name="Trazado 152349" d="M-441.388,1055.012a17.058,17.058,0,0,0-.737,3.392c-.121,1.148-.133,2.3-.164,3.455-.063,2.328-.113,4.654-.122,6.984a35.215,35.215,0,0,1-.279,6.878c-.23,1.127-.508,2.251-.7,3.384-.115.669-.173,1.354-.241,2.029a4.583,4.583,0,0,0-.025.886,2.373,2.373,0,0,0,.747,1.5,2.156,2.156,0,0,0,2.806.037,2.732,2.732,0,0,0,.753-2.362c-.033-.591-.058-1.187-.134-1.776-.153-1.187-.383-2.371-.566-3.556a35.371,35.371,0,0,1,.033-6.873c.1-2.29.155-4.579.2-6.872.022-1.155.063-2.309.06-3.464s-.069-2.285-.076-3.429a.811.811,0,0,0-1.549-.21Z" transform="translate(443.672 -1054.519)" fill="#091946"/>
          </g>
        </g>
        <g id="Grupo_89545" data-name="Grupo 89545" transform="translate(128.057 15.111)">
          <g id="Grupo_89544" data-name="Grupo 89544">
            <path id="Trazado_152350" data-name="Trazado 152350" d="M-452.225,1056.942a13.832,13.832,0,0,1,3.682.14,10.788,10.788,0,0,1,3.42,1.074,6.5,6.5,0,0,1,3.57,4.627c-.043-.246.006.1.012.156.012.136.02.272.022.408a6.181,6.181,0,0,1-.026.655,5.31,5.31,0,0,1-.351,1.345c-.184.491.078-.132-.064.143-.064.125-.132.248-.2.369q-.174.292-.376.567a7.091,7.091,0,0,1-1,1.077c-.221.2-.455.38-.692.561-.024.019-.27.186-.072.054-.1.066-.2.13-.305.193a14.964,14.964,0,0,1-1.7.875,18.363,18.363,0,0,1-3.725,1.1,15.152,15.152,0,0,1-9.225-.767,1.335,1.335,0,0,0-1.691.378,1.079,1.079,0,0,0,.456,1.532c3.18,1.4,6.555,1.474,9.994,1.5a14.511,14.511,0,0,0,9.178-2.7,7.878,7.878,0,0,0,3.285-7.166,9.327,9.327,0,0,0-4.728-6.59,11.6,11.6,0,0,0-4.884-1.434,12.164,12.164,0,0,0-4.926.771c-.779.259-.471,1.243.353,1.129Z" transform="translate(461.108 -1055.015)" fill="#091946"/>
          </g>
        </g>
        <g id="Grupo_89547" data-name="Grupo 89547" transform="translate(153.438 11.119)">
          <g id="Grupo_89546" data-name="Grupo 89546">
            <path id="Trazado_152351" data-name="Trazado 152351" d="M-375.6,1042.193a13.6,13.6,0,0,0-1.291,3.91c-.215,1.419-.336,2.834-.429,4.265-.089,1.365-.144,2.729-.179,4.1s.1,2.736.138,4.1-.007,2.737-.01,4.1a15.77,15.77,0,0,0,.264,3.66,5.775,5.775,0,0,0,5.03,4.2,9.178,9.178,0,0,0,7.985-2.874c.289-.325.018-.777-.457-.7-2.261.345-4.311,1.536-6.676,1.378a4.385,4.385,0,0,1-2.3-.778,3.054,3.054,0,0,1-1.128-2.2,21.126,21.126,0,0,1,.074-3.306c.066-1.254.09-2.519.227-3.767.271-2.472.471-4.932.58-7.418a27.907,27.907,0,0,0-.437-8.483c-.141-.539-1.127-.724-1.39-.182Z" transform="translate(377.509 -1041.867)" fill="#091946"/>
          </g>
        </g>
        <g id="Grupo_89549" data-name="Grupo 89549" transform="translate(166.51 21.047)">
          <g id="Grupo_89548" data-name="Grupo 89548">
            <path id="Trazado_152352" data-name="Trazado 152352" d="M-321.233,1078.411c.15-2.562-3.238-4.012-5.7-3.83a7.894,7.894,0,0,0-6.566,4.425,8.549,8.549,0,0,0-.313,7.164,6.082,6.082,0,0,0,2.56,2.88,4.258,4.258,0,0,0,4.456-.146,15.718,15.718,0,0,0,3.842-2.842,5.03,5.03,0,0,0,1.217-2.036,14.237,14.237,0,0,0-.035-2.2l-1.355-.018a9.239,9.239,0,0,0,.147,1.469c.038.511.038,1.022.066,1.532a6.421,6.421,0,0,0,.965,3.124,8.9,8.9,0,0,0,2.017,2.247,4.245,4.245,0,0,0,3.349.877.769.769,0,0,0,.521-1.166c-.237-.328-.5-.631-.742-.944a5.58,5.58,0,0,0-1.078-.955,6.035,6.035,0,0,1-1.588-1.822,17.621,17.621,0,0,1-1.105-2.387,4.89,4.89,0,0,0-1.535-2.49.657.657,0,0,0-.99.676c.121.471-.372.916-.606,1.281a9.809,9.809,0,0,1-.914,1.295,9.343,9.343,0,0,1-2.564,1.9,10.9,10.9,0,0,1-1.393.7,1.1,1.1,0,0,1-1.056-.1,2.988,2.988,0,0,1-1.273-1.561,5.406,5.406,0,0,1-.173-.581c-.024-.1-.047-.2-.063-.3.01.065.022.216,0-.08a6.975,6.975,0,0,1,.021-1.309c.027-.259-.038.2.008-.056.014-.075.027-.15.043-.225q.062-.3.149-.59c.062-.208.133-.413.21-.616.04-.1.082-.208.125-.312,0,0,.218-.475.093-.222a8.076,8.076,0,0,1,.7-1.158c.065-.09.417-.522.239-.312,0,0,.5-.554.223-.256.1-.1.194-.206.3-.3a6.529,6.529,0,0,1,.516-.448c.035-.027.326-.231.155-.118s.135-.077.173-.1c.2-.117.426-.2.63-.317.253-.142-.27.058-.006,0,.128-.03.251-.077.379-.109.1-.025.206-.048.311-.067s.561-.037.132-.028c.241,0,.482-.024.724-.027s.478.009.718.027c-.345-.027-.084-.015,0,0,.156.034.31.062.464.1a10.013,10.013,0,0,1,2.362.96.829.829,0,0,0,1.244-.629Z" transform="translate(334.454 -1074.566)" fill="#091946"/>
          </g>
        </g>
        <g id="Grupo_89551" data-name="Grupo 89551" transform="translate(185.406 8.383)">
          <g id="Grupo_89550" data-name="Grupo 89550" transform="translate(0)">
            <path id="Trazado_152353" data-name="Trazado 152353" d="M-271.595,1047.24a13.865,13.865,0,0,0-.531,6.04c.061.983.191,1.968.315,2.947a18.992,18.992,0,0,0,.523,3.282,2,2,0,0,0,3.142.787c2.2-2.459,2.74-5.609,3.8-8.542a6.1,6.1,0,0,1,.976-1.9,1.765,1.765,0,0,1,.65-.531c.142-.05.366.009.3-.045.379.307.345,1.079.374,1.553a18.47,18.47,0,0,0,.362,2.8,6.709,6.709,0,0,0,2.825,4.62c1.762,1.014,4,.481,5.862.1,3.3-.684,6.74-1.969,8.972-4.324a6.924,6.924,0,0,0,2.066-4.146,4.015,4.015,0,0,0-1.845-3.852,4.254,4.254,0,0,0-4.885.586,6.367,6.367,0,0,0-2.094,4.245c-.367,2.907-.157,6.482,3.352,7.813,3.493,1.325,7.379-1.08,9.788-3.1a22.994,22.994,0,0,0,6.022-8.124,34.52,34.52,0,0,0,1.879-5.26,38.6,38.6,0,0,0,1-5.756c.109-.933.239-1.863.364-2.794.118-.876-1.516-1.087-1.716-.232q-.6,2.558-1.329,5.081c-.487,1.681-.947,3.378-1.52,5.036a26.024,26.024,0,0,1-4.332,8,18.235,18.235,0,0,1-3.213,3.066,12.518,12.518,0,0,1-3.709,2.027c-1.264.386-2.955.645-4.016-.311a4.423,4.423,0,0,1-1.127-3.414,7.288,7.288,0,0,1,1.044-4.13,2.263,2.263,0,0,1,1.545-.972,2.075,2.075,0,0,1,1.463.183,1.205,1.205,0,0,1,.561.9,2.624,2.624,0,0,1,.031.623,2.585,2.585,0,0,1-.154.785,6.1,6.1,0,0,1-2.261,2.759c-2.158,1.6-5.146,2.275-7.926,2.78a4.579,4.579,0,0,1-2.011.122.94.94,0,0,1-.526-.346,5.039,5.039,0,0,1-.517-.814,16.562,16.562,0,0,1-1.23-4.311c-.253-1.548-1.1-3.272-3.078-3.425s-3.3,1.5-4.008,2.924c-.72,1.457-1.21,2.987-1.8,4.488a10.31,10.31,0,0,1-.937,1.894c-.087.136-.175.275-.273.4a1.4,1.4,0,0,1-.308.313c-.126.108-.257.211-.391.313a3.2,3.2,0,0,1-.273.2q.2-.135-.055.032l2.835,1.5a26.233,26.233,0,0,0-.377-3.048c-.117-.946-.2-1.893-.323-2.839a19.63,19.63,0,0,0-1.254-5.954,1.106,1.106,0,0,0-2.036-.027Z" transform="translate(272.214 -1032.857)" fill="#091946"/>
          </g>
        </g>
        <g id="Grupo_89553" data-name="Grupo 89553" transform="translate(222.781)">
          <g id="Grupo_89552" data-name="Grupo 89552" transform="translate(0)">
            <path id="Trazado_152354" data-name="Trazado 152354" d="M-143.893,1005.716a13.253,13.253,0,0,0-1.513,4.885c-.258,1.794-.481,3.59-.681,5.391-.2,1.764-.428,3.526-.529,5.3s-.194,3.535-.3,5.3-.373,3.537-.569,5.3c-.184,1.66-.467,3.3-.812,4.933-.671,3.185-1.813,6.916.957,9.663a7.859,7.859,0,0,0,5.476,2.112,9.576,9.576,0,0,0,3.137-.571,10.055,10.055,0,0,0,1.608-.593,10.476,10.476,0,0,1,1.452-.619c.722-.27.352-1.407-.415-1.352a6.942,6.942,0,0,1-1.4.049,8.791,8.791,0,0,0-1.179-.05,12.09,12.09,0,0,1-2.523-.333c-.3-.065-.6-.136-.891-.224-.149-.044-.293-.1-.441-.146l-.087-.032q.522.2-.345-.139c-.568-.192.367.2-.166-.06-.136-.066-.274-.128-.407-.2s-.259-.148-.388-.224q-.3-.2.007.006-.138-.108-.267-.226c-.086-.077-.166-.162-.255-.238-.391-.334.168.311-.128-.138-.1-.154-.2-.3-.3-.462-.192-.328-.05-.109-.019-.033a6.885,6.885,0,0,1-.3-1.026c-.027-.116-.055-.231-.08-.348q-.059-.319-.011-.065-.023-.182-.039-.364a42.95,42.95,0,0,1-.017-4.43c.09-6.619,1.59-13.092,2.318-19.646.393-3.537.611-7.1,1.146-10.624a1.017,1.017,0,0,0-.653-1.19,1.156,1.156,0,0,0-1.385.391Z" transform="translate(149.112 -1005.244)" fill="#091946"/>
          </g>
        </g>
        <g id="Grupo_89555" data-name="Grupo 89555" transform="translate(218.684 15.973)">
          <g id="Grupo_89554" data-name="Grupo 89554" transform="translate(0)">
            <path id="Trazado_152355" data-name="Trazado 152355" d="M-162.441,1059.228a15.917,15.917,0,0,0,2.517,2.919,17.55,17.55,0,0,0,3.376,2.246,23.593,23.593,0,0,0,4.115,1.579c.747.216,1.5.418,2.249.623a15.365,15.365,0,0,0,2.453.456,1.347,1.347,0,0,0,.746-2.536c-2.49-1.131-5.393-1.484-7.855-2.576a22.492,22.492,0,0,1-3.168-1.72,19.822,19.822,0,0,1-2.827-2.09c-.8-.759-2.266.2-1.6,1.1Z" transform="translate(162.608 -1057.854)" fill="#091946"/>
          </g>
        </g>
        <g id="Grupo_89557" data-name="Grupo 89557" transform="translate(83.548 8.421)">
          <g id="Grupo_89556" data-name="Grupo 89556">
            <path id="Trazado_152356" data-name="Trazado 152356" d="M-606.926,1033.492c-.126.636-.318,1.265-.431,1.9a17.643,17.643,0,0,0-.191,2.289c-.057,1.371-.081,2.744-.121,4.116-.081,2.74-.012,5.492,0,8.235.01,2.783.369,5.572.32,8.351-.023,1.307-.028,2.611-.157,3.911a13.082,13.082,0,0,0,0,3.833,5.476,5.476,0,0,0,2.237,3.487,5.981,5.981,0,0,0,1.792.834,2.894,2.894,0,0,0,2.687-.409,1.261,1.261,0,0,0-.312-2.074,3.15,3.15,0,0,0-.815-.338l-.453-.061c-.191-.016-.23-.018-.118-.008.187.039-.159-.044-.2-.053a3.918,3.918,0,0,1-1.141-.6,4.962,4.962,0,0,1-1.592-1.985c-.949-2.283-.637-4.822-.578-7.187.032-1.263.253-2.518.343-3.779.093-1.3.258-2.591.318-3.891.118-2.555.3-5.115.343-7.674.022-1.409.038-2.819.057-4.228.01-.741-.008-1.485-.05-2.226s-.253-1.488-.366-2.231a.789.789,0,0,0-.7-.719.78.78,0,0,0-.876.506Z" transform="translate(607.707 -1032.979)" fill="#091946"/>
          </g>
        </g>
        <g id="Grupo_89559" data-name="Grupo 89559" transform="translate(79.106 25.031)">
          <g id="Grupo_89558" data-name="Grupo 89558">
            <path id="Trazado_152357" data-name="Trazado 152357" d="M-621.868,1089.339a15.966,15.966,0,0,0,5.425,1.5q1.337.161,2.684.2c1.073.03,2.5.134,2.849-1.028a1.314,1.314,0,0,0-.724-1.444,3.113,3.113,0,0,0-1.561-.184q-1.342.025-2.686-.074c-1.841-.136-3.664-.452-5.5-.611a.874.874,0,0,0-.484,1.646Z" transform="translate(622.339 -1087.689)" fill="#091946"/>
          </g>
        </g>
        <g id="Grupo_89561" data-name="Grupo 89561" transform="translate(93.908 10.063)">
          <g id="Grupo_89560" data-name="Grupo 89560">
            <path id="Trazado_152358" data-name="Trazado 152358" d="M-573.085,1039.22c-.059,2.228-.206,4.446-.231,6.675q-.037,3.283-.087,6.566c-.072,4.408-.028,8.818-.181,13.224a.856.856,0,0,0,.878.8c2.25-.228,2.682-2.39,3.437-3.96a18.746,18.746,0,0,1,1.619-2.878q.49-.678,1.017-1.332.257-.318.523-.63a2.989,2.989,0,0,0,.193-.238s-.443-.012-.047.033l-.712-.183a2.9,2.9,0,0,1,.472.2c.146.357-.289-.2-.343-.188-.038.006,0-.063.024.092.021.118.063.236.087.355.112.549.18,1.2.234,1.656.127,1.076.067,2.153.151,3.23a4.191,4.191,0,0,0,1.565,3.264,4.851,4.851,0,0,0,3.388.9,12.293,12.293,0,0,0,5.876-2.487,15.661,15.661,0,0,0,4.029-4.146c.962-1.5,2.326-3.958.536-5.436a3.85,3.85,0,0,0-5.1.48c-1.459,1.594-1.782,3.96-1.864,5.974a8.73,8.73,0,0,0,1.255,5.211,5.566,5.566,0,0,0,5.94,2.469,8.843,8.843,0,0,0,3.266-1.729,31.861,31.861,0,0,0,2.125-2.452.843.843,0,0,0-.887-1.367,19.794,19.794,0,0,0-2.881,1.1c-.233.12-.45.276-.672.411-.136.083-.266.169-.4.257-.586.389.111-.066-.181.12-.214.136-.429.268-.654.387q-.146.078-.3.149c-.033.016-.417.177-.25.115s-.144.044-.182.053c-.1.028-.21.052-.316.078s-.68.139-.451.115a2.054,2.054,0,0,1-1.11-.1,2.276,2.276,0,0,1-.75-.47,3.764,3.764,0,0,1-.75-.953,7.987,7.987,0,0,1-.578-5.583c.252-1.213,1.1-3.944,3.115-3.134.9.362.368,1.393.1,1.981a11.043,11.043,0,0,1-1.588,2.486,10.742,10.742,0,0,1-4.707,3.179,5.9,5.9,0,0,1-2.734.419c.2.024-.281-.073-.388-.111.279.1-.034-.022-.1-.066-.223-.148.173.169-.019-.014-.034-.032-.238-.27-.125-.124.134.173-.091-.268-.01-.05.071.192-.03-.139-.043-.181-.043-.135-.081-.27-.12-.406-.137-.48-.024.173-.016-.115,0-.115-.018-.233-.023-.349-.011-.233-.012-.465-.015-.7a12.4,12.4,0,0,0-.236-2.1,10.043,10.043,0,0,0-1.305-3.481c-.826-1.332-2.917-1.992-3.855-.421-.643,1.077-1.294,2.151-1.9,3.251-.629,1.15-1.268,2.282-1.8,3.474-.247.554-.675,2.338-1.558,2.36l.878.8c.568-4.379,1.08-8.79,1.208-13.21q.095-3.285.015-6.567c-.057-2.236-.3-4.455-.527-6.686-.11-1.11-1.912-1.166-1.942-.026Z" transform="translate(573.584 -1038.388)" fill="#091946"/>
          </g>
        </g>
      </g>
      <g id="Grupo_89612" data-name="Grupo 89612" transform="translate(-758.703 1057.552)">
        <g id="Grupo_89563" data-name="Grupo 89563" transform="translate(34.325 0)">
          <path id="Trazado_152359" data-name="Trazado 152359" d="M-245.509,1286.506c.278-3.353.655-29.3-2.736-31.563-1.533-1.021-2.256-3.941-2.468-5.584q-2.006-15.521-2.691-31.166c-.037-.842.3-2.017,1.334-1.947a1.321,1.321,0,0,1,.6.2c3.738,2.3,1.963,11.648,5.05,11.532,1.42-.053,1.1-7.846.847-11.048a13.615,13.615,0,0,1,1.108-7.426,1.57,1.57,0,0,1,2.673-.016c2.212,4.84,1.287,18.3,3.241,18.219,1.569-.065.762-13.639,1.555-18.573.181-1.125,1.227-3.339,2.64-3.134,1.917.164,1.813,2.144,1.907,3.51q.287,4.144.574,8.288c.129,1.873.485,9.452,1.6,9.362,1.839.474,1.838-7.749,1.739-9.917a12.149,12.149,0,0,1,1.153-6.632,1.609,1.609,0,0,1,1.573-.933,2.8,2.8,0,0,1,1.516,1.66c1.06,5.815.789,11.325.438,17.234-.146,2.457-.41,4.961.287,7.33a1.327,1.327,0,0,0,1.063,1.124,1.628,1.628,0,0,0,1.115-.25,3.419,3.419,0,0,0,1.205-1.862c1.231-3.1,4.071-8.839,7.425-7.361-.259,3.721-2.173,7.243-3.344,10.922-.7,2.193-.645,4.44-1.532,6.59-.816,1.98-3.019,7.638-5.018,8.926-3.8,2.45,2.356,25.823,1.8,31Z" transform="translate(253.407 -1205.984)" fill="#ffbf86"/>
        </g>
        <g id="Grupo_89564" data-name="Grupo 89564" transform="translate(41.106 61.367)">
          <path id="Trazado_152360" data-name="Trazado 152360" d="M-209.213,1376.149l-25.389,1.475v17.68s2.922,2.042,11.879,2.057c11.609.02,15.424-2.122,15.424-2.122Z" transform="translate(234.602 -1376.149)" fill="#3ca8f4"/>
        </g>
        <g id="Grupo_89566" data-name="Grupo 89566" transform="translate(62.695 64.191)">
          <g id="Grupo_89565" data-name="Grupo 89565">
            <path id="Trazado_152361" data-name="Trazado 152361" d="M-173.034,1383.986a4.676,4.676,0,0,0-1.564.187.2.2,0,0,0,.107.393,4.343,4.343,0,0,1,1.457-.173c.259.013.259-.395,0-.407Z" transform="translate(174.74 -1383.98)" fill="#fff"/>
          </g>
        </g>
        <g id="Grupo_89568" data-name="Grupo 89568" transform="translate(65.211 64.143)">
          <g id="Grupo_89567" data-name="Grupo 89567">
            <path id="Trazado_152362" data-name="Trazado 152362" d="M-166.372,1383.853a3.459,3.459,0,0,0-1.248.149c-.247.075-.142.469.107.394a3.127,3.127,0,0,1,1.141-.135c.259.015.258-.393,0-.407Z" transform="translate(167.762 -1383.847)" fill="#fff"/>
          </g>
        </g>
        <g id="Grupo_89570" data-name="Grupo 89570" transform="translate(60.048 64.35)">
          <g id="Grupo_89569" data-name="Grupo 89569">
            <path id="Trazado_152363" data-name="Trazado 152363" d="M-180.5,1384.419l-1.386.08c-.257.015-.259.422,0,.408l1.386-.081c.258-.015.259-.423,0-.407Z" transform="translate(182.079 -1384.419)" fill="#fff"/>
          </g>
        </g>
        <g id="Grupo_89572" data-name="Grupo 89572" transform="translate(56.763 64.499)">
          <g id="Grupo_89571" data-name="Grupo 89571">
            <path id="Trazado_152364" data-name="Trazado 152364" d="M-189.348,1384.878l-1.645-.046c-.259-.007-.259.4,0,.407l1.645.046c.259.007.259-.4,0-.407Z" transform="translate(191.187 -1384.833)" fill="#fff"/>
          </g>
        </g>
        <g id="Grupo_89574" data-name="Grupo 89574" transform="translate(53.739 64.599)">
          <g id="Grupo_89573" data-name="Grupo 89573">
            <path id="Trazado_152365" data-name="Trazado 152365" d="M-197.993,1385.11l-1.386.08c-.257.015-.259.423,0,.408l1.386-.081c.257-.015.259-.423,0-.407Z" transform="translate(199.573 -1385.11)" fill="#fff"/>
          </g>
        </g>
        <g id="Grupo_89576" data-name="Grupo 89576" transform="translate(51.085 64.628)">
          <g id="Grupo_89575" data-name="Grupo 89575">
            <path id="Trazado_152366" data-name="Trazado 152366" d="M-205.227,1385.192l-1.512.088c-.258.015-.259.422,0,.407l1.512-.087c.258-.015.259-.423,0-.408Z" transform="translate(206.933 -1385.192)" fill="#fff"/>
          </g>
        </g>
        <g id="Grupo_89578" data-name="Grupo 89578" transform="translate(48.957 65.001)">
          <g id="Grupo_89577" data-name="Grupo 89577">
            <path id="Trazado_152367" data-name="Trazado 152367" d="M-211.38,1386.225l-1.26.073c-.257.015-.259.423,0,.408l1.26-.073c.257-.015.259-.423,0-.408Z" transform="translate(212.834 -1386.225)" fill="#fff"/>
          </g>
        </g>
        <g id="Grupo_89580" data-name="Grupo 89580" transform="translate(46.653 65.235)">
          <g id="Grupo_89579" data-name="Grupo 89579">
            <path id="Trazado_152368" data-name="Trazado 152368" d="M-217.767,1386.875l-1.26.073c-.257.015-.259.423,0,.408l1.26-.073c.257-.015.259-.423,0-.407Z" transform="translate(219.221 -1386.875)" fill="#fff"/>
          </g>
        </g>
        <g id="Grupo_89582" data-name="Grupo 89582" transform="translate(44.06 65.496)">
          <g id="Grupo_89581" data-name="Grupo 89581">
            <path id="Trazado_152369" data-name="Trazado 152369" d="M-224.707,1387.6l-1.513.088c-.257.015-.259.423,0,.408l1.513-.088c.257-.015.259-.423,0-.407Z" transform="translate(226.413 -1387.597)" fill="#fff"/>
          </g>
        </g>
        <g id="Grupo_89584" data-name="Grupo 89584" transform="translate(41.581 65.654)">
          <g id="Grupo_89583" data-name="Grupo 89583">
            <path id="Trazado_152370" data-name="Trazado 152370" d="M-231.832,1388.036l-1.26.073c-.257.015-.259.423,0,.408l1.26-.073c.257-.015.259-.423,0-.408Z" transform="translate(233.286 -1388.036)" fill="#fff"/>
          </g>
        </g>
        <g id="Grupo_89585" data-name="Grupo 89585" transform="translate(0 0.112)">
          <path id="Trazado_152371" data-name="Trazado 152371" d="M-313.9,1286.642c-.326-3.349-2.165-29.284,1.194-31.591,1.519-1.043,2.2-3.973,2.389-5.62q1.786-15.547,2.249-31.2c.025-.843-.326-2.013-1.361-1.928a1.322,1.322,0,0,0-.6.207c-3.705,2.356-1.8,11.674-4.885,11.6-1.421-.033-1.215-7.83-1-11.035a13.612,13.612,0,0,0-1.214-7.41,1.57,1.57,0,0,0-2.672.023c-2.143,4.871-1.027,18.316-2.982,18.263-1.57-.042-.955-13.627-1.819-18.549-.2-1.122-1.274-3.321-2.684-3.095-1.915.192-1.782,2.17-1.857,3.536l-.457,8.3c-.1,1.874-.351,9.458-1.47,9.384-1.832.5-1.948-7.722-1.879-9.891a12.149,12.149,0,0,0-1.246-6.615,1.608,1.608,0,0,0-1.587-.91,2.8,2.8,0,0,0-1.492,1.681c-.977,5.83-.628,11.335-.193,17.239.181,2.454.48,4.954-.183,7.333a1.328,1.328,0,0,1-1.047,1.139,1.627,1.627,0,0,1-1.118-.234,3.415,3.415,0,0,1-1.232-1.845c-1.275-3.084-4.2-8.78-7.529-7.253.312,3.717,2.276,7.211,3.5,10.873.729,2.183.708,4.43,1.625,6.567.844,1.968,3.127,7.593,5.144,8.853,3.835,2.395-.9,25.846-.271,31.016Z" transform="translate(348.586 -1206.295)" fill="#ffbf86"/>
        </g>
        <g id="Grupo_89586" data-name="Grupo 89586" transform="translate(8.476 61.646)">
          <path id="Trazado_152372" data-name="Trazado 152372" d="M-323.472,1376.922l25.408,1.123.294,17.752s-2.353,3.032-14.671,2.8c-7.105-.132-12-1.027-12.643-2.8Z" transform="translate(325.083 -1376.922)" fill="#3ca8f4"/>
        </g>
        <g id="Grupo_89588" data-name="Grupo 89588" transform="translate(12.033 64.437)">
          <g id="Grupo_89587" data-name="Grupo 89587">
            <path id="Trazado_152373" data-name="Trazado 152373" d="M-315.025,1385.079a4.345,4.345,0,0,1,1.459.152.2.2,0,0,0,.107-.393,4.693,4.693,0,0,0-1.567-.166c-.257.016-.259.424,0,.407Z" transform="translate(315.219 -1384.662)" fill="#fff"/>
          </g>
        </g>
        <g id="Grupo_89590" data-name="Grupo 89590" transform="translate(9.832 64.42)">
          <g id="Grupo_89589" data-name="Grupo 89589">
            <path id="Trazado_152374" data-name="Trazado 152374" d="M-321.128,1385.031a3.144,3.144,0,0,1,1.144.119.2.2,0,0,0,.107-.393,3.461,3.461,0,0,0-1.251-.133c-.257.018-.259.426,0,.407Z" transform="translate(321.322 -1384.614)" fill="#fff"/>
          </g>
        </g>
        <g id="Grupo_89592" data-name="Grupo 89592" transform="translate(14.807 64.561)">
          <g id="Grupo_89591" data-name="Grupo 89591">
            <path id="Trazado_152375" data-name="Trazado 152375" d="M-307.334,1385.412l1.388.061c.259.011.258-.4,0-.408l-1.388-.061c-.259-.012-.258.4,0,.408Z" transform="translate(307.528 -1385.005)" fill="#fff"/>
          </g>
        </g>
        <g id="Grupo_89594" data-name="Grupo 89594" transform="translate(17.835 64.645)">
          <g id="Grupo_89593" data-name="Grupo 89593">
            <path id="Trazado_152376" data-name="Trazado 152376" d="M-298.937,1385.714l1.644-.068c.258-.011.259-.418,0-.408l-1.644.068c-.258.011-.259.418,0,.407Z" transform="translate(299.131 -1385.238)" fill="#fff"/>
          </g>
        </g>
        <g id="Grupo_89596" data-name="Grupo 89596" transform="translate(21.119 64.723)">
          <g id="Grupo_89595" data-name="Grupo 89595">
            <path id="Trazado_152377" data-name="Trazado 152377" d="M-289.831,1385.861l1.388.062c.259.012.258-.4,0-.407l-1.388-.062c-.259-.012-.258.4,0,.407Z" transform="translate(290.025 -1385.453)" fill="#fff"/>
          </g>
        </g>
        <g id="Grupo_89598" data-name="Grupo 89598" transform="translate(23.647 64.717)">
          <g id="Grupo_89597" data-name="Grupo 89597">
            <path id="Trazado_152378" data-name="Trazado 152378" d="M-282.82,1385.846l1.514.067c.259.012.258-.4,0-.407l-1.514-.067c-.259-.011-.259.4,0,.408Z" transform="translate(283.015 -1385.438)" fill="#fff"/>
          </g>
        </g>
        <g id="Grupo_89600" data-name="Grupo 89600" transform="translate(26.033 65.057)">
          <g id="Grupo_89599" data-name="Grupo 89599">
            <path id="Trazado_152379" data-name="Trazado 152379" d="M-276.206,1386.788l1.261.056c.259.011.258-.4,0-.408l-1.261-.056c-.259-.012-.258.4,0,.408Z" transform="translate(276.4 -1386.38)" fill="#fff"/>
          </g>
        </g>
        <g id="Grupo_89602" data-name="Grupo 89602" transform="translate(28.339 65.259)">
          <g id="Grupo_89601" data-name="Grupo 89601">
            <path id="Trazado_152380" data-name="Trazado 152380" d="M-269.81,1387.349l1.261.055c.259.012.258-.4,0-.407l-1.261-.056c-.259-.011-.258.4,0,.407Z" transform="translate(270.004 -1386.941)" fill="#fff"/>
          </g>
        </g>
        <g id="Grupo_89604" data-name="Grupo 89604" transform="translate(30.685 65.487)">
          <g id="Grupo_89603" data-name="Grupo 89603">
            <path id="Trazado_152381" data-name="Trazado 152381" d="M-263.307,1387.981l1.514.067c.259.011.259-.4,0-.408l-1.514-.067c-.259-.011-.258.4,0,.408Z" transform="translate(263.501 -1387.573)" fill="#fff"/>
          </g>
        </g>
        <g id="Grupo_89606" data-name="Grupo 89606" transform="translate(33.417 65.608)">
          <g id="Grupo_89605" data-name="Grupo 89605">
            <path id="Trazado_152382" data-name="Trazado 152382" d="M-255.729,1388.316l1.261.056c.259.011.259-.4,0-.408l-1.261-.056c-.259-.011-.258.4,0,.408Z" transform="translate(255.923 -1387.908)" fill="#fff"/>
          </g>
        </g>
        <g id="Grupo_89611" data-name="Grupo 89611" transform="translate(12.727 11.354)">
          <g id="Grupo_89607" data-name="Grupo 89607">
            <path id="Trazado_152383" data-name="Trazado 152383" d="M-264.124,1260.52c0,12.732-11.009,23.052-24.587,23.052s-24.586-10.321-24.586-23.052,11.007-23.052,24.586-23.052S-264.124,1247.789-264.124,1260.52Z" transform="translate(313.296 -1237.468)" fill="#3ca8f4"/>
          </g>
          <g id="Grupo_89608" data-name="Grupo 89608" transform="translate(19.184 0.313)">
            <path id="Trazado_152384" data-name="Trazado 152384" d="M-257.661,1238.335c-.551,1.546,2.2.368,2.746.515.784.222.942,1.1,1.727,1.251,1.1.221,1.1-.589,1.805.442a11.185,11.185,0,0,1,.784,1.912c.314,1.031.234.883-.863,1.326a8.549,8.549,0,0,0-2.2.736c-.471.368-.233,1.618-1.41.809-.864.81-.55,3.385-2.2,1.987a12.888,12.888,0,0,1-1.255-1.839c-.393-1.03.393-1.03.471-1.914,0-.293-.393-.515-.471-.809,0-.073.157-1.178.235-1.03-.313-.663-1.648-.59-1.805-1.178a5.455,5.455,0,0,1,.786-1.841,2.367,2.367,0,0,1,1.568-.146" transform="translate(260.102 -1238.335)" fill="#58a65e"/>
          </g>
          <g id="Grupo_89609" data-name="Grupo 89609" transform="translate(0.221 1.464)">
            <path id="Trazado_152385" data-name="Trazado 152385" d="M-312.228,1258.227a13.039,13.039,0,0,0-.325,3.05c-.077,1.177-.424,3.035.472,3.165.942.146.629-.736.785-1.178.864.442.313.884.471,1.472a2.821,2.821,0,0,0,.943,1.4c1.02,1.1,1.726.956,3.139,1.324,1.255.294,1.491,1.25,2.591,1.767,1.412.588,1.883.515,1.648,2.06a4.537,4.537,0,0,0,1.57,4.563c.785.662,1.727.368,2.356.809.861.516.548,1.252.784,2.062.549,1.545,1.884,3.017,2.668,4.415a5.861,5.861,0,0,0,4,2.87h0a7.273,7.273,0,0,1-1.726-1.693c-.471-.662-.785-1.471-.157-2.134.392-.294,1.1-.148,1.413-.515.235-.3,0-.736.156-1.1.393-.957,1.021-1.178,1.728-1.693,1.1-.735.707-.735.864-1.84.313-1.766,3.139-2.354.628-3.9a10.142,10.142,0,0,0-4.867-1.251c-.157-2.281-2.431-1.84-4.238-2.5-.864-.367-1.726-.662-2.59-1.03-1.256-.441-1.884-1.03-2.433.441-.705-.22-1.648.516-2.119-.294-.393-.588.549-1.325,0-1.914-.706-.735-1.1.3-1.492-.882-.236-.59.47-1.766-.706-1.693-.156,2.5-2.119.368-2.2-.957-.078-1.177.707-.957,1.491-1.251.393-.147,1.257-.884,1.649-.736.157.073,1.648,4.269,1.728,1.4,0-.662-.787-1.472-.393-2.134s1.255-.294,1.726-.661c.628-.516.864-1.547,1.492-2.062a17.481,17.481,0,0,1,2.355-1.766c.707-.515,1.648-.221,2.355-.662.943-.663.313-1.325,1.649-1.325.941.074,1.333.81,1.411-.588a2.977,2.977,0,0,0-.628-1.62c-.629-.661-1.178-1.323-1.726-1.986-.864-.957-1.1-.074-1.728-.589-.236-.148-1.256-1.839-.391-1.766.47.073.548.883,1.018.883.393,0,.393-.515.549-.589.393-.146,1.493-.589,1.648-.956.236-.81-.941-1.031-1.254-1.473-.393-.441-.236-.441-.393-.883-.156-.294.079-.442-.156-.735s-1.177.221-1.1-.368c.078-.295.865-.295,1.02-.368,2.277-1.03-.627-1.766-1.177-.882C-297.718,1241.922-308.547,1244.828-312.228,1258.227Z" transform="translate(312.683 -1241.528)" fill="#58a65e"/>
          </g>
          <g id="Grupo_89610" data-name="Grupo 89610" transform="translate(32.996 4.902)">
            <path id="Trazado_152386" data-name="Trazado 152386" d="M-214,1252.268c0-1.472-5.677-2.045-3.951.9.629.956.629.514.471,1.4-.077.369-.628.074-.471.662,0,.3.706.737.943.81,1.334.662,1.961.074,2.826,1.545h0l.077-.074v.074c-1.334.147-2.59.663-2.9,1.986-1.335.222-.785-1.03-1.1-1.691a1.321,1.321,0,0,0-2.354-.369c-1.02,1.914,3.06,2.8,2.59,4.195-1.02-.294-1.726-.146-1.726.884a4.551,4.551,0,0,1,.548.882c.08.442-.312.736-.156,1.252,1.1,2.649,2.982-1.619,3.768-1.987,1.414-.663,4.711,1.618,2.355,2.207-1.021.221-1.256-.736-2.2-.736-1.1,0-.941,1.251-1.725,1.693-.864.442-1.492-.073-2.2.883-.47.663-.549,1.472-1.1,2.135-.549.735-1.413,1.25-1.492,2.206-.078.883.551,1.472.707,2.282.157.956-.392,1.252.472,2.06a4.114,4.114,0,0,0,2.275.957c.786-.074,1.412-.589,2.276-.589a16.49,16.49,0,0,1,2.277-.295c.785.295.47,1.03.313,1.546a10.716,10.716,0,0,0-.548,2.28c-.157,1.1.461,1.514-1.1,4.048-.422.687-3.376,3.018-2.432,3.973.784.811,3.865-1.312,4.491-1.827a23.392,23.392,0,0,0,4.057-4.679,20.324,20.324,0,0,0,2.185-4.8c.707-2.8,1.566-5.986,1-9.361a22.325,22.325,0,0,0-2.863-8.327,21.31,21.31,0,0,0-2.745-3.753c-.983-1.03-1.232-1.929-2.565-2.371" transform="translate(221.801 -1251.06)" fill="#58a65e"/>
          </g>
        </g>
      </g>
      <g id="Grupo_89617" data-name="Grupo 89617" transform="translate(-739.085 1155.707)">
        <path id="Trazado_152387" data-name="Trazado 152387" d="M-216.217,1614.829h-38.7l-5.062-84.836h48.5Z" transform="translate(263.901 -1522.101)" fill="#1d8070"/>
        <rect id="Rectngulo_35100" data-name="Rectngulo 35100" width="3.919" height="24.717" rx="1.96" transform="translate(13.717 11.344)" fill="#4d7629"/>
        <path id="Rectngulo_35101" data-name="Rectngulo 35101" d="M1.96,0h0a1.96,1.96,0,0,1,1.96,1.96v20.8a1.96,1.96,0,0,1-1.96,1.96h0A1.959,1.959,0,0,1,0,22.757V1.96A1.96,1.96,0,0,1,1.96,0Z" transform="translate(25.72 11.344)" fill="#4d7629"/>
        <rect id="Rectngulo_35102" data-name="Rectngulo 35102" width="3.919" height="24.717" rx="1.96" transform="translate(37.723 11.344)" fill="#4d7629"/>
        <rect id="Rectngulo_35103" data-name="Rectngulo 35103" width="37.232" height="11.344" rx="5.306" transform="translate(9.308 0)" fill="#29b39d"/>
        <path id="Rectngulo_35104" data-name="Rectngulo 35104" d="M5.306,0H50.053a5.306,5.306,0,0,1,5.306,5.306v.239a5.306,5.306,0,0,1-5.306,5.306H5.305A5.305,5.305,0,0,1,0,5.546V5.306A5.306,5.306,0,0,1,5.306,0Z" transform="translate(0 5.919)" fill="#4d7629"/>
        <g id="Grupo_89616" data-name="Grupo 89616" transform="translate(14.279 45.127)">
          <g id="Grupo_89613" data-name="Grupo 89613" transform="translate(0 10.387)">
            <rect id="Rectngulo_35105" data-name="Rectngulo 35105" width="9.345" height="6.061" transform="translate(3.841 7.747)" fill="#fb0" stroke="#4e9b7e" stroke-linecap="round" stroke-linejoin="round" stroke-width="1"/>
            <path id="Trazado_152388" data-name="Trazado 152388" d="M-232.023,1670.948l2.889-5.572,5.337,2.8-4.324,8.341Z" transform="translate(232.023 -1662.834)" fill="#fb0" stroke="#4e9b7e" stroke-linecap="round" stroke-linejoin="round" stroke-width="1"/>
            <path id="Trazado_152389" data-name="Trazado 152389" d="M-228.275,1660.45l8.249,4.376s-1.449-6.22-1.784-6.308S-228.275,1660.45-228.275,1660.45Z" transform="translate(229.664 -1658.516)" fill="#fb0" stroke="#4e9b7e" stroke-linecap="round" stroke-linejoin="round" stroke-width="1"/>
          </g>
          <g id="Grupo_89614" data-name="Grupo 89614" transform="translate(13.242 9.445)">
            <path id="Trazado_152390" data-name="Trazado 152390" d="M-179.547,1655.973l4.437,8.281-5.3,2.877-4.437-8.281Z" transform="translate(189.085 -1655.973)" fill="#fb0" stroke="#4e9b7e" stroke-linecap="round" stroke-linejoin="round" stroke-width="1"/>
            <path id="Trazado_152391" data-name="Trazado 152391" d="M-177.828,1684.434l-6.243.086-.082-6.06,9.344-.129Z" transform="translate(188.649 -1670.046)" fill="#fb0" stroke="#4e9b7e" stroke-linecap="round" stroke-linejoin="round" stroke-width="1"/>
            <path id="Trazado_152392" data-name="Trazado 152392" d="M-191.528,1683.452l-.09-9.387s-4.75,4.238-4.668,4.576S-191.528,1683.452-191.528,1683.452Z" transform="translate(196.287 -1667.361)" fill="#fb0" stroke="#4e9b7e" stroke-linecap="round" stroke-linejoin="round" stroke-width="1"/>
          </g>
          <g id="Grupo_89615" data-name="Grupo 89615" transform="translate(5.013)">
            <path id="Trazado_152393" data-name="Trazado 152393" d="M-218.5,1638.761l5.089-7.891,5.049,3.3-5.089,7.891Z" transform="translate(218.495 -1630.727)" fill="#fb0" stroke="#4e9b7e" stroke-linecap="round" stroke-linejoin="round" stroke-width="1"/>
            <path id="Trazado_152394" data-name="Trazado 152394" d="M-197.811,1630.484l3.069,5.474-5.242,2.979-4.594-8.193Z" transform="translate(209.735 -1630.484)" fill="#fb0" stroke="#4e9b7e" stroke-linecap="round" stroke-linejoin="round" stroke-width="1"/>
            <path id="Trazado_152395" data-name="Trazado 152395" d="M-188.288,1642.732l-8.138,4.582s5.971,2.164,6.226,1.929S-188.288,1642.732-188.288,1642.732Z" transform="translate(204.603 -1638.194)" fill="#fb0" stroke="#4e9b7e" stroke-linecap="round" stroke-linejoin="round" stroke-width="1"/>
          </g>
        </g>
      </g>
    </g>
  </g>
</svg>
