<svg xmlns="http://www.w3.org/2000/svg" xmlns:xlink="http://www.w3.org/1999/xlink" width="138" height="138" viewBox="0 0 138 138">
  <defs>
    <filter id="Elipse_4655" x="0" y="0" width="138" height="138" filterUnits="userSpaceOnUse">
      <feOffset dy="3" input="SourceAlpha"/>
      <feGaussianBlur stdDeviation="3" result="blur"/>
      <feFlood flood-opacity="0.161"/>
      <feComposite operator="in" in2="blur"/>
      <feComposite in="SourceGraphic"/>
    </filter>
  </defs>
  <g id="Grupo_90180" data-name="Grupo 90180" transform="translate(-561.668 -1517)">
    <g id="Grupo_90178" data-name="Grupo 90178">
      <g transform="matrix(1, 0, 0, 1, 561.67, 1517)" filter="url(#Elipse_4655)">
        <g id="Elipse_4655-2" data-name="Elipse 4655" transform="translate(9 6)" fill="#fff" stroke="#7ae582" stroke-width="4">
          <circle cx="60" cy="60" r="60" stroke="none"/>
          <circle cx="60" cy="60" r="58" fill="none"/>
        </g>
      </g>
      <g id="libro-guia" transform="translate(597.82 1546.504)">
        <g id="Grupo_89693" data-name="Grupo 89693" transform="translate(1.217 1.217)">
          <path id="Trazado_152534" data-name="Trazado 152534" d="M8,425.217h.109A6.686,6.686,0,0,1,8,424Zm0,0" transform="translate(-8 -360.738)" fill="#29b39d"/>
          <path id="Trazado_152535" data-name="Trazado 152535" d="M15.3,308.166h2.433V296H15.3A7.3,7.3,0,0,0,8,303.3v12.166A7.31,7.31,0,0,1,15.3,308.166Zm0,0" transform="translate(-8 -252.203)" fill="#29b39d"/>
          <path id="Trazado_152536" data-name="Trazado 152536" d="M72,18.949V63.963h53.53V8H72ZM84.409,33.317l.009.01A14.6,14.6,0,0,1,92,23.05a14.211,14.211,0,0,1,8.74-1.518l.006-.016-.006.016a14.58,14.58,0,0,1-1.259,29.012v0c-.243.012-.473.036-.714.036a14.6,14.6,0,0,1-13.606-9.337h0a14.315,14.315,0,0,1-.74-7.917Zm0,0" transform="translate(-62.267 -8)" fill="#29b39d"/>
          <path id="Trazado_152537" data-name="Trazado 152537" d="M15.3,234.949h2.433V224H15.3A7.3,7.3,0,0,0,8,231.3v10.949A7.3,7.3,0,0,1,15.3,234.949Zm0,0" transform="translate(-8 -191.152)" fill="#29b39d"/>
          <path id="Trazado_152538" data-name="Trazado 152538" d="M15.3,162.949h2.433V152H15.3A7.3,7.3,0,0,0,8,159.3v10.949A7.3,7.3,0,0,1,15.3,162.949Zm0,0" transform="translate(-8 -130.102)" fill="#29b39d"/>
          <path id="Trazado_152539" data-name="Trazado 152539" d="M15.3,18.949h2.433V8H15.3A7.3,7.3,0,0,0,8,15.3V26.249A7.3,7.3,0,0,1,15.3,18.949Zm0,0" transform="translate(-8 -8)" fill="#29b39d"/>
          <path id="Trazado_152540" data-name="Trazado 152540" d="M15.3,90.949h2.433V80H15.3A7.3,7.3,0,0,0,8,87.3V98.249A7.3,7.3,0,0,1,15.3,90.949Zm0,0" transform="translate(-8 -69.051)" fill="#29b39d"/>
          <path id="Trazado_152541" data-name="Trazado 152541" d="M256.433,217.115c-.985-.852-1.119-1.91-2.433-2.433a4.7,4.7,0,0,0-4.866,1.217c-1.192,1.253-1.119,2.847-1.217,4.866a12.569,12.569,0,0,0,.714,4.83,14.585,14.585,0,0,0,12.056-7.494A5.4,5.4,0,0,1,256.433,217.115Zm0,0" transform="translate(-211.419 -183.05)" fill="#7ae582"/>
          <path id="Trazado_152542" data-name="Trazado 152542" d="M164.36,130.849c-.511-1.545-2.579-1.448-3.65-3.65a5.638,5.638,0,0,1,0-4.866c1.034-1.971,2.822-1.654,3.65-3.65a5.843,5.843,0,0,0,0-3.65c-.535-2.4-1.679-3.224-2.433-4.866a7.738,7.738,0,0,1-.68-3.2,14.6,14.6,0,0,0-7.583,10.276,3.3,3.3,0,0,0,2.18,1.438c1.01.109,2-.5,2.433,0,.706.8-1.01,3.346-1.217,3.65a12.122,12.122,0,0,1-2.657,2.829,14.644,14.644,0,0,0,9.168,8.649A7.448,7.448,0,0,0,164.36,130.849Zm0,0" transform="translate(-131.513 -91.918)" fill="#7ae582"/>
          <path id="Trazado_152543" data-name="Trazado 152543" d="M257.164,104.141c1.338,1.338,3.321,1.156,4.866,1.217a16.06,16.06,0,0,1,6.664,1.825,14.6,14.6,0,0,0-11.987-10.19,7.931,7.931,0,0,0-.76,3.5A5.154,5.154,0,0,0,257.164,104.141Zm0,0" transform="translate(-218.233 -83.459)" fill="#7ae582"/>
        </g>
        <path id="Trazado_152544" data-name="Trazado 152544" d="M81.879,404.866H35.649a1.227,1.227,0,0,1-1.191-1.01,1.009,1.009,0,0,1-.026-.207,1.161,1.161,0,0,1,.347-.852,1.193,1.193,0,0,1,.87-.365H59.981a1.217,1.217,0,0,0,0-2.433H35.649a3.63,3.63,0,0,0-2.59,1.084A3.587,3.587,0,0,0,32,403.65a3.326,3.326,0,0,0,.061.623,3.665,3.665,0,0,0,3.589,3.027h46.23a1.217,1.217,0,0,0,0-2.433Zm0,0" transform="translate(-27.133 -339.171)"/>
        <path id="Trazado_152545" data-name="Trazado 152545" d="M64.479,0H8.516A8.527,8.527,0,0,0,0,8.516V65.7a1.077,1.077,0,0,0,.211.6,8.462,8.462,0,0,0,8.3,6.7H64.479A1.217,1.217,0,0,0,65.7,71.778V1.217A1.217,1.217,0,0,0,64.479,0ZM63.262,55.963h-51.1V2.433h51.1ZM2.433,8.516A6.09,6.09,0,0,1,8.516,2.433H9.733v8.516H8.516a8.482,8.482,0,0,0-6.083,2.568Zm0,10.949a6.09,6.09,0,0,1,6.083-6.083H9.733V21.9H8.516a8.482,8.482,0,0,0-6.083,2.568Zm0,10.949a6.09,6.09,0,0,1,6.083-6.083H9.733v8.516H8.516a8.482,8.482,0,0,0-6.083,2.568Zm0,10.949a6.09,6.09,0,0,1,6.083-6.083H9.733V43.8H8.516a8.482,8.482,0,0,0-6.083,2.568Zm0,17.154v-6.2A6.09,6.09,0,0,1,8.516,46.23H9.733v9.733H8.516A8.4,8.4,0,0,0,2.5,58.456ZM8.516,70.562a6.05,6.05,0,0,1-5.994-5.089,5.364,5.364,0,0,1-.089-.994A6.094,6.094,0,0,1,8.516,58.4H63.262v2.414c-2.87.02-10.92.02-20.682.02a1.217,1.217,0,1,0,0,2.433c6.489,0,19.605-.01,20.682-.048v7.347Zm0,0"/>
        <path id="Trazado_152546" data-name="Trazado 152546" d="M144.257,101.06a15.332,15.332,0,0,0,.768,8.3.9.9,0,0,0,.043.122,15.872,15.872,0,0,0,9.941,9.4l.022.008a15.764,15.764,0,0,0,4.786.738c.222,0,.437-.024.656-.033.021,0,.042.008.062.008s.07-.015.1-.017a15.815,15.815,0,0,0,12.993-8.1,1.163,1.163,0,0,0,.1-.163A15.768,15.768,0,0,0,174.945,99.2a.067.067,0,0,0-.01-.042,15.852,15.852,0,0,0-12.978-11,1.3,1.3,0,0,0-.15-.021,15.346,15.346,0,0,0-9.17,1.6,1.066,1.066,0,0,0-.166.08,16.279,16.279,0,0,0-4.365,3.385,15.583,15.583,0,0,0-3.833,7.727A.947.947,0,0,0,144.257,101.06Zm2.177,2.755c0-.109.014-.215.016-.325a3.641,3.641,0,0,0,1.07.318,4.78,4.78,0,0,0,1.355-.079,10.135,10.135,0,0,1-1.021,1.844,10.272,10.272,0,0,1-1.05,1.316A13.266,13.266,0,0,1,146.433,103.814Zm14.977,13.278a11.245,11.245,0,0,1-.378-3.487l.027-.645c.071-1.745.141-2.689.86-3.444a3.516,3.516,0,0,1,3.528-.922c.444.176.637.434,1,.952a6.422,6.422,0,0,0,1.089,1.272,5.513,5.513,0,0,0,2.821,1.207A13.369,13.369,0,0,1,161.411,117.092Zm10.106-19.758a16.092,16.092,0,0,0-4.354-.82c-.225-.01-.46-.014-.7-.017a4.743,4.743,0,0,1-3.354-.844,4.04,4.04,0,0,1-.86-2.812,6.581,6.581,0,0,1,.324-2.122A13.426,13.426,0,0,1,171.517,97.334Zm-11.391-6.887a8.921,8.921,0,0,0-.31,2.433,6.352,6.352,0,0,0,1.573,4.49,6.814,6.814,0,0,0,5.034,1.556c.22,0,.437.007.648.016a14.794,14.794,0,0,1,5.675,1.479,13.121,13.121,0,0,1-.928,9.268,3.911,3.911,0,0,1-2.692-.718,4.218,4.218,0,0,1-.684-.825,4.442,4.442,0,0,0-2.095-1.818,5.875,5.875,0,0,0-6.2,1.509c-1.379,1.45-1.449,3.185-1.523,5.021l-.028.628a13.714,13.714,0,0,0,.324,3.664,13.255,13.255,0,0,1-1.779-.224,3.726,3.726,0,0,0,.175-2.546,4.032,4.032,0,0,0-2.005-2.157,3.851,3.851,0,0,1-1.7-1.644,4.421,4.421,0,0,1-.015-3.772,3.211,3.211,0,0,1,1.4-1.31,4.954,4.954,0,0,0,2.294-2.444,6.964,6.964,0,0,0,.061-4.38,10.119,10.119,0,0,0-1.686-3.7,10.343,10.343,0,0,1-.829-1.406,6.293,6.293,0,0,1-.487-1.959,13.279,13.279,0,0,1,5.464-1.174C159.92,90.432,160.021,90.445,160.126,90.448Zm-8.056,2.473a8.391,8.391,0,0,0,.558,1.669,12.437,12.437,0,0,0,1.011,1.733,7.722,7.722,0,0,1,1.338,2.9,4.685,4.685,0,0,1,.062,2.913,2.642,2.642,0,0,1-1.307,1.3,5.536,5.536,0,0,0-2.288,2.251,6.8,6.8,0,0,0-.018,5.968,6.2,6.2,0,0,0,2.608,2.647c.624.387.888.571.981.852a1.608,1.608,0,0,1-.188,1.074,13.441,13.441,0,0,1-7.141-6.8,13.016,13.016,0,0,0,2.19-2.494c1.631-2.4,2.01-4.129,1.124-5.137a2.3,2.3,0,0,0-2.359-.5,3.34,3.34,0,0,1-.851.092,1.786,1.786,0,0,1-1-.575A13.4,13.4,0,0,1,152.07,92.921Zm0,0" transform="translate(-122.102 -74.616)"/>
      </g>
    </g>
  </g>
</svg>
