<svg xmlns="http://www.w3.org/2000/svg" width="79.999" height="80" viewBox="0 0 79.999 80">
  <g id="certificado" transform="translate(-0.004)">
    <path id="Trazado_151575" data-name="Trazado 151575" d="M75.316,86.875H13.129A3.125,3.125,0,0,1,10,83.75V13.125A3.125,3.125,0,0,1,13.129,10H75.316a3.125,3.125,0,0,1,3.125,3.125V83.75A3.125,3.125,0,0,1,75.316,86.875Z" transform="translate(-8.438 -8.438)" fill="#fb0"/>
    <path id="Trazado_151588" data-name="Trazado 151588" d="M0,0H53.439V61.875H0Z" transform="translate(9.066 9.063)" fill="#fff"/>
    <path id="Trazado_151576" data-name="Trazado 151576" d="M384,310.7v14.688l-5-4.974-5,4.974V310.7Z" transform="translate(-315.558 -262.149)" fill="#7ae582"/>
    <path id="Trazado_151577" data-name="Trazado 151577" d="M326.6,119.156h0a2.983,2.983,0,0,1,4.26,1.141h0a2.983,2.983,0,0,0,2.789,1.61h0a2.983,2.983,0,0,1,3.118,3.118h0a2.983,2.983,0,0,0,1.61,2.789h0a2.983,2.983,0,0,1,1.141,4.26h0a2.983,2.983,0,0,0,0,3.22h0a2.983,2.983,0,0,1-1.141,4.26h0a2.983,2.983,0,0,0-1.61,2.789h0a2.983,2.983,0,0,1-3.118,3.118h0a2.983,2.983,0,0,0-2.789,1.61h0a2.983,2.983,0,0,1-4.26,1.141h0a2.983,2.983,0,0,0-3.22,0h0a2.983,2.983,0,0,1-4.26-1.141h0a2.983,2.983,0,0,0-2.789-1.61h0a2.983,2.983,0,0,1-3.118-3.118h0a2.983,2.983,0,0,0-1.61-2.789h0a2.983,2.983,0,0,1-1.141-4.26h0a2.983,2.983,0,0,0,0-3.22h0a2.983,2.983,0,0,1,1.141-4.26h0a2.983,2.983,0,0,0,1.61-2.789h0a2.983,2.983,0,0,1,3.118-3.118h0a2.983,2.983,0,0,0,2.789-1.61h0a2.983,2.983,0,0,1,4.26-1.141h0A2.984,2.984,0,0,0,326.6,119.156Z" transform="translate(-261.553 -100.139)" fill="#29b39d"/>
    <path id="Trazado_151578" data-name="Trazado 151578" d="M70,69.375a1.562,1.562,0,0,0-1.562,1.563v4.375a1.564,1.564,0,0,1-1.562,1.563H4.691a1.564,1.564,0,0,1-1.562-1.562V4.688A1.564,1.564,0,0,1,4.691,3.125H66.879a1.564,1.564,0,0,1,1.563,1.563v8.281a1.563,1.563,0,0,0,3.125,0V4.688A4.693,4.693,0,0,0,66.879,0H4.691A4.693,4.693,0,0,0,0,4.688V75.313A4.693,4.693,0,0,0,4.691,80H66.879a4.693,4.693,0,0,0,4.688-4.687V70.938A1.562,1.562,0,0,0,70,69.375Z"/>
    <path id="Trazado_151579" data-name="Trazado 151579" d="M103,55.188a1.562,1.562,0,0,0,1.563-1.562V49.563A1.562,1.562,0,0,0,103,48H49.561A1.562,1.562,0,0,0,48,49.563V82.219a1.563,1.563,0,0,0,3.125,0V51.125h50.314v2.5A1.563,1.563,0,0,0,103,55.188Z" transform="translate(-40.495 -40.5)"/>
    <path id="Trazado_151580" data-name="Trazado 151580" d="M49.557,297.125a1.563,1.563,0,1,0-1.1-.458A1.571,1.571,0,0,0,49.557,297.125Z" transform="translate(-40.492 -248.063)"/>
    <path id="Trazado_151581" data-name="Trazado 151581" d="M51.123,334.063a1.563,1.563,0,0,0-3.125,0v17.422a1.562,1.562,0,0,0,1.563,1.563H103a1.562,1.562,0,0,0,1.563-1.562v-3.437a1.563,1.563,0,0,0-3.125,0v1.875H51.123Z" transform="translate(-40.495 -280.547)"/>
    <path id="Trazado_151582" data-name="Trazado 151582" d="M235.771,350.864l-3.088,3.088-1.92-1.92a3.112,3.112,0,0,0-4.4,0l-1.249,1.249a1.563,1.563,0,0,0,2.21,2.21l1.237-1.237,1.92,1.92a3.112,3.112,0,0,0,4.4,0l3.1-3.1a1.563,1.563,0,0,0-2.21-2.21Z" transform="translate(-189.555 -295.655)"/>
    <path id="Trazado_151583" data-name="Trazado 151583" d="M176.969,124.487A4.546,4.546,0,0,0,175.23,118a1.424,1.424,0,0,1-.767-1.328,4.545,4.545,0,0,0-4.752-4.752,1.42,1.42,0,0,1-1.328-.767,4.546,4.546,0,0,0-6.491-1.739h0a1.424,1.424,0,0,1-1.533,0,4.546,4.546,0,0,0-6.491,1.739,1.427,1.427,0,0,1-1.328.767,4.546,4.546,0,0,0-4.752,4.752,1.424,1.424,0,0,1-.767,1.328,4.536,4.536,0,0,0-2.414,4.65H117.341a1.563,1.563,0,0,0,0,3.125H145.4a1.406,1.406,0,0,1-.123.249,4.556,4.556,0,0,0-.564,3.63,4.489,4.489,0,0,0,.165.5H117.34a1.563,1.563,0,0,0,0,3.125h30.354a1.412,1.412,0,0,1,.093.569,4.546,4.546,0,0,0,4.752,4.752,1.423,1.423,0,0,1,1.328.767,4.534,4.534,0,0,0,.7.991v14.593a1.562,1.562,0,0,0,2.665,1.108l3.9-3.878,3.9,3.878a1.563,1.563,0,0,0,2.665-1.108V140.349a4.531,4.531,0,0,0,.7-.991,1.426,1.426,0,0,1,1.328-.767,4.546,4.546,0,0,0,4.752-4.752,1.424,1.424,0,0,1,.767-1.328,4.546,4.546,0,0,0,1.739-6.491A1.423,1.423,0,0,1,176.969,124.487ZM162.227,148.86a1.562,1.562,0,0,0-2.2,0l-2.335,2.323V141.81a4.557,4.557,0,0,0,2.671-.713,1.424,1.424,0,0,1,1.533,0,4.554,4.554,0,0,0,2.456.718c.072,0,.143,0,.215-.007v9.375Zm12.111-21.153a1.421,1.421,0,0,1-.544,2.029,4.558,4.558,0,0,0-2.453,4.249,1.421,1.421,0,0,1-1.485,1.485,4.557,4.557,0,0,0-4.249,2.453,1.421,1.421,0,0,1-2.029.544,4.558,4.558,0,0,0-4.907,0,1.421,1.421,0,0,1-2.029-.544,4.556,4.556,0,0,0-4.249-2.453,1.421,1.421,0,0,1-1.485-1.485,4.556,4.556,0,0,0-1.237-3.327c-.024-.027-.049-.053-.075-.078a4.519,4.519,0,0,0-1.141-.844,1.421,1.421,0,0,1-.543-2.029,4.558,4.558,0,0,0,0-4.907,1.421,1.421,0,0,1,.544-2.029,4.558,4.558,0,0,0,2.453-4.249,1.421,1.421,0,0,1,1.485-1.485,4.557,4.557,0,0,0,4.249-2.453,1.421,1.421,0,0,1,2.029-.544,4.557,4.557,0,0,0,4.907,0,1.421,1.421,0,0,1,2.029.544,4.557,4.557,0,0,0,4.249,2.453,1.421,1.421,0,0,1,1.485,1.485,4.558,4.558,0,0,0,2.453,4.249,1.421,1.421,0,0,1,.543,2.029A4.558,4.558,0,0,0,174.338,127.707Z" transform="translate(-97.684 -91.708)"/>
    <path id="Trazado_151584" data-name="Trazado 151584" d="M385.856,185.015,380.67,190.2l-2.065-2.065a1.563,1.563,0,0,0-2.21,2.21l3.169,3.169a1.562,1.562,0,0,0,2.21,0l6.291-6.291a1.563,1.563,0,0,0-2.21-2.21Z" transform="translate(-317.195 -155.72)"/>
    <path id="Trazado_151585" data-name="Trazado 151585" d="M108.129,119.563a1.563,1.563,0,1,0-.458,1.1A1.574,1.574,0,0,0,108.129,119.563Z" transform="translate(-88.594 -99.563)"/>
    <path id="Trazado_151586" data-name="Trazado 151586" d="M143.893,118a1.563,1.563,0,0,0,0,3.125h7.6a1.563,1.563,0,1,0,0-3.125Z" transform="translate(-120.088 -99.563)"/>
    <path id="Trazado_151587" data-name="Trazado 151587" d="M197.941,294H180.079a1.563,1.563,0,1,0,0,3.125h17.863a1.563,1.563,0,0,0,0-3.125Z" transform="translate(-150.62 -248.063)"/>
  </g>
</svg>
