<svg xmlns="http://www.w3.org/2000/svg" width="80" height="75.548" viewBox="0 0 80 75.548">
  <g id="sostenible" transform="translate(0 -14.247)">
    <g id="Grupo_86382" data-name="Grupo 86382" transform="translate(1.172 15.418)">
      <g id="Grupo_86381" data-name="Grupo 86381" transform="translate(0 4.519)">
        <path id="Trazado_151624" data-name="Trazado 151624" d="M146.5,202.208l-8.441-9.361a.774.774,0,0,0-1.15,0l-8.441,9.361a.774.774,0,0,0,.575,1.293h4.18a.777.777,0,0,1,.775.8,26.142,26.142,0,0,1-48.3,13.041.965.965,0,0,0-1.535-.131l-3.469,3.845a.972.972,0,0,0-.075,1.2,33.089,33.089,0,0,0,60.335-18.008.772.772,0,0,1,.773-.751h4.2A.774.774,0,0,0,146.5,202.208Z" transform="translate(-69.043 -170.415)" fill="#29b39d"/>
        <path id="Trazado_151625" data-name="Trazado 151625" d="M46.328,50.665A33.086,33.086,0,0,0,13.242,83.75H8.275A.774.774,0,0,0,7.7,85.043L16.141,94.4a.774.774,0,0,0,1.15,0l8.441-9.361a.774.774,0,0,0-.575-1.293H20.19a26.141,26.141,0,0,1,48.316-13.84.966.966,0,0,0,1.535.131l3.469-3.847a.972.972,0,0,0,.075-1.2A33.052,33.052,0,0,0,46.328,50.665Z" transform="translate(-7.499 -50.665)" fill="#29b39d"/>
      </g>
      <path id="Trazado_151626" data-name="Trazado 151626" d="M298.7,191.411a1.594,1.594,0,0,0-.847-1.466,8.088,8.088,0,0,0-11.878,6.857,1.594,1.594,0,0,0,.847,1.466,8.088,8.088,0,0,0,11.878-6.857Z" transform="translate(-242.465 -162.864)" fill="#29b39d"/>
      <path id="Trazado_151627" data-name="Trazado 151627" d="M144.575,191.411a1.594,1.594,0,0,1,.847-1.466A8.088,8.088,0,0,1,157.3,196.8a1.594,1.594,0,0,1-.847,1.466,8.088,8.088,0,0,1-11.878-6.857Z" transform="translate(-123.156 -162.864)" fill="#29b39d"/>
      <path id="Trazado_151634" data-name="Trazado 151634" d="M12.11,0A12.11,12.11,0,1,1,0,12.11,12.11,12.11,0,0,1,12.11,0Z" transform="translate(26.718 0)" fill="#fb0"/>
      <path id="Trazado_151629" data-name="Trazado 151629" d="M158.485,332.029h29.149a.785.785,0,0,0,.785-.785V303.512a.785.785,0,0,0-.785-.785H158.485a.785.785,0,0,0-.785.785v27.732A.785.785,0,0,0,158.485,332.029Z" transform="translate(-134.231 -258.823)" fill="#fb0"/>
      <path id="Trazado_151631" data-name="Trazado 151631" d="M230.1,302.727v9.335a.339.339,0,0,0,.542.272l3.3-2.455a.339.339,0,0,1,.4,0l3.3,2.455a.339.339,0,0,0,.542-.272v-9.335Z" transform="translate(-195.316 -258.823)" fill="#7ae582"/>
    </g>
    <g id="Grupo_86383" data-name="Grupo 86383" transform="translate(0 14.247)">
      <path id="Trazado_151632" data-name="Trazado 151632" d="M79.5,50.945l-8.443-9.362a1.947,1.947,0,0,0-2.89,0l-8.44,9.36a1.922,1.922,0,0,0-.334,2.093,1.948,1.948,0,0,0,1.779,1.156h3.768a24.761,24.761,0,0,1-8.407,17.538V60.107a1.959,1.959,0,0,0-1.957-1.957H41.17v-.694a6.571,6.571,0,0,1,3.524-5.776,2.709,2.709,0,0,0,.286.177,9.26,9.26,0,0,0,13.6-7.85,2.782,2.782,0,0,0-1.469-2.544,9.26,9.26,0,0,0-13.6,7.85,2.726,2.726,0,0,0,.01.338,9.116,9.116,0,0,0-2.352,1.821V40.755a13.312,13.312,0,0,0,11.5-9.246,25.081,25.081,0,0,1,8.514,8.3,2.139,2.139,0,0,0,3.4.293l3.47-3.849a2.14,2.14,0,0,0,.168-2.653A34.538,34.538,0,0,0,51.389,20.706a13.272,13.272,0,0,0-22.784.006,34.4,34.4,0,0,0-13.132,8.394,1.172,1.172,0,0,0,1.678,1.636,32.1,32.1,0,0,1,10.116-6.988,13.166,13.166,0,0,0-.453,5.348,27.212,27.212,0,0,0-14.124,23.92,1.172,1.172,0,0,0,1.172,1.172h4.073l-7.546,8.37L2.84,54.194H6.913a1.172,1.172,0,0,0,1.172-1.172,31.716,31.716,0,0,1,5.708-18.217,1.172,1.172,0,0,0-1.923-1.34A34.023,34.023,0,0,0,5.761,51.851H1.946A1.946,1.946,0,0,0,.5,55.1l8.443,9.363a1.947,1.947,0,0,0,2.89,0l8.439-9.36a1.946,1.946,0,0,0-1.444-3.251H15.06A24.865,24.865,0,0,1,27.327,31.509a13.311,13.311,0,0,0,11.5,9.247V51.472a9.435,9.435,0,0,0-2.352-1.821,2.724,2.724,0,0,0,.01-.337,9.26,9.26,0,0,0-13.6-7.851,2.782,2.782,0,0,0-1.469,2.544,9.25,9.25,0,0,0,13.6,7.85,2.711,2.711,0,0,0,.286-.177l.285.164a6.5,6.5,0,0,1,3.24,5.611v.694h-13.4a1.959,1.959,0,0,0-1.957,1.957V71.733a24.942,24.942,0,0,1-4.654-5.491,2.136,2.136,0,0,0-3.4-.294l-3.468,3.845a2.134,2.134,0,0,0-.17,2.653A34.52,34.52,0,0,0,23.467,83.03v4.808a1.959,1.959,0,0,0,1.957,1.957H44.267a1.172,1.172,0,0,0,0-2.344H25.811V60.494h8.968v8.163a1.511,1.511,0,0,0,2.413,1.213L40,67.784,42.8,69.87a1.511,1.511,0,0,0,2.413-1.213V60.494h8.968V87.451h-4.45a1.172,1.172,0,0,0,0,2.344h4.837a1.959,1.959,0,0,0,1.957-1.957V83.032A34.281,34.281,0,0,0,74.235,54.194h3.816A1.946,1.946,0,0,0,79.5,50.945ZM49.308,43.651a6.885,6.885,0,0,1,6.7-.118.425.425,0,0,1,.224.388,6.913,6.913,0,0,1-9.064,6.328l4.99-2.881a1.172,1.172,0,1,0-1.172-2.03L46,48.221A6.872,6.872,0,0,1,49.308,43.651ZM27.214,49.669a6.884,6.884,0,0,1-3.454-5.747.425.425,0,0,1,.224-.388A6.913,6.913,0,0,1,34,48.22l-4.991-2.882a1.172,1.172,0,0,0-1.172,2.03l4.99,2.881a6.872,6.872,0,0,1-5.61-.581ZM66.2,34.8,63.022,38.33A27.418,27.418,0,0,0,53.183,29.1a13.17,13.17,0,0,0-.453-5.35A32.23,32.23,0,0,1,66.2,34.8ZM29.061,27.528A10.938,10.938,0,1,1,40,38.466,10.95,10.95,0,0,1,29.061,27.528ZM13.794,71.244l3.18-3.525a27.264,27.264,0,0,0,6.493,7.042v5.565a32.2,32.2,0,0,1-9.673-9.082ZM42.874,67,40.9,65.534a1.5,1.5,0,0,0-1.8,0L37.123,67V60.494h5.751V67Zm30.974-15.15a1.955,1.955,0,0,0-1.945,1.9A31.933,31.933,0,0,1,56.529,80.324V74.76a27.573,27.573,0,0,0,7.522-8.794,26.993,26.993,0,0,0,3.243-12.1,1.949,1.949,0,0,0-1.946-2.011H62.063l7.546-8.369,7.547,8.369H73.848Z" transform="translate(0 -14.247)"/>
      <path id="Trazado_151633" data-name="Trazado 151633" d="M232.72,61.272v-.948a4.007,4.007,0,0,0,3.3-3.113c.249-1.393-.39-3.214-2.927-4.15l-.46-.169a18.267,18.267,0,0,1-2.39-.979.665.665,0,0,1-.327-.689,1.235,1.235,0,0,1,.94-1.026,3.562,3.562,0,0,1,2.953.679,1.172,1.172,0,0,0,1.5-1.8,6.433,6.433,0,0,0-2.595-1.22v-.973a1.172,1.172,0,0,0-2.344,0V47.9c-.064.017-.128.033-.193.052a3.59,3.59,0,0,0-2.6,3.029,2.985,2.985,0,0,0,1.537,2.988,19.808,19.808,0,0,0,2.7,1.12l.458.169c.481.178,1.584.683,1.431,1.539a1.862,1.862,0,0,1-1.922,1.273,3.717,3.717,0,0,1-2.731-1.146,1.172,1.172,0,1,0-1.737,1.574,5.946,5.946,0,0,0,3.05,1.75v1.022a1.172,1.172,0,1,0,2.344,0Z" transform="translate(-191.55 -40.798)"/>
    </g>
  </g>
</svg>
