<svg xmlns="http://www.w3.org/2000/svg" xmlns:xlink="http://www.w3.org/1999/xlink" width="138" height="138" viewBox="0 0 138 138">
  <defs>
    <filter id="Elipse_4652" x="0" y="0" width="138" height="138" filterUnits="userSpaceOnUse">
      <feOffset dy="3" input="SourceAlpha"/>
      <feGaussianBlur stdDeviation="3" result="blur"/>
      <feFlood flood-opacity="0.161"/>
      <feComposite operator="in" in2="blur"/>
      <feComposite in="SourceGraphic"/>
    </filter>
  </defs>
  <g id="Grupo_90183" data-name="Grupo 90183" transform="translate(-730.668 -1982)">
    <g transform="matrix(1, 0, 0, 1, 730.67, 1982)" filter="url(#Elipse_4652)">
      <g id="Elipse_4652-2" data-name="Elipse 4652" transform="translate(9 6)" fill="#fff" stroke="#7ae582" stroke-width="4">
        <circle cx="60" cy="60" r="60" stroke="none"/>
        <circle cx="60" cy="60" r="58" fill="none"/>
      </g>
    </g>
    <g id="contrato" transform="translate(765.899 2007.904)">
      <g id="Grupo_89674" data-name="Grupo 89674" transform="translate(1.079 1.401)">
        <g id="Grupo_89671" data-name="Grupo 89671">
          <g id="Grupo_89665" data-name="Grupo 89665" transform="translate(4.407)">
            <path id="Trazado_152480" data-name="Trazado 152480" d="M39.487,71.753l42.492,2.842a1.438,1.438,0,0,0,1.531-1.339L87.594,12.2a1.438,1.438,0,0,0-1.339-1.531L43.763,7.826a1.438,1.438,0,0,0-1.531,1.339L38.148,70.222A1.438,1.438,0,0,0,39.487,71.753Z" transform="translate(-38.144 -7.822)" fill="#fb0"/>
          </g>
          <g id="Grupo_89670" data-name="Grupo 89670" transform="translate(0 7.319)">
            <g id="Grupo_89669" data-name="Grupo 89669">
              <g id="Grupo_89668" data-name="Grupo 89668">
                <g id="Grupo_89667" data-name="Grupo 89667">
                  <g id="Grupo_89666" data-name="Grupo 89666" transform="translate(0 0)">
                    <path id="Trazado_152481" data-name="Trazado 152481" d="M8.938,122.782H41.463l11.5-11.449V60.15a1.438,1.438,0,0,0-1.438-1.438H8.938A1.438,1.438,0,0,0,7.5,60.15v61.194A1.438,1.438,0,0,0,8.938,122.782Z" transform="translate(-7.5 -58.712)" fill="#ffda73"/>
                  </g>
                  <path id="Trazado_152482" data-name="Trazado 152482" d="M279.354,58.712H273.6a1.438,1.438,0,0,1,1.438,1.438v51.182L275,117.1l5.79-5.764V60.15A1.438,1.438,0,0,0,279.354,58.712Z" transform="translate(-235.328 -58.712)" fill="#ffda73"/>
                </g>
              </g>
            </g>
            <path id="Trazado_152483" data-name="Trazado 152483" d="M243.64,435.467v-10.1a1.438,1.438,0,0,1,1.438-1.438H255.14Z" transform="translate(-209.677 -371.397)" fill="#ffeec2"/>
          </g>
        </g>
        <g id="Grupo_89673" data-name="Grupo 89673" transform="translate(57.377 24.938)">
          <path id="Trazado_152484" data-name="Trazado 152484" d="M440.064,190.9l-4.8.024v-7.31a2.409,2.409,0,0,1,2.4-2.4h0a2.384,2.384,0,0,1,2.4,2.382V190.9Z" transform="translate(-431.117 -181.211)" fill="#fed23a"/>
          <path id="Trazado_152485" data-name="Trazado 152485" d="M438.03,406.443a7.88,7.88,0,0,1-2.331-5.589l-.009-10.639a.169.169,0,0,1,.168-.169l4.32-.021a.167.167,0,0,1,.168.167l.009,10.655a7.881,7.881,0,0,1-2.3,5.574Z" transform="translate(-431.482 -359.992)" fill="#54b1ff"/>
          <path id="Trazado_152486" data-name="Trazado 152486" d="M429.57,253.65h0a3.732,3.732,0,0,1-3.76-3.73V219.209a1.771,1.771,0,0,1,1.763-1.771l3.973-.02a1.771,1.771,0,0,1,1.78,1.771v30.7A3.772,3.772,0,0,1,429.57,253.65Z" transform="translate(-423.022 -212.21)" fill="#7ae582"/>
          <path id="Trazado_152487" data-name="Trazado 152487" d="M442.943,217.417l-3.419.017a1.77,1.77,0,0,1,1.54,1.754v30.7a3.763,3.763,0,0,1-1.943,3.289,3.734,3.734,0,0,0,1.845.474h0a3.772,3.772,0,0,0,3.755-3.763v-30.7A1.771,1.771,0,0,0,442.943,217.417Z" transform="translate(-434.42 -212.209)" fill="#7ae582"/>
          <path id="Trazado_152488" data-name="Trazado 152488" d="M418.635,247.925l-10.3.051a1.911,1.911,0,0,0-1.9,1.905,1.888,1.888,0,0,0,1.9,1.887l8.4-.042v11.145a1.888,1.888,0,0,0,1.9,1.887,1.911,1.911,0,0,0,1.9-1.905V249.811A1.888,1.888,0,0,0,418.635,247.925Z" transform="translate(-406.433 -238.33)" fill="#3ca8f4"/>
          <g id="Grupo_89672" data-name="Grupo 89672" transform="translate(6.65 9.595)">
            <path id="Trazado_152489" data-name="Trazado 152489" d="M458.219,247.925l-5.529.027-.024,3.784,3.65-.01v11.145a1.888,1.888,0,0,0,1.9,1.887,1.911,1.911,0,0,0,1.9-1.905V249.812A1.888,1.888,0,0,0,458.219,247.925Z" transform="translate(-452.666 -247.925)" fill="#3ca8f4"/>
          </g>
        </g>
      </g>
      <g id="Grupo_89675" data-name="Grupo 89675" transform="translate(0 0.322)">
        <path id="Trazado_152490" data-name="Trazado 152490" d="M53.669,3.17,11.176.328A2.52,2.52,0,0,0,8.5,2.671l-.332,4.97H2.517A2.52,2.52,0,0,0,0,10.158V71.352a2.52,2.52,0,0,0,2.517,2.517H35.042a1.09,1.09,0,0,0,.761-.314l4.91-4.888a1.07,1.07,0,0,0,.153.023l8.383.561a2.58,2.58,0,0,0,2.679-2.343L56.012,5.849a2.539,2.539,0,0,0-2.343-2.68ZM36.121,70.179V62.686a.36.36,0,0,1,.36-.36h7.465Zm13.655-3.417a.359.359,0,0,1-.383.335l-6.656-.445L47.3,62.105a1.078,1.078,0,0,0,.318-.764V10.159A2.52,2.52,0,0,0,45.1,7.642H33.887a1.079,1.079,0,0,0,0,2.157H45.1a.36.36,0,0,1,.36.36v50.01H36.48a2.52,2.52,0,0,0-2.517,2.517v9.026H2.517a.36.36,0,0,1-.36-.36V10.159a.36.36,0,0,1,.36-.36H28.142a1.079,1.079,0,0,0,0-2.157H10.327l.323-4.826a.359.359,0,0,1,.383-.335L53.525,5.323a.36.36,0,0,1,.335.383Z" transform="translate(0 -0.322)" fill="#060606"/>
        <path id="Trazado_152491" data-name="Trazado 152491" d="M86.273,237.047H56.853a1.079,1.079,0,1,0,0,2.157h29.42a1.079,1.079,0,0,0,0-2.157Z" transform="translate(-47.752 -203)" fill="#060606"/>
        <path id="Trazado_152492" data-name="Trazado 152492" d="M86.273,289.332H56.853a1.079,1.079,0,1,0,0,2.157h29.42a1.079,1.079,0,1,0,0-2.157Z" transform="translate(-47.752 -247.765)" fill="#060606"/>
        <path id="Trazado_152493" data-name="Trazado 152493" d="M55.774,185.841a1.079,1.079,0,0,0,1.079,1.079h29.42a1.079,1.079,0,0,0,0-2.157H56.853a1.079,1.079,0,0,0-1.079,1.079Z" transform="translate(-47.752 -158.235)" fill="#060606"/>
        <path id="Trazado_152494" data-name="Trazado 152494" d="M91.807,133.556a1.079,1.079,0,0,0,1.079,1.079h19.055a1.079,1.079,0,1,0,0-2.157H92.886A1.079,1.079,0,0,0,91.807,133.556Z" transform="translate(-78.603 -113.47)" fill="#060606"/>
        <path id="Trazado_152495" data-name="Trazado 152495" d="M73.7,394.338q-2.91.008-5.82.012l-1.956,0c-1.182,0-1.978-.236-2.242-1.536-.224-1.1-1.778-.951-2.08,0-.746,2.35-1.981,1.429-2.673-.151a22.129,22.129,0,0,1-1.168-5.02c-.221-1.233-2.086-.887-2.119.287a20.1,20.1,0,0,1-.58,4.568,36.652,36.652,0,0,1-1.614,4.513c-.525,1.289,1.563,1.843,2.08.574a41.66,41.66,0,0,0,1.466-3.986c.739,1.778,2.269,3.788,4.448,2.6a4.344,4.344,0,0,0,1.117-.9c1.133,1.31,2.82,1.206,4.4,1.2q3.371,0,6.743-.014A1.079,1.079,0,0,0,73.7,394.338Z" transform="translate(-45.686 -331.275)" fill="#060606"/>
        <path id="Trazado_152496" data-name="Trazado 152496" d="M414.86,184.882a3.1,3.1,0,0,0-2.114-.865l-.815,0v-1.542a2.986,2.986,0,0,0-1.357-2.425v-2.172c0-4.469-6.957-4.449-6.957.021v2.172a2.851,2.851,0,0,0-1.36,2.424v1.58c-3.591.245-3.6,5.716,0,5.93.023,4.829.022,9.579,0,14.489a1.079,1.079,0,0,0,2.157.011c.026-4.914.027-9.668,0-14.5l5.352-.027s-.007,15.943-.007,23.125c0,3.5-5.353,3.524-5.353-.036l0-1.967a1.079,1.079,0,0,0-2.154-.13v1.846a5.3,5.3,0,0,0,1.437,3.864,9.021,9.021,0,0,0,2.642,6.034,1.144,1.144,0,0,0,1.545-.026,8.9,8.9,0,0,0,2.613-6.1c.712-.709,1.425-1.423,1.425-3.868v-9.831a3.023,3.023,0,0,0,3.811-2.869V186.982A2.943,2.943,0,0,0,414.86,184.882Zm-10.445-.824V182.5a.693.693,0,0,1,.514-.666l4.318-.021a.681.681,0,0,1,.527.668v1.552Zm2.685-7.479a1.4,1.4,0,0,1,1.317,1.3v1.75l-2.642.013V177.9A1.331,1.331,0,0,1,407.1,176.579Zm0,43.709a6.882,6.882,0,0,1-1.067-2.36,4.692,4.692,0,0,0,2.138-.028A6.726,6.726,0,0,1,407.1,220.288Zm6.477-20.265a.824.824,0,0,1-1.647.019s0-10.208,0-11.144a1.088,1.088,0,0,0-1.087-1.08l-8.4.042a.818.818,0,0,1,.011-1.635l10.3-.051a.809.809,0,0,1,.818.808v13.041Z" transform="translate(-342.094 -149.484)" fill="#060606"/>
      </g>
    </g>
  </g>
</svg>
