<svg xmlns="http://www.w3.org/2000/svg" width="1240" height="496" viewBox="0 0 1240 496">
  <g id="Grupo_90177" data-name="Grupo 90177" transform="translate(-179.668 -1852.086)">
    <rect id="Rectángulo_34639" data-name="Rectángulo 34639" width="1240" height="496" rx="20" transform="translate(179.668 1852.086)" fill="#f6f6f6"/>
    <g id="Grupo_86289" data-name="Grupo 86289" transform="translate(359.965 2083.025)">
      <path id="Trazado_148717" data-name="Trazado 148717" d="M1372.583,1208.071a11.884,11.884,0,0,0-11.834,10.98H1168.67a11.867,11.867,0,0,0-23.667,0H953.221a11.867,11.867,0,0,0-23.667,0H736.287a11.867,11.867,0,0,0-23.667,0H520.837a11.868,11.868,0,1,0-.059,2.374h191.9a11.867,11.867,0,0,0,23.549,0H929.613a11.867,11.867,0,0,0,23.549,0h191.9a11.867,11.867,0,0,0,23.549,0h192.2a11.869,11.869,0,1,0,11.774-13.354ZM509,1229.438a9.5,9.5,0,1,1,9.5-9.5A9.507,9.507,0,0,1,509,1229.438Zm215.45,0a9.5,9.5,0,1,1,9.5-9.5A9.507,9.507,0,0,1,724.453,1229.438Zm216.934,0a9.5,9.5,0,1,1,9.5-9.5A9.507,9.507,0,0,1,941.387,1229.438Zm215.449,0a9.5,9.5,0,1,1,9.5-9.5A9.507,9.507,0,0,1,1156.837,1229.438Zm215.747,0a9.5,9.5,0,1,1,9.5-9.5A9.507,9.507,0,0,1,1372.583,1229.438Z" transform="translate(-497.133 -1208.071)" fill="#3ca8f4"/>
    </g>
  </g>
</svg>
