<svg id="ecosistema" xmlns="http://www.w3.org/2000/svg" width="80" height="80" viewBox="0 0 80 80">
  <g id="Grupo_89068" data-name="Grupo 89068" transform="translate(1.172 1.259)">
    <path id="Trazado_151308" data-name="Trazado 151308" d="M92.759,46.8c0,21.444-15.411,38.672-36.856,38.672-1,0-1.982.119-2.959.045q-1.1-.083-2.178-.226c-1.166-.154-2.316-2.333-3.447-2.588-1.478-.333-2.924,1.221-4.333.725A38.948,38.948,0,0,1,20.127,61.912c-1.965-4.645-1.079-9.753-1.079-15.114,0-8.638.848-16.618,5.619-23.067A38.783,38.783,0,0,1,52.945,8.081c.977-.074,1.963.045,2.959.045C77.348,8.126,92.759,25.354,92.759,46.8Z" transform="translate(-17.075 -8.057)" fill="#7ae582"/>
    <g id="Grupo_89067" data-name="Grupo 89067" transform="translate(0 11.638)">
      <path id="Trazado_151310" data-name="Trazado 151310" d="M7.5,109.645A38.7,38.7,0,0,0,10.527,124.7a3.074,3.074,0,0,0,5.905-1.2v-4.2a11.291,11.291,0,0,1,5.632-9.77l13.595-7.875a7.609,7.609,0,0,0,.127-13.093l-7.578-4.587a9.921,9.921,0,0,0-13.115,2.605A38.648,38.648,0,0,0,7.5,109.645Z" transform="translate(-7.5 -82.543)" fill="#29b39d"/>
      <path id="Trazado_151311" data-name="Trazado 151311" d="M153.393,291.047l-18.664-4.493a2.959,2.959,0,0,0-3.651,2.877V301a3.945,3.945,0,0,0,1.155,2.79l4.582,4.582a2.959,2.959,0,0,1,.867,2.092v7.872a38.588,38.588,0,0,0,7.779,1.864v-7.648a2.959,2.959,0,0,1,.867-2.092l8.177-8.177a3.945,3.945,0,0,0,1.155-2.79v-5.568A2.959,2.959,0,0,0,153.393,291.047Z" transform="translate(-111.769 -254.607)" fill="#29b39d"/>
      <path id="Trazado_151312" data-name="Trazado 151312" d="M255.337,96.141H250.75a3.513,3.513,0,1,1,0-7.026h4.587a3.513,3.513,0,1,1,0,7.026Z" transform="translate(-209.778 -88.088)" fill="#d1f19e"/>
      <path id="Trazado_151313" data-name="Trazado 151313" d="M326.212,184.588c0-4.644,1.156-9.1-.339-13.225h-23.16a7.18,7.18,0,0,0,0,14.359,6.45,6.45,0,0,1,6.45,6.449V203.28a6.53,6.53,0,0,0,11.822,3.833C325.517,200.761,326.212,192.986,326.212,184.588Z" transform="translate(-250.528 -157.485)" fill="#29b39d"/>
    </g>
    <path id="Trazado_151315" data-name="Trazado 151315" d="M270.693,249.443a13.554,13.554,0,0,1-13.673,13.673c-.478,0-.95.147-1.416.1a13.846,13.846,0,0,1-.3-27.513,14.339,14.339,0,0,1,1.717.066A13.554,13.554,0,0,1,270.693,249.443Z" transform="translate(-206.351 -200.117)" fill="#eef5f6"/>
    <path id="Trazado_151317" data-name="Trazado 151317" d="M282.253,294.741a6.2,6.2,0,0,0-5.723-1.874.8.8,0,0,0-.639.639c-.049.265-.238.377-.255.645a6.785,6.785,0,0,0,7.186,7.209c.276-.017.395-.206.667-.257a.8.8,0,0,0,.639-.639A6.2,6.2,0,0,0,282.253,294.741Z" transform="translate(-233.727 -248.27)" fill="#29b39d"/>
    <path id="Trazado_151319" data-name="Trazado 151319" d="M333.768,293.741a6.769,6.769,0,0,1,5.212-1.974c.276.017.395.206.667.257a.8.8,0,0,1,.639.639,6.663,6.663,0,0,1-7.6,7.6.8.8,0,0,1-.639-.639c-.049-.265-.238-.377-.255-.645A6.77,6.77,0,0,1,333.768,293.741Z" transform="translate(-281.112 -247.426)" fill="#29b39d"/>
    <path id="Trazado_151321" data-name="Trazado 151321" d="M89.646,100.063a13.554,13.554,0,0,1-13.673,13.673c-.478,0-.95.147-1.416.1a13.846,13.846,0,0,1-.3-27.513,14.328,14.328,0,0,1,1.717.066,13.554,13.554,0,0,1,13.673,13.673Z" transform="translate(-53.592 -74.078)" fill="#eef5f6"/>
    <path id="Trazado_151323" data-name="Trazado 151323" d="M101.206,145.361a6.2,6.2,0,0,0-5.723-1.874.8.8,0,0,0-.639.639c-.049.265-.238.377-.255.645a6.785,6.785,0,0,0,7.186,7.209c.276-.017.395-.206.667-.257a.8.8,0,0,0,.639-.639A6.2,6.2,0,0,0,101.206,145.361Z" transform="translate(-80.969 -122.23)" fill="#29b39d"/>
    <path id="Trazado_151325" data-name="Trazado 151325" d="M152.721,144.361a6.769,6.769,0,0,1,5.212-1.975c.276.017.395.206.667.257a.8.8,0,0,1,.639.639,6.663,6.663,0,0,1-7.6,7.6.8.8,0,0,1-.639-.639c-.049-.265-.238-.377-.255-.645A6.77,6.77,0,0,1,152.721,144.361Z" transform="translate(-128.354 -121.387)" fill="#29b39d"/>
  </g>
  <g id="Grupo_89069" data-name="Grupo 89069" transform="translate(0 0)">
    <path id="Trazado_151327" data-name="Trazado 151327" d="M244.422,81.616a4.685,4.685,0,0,0,0,9.37h4.587a4.685,4.685,0,0,0,0-9.37Zm6.929,4.685a2.344,2.344,0,0,1-2.341,2.341h-4.587a2.341,2.341,0,1,1,0-4.682h4.587A2.344,2.344,0,0,1,251.351,86.3Z" transform="translate(-202.278 -68.864)"/>
    <path id="Trazado_151328" data-name="Trazado 151328" d="M276.082,295.372a7.976,7.976,0,0,0,.815-.043v4a1.172,1.172,0,1,0,2.344,0v-4a7.956,7.956,0,0,0,8.643-9.364,1.955,1.955,0,0,0-1.58-1.579,7.946,7.946,0,0,0-8.235,3.671,7.947,7.947,0,0,0-8.235-3.671,1.954,1.954,0,0,0-1.579,1.579,7.958,7.958,0,0,0,7.828,9.407Zm4.8-7.131a5.622,5.622,0,0,1,4.736-1.592,5.614,5.614,0,0,1-6.327,6.327A5.621,5.621,0,0,1,280.885,288.241Zm-10.367-1.592a5.614,5.614,0,0,1,6.328,6.327,5.614,5.614,0,0,1-6.328-6.327Z" transform="translate(-226.228 -239.839)"/>
    <path id="Trazado_151329" data-name="Trazado 151329" d="M97.021,151.12a1.172,1.172,0,0,0,1.172-1.172v-4a7.956,7.956,0,0,0,8.643-9.364,1.955,1.955,0,0,0-1.58-1.58,7.947,7.947,0,0,0-8.235,3.671,7.947,7.947,0,0,0-8.235-3.671,1.955,1.955,0,0,0-1.58,1.58,7.949,7.949,0,0,0,8.643,9.364v4A1.172,1.172,0,0,0,97.021,151.12Zm2.816-12.259a5.622,5.622,0,0,1,4.736-1.592,5.614,5.614,0,0,1-6.327,6.327A5.621,5.621,0,0,1,99.836,138.861ZM95.8,143.6a5.614,5.614,0,0,1-6.327-6.327A5.614,5.614,0,0,1,95.8,143.6Z" transform="translate(-73.468 -113.799)"/>
    <path id="Trazado_151330" data-name="Trazado 151330" d="M75.718,21.976A40.371,40.371,0,0,0,64.265,8.2a1.172,1.172,0,1,0-1.423,1.862A38.013,38.013,0,0,1,73.627,23.033c.428.846.818,1.7,1.178,2.57H53.357a8.351,8.351,0,0,0-7.8,11.343A15.082,15.082,0,0,0,37.3,46.811l-12.9-3.105a4.131,4.131,0,0,0-5.1,4.016v3.117a1.172,1.172,0,0,0,2.344,0V47.721a1.787,1.787,0,0,1,2.205-1.737L36.9,49.123c-.047.481-.071.969-.071,1.462a14.974,14.974,0,0,0,4.6,10.809L34.9,67.921a4.1,4.1,0,0,0-1.21,2.921v6.29A37.368,37.368,0,0,1,28.257,75.8V68.754a4.1,4.1,0,0,0-1.21-2.921l-4.582-4.582a2.755,2.755,0,0,1-.812-1.961V55.946a1.172,1.172,0,0,0-2.344,0V59.29a5.083,5.083,0,0,0,1.5,3.618L25.39,67.49a1.776,1.776,0,0,1,.523,1.264v6.187A37.939,37.939,0,0,1,6.968,58.11h0a4.523,4.523,0,0,0,.9-.091,4.158,4.158,0,0,0,3.408-4.163v-4.2A10.149,10.149,0,0,1,16.324,40.9l.445-.258A15.017,15.017,0,0,0,38.423,29.35a1.172,1.172,0,0,0-2.321-.326A12.674,12.674,0,1,1,23.553,14.571a12.533,12.533,0,0,1,7.929,2.786,12.727,12.727,0,0,1,4.411,6.989,1.172,1.172,0,1,0,2.282-.534,15.024,15.024,0,0,0-17.4-11.328c-.018-.008-.035-.017-.054-.024a11.009,11.009,0,0,0-5.767-.583A37.674,37.674,0,0,1,58.716,7.316a1.172,1.172,0,0,0,1.167-2.033A40.008,40.008,0,1,0,80,40a39.584,39.584,0,0,0-4.282-18.024ZM9.645,17.7c.021-.024.043-.048.062-.074a8.8,8.8,0,0,1,6.621-3.548,15.006,15.006,0,0,0-1.788,25.164A12.5,12.5,0,0,0,8.933,49.653v4.2A1.825,1.825,0,0,1,7.4,55.722,1.818,1.818,0,0,1,5.279,54.6a1.178,1.178,0,0,0-.066-.13A37.776,37.776,0,0,1,9.645,17.7Zm37.7,16.25a6.015,6.015,0,0,1,6.008-6.008h22.16a1.187,1.187,0,0,0,.168-.013A37.77,37.77,0,0,1,70.749,61.75a1.189,1.189,0,0,0-.075.095,5.159,5.159,0,0,1-4.583,2.222,5.522,5.522,0,0,1-4.2-2.335,15.014,15.014,0,0,0-14.135-25.6,5.97,5.97,0,0,1-.408-2.178Zm-8.181,16.63A12.673,12.673,0,1,1,51.841,63.258,12.687,12.687,0,0,1,39.168,50.585ZM40,77.656a38.355,38.355,0,0,1-3.965-.207V70.842a1.775,1.775,0,0,1,.523-1.264l6.687-6.687a14.984,14.984,0,0,0,16.788.273,7.892,7.892,0,0,0,5.914,3.243q.245.015.486.015.2,0,.4-.01h.008c-.071.072-.14.145-.211.216A37.409,37.409,0,0,1,40,77.656Z" transform="translate(0 0)"/>
  </g>
</svg>
