<svg xmlns="http://www.w3.org/2000/svg" width="173.451" height="218.96" viewBox="0 0 173.451 218.96">
  <g id="Grupo_90190" data-name="Grupo 90190" transform="translate(-717.248 -752.465)">
    <g id="Grupo_90189" data-name="Grupo 90189">
      <g id="Grupo_90183" data-name="Grupo 90183">
        <g id="Grupo_86269" data-name="Grupo 86269" transform="translate(717.248 752.465)">
          <circle id="Elipse_4604" data-name="Elipse 4604" cx="61.324" cy="61.324" r="61.324" transform="translate(0 86.725) rotate(-45)" fill="#29b39d"/>
          <g id="Grupo_86258" data-name="Grupo 86258" transform="translate(7.749 7.747)">
            <path id="Trazado_148694" data-name="Trazado 148694" d="M1625.624,832.042a1.187,1.187,0,0,1-1.028-.594l-12.047-20.866a79,79,0,0,1-65.9-77.9h2.374a76.209,76.209,0,0,0,64.461,75.645,1.186,1.186,0,0,1,.841.579l11.3,19.573,11.3-19.573a1.186,1.186,0,0,1,.841-.579,76.608,76.608,0,0,0-12.142-152.248v-2.374A78.983,78.983,0,0,1,1638.7,810.582l-12.047,20.866A1.187,1.187,0,0,1,1625.624,832.042Z" transform="translate(-1546.647 -653.707)" fill="#3ca8f4"/>
          </g>
          <g id="Grupo_86259" data-name="Grupo 86259" transform="translate(4.485 4.483)">
            <path id="Trazado_148695" data-name="Trazado 148695" d="M1546.164,726.564h-8.9a82.241,82.241,0,0,1,82.242-82.242v8.9A73.422,73.422,0,0,0,1546.164,726.564Z" transform="translate(-1537.261 -644.322)" fill="#29b39d"/>
          </g>
        </g>
        <path id="Trazado_148724" data-name="Trazado 148724" d="M6.529,0A6.529,6.529,0,1,1,0,6.529,6.529,6.529,0,0,1,6.529,0Z" transform="translate(797.689 958.367)" fill="#29b39d"/>
      </g>
    </g>
    <g id="latido-del-corazon" transform="translate(764.016 760.463)">
      <g id="Grupo_86300" data-name="Grupo 86300" transform="translate(5.468 48.332)">
        <path id="Trazado_148746" data-name="Trazado 148746" d="M93.16,56.721C85.2,52.506,74,55.132,69.525,62.954c-4.473-7.822-15.672-10.448-23.635-6.233S33.764,70.812,35.312,79.689c1.9,10.874,8.831,17.31,17.169,24.544,4,3.47,10.385,8.709,15.025,12.655a3.114,3.114,0,0,0,4.036,0c4.64-3.945,11.025-9.185,15.025-12.655C94.906,97,101.841,90.564,103.737,79.689c1.548-8.877-2.613-18.753-10.577-22.968Z" transform="translate(-34.993 -54.722)" fill="#29b39d"/>
      </g>
      <g id="Grupo_86303" data-name="Grupo 86303" transform="translate(1.169 62.799)">
        <g id="Grupo_86302" data-name="Grupo 86302">
          <path id="Trazado_148748" data-name="Trazado 148748" d="M41.249,182.274h-.01a2.338,2.338,0,0,1-2.222-1.641l-4.91-15.712L31.2,170.413a2.338,2.338,0,0,1-2.067,1.245H9.82a2.338,2.338,0,0,1,0-4.677H27.726l4.872-9.208a2.338,2.338,0,0,1,4.3.4L41.281,172.2l7.486-23.268a2.338,2.338,0,0,1,4.434-.053l4.9,14.069,1.852-4.191a2.338,2.338,0,0,1,2.139-1.393H62.1a2.338,2.338,0,0,1,2.137,1.406l3.568,8.158h15a2.338,2.338,0,1,1,0,4.677H66.268a2.291,2.291,0,0,1-2.145-1.353l-2.052-4.722-2.092,4.735a2.338,2.338,0,0,1-4.347-.176l-4.552-13.076-7.606,23.64a2.338,2.338,0,0,1-2.226,1.622Z" transform="translate(-7.482 -147.311)" fill="#fb0"/>
        </g>
      </g>
      <g id="Grupo_86310" data-name="Grupo 86310" transform="translate(20.126 62.8)">
        <g id="Grupo_86309" data-name="Grupo 86309" transform="translate(53.671 19.617)">
          <path id="Trazado_148754" data-name="Trazado 148754" d="M477.338,275.2A2.338,2.338,0,0,1,475,277.539h-2.7a2.338,2.338,0,0,0,0-4.677H475A2.339,2.339,0,0,1,477.338,275.2Z" transform="translate(-472.304 -272.862)" fill="#99e6fc"/>
        </g>
      </g>
      <path id="Trazado_148755" data-name="Trazado 148755" d="M76.492,81.248H72.948A30.477,30.477,0,0,0,75.364,73.5c1.692-9.7-3.011-19.878-11.182-24.2S45.205,47.418,40,54.432c-5.206-7.014-16.018-9.456-24.182-5.134q-.275.146-.545.3a1.169,1.169,0,0,0,1.16,2.03q.237-.135.478-.263a17.405,17.405,0,0,1,12.292-1.3,15.372,15.372,0,0,1,9.782,7.078,1.169,1.169,0,0,0,2.03,0A15.371,15.371,0,0,1,50.8,50.067a17.4,17.4,0,0,1,12.292,1.3,19.194,19.194,0,0,1,8.336,9.181A21.836,21.836,0,0,1,73.061,73.1a27.85,27.85,0,0,1-2.733,8.149H62.254l-.844-1.93a1.169,1.169,0,1,0-2.142.937l1.151,2.631a1.169,1.169,0,0,0,1.071.7h15a1.169,1.169,0,0,1,0,2.338H59.956a1.131,1.131,0,0,1-1.072-.65l-2.052-4.722a1.169,1.169,0,0,0-2.142-.006L52.6,85.28a1.169,1.169,0,0,1-2.174-.088L45.872,72.116a1.169,1.169,0,0,0-1.1-.785h-.014a1.169,1.169,0,0,0-1.1.811l-7.606,23.64a1.169,1.169,0,0,1-2.229-.009L28.91,80.06a1.169,1.169,0,0,0-2.149-.2l-2.906,5.492a1.166,1.166,0,0,1-1.033.622H3.508a1.169,1.169,0,0,1,0-2.338H21.413a1.169,1.169,0,0,0,1.033-.622l4.872-9.208a1.169,1.169,0,0,1,2.15.2l4.385,14.031a1.169,1.169,0,0,0,1.111.82h0a1.169,1.169,0,0,0,1.113-.811l7.486-23.267a1.167,1.167,0,0,1,1.095-.811,1.187,1.187,0,0,1,1.122.785l4.9,14.069a1.169,1.169,0,0,0,2.174.088l1.851-4.191a1.169,1.169,0,0,1,2.143.009l.239.547a1.169,1.169,0,1,0,2.142-.937l-.238-.545a3.508,3.508,0,0,0-6.425-.02l-.653,1.478L47.993,63.984a3.513,3.513,0,0,0-3.325-2.354h-.029a3.5,3.5,0,0,0-3.3,2.433L34.985,83.821,31.7,73.308a3.507,3.507,0,0,0-6.448-.594L20.709,81.3H9.7a27.848,27.848,0,0,1-2.76-8.2,21.568,21.568,0,0,1,5.475-18.311,1.169,1.169,0,1,0-1.691-1.615A23.949,23.949,0,0,0,4.636,73.5a30.455,30.455,0,0,0,2.439,7.8H3.507a3.507,3.507,0,0,0,0,7.015h8.054A87.821,87.821,0,0,0,22.191,98.727c2.319,2.012,5.482,4.654,8.541,7.209,2.231,1.863,4.537,3.79,6.493,5.453a4.269,4.269,0,0,0,5.551,0c1.956-1.663,4.264-3.591,6.5-5.456,3.057-2.554,6.219-5.2,8.538-7.207A87.4,87.4,0,0,0,68.481,88.263h8.011a3.507,3.507,0,1,0,0-7.015ZM56.277,96.96c-2.3,2-5.455,4.631-8.5,7.178-2.235,1.868-4.547,3.8-6.512,5.469a1.939,1.939,0,0,1-2.522,0c-1.963-1.669-4.274-3.6-6.508-5.466-3.051-2.548-6.205-5.184-8.508-7.181a97.955,97.955,0,0,1-9.077-8.645h8.175a3.5,3.5,0,0,0,3.1-1.867l1.594-3.012L31.588,96.47a3.507,3.507,0,0,0,6.687.028l6.537-20.316,3.4,9.779a3.507,3.507,0,0,0,6.521.264l1.014-2.295.989,2.275a3.437,3.437,0,0,0,3.217,2.057H65.4a97.375,97.375,0,0,1-9.124,8.7Z"/>
    </g>
  </g>
</svg>
