<svg xmlns="http://www.w3.org/2000/svg" xmlns:xlink="http://www.w3.org/1999/xlink" width="400" height="250" viewBox="0 0 400 250">
  <defs>
    <clipPath id="clip-path">
      <rect id="Rectángulo_35099" data-name="Rectángulo 35099" width="400" height="250" transform="translate(815.668 4037)" fill="#a6ffac"/>
    </clipPath>
    <clipPath id="clip-path-2">
      <circle id="Elipse_4632" data-name="Elipse 4632" cx="88.378" cy="88.378" r="88.378" transform="translate(0 124.986) rotate(-45)" fill="none"/>
    </clipPath>
  </defs>
  <g id="Enmascarar_grupo_53" data-name="Enmascarar grupo 53" transform="translate(-815.668 -4037)" clip-path="url(#clip-path)">
    <g id="Grupo_89427" data-name="Grupo 89427" transform="translate(5.668 0.293)">
      <path id="Trazado_152150" data-name="Trazado 152150" d="M552.151,335.131c-6.181-2.712-13.253-2.555-20.005-3.367s-14.042-3.131-17.352-8.793c-3.037-5.2-1.764-11.871,1.445-16.972s8.076-9.02,12.649-13.069c10.39-9.2,19.829-19.791,25.014-32.365s5.647-27.407-1.28-39.2-22.092-19.432-35.8-15.957c-6.832,1.731-12.679,5.862-19.113,8.652s-14.442,4.08-20.258.252c-5.764-3.794-7.316-11.09-10.616-16.977-5.673-10.119-17.086-16.379-28.806-19.031a69.519,69.519,0,0,0-50.6,8.11c-14.819,8.983-33.645,16.8-33.645,16.8-15.86,5.059-26.3,13.043-40.194,4.172-18.433-11.772-39.94-20.119-62.134-20.034s-44.988,9.593-57.095,27.306-11.048,43.652,5,58.255c5.713,5.2,12.89,8.8,18.4,14.2s9.157,13.736,5.6,20.458c-4.965,9.393-18.816,8.88-29.459,11.685-15.439,4.068-27.076,18.678-27.027,33.932s11.779,29.8,27.244,33.774c5.572,1.433,11.561,1.644,16.708,4.131s9.188,8.5,6.649,13.438c-1.06,2.061-3.071,3.556-4.211,5.578-2.729,4.84.6,11.155,5.6,13.9s11.058,2.879,16.827,2.937l244.233,2.463c12.079.122,24.494.189,35.776-3.922,15.135-5.516,26.3-17.83,35.753-30.366,7.036-9.333,13.671-19.488,15.164-30.888S563.109,339.94,552.151,335.131Z" transform="translate(643.123 3860.055)" fill="#a6daff"/>
      <g id="Grupo_89426" data-name="Grupo 89426" transform="translate(342.768 4088.156)">
        <g id="OBJECTS" transform="translate(542.246 -42.65)">
          <g id="Grupo_89397" data-name="Grupo 89397" transform="translate(61.938 24.035)">
            <g id="Grupo_89396" data-name="Grupo 89396" transform="translate(0 0)">
              <path id="Trazado_152151" data-name="Trazado 152151" d="M690.987,26.433a11.25,11.25,0,1,1-22.5,0c0-6.213,11.25-20.095,11.25-20.095S690.987,20.22,690.987,26.433Z" transform="translate(-668.487 -6.338)" fill="#29b39d"/>
              <path id="Trazado_152152" data-name="Trazado 152152" d="M691.417,6.338V37.683a11.25,11.25,0,0,0,11.25-11.25C702.667,20.22,691.417,6.338,691.417,6.338Z" transform="translate(-680.167 -6.338)" fill="#29b39d" opacity="0.4" style="mix-blend-mode: multiply;isolation: isolate"/>
            </g>
            <rect id="Rectángulo_35075" data-name="Rectángulo 35075" width="1.6" height="23.559" transform="translate(10.539 19.721)" fill="#6f4940"/>
            <rect id="Rectángulo_35076" data-name="Rectángulo 35076" width="1.438" height="9.383" transform="translate(5.278 21.672) rotate(-37.573)" fill="#6f4940"/>
          </g>
          <g id="Grupo_89398" data-name="Grupo 89398" transform="translate(142.374)">
            <rect id="Rectángulo_35077" data-name="Rectángulo 35077" width="29.285" height="62.297" fill="#266999"/>
            <rect id="Rectángulo_35078" data-name="Rectángulo 35078" width="54.866" height="22.629" transform="translate(25.957 3.715) rotate(90)" fill="#3ca8f4"/>
            <line id="Línea_301" data-name="Línea 301" x2="26.265" transform="translate(1.786 9.03)" fill="none" stroke="#266999" stroke-miterlimit="10" stroke-width="2.23"/>
            <line id="Línea_302" data-name="Línea 302" x2="26.265" transform="translate(1.786 16.577)" fill="none" stroke="#266999" stroke-miterlimit="10" stroke-width="2.23"/>
            <line id="Línea_303" data-name="Línea 303" x2="26.265" transform="translate(1.786 24.124)" fill="none" stroke="#266999" stroke-miterlimit="10" stroke-width="2.23"/>
            <line id="Línea_304" data-name="Línea 304" x2="26.265" transform="translate(1.786 31.672)" fill="none" stroke="#266999" stroke-miterlimit="10" stroke-width="2.23"/>
            <line id="Línea_305" data-name="Línea 305" x2="26.265" transform="translate(1.786 39.219)" fill="none" stroke="#266999" stroke-miterlimit="10" stroke-width="2.23"/>
            <line id="Línea_306" data-name="Línea 306" x2="26.265" transform="translate(1.786 46.767)" fill="none" stroke="#266999" stroke-miterlimit="10" stroke-width="2.23"/>
            <line id="Línea_307" data-name="Línea 307" x2="26.265" transform="translate(1.786 54.314)" fill="none" stroke="#266999" stroke-miterlimit="10" stroke-width="2.23"/>
            <line id="Línea_308" data-name="Línea 308" y2="62.297" transform="translate(8.464)" fill="none" stroke="#266999" stroke-miterlimit="10" stroke-width="2.23"/>
            <line id="Línea_309" data-name="Línea 309" y2="62.297" transform="translate(14.965)" fill="none" stroke="#266999" stroke-miterlimit="10" stroke-width="2.23"/>
            <line id="Línea_310" data-name="Línea 310" y2="62.297" transform="translate(21.466)" fill="none" stroke="#266999" stroke-miterlimit="10" stroke-width="2.23"/>
          </g>
          <g id="Grupo_89400" data-name="Grupo 89400" transform="translate(166.042 25.839)">
            <g id="Grupo_89399" data-name="Grupo 89399" transform="translate(0 0)">
              <path id="Trazado_152153" data-name="Trazado 152153" d="M899.154,26.524a9.243,9.243,0,0,1-18.485,0c0-5.1,9.243-16.509,9.243-16.509S899.154,21.42,899.154,26.524Z" transform="translate(-880.669 -10.015)" fill="#29b39d"/>
              <path id="Trazado_152154" data-name="Trazado 152154" d="M899.507,10.015V35.767a9.243,9.243,0,0,0,9.243-9.243C908.75,21.42,899.507,10.015,899.507,10.015Z" transform="translate(-890.264 -10.015)" fill="#29b39d" opacity="0.4" style="mix-blend-mode: multiply;isolation: isolate"/>
            </g>
            <rect id="Rectángulo_35079" data-name="Rectángulo 35079" width="1.315" height="28.824" transform="translate(8.659 16.203)" fill="#6f4940"/>
            <rect id="Rectángulo_35080" data-name="Rectángulo 35080" width="1.181" height="7.709" transform="translate(4.336 17.805) rotate(-37.571)" fill="#6f4940"/>
          </g>
          <g id="Grupo_89401" data-name="Grupo 89401" transform="translate(77.501 11.541)">
            <rect id="Rectángulo_35081" data-name="Rectángulo 35081" width="29.285" height="55.803" fill="#266999"/>
            <rect id="Rectángulo_35082" data-name="Rectángulo 35082" width="49.147" height="22.629" transform="translate(25.957 3.328) rotate(90)" fill="#3ca8f4"/>
            <line id="Línea_311" data-name="Línea 311" x2="26.265" transform="translate(1.786 8.088)" fill="none" stroke="#266999" stroke-miterlimit="10" stroke-width="2.23"/>
            <line id="Línea_312" data-name="Línea 312" x2="26.265" transform="translate(1.786 14.849)" fill="none" stroke="#266999" stroke-miterlimit="10" stroke-width="2.23"/>
            <line id="Línea_313" data-name="Línea 313" x2="26.265" transform="translate(1.786 21.61)" fill="none" stroke="#266999" stroke-miterlimit="10" stroke-width="2.23"/>
            <line id="Línea_314" data-name="Línea 314" x2="26.265" transform="translate(1.786 28.37)" fill="none" stroke="#266999" stroke-miterlimit="10" stroke-width="2.23"/>
            <line id="Línea_315" data-name="Línea 315" x2="26.265" transform="translate(1.786 35.131)" fill="none" stroke="#266999" stroke-miterlimit="10" stroke-width="2.23"/>
            <line id="Línea_316" data-name="Línea 316" x2="26.265" transform="translate(1.786 41.892)" fill="none" stroke="#266999" stroke-miterlimit="10" stroke-width="2.23"/>
            <line id="Línea_317" data-name="Línea 317" x2="26.265" transform="translate(1.786 48.652)" fill="none" stroke="#266999" stroke-miterlimit="10" stroke-width="2.23"/>
            <line id="Línea_318" data-name="Línea 318" y2="55.803" transform="translate(8.464)" fill="none" stroke="#266999" stroke-miterlimit="10" stroke-width="2.23"/>
            <line id="Línea_319" data-name="Línea 319" y2="55.803" transform="translate(14.965)" fill="none" stroke="#266999" stroke-miterlimit="10" stroke-width="2.23"/>
            <line id="Línea_320" data-name="Línea 320" y2="55.803" transform="translate(21.466)" fill="none" stroke="#266999" stroke-miterlimit="10" stroke-width="2.23"/>
          </g>
          <g id="Grupo_89403" data-name="Grupo 89403" transform="translate(100.336 16.938)">
            <g id="Grupo_89402" data-name="Grupo 89402" transform="translate(0 0)">
              <path id="Trazado_152155" data-name="Trazado 152155" d="M764.985,8.161a9.119,9.119,0,1,1-18.237,0c0-5.036,9.118-16.288,9.118-16.288S764.985,3.125,764.985,8.161Z" transform="translate(-746.748 8.127)" fill="#29b39d"/>
              <path id="Trazado_152156" data-name="Trazado 152156" d="M765.333-8.127V17.28a9.119,9.119,0,0,0,9.119-9.119C774.452,3.125,765.333-8.127,765.333-8.127Z" transform="translate(-756.215 8.127)" fill="#29b39d" opacity="0.4" style="mix-blend-mode: multiply;isolation: isolate"/>
            </g>
            <rect id="Rectángulo_35083" data-name="Rectángulo 35083" width="1.297" height="28.438" transform="translate(8.542 15.985)" fill="#6f4940"/>
            <rect id="Rectángulo_35084" data-name="Rectángulo 35084" width="1.165" height="7.605" transform="matrix(0.793, -0.61, 0.61, 0.793, 4.278, 17.566)" fill="#6f4940"/>
          </g>
          <g id="Grupo_89405" data-name="Grupo 89405" transform="translate(129.728 13.123)">
            <g id="Grupo_89404" data-name="Grupo 89404" transform="translate(0 0)">
              <path id="Trazado_152157" data-name="Trazado 152157" d="M826.3,1.64a9.821,9.821,0,0,1-19.642,0c0-5.424,9.821-17.543,9.821-17.543S826.3-3.784,826.3,1.64Z" transform="translate(-806.655 15.903)" fill="#29b39d"/>
              <path id="Trazado_152158" data-name="Trazado 152158" d="M826.672-15.9V11.461a9.821,9.821,0,0,0,9.821-9.821C836.493-3.784,826.672-15.9,826.672-15.9Z" transform="translate(-816.851 15.903)" fill="#29b39d" opacity="0.4" style="mix-blend-mode: multiply;isolation: isolate"/>
            </g>
            <rect id="Rectángulo_35085" data-name="Rectángulo 35085" width="1.397" height="30.628" transform="translate(9.2 17.216)" fill="#6f4940"/>
            <rect id="Rectángulo_35086" data-name="Rectángulo 35086" width="1.255" height="8.191" transform="matrix(0.793, -0.61, 0.61, 0.793, 4.608, 18.919)" fill="#6f4940"/>
          </g>
          <g id="Grupo_89407" data-name="Grupo 89407" transform="translate(114.418 26.487)">
            <g id="Grupo_89406" data-name="Grupo 89406">
              <path id="Trazado_152159" data-name="Trazado 152159" d="M787.06,21.7a5.8,5.8,0,0,1-11.609,0c0-3.206,5.8-10.369,5.8-10.369S787.06,18.5,787.06,21.7Z" transform="translate(-775.451 -11.335)" fill="#29b39d"/>
              <path id="Trazado_152160" data-name="Trazado 152160" d="M787.282,11.335V27.508a5.8,5.8,0,0,0,5.8-5.8C793.086,18.5,787.282,11.335,787.282,11.335Z" transform="translate(-781.477 -11.335)" fill="#29b39d" opacity="0.4" style="mix-blend-mode: multiply;isolation: isolate"/>
            </g>
            <rect id="Rectángulo_35087" data-name="Rectángulo 35087" width="0.826" height="18.102" transform="translate(5.438 10.176)" fill="#6f4940"/>
            <rect id="Rectángulo_35088" data-name="Rectángulo 35088" width="0.742" height="4.841" transform="translate(2.723 11.182) rotate(-37.58)" fill="#6f4940"/>
          </g>
          <g id="Grupo_89409" data-name="Grupo 89409" transform="translate(174.502 44.728)">
            <g id="Grupo_89408" data-name="Grupo 89408">
              <path id="Trazado_152161" data-name="Trazado 152161" d="M911.041,60.241a6.565,6.565,0,0,1-13.129,0c0-3.625,6.565-11.726,6.565-11.726S911.041,56.615,911.041,60.241Z" transform="translate(-897.912 -48.515)" fill="#29b39d"/>
              <path id="Trazado_152162" data-name="Trazado 152162" d="M911.292,48.515v18.29a6.565,6.565,0,0,0,6.565-6.565C917.857,56.615,911.292,48.515,911.292,48.515Z" transform="translate(-904.727 -48.515)" fill="#29b39d" opacity="0.4" style="mix-blend-mode: multiply;isolation: isolate"/>
            </g>
            <rect id="Rectángulo_35089" data-name="Rectángulo 35089" width="0.934" height="20.473" transform="translate(6.15 11.508)" fill="#6f4940"/>
            <rect id="Rectángulo_35090" data-name="Rectángulo 35090" width="0.839" height="5.475" transform="translate(3.08 12.646) rotate(-37.571)" fill="#6f4940"/>
          </g>
          <g id="Grupo_89411" data-name="Grupo 89411" transform="translate(39.442 43.874)">
            <g id="Grupo_89410" data-name="Grupo 89410">
              <path id="Trazado_152163" data-name="Trazado 152163" d="M645.619,67.3a11.492,11.492,0,0,1-22.984,0c0-6.347,11.492-20.527,11.492-20.527S645.619,60.954,645.619,67.3Z" transform="translate(-622.635 -46.774)" fill="#29b39d"/>
              <path id="Trazado_152164" data-name="Trazado 152164" d="M646.057,46.774V78.793A11.492,11.492,0,0,0,657.549,67.3C657.549,60.954,646.057,46.774,646.057,46.774Z" transform="translate(-634.565 -46.774)" fill="#6cc53e" opacity="0.4" style="mix-blend-mode: multiply;isolation: isolate"/>
            </g>
            <path id="Trazado_152165" data-name="Trazado 152165" d="M646.212,114.468l-1.634,2.569v-29.2h1.634Z" transform="translate(-633.812 -67.688)" fill="#6f4940"/>
            <rect id="Rectángulo_35091" data-name="Rectángulo 35091" width="1.469" height="9.585" transform="matrix(0.793, -0.61, 0.61, 0.793, 5.392, 22.137)" fill="#6f4940"/>
          </g>
          <g id="Grupo_89413" data-name="Grupo 89413" transform="translate(53.771 52.872)">
            <g id="Grupo_89412" data-name="Grupo 89412" transform="translate(0 0)">
              <path id="Trazado_152166" data-name="Trazado 152166" d="M664.969,76.838a6.565,6.565,0,1,1-13.129,0c0-3.626,6.565-11.726,6.565-11.726S664.969,73.212,664.969,76.838Z" transform="translate(-651.84 -65.112)" fill="#29b39d"/>
              <path id="Trazado_152167" data-name="Trazado 152167" d="M665.22,65.112V83.4a6.565,6.565,0,0,0,6.565-6.565C671.785,73.212,665.22,65.112,665.22,65.112Z" transform="translate(-658.655 -65.112)" fill="#29b39d" opacity="0.4" style="mix-blend-mode: multiply;isolation: isolate"/>
            </g>
            <rect id="Rectángulo_35092" data-name="Rectángulo 35092" width="0.934" height="20.473" transform="translate(6.15 11.508)" fill="#6f4940"/>
            <rect id="Rectángulo_35093" data-name="Rectángulo 35093" width="0.839" height="5.475" transform="translate(3.08 12.646) rotate(-37.567)" fill="#6f4940"/>
          </g>
          <g id="Grupo_89415" data-name="Grupo 89415" transform="translate(38.398 70.266)">
            <g id="Grupo_89414" data-name="Grupo 89414">
              <path id="Trazado_152168" data-name="Trazado 152168" d="M633.638,112.292a6.565,6.565,0,1,1-13.129,0c0-3.625,6.565-11.726,6.565-11.726S633.638,108.667,633.638,112.292Z" transform="translate(-620.509 -100.566)" fill="#29b39d"/>
              <path id="Trazado_152169" data-name="Trazado 152169" d="M633.889,100.566v18.291a6.565,6.565,0,0,0,6.565-6.565C640.454,108.667,633.889,100.566,633.889,100.566Z" transform="translate(-627.324 -100.566)" fill="#29b39d" opacity="0.4" style="mix-blend-mode: multiply;isolation: isolate"/>
            </g>
            <rect id="Rectángulo_35094" data-name="Rectángulo 35094" width="0.934" height="20.473" transform="translate(6.15 11.508)" fill="#6f4940"/>
            <rect id="Rectángulo_35095" data-name="Rectángulo 35095" width="0.839" height="5.475" transform="translate(3.08 12.646) rotate(-37.571)" fill="#6f4940"/>
          </g>
          <g id="Grupo_89417" data-name="Grupo 89417" transform="translate(196.778 71.162)">
            <g id="Grupo_89416" data-name="Grupo 89416" transform="translate(0 0)">
              <path id="Trazado_152170" data-name="Trazado 152170" d="M956.443,114.118a6.565,6.565,0,1,1-13.129,0c0-3.625,6.565-11.726,6.565-11.726S956.443,110.492,956.443,114.118Z" transform="translate(-943.314 -102.392)" fill="#29b39d"/>
              <path id="Trazado_152171" data-name="Trazado 152171" d="M956.694,102.392v18.29a6.564,6.564,0,0,0,6.565-6.565C963.259,110.492,956.694,102.392,956.694,102.392Z" transform="translate(-950.129 -102.392)" fill="#29b39d" opacity="0.4" style="mix-blend-mode: multiply;isolation: isolate"/>
            </g>
            <rect id="Rectángulo_35096" data-name="Rectángulo 35096" width="0.934" height="20.473" transform="translate(6.15 11.508)" fill="#6f4940"/>
            <rect id="Rectángulo_35097" data-name="Rectángulo 35097" width="0.839" height="5.475" transform="translate(3.08 12.646) rotate(-37.571)" fill="#6f4940"/>
          </g>
          <g id="Grupo_89419" data-name="Grupo 89419" transform="translate(186.9 48.954)">
            <g id="Grupo_89418" data-name="Grupo 89418">
              <path id="Trazado_152172" data-name="Trazado 152172" d="M943.5,75.276a10.161,10.161,0,1,1-20.321,0c0-5.611,10.161-18.149,10.161-18.149S943.5,69.665,943.5,75.276Z" transform="translate(-923.182 -57.127)" fill="#29b39d"/>
              <path id="Trazado_152173" data-name="Trazado 152173" d="M943.891,57.127v28.31a10.16,10.16,0,0,0,10.161-10.161C954.052,69.665,943.891,57.127,943.891,57.127Z" transform="translate(-933.73 -57.127)" fill="#29b39d" opacity="0.4" style="mix-blend-mode: multiply;isolation: isolate"/>
            </g>
            <path id="Trazado_152174" data-name="Trazado 152174" d="M944.028,119.439l-1.445-1.893V93.43h1.445Z" transform="translate(-933.064 -75.619)" fill="#6f4940"/>
            <rect id="Rectángulo_35098" data-name="Rectángulo 35098" width="1.299" height="8.474" transform="matrix(0.793, -0.61, 0.61, 0.793, 4.767, 19.573)" fill="#6f4940"/>
          </g>
          <g id="Grupo_89423" data-name="Grupo 89423" transform="translate(0 12.352)">
            <g id="Grupo_89422" data-name="Grupo 89422">
              <g id="Grupo_89421" data-name="Grupo 89421" clip-path="url(#clip-path-2)">
                <path id="Trazado_152224" data-name="Trazado 152224" d="M88.378,0A88.378,88.378,0,1,1,0,88.378,88.378,88.378,0,0,1,88.378,0Z" transform="translate(0 124.986) rotate(-45)" fill="#3ca8f4"/>
                <g id="ZURBe1.tif" transform="translate(-6.446 54.068)">
                  <g id="Grupo_89420" data-name="Grupo 89420">
                    <path id="Trazado_152175" data-name="Trazado 152175" d="M830.925,183.741l-1.148-4.328-1.677.336-2.433-5.151c-3.908.309-5.407,3.666-7.877,5.635-.552.44-.125,1.965-.422,2.9a18.072,18.072,0,0,1-1.459,2.845l-.738-.157c-.674-1.717-1.439-3.405-1.995-5.16-.538-1.7-.861-3.458-1.3-5.269-.814.6-1.494.75-2.146-.84a3.648,3.648,0,0,0-3.658-2.365c-1.677.035-3.357-.961-5.06-1.055-1.287-.072-2.412.089-3.405-1.013a10.112,10.112,0,0,0-2.327-1.454,1.351,1.351,0,0,0-.1,1.025c1.419,2.906,2.92,3.495,5.167,2.275l2.917,2.643c-2.415,4.925-7.407,6.121-11.853,8.075.709,1.431.709,1.431,5.708.32a15.953,15.953,0,0,1-3.933,7.427,23.656,23.656,0,0,0-3.981,4.6,5.536,5.536,0,0,0-.279,4.351c1.43,3.1.628,5.287-1.9,7.133-1.18.862-1.943,1.744-1.094,3.269a1.227,1.227,0,0,1,.024,1.064c-1.863,2.722-3.487,5.7-5.8,7.978-1.152,1.132-3.586,1-5.463,1.3-.259.041-.754-.682-.944-1.134s.059-1.16-.211-1.484c-2.51-3.017-2.15-7.062-3.772-10.4a3.87,3.87,0,0,1-.2-2.916c1.732-3.738.38-6.753-1.635-9.872-.619-.959-.291-2.534-.38-3.828a7.985,7.985,0,0,1,0-.868c-1.459-.784-2.605-1.481-3.823-2.015a3.312,3.312,0,0,0-1.728-.093c-1.442.216-2.861.612-4.307.767-1.23.132-2.487,1.52-3.74-.034-.846-1.048-1.79-2.017-2.679-3.031a12.6,12.6,0,0,1-1.218-1.492c-.828-1.305-2.218-2.416-1.053-4.327a4.6,4.6,0,0,0,.14-2.595,6.743,6.743,0,0,1,3.5-7.118.974.974,0,0,0,.415-.471,14.215,14.215,0,0,1,3.038-5.263c.2-.211-.329-1.189-.624-1.759-.374-.721-1.074-1.342-1.231-2.09a18.64,18.64,0,0,1,.158-2.644c-.059-1.122.222-1.623,1.462-1.492a34.867,34.867,0,0,0,3.578.026c.916-2.115.328-3.588-1.677-4.159l8.967-6.4a13.834,13.834,0,0,1,.065-2.806c.079-.407.88-.675,1.173-.88l1.226,1.637.517-.356-1.334-3.141a2.816,2.816,0,0,1-.348.148c-1.075.228-1.993,2.337-3.245.372a3.292,3.292,0,0,1,1.073-4.851c2.645-1.312,3.8-3.836,5.42-5.972.99-1.308,2.345-3.314,3.13-3.156,1.924.389,2.991-2.357,5.109-1.156.651.369,1.69.023,2.542.1.1.009.144.643.157.71l8.009,3.423c-1.437,3.079-3.565,1.457-5.512,1.4l1.743,3.291.567-.268c-.034-.35-.069-.7-.133-1.348l2.085,1.009c.228-1.992,1.1-2.634,3.079-2.236-.048-1.01-.094-1.994-.145-3.086l1.759.2-.766,1.6.269.416a27.07,27.07,0,0,1,4.942-2.347c1.547-.4,3.278-.084,5.31-.084l-.879-2.236,7.278,2.751c-3.374-3.294-.417-5.122.848-7.6l1.453,1.522c0,1.783-.44,3.438.1,4.661.873,1.98-.3,2.825-1.043,4.311a9.415,9.415,0,0,0,2.049-1.564,9.217,9.217,0,0,0,.934-2.409c-.183-.118-1.073-.381-1.146-.791a7.534,7.534,0,0,1,1.336-5.8v3.2l2.021-1.871,2.317,1.742.3-.258-1.758-2.464,4.79-.579-.944-1.732c3.076-.6,5.9-1.064,8.663-1.748.964-.239,1.749-1.131,2.7-1.54.921-.4,2.464-1.081,2.828-.722A4.716,4.716,0,0,0,839,116.155c1.552.019,2.283,1.414,1.773,2.872-.563,1.609-.113,2.235,1.5,2.075.289-.029.671-.267.846-.155,2.341,1.513,4.771.7,7.173.3,1.42-.236,1.68.7,2.014,1.722a27.092,27.092,0,0,0,1.273,2.741c.872-2.431,2.435-1.583,3.718-1.613.934-.023,2.178.915,2.362-1.01.023-.233.981-.592,1.458-.529,2.166.286,4.448-.076,6.351,1.653.688.625,2.112.552,3.207.588,1.348.045,2.739-.278,3.365,1.457a1.283,1.283,0,0,0,.995.625c1.76-.014,3.519-.132,4.851-.194l1.5,1.728c.1-1.008.146-1.527.2-2.076,4.1-.086,7.643,1.124,10.064,3.711l3.478,1.032c-1.893,4.247-4.176,1.2-6.309.8l.917.857-1.432,2.023-1.317-1.145.776,2.125c-1.293.448-2.662.589-3.572,1.31-1.85,1.464-3.921,1.65-6.1,1.809-1.908.138-2.279,1-1.993,3a4.253,4.253,0,0,1-.714,2.807,48.392,48.392,0,0,1-3.716,4.162c-.247-1.4-.5-2.639-.678-3.889a3.96,3.96,0,0,1,1.63-3.779c1.762-1.509,3.352-3.22,5.015-4.844l-.489-.535-2.279,2.048c-1.121-.324-2.1-.938-2.55-.67a17.466,17.466,0,0,0-2.916,2.9c-1.165-.053-3.213-.042-5.232-.272a4.018,4.018,0,0,0-4.138,1.729,28.773,28.773,0,0,1-3.334,3.254l4.65,1.75.652-.957c.16,1.14.309,2.044.408,2.953.1.936.97,1.945-.422,2.774-.23.136.2,1.376.422,2.705-2.036-1.876-.453-4.165-1.357-5.735-.948,1.841-1.89,3.693-2.853,5.535-.866,1.658-1.824,3.152-4.068,3.081-.433-.014-.952.556-1.314.962-.552.619-1,1.329-1.553,2.079,1.908,3.785,1.908,3.785-.456,4.243a12.69,12.69,0,0,1-1.553-3.127c-.461-2.585-1.78-.534-2.834-.643l1.069-2.091-3.949,2.521,3.868,1.147c-.675.505-1.351,1.009-2,1.493,2.737,5.805,1.176,9.489-4.778,11.536-.874.3-1.648.493-1.389,1.767.068.333-.7.835-1.186,1.374-.233-.565-.349-.706-.331-.826.1-.685.236-1.366.36-2.048-.4.035-1.075-.057-1.165.129a12.058,12.058,0,0,0-.894,2.653c-.051.233.406.572.622.867,2.387,3.268,2.132,4.336-1.368,6.315l-3.178-3.658-1.209,2.13Zm-56.519-15.8-.021-.744c.821-.4,1.795-1.291,2.436-1.1,2,.609,3.818,1.315,6.075.931,2.653-.451,3.722-1.691,2.966-4.143-1.587-.084-3.31.281-4.473-.364-1.2-.667-1.86-2.315-2.925-3.763L776.954,160l1.7.752-2.076,2.206a14.751,14.751,0,0,0-1.734-2.9,2,2,0,0,0-1.927-.238,12.571,12.571,0,0,0-1.6,2.8l-1.666-1.217,2.237-.8a5.78,5.78,0,0,0-.932-1.771c-1.211-1.074-2.556-2-3.8-2.949-1.024.155-2.22.315-3.406.53a1.425,1.425,0,0,0-.655.448c-1.976,2.013-2.3,5.64-5.909,6.073-.007,0,.017.262.033.5a9.386,9.386,0,0,0,2.477.21c2.392-.432,4.76-1,7.128-1.562,1.819-.429,1.857.59,1.706,1.918-.047.411.075,1.1.342,1.245C770.681,166.213,772.553,167.057,774.406,167.937Zm4.843-34.661-.792-1.133c-.759.11-1.763-.044-2.227.386a20.767,20.767,0,0,0-2.538,3.247c-.658.918-1.283,1.856.036,2.8.234.168.454.813.35.921-1.376,1.438-1.418,3.888-3.563,4.722-.31.121-.707.077-.966.253a5.955,5.955,0,0,0-.909,1.123l6.857-1,1.017-4.446,4.663-1.105-.063-.571a12.671,12.671,0,0,1-1.947.127c-1.06-.088-2.806,0-3.025-.509-.52-1.218-.806-2.886.971-3.749C777.827,134,778.536,133.633,779.249,133.276Zm3.87,19.317a23.949,23.949,0,0,0-2.11,3.26c-.248.6-.315,1.737.029,2.009.49.386,1.432.219,2.182.25,1.011.042,2.027,0,3.034.08,1.421.111,2.973,1.111,4.219-.871-1.7-1.052-2.868-3.046-5.385-2.214-.2.067-.67-.483-.928-.814A19.274,19.274,0,0,1,783.119,152.593Zm15.565.642-.677-.732a15.586,15.586,0,0,0-3.744,2.333c-.332.356.7,1.909.992,2.949.219.8.12,1.689.391,2.458a4.818,4.818,0,0,0,1.3,2.083,1.857,1.857,0,0,0,1.671-.235,5.421,5.421,0,0,0-.084-2.179,4.007,4.007,0,0,0-.384-.937l1.6-.579a22.383,22.383,0,0,1-2.038-1.559,3.108,3.108,0,0,1-.86-1.4c-.041-.167.742-.462,1.022-.8A9.045,9.045,0,0,0,798.684,153.235ZM791,181.851l.846-.432-6.307-12.03L784.2,170C787.006,173.655,786.861,178.983,791,181.851ZM774.512,158.08l-4.649-3.8C770.216,156.886,772.542,158.77,774.512,158.08Z" transform="translate(-640.891 -103.982)" fill="#58a65e"/>
                    <path id="Trazado_152176" data-name="Trazado 152176" d="M588.386,138.1a7.537,7.537,0,0,0-.742-.155c-.767,2.516-3.258,3.4-4.845,5.125-2.272,2.476-1.374,5.043,1.949,6.051a42.35,42.35,0,0,1,5.24,2.393l1.639,3.937.835-.182v-3.509c2.487-1.546,2.427-1.518,1.067-4.312-.275-.565.18-1.447.143-2.175a18.1,18.1,0,0,0-.426-2.358,12.355,12.355,0,0,1,3.445.071,7.449,7.449,0,0,1,2.178,1.546l1.887,3.853,2.2-2.831a7.278,7.278,0,0,1,.967,1.361,14.056,14.056,0,0,0,4.533,5.951c.465.353.413,1.385.6,2.1l-.768.411-7.223,1.587.1.506h1.986c-.214.828-.38,1.469-.522,2.017l2.608,1.822-3.349,1.825c.036-.658.058-1.053.09-1.639-1.5.915-3.811.768-3.181,3.519-2.767.342-3.461,2.394-3.844,4.816a3.247,3.247,0,0,1-1.293,1.746c-2.865,2.169-2.856,2.135-2.034,5.589a14,14,0,0,1,.025,2.718,15.784,15.784,0,0,1-1.35-2c-1.28-2.936-2.124-3.243-5.2-1.916-.312.134-.813-.108-1.207-.236a3.331,3.331,0,0,0-4.125,1.616c-1.12,1.91-.295,5.776,1.21,6.427a2.6,2.6,0,0,0,3.406-1.109,7.961,7.961,0,0,1,2.046-1.465l.446.524c-.218.732-.419,1.468-.659,2.193-.226.684-.494,1.354-.778,2.125a16.217,16.217,0,0,1,1.975-.262c1.312-.012,2,.457,1.836,2-.293,2.7.161,3.056,2.813,3.052a4.387,4.387,0,0,1,1.564.591l3.76-2.807c.269.4.448.953.676.973a59.306,59.306,0,0,1,6.1.475c.845.166,1.443,1.374,2.259,1.96a7.631,7.631,0,0,0,2.819,1.533c1.536.274,2.679.772,2.935,2.4.267,1.707,1.3,2.354,2.878,2.882a50.287,50.287,0,0,1,6.917,3.075,2.4,2.4,0,0,1,.723,3.861,7.356,7.356,0,0,0-2.232,5.4c.04,2.675-1.518,4.206-4.054,5.031a3.393,3.393,0,0,0-2.656,3.065c-.285,2.7-3.692,6.422-5.9,6.692.248,2.646-.3,3.218-2.719,3.394l-2.74,2.294.869.595c-.4.58-.769,1.174-1.2,1.726-.475.616-1,1.193-1.587,1.885l1.187,1.124c-.772,1.346-2.031,2.6-2.089,3.91-.054,1.235,1.154,2.527,1.885,3.946-1.7,1.049-3.772-.1-5.113-1.427a5.571,5.571,0,0,1-1.277-5.612,14.132,14.132,0,0,0,.272-1.836c.376-.9,1.412-2.24,1.257-3.42a7.008,7.008,0,0,1-.392-2.582c.888-5.149,1.692-10.319,2.258-15.51a4.077,4.077,0,0,0-1.464-3.307c-2.2-1.3-3.06-3.388-4.136-5.411-.308-.578-.514-1.214-.855-1.77a6.087,6.087,0,0,1,.447-7.443c1.684-1.99,1.677-2.666-.056-4.9-1.806,1.032-3.355.676-4.624-1.569a5.522,5.522,0,0,0-3.518-2.543c-2.157-.712-4.339-1.379-6.427-2.263a7.763,7.763,0,0,1-4.485-3.773c-1.427-2.8-4.03-5-6.444-7.3l3.333,5.893-.761.424c-1.288-2.268-2.581-4.533-3.86-6.806-.28-.5-.368-1.238-.78-1.507-3.866-2.519-5.008-6.076-4.47-10.509a6.825,6.825,0,0,0-.906-3.694,67.876,67.876,0,0,0-3.634-5.79,8.186,8.186,0,0,0-1.455-1.176l.623,2.529c-1.494-6.029-6.217-7.851-11.691-8.878l.37.884c-2.826.682-2.826.682-3.454-.371a12.824,12.824,0,0,1-8.781,6.809c1.493-2,4.775-1.672,5.131-4.652-1.273-.457-3.118.781-3.573-1.423-.015-.073-1,.188-1.166-.01A4.357,4.357,0,0,1,530.6,143.7c-.016-.6.766-1.342,1.365-1.8a7.328,7.328,0,0,1,1.985-.752l.024-.719a11.61,11.61,0,0,1-2.235-.152,22.022,22.022,0,0,1-2.631-1.024q.054-.52.11-1.039l4.316-.3-3.529-2.835c1.363-.928,2.594-1.76,3.819-2.6,2.952-2.025,5.981-.648,8.982-.191,1.914.292,3.84.567,5.716,1.031,1.673.414,3.188,1.176,5.025.295a9.634,9.634,0,0,1,4.18-.7l9.3,1.59.734-.044-.7,1.354,4.985.516c-.048-.232-.19-.921-.333-1.611l1.69-.47c.988,1.761,2.689,1.842,4.381,1.731a1.619,1.619,0,0,0,1.2-.974c.19-1.931.129-1.94,1.815-1.061a1.622,1.622,0,0,1,.355.271l-1.031,2.161c2.084-1.59,2-1.521.448-3.313-.35-.4.067-1.472.131-2.235.665.082,1.491-.045,1.951.307s.421,1.259.806,1.77c.4.535.255,2.131,1.756,1.153.1-.062.8.586,1.025,1.008a7.421,7.421,0,0,1,.286,1.969,11.971,11.971,0,0,1,.75-1.36c1.489-1.805,1.4-2.4-.691-3.125-1.872-.648-1.9-2.075-1.475-3.515.5-1.722,1.477-1.976,3.228-1.2.249.111.627-.109.941-.095,2.066.1,4.248-.978,5.982,1.456.876,1.23,2.82,1.674,4.228,2.557,1.053.659,2.32,1.341,1.054,2.869l5.125,2.671-2.209,2.355-2.624-2.243c.111,2.4,3.435,2.963,1.926,5.4l-1.4-.8.8,1.847c-1.656-.72-3.284-.946-4.065-1.881-1.156-1.384-2.2-2.02-3.929-1.493-.209.064-.507-.159-1.308-.441.808-.449,1.219-.866,1.633-.869.9-.008,1.147-.315,1.813-1.063,1.971-2.216.333-2.548-1.039-3.427a11.017,11.017,0,0,1-1.814-1.763l-3.118.43c1.1,1.982.655,3.569-1.473,5.315Z" transform="translate(-529.109 -110.4)" fill="#58a65e"/>
                    <path id="Trazado_152177" data-name="Trazado 152177" d="M688.8,128.059c-1.294-.43-2.6-.465-3.189-1.132-1.985-2.251-3.8-4.711-4.035-7.859-.045-.607.681-1.267,1.041-1.908.279-.5.541-1,.866-1.61l-2.569.589c-.366-2.435,1.093-1.894,2.293-2.177l-2.457-.784c-.611-1.6-1.157-3.238-1.855-4.809-.9-2.033-2.727-2.482-4.711-2.31-2,.172-3.906.249-5.479-1.739l1.987-.128-2.764-1.685c.93-.382,1.858-.772,2.792-1.143.27-.107.573-.132.837-.249.561-.248,1.106-.531,1.657-.8l-1.251-1.369c3.358-3.332,12.232-4.83,15.874-2.591l-.943-2.509c7.857-.521,6.491-2.522,17.441.561q-.317,1.408-.631,2.814c2.4-.168,4.618-2.178,7.233-.836l-6.811,6.117c2.147.914,3.522,1.81,2.147,4.081-.41.678-.155,1.726-.449,2.513-.628,1.681-1.982,1.476-3.359,1.093-.094-.026-.281.278-.571.582l2.109.239a5.058,5.058,0,0,0-.126,1.045c.07.792.584,1.925.241,2.3a10.661,10.661,0,0,1-3.567,2.743c-1.955.811-4.282.8-5.5,2.981a1.106,1.106,0,0,1-.767.382c-3.661.4-3.942,3.434-4.775,6.058A11.738,11.738,0,0,1,688.8,128.059Z" transform="translate(-599.82 -92.726)" fill="#58a65e"/>
                    <path id="Trazado_152178" data-name="Trazado 152178" d="M948.358,293.024c.659-3.125,3.162-2.213,5.506-2.272l-.911,2.258,3.251,2.421c.444-1.966.821-3.637,1.28-5.669.8,1.269,1.766,2.174,1.955,3.22.621,3.424,3.443,5.3,5.159,7.935,1.366,2.1.875,4.342.058,6.514a13.5,13.5,0,0,1-1.711,3.946c-.679.814-2.1,1.022-3.2,1.458-.119.047-.408-.308-.513-.257-2.4,1.147-3.208-.462-3.89-2.311l-1.812.463,1.178-2.89-1.582,1.973c-2.484-3.543-5.167-3.877-8.537-1.648a12.606,12.606,0,0,1-4.735,1.548c-.648.113-1.721-.08-1.273-1.729.348-1.281-.406-2.947-.913-4.355-1.016-2.818-.891-5.849,3.317-6.347a3.682,3.682,0,0,0,2.21-2C944.092,293.4,946.614,292.1,948.358,293.024Z" transform="translate(-736.947 -193.089)" fill="#58a65e"/>
                    <path id="Trazado_152179" data-name="Trazado 152179" d="M638.057,106.842l2.461-2.865-.871-.768c-2.008.965-2.4.864-4.413-1.163-.124-.125-.483-.007-.62-.13-.5-.443-1.43-1.149-1.33-1.379a5.483,5.483,0,0,1,1.689-2.154c.323-.24,1.173.052,1.7.294a23.335,23.335,0,0,1,2.306,1.385l.313-.481-2.6-2.065c7.255-1.986,14.323-4.057,21.814-.779l-3.37,1.08.565.377a41.921,41.921,0,0,0-6.163,3.432c-1.475,1.161-2.428,2.985-4.113,5.161H638.01Z" transform="translate(-582.169 -93.894)" fill="#58a65e"/>
                    <path id="Trazado_152180" data-name="Trazado 152180" d="M609.862,134.457l-1.69.47-3.948-.259-.734.044-2.244-1.683,3.484-.42v-.2c-1.1-.092-2.385.139-3.244-.364a1.9,1.9,0,0,1-.283-2.861l1.7-.837a40.145,40.145,0,0,1,4.469.746c1.239.343,1.32-1.059,2.19-1.154.323-.036.644-.1.778-.115a14.357,14.357,0,0,0,.792,3.19,11.98,11.98,0,0,0,1.991,2.282C612.9,135.547,611.371,134.984,609.862,134.457Z" transform="translate(-565.574 -110.604)" fill="#58a65e"/>
                    <path id="Trazado_152181" data-name="Trazado 152181" d="M975.792,281.508l-3.87-2.646c-1.248,2.859-3,.1-3.983.327-.578-.959-.9-2.185-1.48-2.325a6.885,6.885,0,0,1-4.023-3.144c2.1-1.593,2.208.68,2.984,1.658q.056-.367.111-.735c.96-.007,2.043-.305,2.854.039a24.275,24.275,0,0,1,5.35,2.949c1.019.785,1.537,2.218,2.28,3.36Z" transform="translate(-749.83 -184.638)" fill="#58a65e"/>
                    <path id="Trazado_152182" data-name="Trazado 152182" d="M937.733,263.474c-.3.522-.839,1.124-.721,1.313,1.05,1.674-.647,2.722-.8,4.046-.408,3.582-2.669.445-3.8,1.194-.522-1.085-1.062-2.162-1.538-3.267-.047-.109.267-.431.468-.58a44.16,44.16,0,0,0,3.666-2.707C935.983,262.582,936.751,262.237,937.733,263.474Z" transform="translate(-733.752 -179.29)" fill="#58a65e"/>
                    <path id="Trazado_152183" data-name="Trazado 152183" d="M840.28,292.2c1.616,1.733.3,3.444.081,5.067a17.07,17.07,0,0,1-1.323,4.332,2.253,2.253,0,0,1-1.539,1.131c-.338.047-1.147-.789-1.135-1.212.036-1.335.668-2.7.494-3.98-.225-1.656.363-2.278,1.749-2.921C839.323,294.284,839.663,293.141,840.28,292.2Z" transform="translate(-685.614 -194.332)" fill="#58a65e"/>
                    <path id="Trazado_152184" data-name="Trazado 152184" d="M795.191,107.393l4.173,3.7-2.319.27-1.066-2.38-2.365,3.672c-2.13-1.132-3.345-2.908-4.276-5.5l5.909.264Z" transform="translate(-661.66 -100.075)" fill="#58a65e"/>
                    <path id="Trazado_152185" data-name="Trazado 152185" d="M851.679,127.071l-3.534-1.728c1.912-5.794,6.395-7.656,11.77-8.179l.326.612c-.851.385-1.738.707-2.546,1.168a59.138,59.138,0,0,0-5.685,3.432c-1.688,1.232-1.648,2.785-.014,4.216Z" transform="translate(-691.615 -105.174)" fill="#58a65e"/>
                    <path id="Trazado_152186" data-name="Trazado 152186" d="M969.776,195.605l2.944,1.652-3.468,1.5c.562,1.476.078,5.676-.935,6.077a6.49,6.49,0,0,1-3.475.4l-1.361,1.6c-.182-.513-.292-.827-.465-1.317-.343.949-.637,1.764-1.018,2.817-.885-2.153.118-3.719,2.3-4.12a5.481,5.481,0,0,0,4.269-5.054A13.66,13.66,0,0,1,969.776,195.605Z" transform="translate(-749.444 -145.129)" fill="#58a65e"/>
                    <path id="Trazado_152187" data-name="Trazado 152187" d="M764.346,170.229c-.4-1.837.486-2.918,2.3-3.546l-.574,1.328,1.3.219-.707,1.479a22.88,22.88,0,0,1,2.938,3.7c.445.872-.028,1.948-1.423,2.066-.971.082-1.929.327-3.01.521l1.084-4.35-1.908-1.438Z" transform="translate(-648.882 -130.397)" fill="#58a65e"/>
                    <path id="Trazado_152188" data-name="Trazado 152188" d="M597.948,127.059l-1.7.837c-.354.209-.839.331-1.04.639-1.269,1.951-2.66,2.072-4.235.356.305-1.086.624-2.223,1.01-3.6C593.9,125.577,596.331,124.727,597.948,127.059Z" transform="translate(-560.623 -109.315)" fill="#58a65e"/>
                    <path id="Trazado_152189" data-name="Trazado 152189" d="M746.419,150.846c-1.828.519-3.44,1.369-5,1.284-1.06-.058-2.048-1.427-3.068-2.21q.024-.371.049-.742c.694,0,1.389.017,2.082,0a7.609,7.609,0,0,0,2.776-.185C744.717,148.324,745.383,148.987,746.419,150.846Z" transform="translate(-635.689 -121.256)" fill="#58a65e"/>
                    <path id="Trazado_152190" data-name="Trazado 152190" d="M915.19,266.733c.616.758,1.187,1.559,1.865,2.256a10.422,10.422,0,0,0,1.691,1.125l-.823,2.743c-3.771-1.671-3.662-6.4-7.037-8.141l.388-.576a15.871,15.871,0,0,1,1.862.953c.746.506,1.417,1.122,2.123,1.693Z" transform="translate(-723.573 -180.039)" fill="#58a65e"/>
                    <path id="Trazado_152191" data-name="Trazado 152191" d="M637.874,117.9c.13,1.312,1.364,1.712,3.292,1.382a25.068,25.068,0,0,1,4.027-.04c-.846,1.768-5.521,2.179-9.04,1.118,1.133-3.012-2.054-1.978-3.142-3l.235-.519,4.675,1.115Z" transform="translate(-582.033 -105.01)" fill="#58a65e"/>
                    <path id="Trazado_152192" data-name="Trazado 152192" d="M950.424,252.864l-2.011-1.5,1.848-.862-2.18-1.648.472-.612,1.351,1.135.372-.294-1.778-2.282-1.238,1.639c0-1.911-.02-3.416.023-4.92.006-.213.319-.418,1.072-.537-.055,1.022-.11,2.044-.167,3.1C951.075,247.485,952.281,251.144,950.424,252.864Z" transform="translate(-742.098 -169.264)" fill="#58a65e"/>
                    <path id="Trazado_152193" data-name="Trazado 152193" d="M910.8,106.6l-5.406-1.955a6.342,6.342,0,0,1,1-1.632,3.489,3.489,0,0,1,1.927-.925c.379-.013.8.814,1.177,1.281.219.269.358.608.595.857.465.488.972.935,1.462,1.4Z" transform="translate(-720.774 -97.497)" fill="#58a65e"/>
                    <path id="Trazado_152194" data-name="Trazado 152194" d="M608.292,119.625v-1.984l3.01,2.174c-1.638.553-3.141,1.39-4.688,1.48-1.249.073-2.551-.755-3.829-1.183C603.662,118.582,603.662,118.582,608.292,119.625Z" transform="translate(-566.637 -105.417)" fill="#58a65e"/>
                    <path id="Trazado_152195" data-name="Trazado 152195" d="M1019.39,342.015l-4.174,5.158-1.584-1.107a1.953,1.953,0,0,1,.251-.565c1.272-1.343,2.529-2.7,3.87-3.974.247-.234.85-.092,1.289-.124Z" transform="translate(-775.908 -219.386)" fill="#58a65e"/>
                    <path id="Trazado_152196" data-name="Trazado 152196" d="M626.7,119.683l2.8.8q-.083.375-.166.75a3.8,3.8,0,0,1-1.409.112,29.528,29.528,0,0,1-6.333-2.724l4.543-.407Z" transform="translate(-576.218 -105.709)" fill="#58a65e"/>
                    <path id="Trazado_152197" data-name="Trazado 152197" d="M689.028,183.976l.768-.411c.265.967-.646,2.7,1.648,2.417a11.936,11.936,0,0,1,.9,2.532l-4.731-.982Z" transform="translate(-609.847 -138.996)" fill="#58a65e"/>
                    <path id="Trazado_152198" data-name="Trazado 152198" d="M627.551,126.018c-.34,1.59,2.452,3.658-.859,4.241l-2.776-1.906.128-.347,1.744.134-.831-1.265Z" transform="translate(-577.401 -109.684)" fill="#58a65e"/>
                    <path id="Trazado_152199" data-name="Trazado 152199" d="M947.674,276.255l-1.607-2.317c.082,1.123.139,1.911.2,2.7-1.084-1.266-1.381-3.634-.289-4.91.436-.51,1.618-.383,2.523-.08l-2.476.339.062.618,1.594.164a5.029,5.029,0,0,0-.133,1.468,9.515,9.515,0,0,0,.7,1.721Z" transform="translate(-741.097 -183.725)" fill="#58a65e"/>
                    <path id="Trazado_152200" data-name="Trazado 152200" d="M976.862,121.209a36.093,36.093,0,0,1-4.3.856c-.392.036-.925-.749-1.242-1.253-.062-.1.591-.938.891-.924,1.547.072,3.087.309,4.629.489Q976.853,120.793,976.862,121.209Z" transform="translate(-754.356 -106.561)" fill="#58a65e"/>
                    <path id="Trazado_152201" data-name="Trazado 152201" d="M916.178,255.219a30.243,30.243,0,0,0,1.29,2.892c.8,1.4,1.718,2.732,2.587,4.092l-.49.428-1.758-.443.067.052c-.61-1.566-1.311-3.1-1.782-4.705a6.869,6.869,0,0,1,.129-2.283Z" transform="translate(-726.187 -175.494)" fill="#58a65e"/>
                    <path id="Trazado_152202" data-name="Trazado 152202" d="M800.854,106.43c-1.309-1.136.288-1.218.6-1.216a26.142,26.142,0,0,1,5.138.551c-1.4,1.121-2.756,2.229-4.6.738-.26-.21-.8-.079-1.2-.1C800.8,106.4,800.854,106.43,800.854,106.43Z" transform="translate(-667.267 -99.087)" fill="#58a65e"/>
                    <path id="Trazado_152203" data-name="Trazado 152203" d="M761.82,173.868c.422,3.133.072,3.714-2.542,4.22.3-2.751.3-2.751,2.539-4.186A.069.069,0,0,1,761.82,173.868Z" transform="translate(-646.349 -134.057)" fill="#58a65e"/>
                    <path id="Trazado_152204" data-name="Trazado 152204" d="M648.254,149.181l.474.567,2.854,2.725h-4.94Z" transform="translate(-588.976 -121.482)" fill="#58a65e"/>
                    <path id="Trazado_152205" data-name="Trazado 152205" d="M599.165,114.34c-.938,2.444-2.961,3.3-5.979,2.564Z" transform="translate(-561.748 -103.735)" fill="#58a65e"/>
                    <path id="Trazado_152206" data-name="Trazado 152206" d="M638.169,127.182l-3.519,2.743c0-1.444-.24-2.9.043-3.013a12.284,12.284,0,0,1,3.288-.415Z" transform="translate(-582.819 -109.928)" fill="#58a65e"/>
                    <path id="Trazado_152207" data-name="Trazado 152207" d="M1025.427,338.017c-.07-1.268-.139-2.537-.218-3.985l2.792.809-1.941,3.13Z" transform="translate(-781.805 -215.639)" fill="#58a65e"/>
                    <path id="Trazado_152208" data-name="Trazado 152208" d="M658.1,239.246,651.916,237C653,235.821,653.771,235.978,658.1,239.246Z" transform="translate(-591.663 -165.872)" fill="#58a65e"/>
                    <path id="Trazado_152209" data-name="Trazado 152209" d="M932.92,284.22l-6.594-1.1C927.043,281.92,928.438,282.123,932.92,284.22Z" transform="translate(-731.438 -189.332)" fill="#58a65e"/>
                    <path id="Trazado_152210" data-name="Trazado 152210" d="M618.756,109.465c2.877-.6,4.53.323,5.153,2.651Z" transform="translate(-574.772 -101.162)" fill="#58a65e"/>
                    <path id="Trazado_152211" data-name="Trazado 152211" d="M921.467,110.444l-4.11.685C918.694,108.281,919.05,108.2,921.467,110.444Z" transform="translate(-726.869 -100.947)" fill="#58a65e"/>
                    <path id="Trazado_152212" data-name="Trazado 152212" d="M981.877,341.2c.7.065,1.126.117,1.549.14.342.019.685,0,1.443,0l-1.576,3.021Z" transform="translate(-759.733 -219.292)" fill="#58a65e"/>
                  </g>
                </g>
              </g>
            </g>
          </g>
        </g>
        <g id="DESIGNED_BY_FREEPIK" data-name="DESIGNED BY FREEPIK" transform="translate(592.852 20.309)">
          <circle id="Elipse_4633" data-name="Elipse 4633" cx="74.38" cy="74.38" r="74.38" transform="translate(0)" fill="#fff"/>
          <g id="Grupo_89424" data-name="Grupo 89424" transform="translate(5.707 5.704)">
            <path id="Trazado_152213" data-name="Trazado 152213" d="M837.542,252.048a3.241,3.241,0,0,1-1.763-.519l-14.518-9.416a34.572,34.572,0,0,1-33.214,31.438l-10.955,16.892a.3.3,0,0,0,0,.315l10.664,17.4a68.684,68.684,0,0,0,67.728-66.542l-16.244,9.954A3.23,3.23,0,0,1,837.542,252.048Z" transform="translate(-718.157 -170.808)" fill="#fb0"/>
            <path id="Trazado_152214" data-name="Trazado 152214" d="M827.31,240.289a29.044,29.044,0,0,1-27.674,27.054v2.842a31.885,31.885,0,0,0,30.523-29.9Z" transform="translate(-729.664 -170.131)" fill="#fb0"/>
            <path id="Trazado_152215" data-name="Trazado 152215" d="M827.535,202.237h2.842a31.884,31.884,0,0,0-30.394-30.873v2.842A29.044,29.044,0,0,1,827.535,202.237Z" transform="translate(-729.841 -135.023)" fill="#7ae582"/>
            <path id="Trazado_152216" data-name="Trazado 152216" d="M834,165.212l15.982,10.366a.3.3,0,0,0,.316,0l17.664-10.824.143.234a68.684,68.684,0,0,0-66.318-67.634l9.719,15.823a3.254,3.254,0,0,1-.043,3.458l-9.35,14.418A34.57,34.57,0,0,1,834,165.212Z" transform="translate(-730.761 -97.327)" fill="#7ae582"/>
            <path id="Trazado_152217" data-name="Trazado 152217" d="M762.422,174.206v-2.842a31.884,31.884,0,0,0-30.4,31.094h2.842A29.044,29.044,0,0,1,762.422,174.206Z" transform="translate(-695.224 -135.023)" fill="#29b39d"/>
            <path id="Trazado_152218" data-name="Trazado 152218" d="M724.942,130.93,735.27,115a.3.3,0,0,0,0-.315L724.589,97.295a68.686,68.686,0,0,0-67.542,66.664l15.589-9.826a3.262,3.262,0,0,1,3.473.033l15.056,9.765A34.57,34.57,0,0,1,724.942,130.93Z" transform="translate(-657.034 -97.295)" fill="#29b39d"/>
            <path id="Trazado_152219" data-name="Trazado 152219" d="M735,240.739h-2.85a31.889,31.889,0,0,0,30.166,29.666v-2.85A29.044,29.044,0,0,1,735,240.739Z" transform="translate(-695.29 -170.36)" fill="#7ae582"/>
            <path id="Trazado_152220" data-name="Trazado 152220" d="M691.171,229.01l-16.677-10.816a.3.3,0,0,0-.315,0L657.021,229a68.686,68.686,0,0,0,66.117,67.16l-9.7-15.823a3.253,3.253,0,0,1,.044-3.457l9.948-15.34A34.573,34.573,0,0,1,691.171,229.01Z" transform="translate(-657.021 -158.853)" fill="#3ca8f4"/>
          </g>
          <g id="Grupo_89425" data-name="Grupo 89425" transform="translate(50.611 46.591)">
            <path id="Trazado_152221" data-name="Trazado 152221" d="M754.36,208.485a17.865,17.865,0,0,1,14.8-17.612l.321,4.408,9.012-8.045-10.081-6.606.322,4.408a23.68,23.68,0,0,0-20.189,23.447,24.08,24.08,0,0,0,.142,2.615l5.793-.544A18.227,18.227,0,0,1,754.36,208.485Z" transform="translate(-748.544 -180.63)" fill="#58a65e"/>
            <path id="Trazado_152222" data-name="Trazado 152222" d="M773.707,260.615a17.7,17.7,0,0,1-12.613-5.235q-.581-.582-1.1-1.208l3.651-2.478-11.456-3.808-.682,12.049,3.654-2.481a23.979,23.979,0,0,0,1.821,2.047,23.608,23.608,0,0,0,30.753,2.329l-3.369-4.752A17.682,17.682,0,0,1,773.707,260.615Z" transform="translate(-750.053 -214.888)" fill="#58a65e"/>
            <path id="Trazado_152223" data-name="Trazado 152223" d="M826.08,223.582a23.729,23.729,0,0,0-12.522-30.448l-2.419,5.3a17.929,17.929,0,0,1,9.69,22.6l-3.976-1.93,2.442,11.842,10.753-5.438Z" transform="translate(-780.427 -186.999)" fill="#58a65e"/>
          </g>
        </g>
        <text id="A" transform="translate(625.232 64.551)" fill="#12263f" font-size="16" font-family="Roboto-Bold, Roboto" font-weight="700"><tspan x="0" y="0">A</tspan></text>
        <text id="V" transform="translate(625.232 132.551)" fill="#fff" font-size="16" font-family="Roboto-Bold, Roboto" font-weight="700"><tspan x="0" y="0">V</tspan></text>
        <text id="P" transform="translate(699.232 64.551)" fill="#12263f" font-size="16" font-family="Roboto-Bold, Roboto" font-weight="700"><tspan x="0" y="0">P</tspan></text>
        <text id="H" transform="translate(699.232 132.551)" fill="#12263f" font-size="16" font-family="Roboto-Bold, Roboto" font-weight="700"><tspan x="0" y="0">H</tspan></text>
      </g>
    </g>
  </g>
</svg>
